<svg xmlns="http://www.w3.org/2000/svg" viewBox="0 0 178.69 62.85"><defs><style>.cls-1{fill:#fff;}</style></defs><title>1stCentury</title><g id="Layer_2" data-name="Layer 2"><g id="Layer_1-2" data-name="Layer 1"><path class="cls-1" d="M2.27,2.27,0,3.24V5.38C1.84,4.14,3.68,3,5.56,1.8l-3.28.47"/><path class="cls-1" d="M8.1,25.31q3.24-7,6.46-14l5-11h0l-.26.56c-.45,1-.29.55.19-.56l-1,.07c-2.2,4-4.59,7.91-7.21,11.77,0,0-6.34,9.31-11.06,15.58A44.93,44.93,0,0,0,2.59,36,59.59,59.59,0,0,0,8.1,25.31"/><path class="cls-1" d="M4.54,3.76l-.34.19C2.82,4.8,1.41,5.65,0,6.53v2l.83-.68L8.73,1.39h0l-1,.84c-.79.65-.16.09.94-.83C7.71,2,6.8,2.49,5.89,3c-1.68,1-2.65,1.56-1.49.84l.14-.09"/><path class="cls-1" d="M9.71,7.65c1.57-2,3.18-4,4.48-6.08l.5-.81L13,.93C11.86,2,10.86,2.87,9.89,3.76,7.32,6.13,4.72,8.54,2.15,10.88L0,12.83v6.78q5-5.95,9.71-12"/><path class="cls-1" d="M46.22,19l2.07-.86c.13-.36.26-.72.38-1.08l-1.93.6L46.22,19"/><path class="cls-1" d="M48.73,16.88c.13-.4.26-.81.38-1.22q-1,.41-1.88.87l1.9-.93c.67-2.27,1.19-4.59,1.79-6.69.14-.49.27-1,.4-1.48l-.42.17.42-.18c.5-1.95.9-3.92,1.28-5.9l-.81-.1a160.51,160.51,0,0,1-5,16.2q1-.36,2-.76"/><path class="cls-1" d="M50.38,15.15l-.75.3c-.18.43-.37.87-.56,1.3l.93-.38.38-1.22"/><path class="cls-1" d="M49.89,16.71,49,17q-.24.55-.51,1.1l1.13-.45.3-.93"/><path class="cls-1" d="M11.81,1l-1.62.18C9.08,2.25,8,3,7.06,3.84,4.71,5.77,2.34,7.75,0,9.66v2.26L3.48,8.74,11.87,1l-.87.8c-.81.74-.25.2.81-.79"/><path class="cls-1" d="M27,61a7.06,7.06,0,0,0-1,.14c.56.26,1.12.51,1.7.76,4.21-1.71,9.74-3.77,14.85-5.63l.6-.46-4.92,1.48C36.1,58,27,61,27,61"/><path class="cls-1" d="M30.09,62.85l1.42-.54-1.52.5.11,0"/><path class="cls-1" d="M48.14,51.19C40,53.79,28.78,57.44,28.78,57.44s3.68-.29-.37.43a21.57,21.57,0,0,0-5.09,1.93l1.4.73a209.11,209.11,0,0,1,23-8.91l.42-.43"/><path class="cls-1" d="M40.1,37.69c3.25-1.47,6.6-2.89,9.8-4.28s6.41-2.85,9.71-4.22c.11-.54.21-1,.28-1.47-2.39.9-4.75,1.88-7.07,2.92A82.08,82.08,0,0,0,40.1,37.69"/><path class="cls-1" d="M16.77,1.25l.34-.7-.87.07-.1.15C13.64,4.32,11,7.87,8.05,11.3c0,0-3.93,4.63-8.05,9.27v5s0,.56.19,1.56c4.35-6.29,8.56-12.63,12.54-19,1.42-2.28,2.88-4.55,4-6.88"/><path class="cls-1" d="M55.72,21c-2.76.84-5.51,1.71-8.14,2.79-3.89,1.58-8.68,3-12.15,5.34,7.51-5.06,16.26-8.54,24.75-12V15.33L54.73,16.8a23.67,23.67,0,0,0-4.81,1.11,28.34,28.34,0,0,1-1.33,2.83l.86-2.68-1.17.39c-.36.77-.74,1.54-1.14,2.29a21.2,21.2,0,0,0,1-2.25l-2,.73-.17.42.16-.42c-.93.34-1.71.65-2.24.86-.07.17-.14.33-.2.48l.15-.45-.65.27.67-.31A61.77,61.77,0,0,0,46.55,8.32L48,1,45.75.79c-.42,1.37-.86,2.79-1.31,4.2a60.7,60.7,0,0,1-3.57,10.79,52.34,52.34,0,0,0,1.57-5.08,38,38,0,0,1-2.07,4.61,55.85,55.85,0,0,0,2.84-8.58c0-.37.09-.74.11-1.1q.47-2.49.94-5L43.17.56c-1.24,6.15-2.56,12-3.43,14.11,0,0,1.65-8.13,2.68-14.17L41.33.42C39.85,4.79,35.39,17.74,33.13,21,35.58,14.13,37.85,7.24,39.81.32l-2-.11-.56,1.42C34,9.58,31.07,18,25.93,25.53c2.06-3,3.12-6.87,4.39-10.07C31.78,11.82,32.67,8,33.78,4.35c.43-1.42.88-2.84,1.33-4.26H34.8c-.8,2.34-1.64,4.67-2.49,7A130.28,130.28,0,0,1,24.8,24.56c2.53-4.74,3.46-10.12,5-15Q31.21,4.79,32.64,0L31.57,0c-.23.8-.45,1.6-.68,2.41,0,0-5.73,20.11-9.66,27A59.78,59.78,0,0,0,25,17.92q2.11-7.37,4.2-14.72L30.15,0h-1q-1,3.12-2,6.25s-6.91,21-11.37,28a62.5,62.5,0,0,0,4.51-11.93Q22.82,14.66,25.35,7l2.29-7L26,.06Q24.71,3.48,23.4,6.9S15.88,26.6,11.07,33.28A55.4,55.4,0,0,0,16,22.06L21.49,7.63,24.34.12,23.07.17C20,8.44,12.72,27.64,10.05,31.95c0,0,7.33-18.51,8.14-22.24L21.76.24l-.64,0C19.5,3.82,17.9,7.36,16.27,10.9c0,0-8.78,19-13.68,25.15a44.67,44.67,0,0,0,20,23.35c5.73-3.11,13-6,13-6a69,69,0,0,1,15.81-6.05l.39-.53a43.65,43.65,0,0,1-7.09,1.69S20.38,56,16.38,54.68c0,0,11.66-1.62,15.87-3.86,0,0,11.92-4.28,21.61-7.13q.65-1.06,1.21-2.11l-2.35.71-15.88,4.8a74.74,74.74,0,0,0-12.59,4.34c8.26-4.48,29.93-11,29.94-11l1.75-.53c.53-1.09,1-2.16,1.4-3.19-10.06,2.88-20.4,7.49-31,13.19,4.9-3.64,17.64-9.25,17.64-9.25A123.13,123.13,0,0,1,57.82,35.4l.11-.31-.59.2L42.22,40.43a37.34,37.34,0,0,0-10.85,4.39C35,41,55.63,34,55.64,34l3-1c.11-.35.2-.7.3-1l-1.28.41c-5.74,1.87-11.37,4-16.73,6.13-1.52.61-3,1.24-4.49,1.88-.46.36-.92.72-1.37,1.09.21-.25.48-.54.79-.84q-4.24,1.87-8.22,3.88l.56-.41a69.45,69.45,0,0,1,9.87-5.46c4.14-3.48,10.41-7.89,10.42-7.89a76.4,76.4,0,0,1,11.68-6.46V24l-5.43,1.48c-2.23.85-5.25,1.91-5.25,1.91-5.31,1.72-13,6.31-14.14,7l0,0,0,0-.14.08.18-.13.62-.7C41,28.06,47.94,24.15,55.72,21"/><path class="cls-1" d="M51.81,25.22a52.94,52.94,0,0,1,8.37-3.59V21C50.57,23.88,41.67,27.49,36,33.56l-.62.69a109.58,109.58,0,0,1,12.22-7c-3.39,1-6.15,2.13-6.15,2.13a74.52,74.52,0,0,1,8.06-3.09l2.27-1.11"/><path class="cls-1" d="M59.3,9.84l.88-.4V8L60,8.06c-.23.59-.46,1.18-.69,1.78"/><path class="cls-1" d="M60.18,12.12l-1.84.51L58.2,13l2-.69Z"/><path class="cls-1" d="M56.81,14.77c-1,.17-3.74,1-6.33,1.76l-.36.91c3.19-1.24,6.57-2.42,10-3.53l-3.28.86"/><path class="cls-1" d="M59.07,2.45l-.29,0-.07.25.36-.2"/><path class="cls-1" d="M43.92,20q1.12-.51,2.29-1c.17-.44.32-.88.47-1.33l-1.42.45c.48-.15,1-.31,1.44-.49C48.35,12.61,49,7.12,50,2.07l.17-.82-1-.11c-1.44,6.45-3.44,14.6-5.25,18.9"/><path class="cls-1" d="M49.68,15.34l.75-.35q1.29-4.1,2.53-8.21l-.19.08c-.92,2.86-1.94,5.7-3.1,8.49"/><path class="cls-1" d="M52.8,6.78,53,6.7q.74-2.46,1.45-4.92h-.11q-.74,2.51-1.54,5"/><path class="cls-1" d="M57,4.65l.21-.88-1.69.83.63-.42,1.14-.71.29-1.25-2-.29c-.44,1.36-.91,2.77-1.38,4.18.95-.47,1.89-1,2.83-1.46"/><path class="cls-1" d="M58.3,4l1.88-1V2.63l-.39-.07-1.23.57L58.3,4"/><path class="cls-1" d="M59.39,8.3l-3,1.2c-.31.83-.62,1.58-.91,2.23Q57.21,10.82,59,10c.14-.54.28-1.11.43-1.7"/><path class="cls-1" d="M60.18,10.54,58.87,11c0,.15-.11.3-.16.46l1.47-.57Z"/><path class="cls-1" d="M51.39,14.15c1.25-.8,2.53-1.55,3.84-2.27q.28-1,.56-2.12l-1.34.55c.37-.27.86-.56,1.42-.88.17-.67.34-1.36.51-2.08l-1,.39c.31-.22.67-.44,1.07-.67l.44-1.84L54.14,6.32c-.92,2.73-1.86,5.45-2.75,7.83"/><path class="cls-1" d="M50.66,16.09c2.18-.92,4.35-1.88,6.52-2.67l1-.36.11-.42c-2.41.67-4.84,1.37-7.16,2.23l-.47,1.22"/><path class="cls-1" d="M56.61,9c.86-.46,1.87-1,3-1.49L60,6,57.32,7c-.24.71-.48,1.39-.72,2"/><path class="cls-1" d="M58.69,11.09c-1.14.41-2.32.83-3.47,1.28-.08.17-.17.33-.25.48,0-.14.08-.29.12-.43a27.15,27.15,0,0,0-3.7,1.75l-.17.45c2.49-1.13,4.94-2.16,7.36-3.1,0-.14.07-.29.12-.44"/><path class="cls-1" d="M57.49,6.5c.8-.43,1.7-.87,2.67-1.33l0-.11V4L58,4.79c-.18.58-.37,1.15-.56,1.71"/><path class="cls-1" d="M89.25,11.44c0,1.43,0,2.66.07,3.29.06.44.11.66.57.76a8.59,8.59,0,0,0,.94.09.14.14,0,0,1,.13.11c0,.07-.07.1-.24.1-1.07,0-2,0-2.06,0s-1.27,0-2.19,0c-.16,0-.24,0-.24-.1a.12.12,0,0,1,.11-.11,9.06,9.06,0,0,0,1.14-.1c.47-.09.57-.3.6-.74,0-.63,0-1.86,0-3.29V6.76c0-.29,0-.44-.26-.44A8.45,8.45,0,0,0,86.25,7a.29.29,0,0,1-.17.06S86,7,86,6.94a.22.22,0,0,1,.1-.14l2.76-1.85a.78.78,0,0,1,.34-.17c.11,0,.16.16.16.3s-.06,1.53-.07,3.72Z"/><path class="cls-1" d="M98,15.61c-.17-.09-.19-.13-.19-.46,0-.6.06-1.09.07-1.29s0-.2.1-.2.11,0,.11.14a1.84,1.84,0,0,0,0,.44,1.85,1.85,0,0,0,2,1.2c1.24,0,1.89-.7,1.89-1.62s-.47-1.28-1.59-2.11l-.57-.43c-1.36-1-1.8-1.76-1.8-2.6,0-1.43,1.13-2.29,2.79-2.29a6.12,6.12,0,0,1,1.3.14,1.62,1.62,0,0,0,.44.06c.1,0,.13,0,.13.09s-.06.46-.06,1.29c0,.19,0,.27-.1.27s-.1-.06-.11-.16a2.24,2.24,0,0,0-.19-.6c-.09-.14-.5-.6-1.63-.6-.92,0-1.67.46-1.67,1.31s.39,1.22,1.63,2.06l.36.24c1.53,1,2.06,1.89,2.06,2.93a2.37,2.37,0,0,1-1.17,2.07,3.85,3.85,0,0,1-2,.43A4.62,4.62,0,0,1,98,15.61"/><path class="cls-1" d="M113.58,12.25c0,1.17,0,2.13.06,2.63s.1.59.49.64a4.79,4.79,0,0,0,.57.06.09.09,0,0,1,.1.1c0,.06-.06.1-.2.1-.69,0-1.49,0-1.56,0s-.93,0-1.3,0c-.14,0-.2,0-.2-.1s0-.09.1-.09a1.69,1.69,0,0,0,.37-.06c.26-.06.33-.3.37-.66s.06-1.46.06-2.63V7.15l-1.81,0c-.79,0-1.09.1-1.27.39a1.85,1.85,0,0,0-.2.38c0,.1-.07.12-.13.12a.1.1,0,0,1-.09-.1c0-.13.24-1.21.27-1.32s.09-.23.13-.23a4.16,4.16,0,0,0,.56.14c.36,0,.84.06,1,.06h4.74a6.3,6.3,0,0,0,.9-.06l.36-.06c.06,0,.06.07.06.14,0,.37,0,1.24,0,1.39s-.06.15-.11.15-.09,0-.1-.21V7.85c0-.37-.31-.64-1.52-.67l-1.57,0Z"/><path class="cls-1" d="M87,35.08a5.48,5.48,0,0,1-1.73-4.23,5.7,5.7,0,0,1,1.6-3.9,5.77,5.77,0,0,1,4.36-1.53,12.26,12.26,0,0,1,2.07.17,12.42,12.42,0,0,0,1.46.21c.16,0,.19.07.19.16s0,.29-.07.8,0,1.26,0,1.47,0,.3-.13.3-.11-.1-.11-.3a2,2,0,0,0-.6-1.46A4.75,4.75,0,0,0,91.17,26a4.36,4.36,0,0,0-3.29,1,4.78,4.78,0,0,0-1.29,3.73A5.16,5.16,0,0,0,91.75,36a3.29,3.29,0,0,0,2.49-.72,2.71,2.71,0,0,0,.53-1.2c0-.16.06-.21.14-.21s.1.1.1.21a14.82,14.82,0,0,1-.31,1.83c-.09.27-.11.3-.37.42a8.3,8.3,0,0,1-2.57.33A6.59,6.59,0,0,1,87,35.08"/><path class="cls-1" d="M102.4,30.75c0-1.89,0-2.23,0-2.62s-.1-.61-.51-.67l-.43,0a.12.12,0,0,1-.1-.1c0-.07.06-.1.2-.1.57,0,1.39,0,1.46,0s2.72,0,3,0,.47-.06.57-.07a.81.81,0,0,1,.17-.06s.06.06.06.11-.07.23-.1.57c0,.11,0,.66-.07.8s-.06.13-.11.13-.1-.06-.1-.16a1.32,1.32,0,0,0-.07-.43c-.09-.2-.21-.29-.9-.37-.21,0-1.67,0-1.82,0s-.07,0-.07.13v3.3c0,.09,0,.13.07.13s1.82,0,2.1,0,.49,0,.61-.17.14-.16.19-.16.07,0,.07.1a6.6,6.6,0,0,0-.1.67c0,.24-.06.7-.06.79s0,.23-.12.23-.09,0-.09-.11a1.08,1.08,0,0,0-.06-.4c0-.17-.16-.32-.64-.37s-1.68-.06-1.9-.06a.08.08,0,0,0-.09.09v1c0,.41,0,1.83,0,2.07,0,.82.26,1,1.5,1a4.2,4.2,0,0,0,1.26-.13.92.92,0,0,0,.57-.84c0-.14.06-.19.13-.19s.09.1.09.19a9.74,9.74,0,0,1-.17,1.17c-.09.31-.21.31-.7.31-.94,0-1.67,0-2.19,0s-.86,0-1,0h-.54l-.73,0c-.13,0-.2,0-.2-.1a.1.1,0,0,1,.1-.1,3.69,3.69,0,0,0,.39-.06c.24,0,.27-.29.33-.64a24.83,24.83,0,0,0,.07-2.63Z"/><path class="cls-1" d="M115.09,34.77c0,1,.14,1.3.49,1.39a3,3,0,0,0,.63.07.1.1,0,0,1,.1.1c0,.07-.09.1-.23.1-.72,0-1.22,0-1.33,0s-.64,0-1.22,0c-.13,0-.2,0-.2-.1a.1.1,0,0,1,.1-.1,2,2,0,0,0,.52-.07c.31-.09.36-.41.36-1.52v-7c0-.49.07-.62.17-.62s.36.24.49.37,2,2.14,4,4.14c1.24,1.29,2.59,2.73,3,3.13l-.13-6.09c0-.79-.09-1.06-.47-1.13a4.06,4.06,0,0,0-.62-.06c-.09,0-.1-.07-.1-.12s.1-.09.24-.09c.57,0,1.17,0,1.32,0s.56,0,1.07,0c.13,0,.23,0,.23.09a.14.14,0,0,1-.14.12,1.42,1.42,0,0,0-.3,0c-.42.09-.44.33-.44,1.06l0,7.12c0,.8,0,.87-.1.87s-.26-.1-1-.74c-.13-.11-1.95-1.9-3.27-3.29s-2.87-3-3.26-3.45Z"/><path class="cls-1" d="M133.5,32.9c0,1.17,0,2.13.06,2.63s.1.59.49.64a4.79,4.79,0,0,0,.57.06.09.09,0,0,1,.1.1c0,.06-.06.1-.2.1-.69,0-1.49,0-1.56,0s-.93,0-1.3,0c-.14,0-.2,0-.2-.1s0-.09.1-.09a1.69,1.69,0,0,0,.37-.06c.26-.06.33-.3.37-.66s.06-1.46.06-2.63v-5.1l-1.81,0c-.79,0-1.09.1-1.27.39a1.9,1.9,0,0,0-.2.39c0,.1-.07.12-.13.12a.1.1,0,0,1-.09-.1c0-.13.24-1.21.27-1.32s.09-.23.13-.23a4.16,4.16,0,0,0,.56.14c.36,0,.84.06,1,.06h4.74a6.3,6.3,0,0,0,.9-.06l.36-.06c.06,0,.06.07.06.14,0,.37,0,1.24,0,1.39s-.06.16-.11.16-.09,0-.1-.21v-.13c0-.37-.31-.64-1.52-.67l-1.57,0Z"/><path class="cls-1" d="M143.12,30.75c0-1.89,0-2.23,0-2.62s-.1-.61-.51-.67l-.43,0a.12.12,0,0,1-.1-.1c0-.07.06-.1.2-.1.57,0,1.33,0,1.44,0l1.27,0c.14,0,.21,0,.21.1a.12.12,0,0,1-.11.1,1.5,1.5,0,0,0-.32,0c-.33.06-.4.27-.43.67s0,.73,0,2.62v1.7c0,1.76.39,2.49.93,3a2.46,2.46,0,0,0,1.87.66,2.59,2.59,0,0,0,1.95-.86,4.48,4.48,0,0,0,.71-2.94V30.75c0-1.89,0-2.23,0-2.62s-.09-.61-.5-.67l-.43,0a.11.11,0,0,1-.1-.1c0-.07.06-.1.2-.1.56,0,1.29,0,1.36,0s.69,0,1.06,0c.14,0,.2,0,.2.1a.11.11,0,0,1-.1.1,1.47,1.47,0,0,0-.31,0c-.34.07-.42.27-.44.67s0,.73,0,2.62v1.3c0,1.32-.17,2.79-1.17,3.65a3.8,3.8,0,0,1-2.63.88,3.45,3.45,0,0,1-3.72-4Z"/><path class="cls-1" d="M159.6,31.78a.18.18,0,0,0,.09.16,4.27,4.27,0,0,0,1.39.19,1.64,1.64,0,0,0,.94-.22,2.17,2.17,0,0,0,.76-1.86,2.1,2.1,0,0,0-2.17-2.39,5.5,5.5,0,0,0-.9.07.16.16,0,0,0-.1.14Zm-1.08-1c0-1.89,0-2.23,0-2.62s-.1-.61-.51-.67l-.43,0a.12.12,0,0,1-.1-.1c0-.07.06-.1.2-.1.57,0,1.42,0,1.49,0l1.57,0a4.13,4.13,0,0,1,2.34.53,2.13,2.13,0,0,1,.87,1.66,3.55,3.55,0,0,1-1.54,2.77c1,1.28,1.9,2.39,2.63,3.14a2.38,2.38,0,0,0,1.84.88.11.11,0,0,1,.12.1c0,.07-.07.1-.3.1h-.79a2.54,2.54,0,0,1-1.34-.24,6.4,6.4,0,0,1-1.71-1.79c-.53-.66-1.09-1.44-1.36-1.77a.19.19,0,0,0-.17-.07l-1.6,0c-.06,0-.09,0-.09.1v.29c0,1.17,0,2.12.06,2.62s.12.59.5.64a4.59,4.59,0,0,0,.56.06.09.09,0,0,1,.1.1c0,.06-.06.1-.2.1-.69,0-1.49,0-1.54,0s-.86,0-1.24,0c-.13,0-.2,0-.2-.1a.1.1,0,0,1,.1-.1,1.83,1.83,0,0,0,.39-.06c.24-.06.27-.29.33-.64a24.83,24.83,0,0,0,.07-2.63Z"/><path class="cls-1" d="M173.57,33.27A2.16,2.16,0,0,0,173.3,32c-.1-.19-1.8-2.89-2.23-3.53a3.15,3.15,0,0,0-.83-.88,1.24,1.24,0,0,0-.53-.17.13.13,0,0,1-.13-.11c0-.06,0-.09.16-.09l1.24,0c.08,0,.6,0,1.08,0,.14,0,.17,0,.17.09s-.09.09-.2.13-.16.1-.16.2a1,1,0,0,0,.17.47l2.29,3.79c.26-.52,1.83-3.12,2.06-3.52a1.29,1.29,0,0,0,.21-.63c0-.17-.06-.27-.2-.31s-.19-.09-.19-.14.07-.07.2-.07c.33,0,.77,0,.87,0l1.23,0c.09,0,.16,0,.16.07a.15.15,0,0,1-.16.13,1.29,1.29,0,0,0-.59.16,2.16,2.16,0,0,0-.63.6c-.42.49-2.19,3.34-2.44,3.86a2.42,2.42,0,0,0-.16,1.22v1c0,.2,0,.72,0,1.22s.11.59.49.64a4.79,4.79,0,0,0,.57.06.1.1,0,0,1,.1.1c0,.06-.07.1-.2.1-.7,0-1.52,0-1.59,0s-.86,0-1.23,0c-.14,0-.2,0-.2-.1a.1.1,0,0,1,.1-.1,1.67,1.67,0,0,0,.37-.06c.26-.06.34-.29.37-.64s0-1,0-1.22Z"/><path class="cls-1" d="M88.08,52.24c0,1.1,0,2.88,0,3.09,0,.7,0,.9.49,1.12a3.36,3.36,0,0,0,1.26.21,1.91,1.91,0,0,0,2-2,3.43,3.43,0,0,0-1.39-2.86,2.37,2.37,0,0,0-1.19-.41c-.19,0-.9,0-1.11,0-.06,0-.09,0-.09.1Zm0-1.51c0,.1,0,.13.1.15a5,5,0,0,0,.87.06c.8,0,1,0,1.3-.37a2.21,2.21,0,0,0,.52-1.45c0-1.18-.53-2.46-1.93-2.46a3.22,3.22,0,0,0-.69.07c-.13,0-.17.07-.17.16Zm-1.14-.32c0-2.23,0-2.63,0-3.09s-.14-.71-.62-.81a2.67,2.67,0,0,0-.49,0c-.06,0-.11,0-.11-.09s.07-.11.23-.11c.64,0,1.54,0,1.61,0,.34,0,.9,0,1.56,0,2.34,0,2.86,1.43,2.86,2.14A3.61,3.61,0,0,1,90.61,51a3.34,3.34,0,0,1,2.47,3c0,1.53-1.2,3.11-3.65,3.11l-1,0-.87,0H87l-.83,0c-.16,0-.23,0-.23-.11s0-.09.11-.09a2.2,2.2,0,0,0,.43-.06c.29-.06.36-.37.42-.79.07-.6.07-1.73.07-3.1Z"/><path class="cls-1" d="M103.94,53.18c.06,0,.06,0,0-.09l-1.24-3.33c-.07-.19-.14-.19-.22,0l-1.17,3.33q0,.09,0,.09Zm-1.4-5.06c.16-.4.22-.47.3-.47s.17.17.3.44c.23.51,2.24,5.53,3,7.38.46,1.08.8,1.24,1.07,1.33a1.75,1.75,0,0,0,.5.07c.07,0,.16,0,.16.1s-.14.1-.29.1-1.11,0-2,0c-.24,0-.44,0-.44-.09s0-.06.09-.09a.23.23,0,0,0,.11-.33l-1.13-2.79c0-.06,0-.07-.12-.07h-2.9a.13.13,0,0,0-.13.1l-.71,1.95a2.51,2.51,0,0,0-.19.81c0,.24.21.33.43.33h.11c.1,0,.13,0,.13.1s-.07.1-.18.1c-.3,0-1,0-1.13,0s-.76,0-1.27,0c-.16,0-.24,0-.24-.1a.11.11,0,0,1,.11-.1l.37,0c.57-.07.81-.5,1.06-1.11Z"/><path class="cls-1" d="M114.36,55.41c0,1,.14,1.3.49,1.39a3,3,0,0,0,.63.07.1.1,0,0,1,.1.1c0,.07-.09.1-.23.1-.72,0-1.22,0-1.33,0s-.64,0-1.22,0c-.13,0-.2,0-.2-.1a.1.1,0,0,1,.1-.1,2,2,0,0,0,.51-.07c.32-.09.36-.42.36-1.52v-7c0-.49.07-.61.17-.61s.36.24.49.37,2,2.15,4,4.14c1.24,1.29,2.59,2.73,3,3.13l-.13-6.09c0-.79-.09-1.06-.47-1.13a3.86,3.86,0,0,0-.62-.06c-.09,0-.1-.07-.1-.11s.1-.09.24-.09c.57,0,1.17,0,1.32,0s.56,0,1.07,0c.13,0,.23,0,.23.09a.14.14,0,0,1-.14.11,1.42,1.42,0,0,0-.3,0c-.42.09-.44.33-.44,1.06l0,7.12c0,.8,0,.87-.1.87s-.26-.1-1-.74c-.13-.11-1.95-1.9-3.27-3.28s-2.87-3-3.26-3.45Z"/><path class="cls-1" d="M129.74,51.4c0-1.89,0-2.23,0-2.62s-.1-.61-.51-.67l-.43,0a.12.12,0,0,1-.1-.1c0-.07.06-.1.2-.1.57,0,1.34,0,1.41,0l1.24,0c.14,0,.2,0,.2.1a.11.11,0,0,1-.1.1,1.47,1.47,0,0,0-.31,0c-.33.07-.41.24-.44.67s0,.73,0,2.62v.73h.06c.2-.23,2.44-2.44,2.91-2.93s.69-.67.69-.87-.06-.23-.16-.24a.13.13,0,0,1-.11-.11c0-.06.06-.09.14-.09l.94,0,1.22,0c.13,0,.19,0,.19.09s0,.1-.13.1a2.07,2.07,0,0,0-.7.17,4.38,4.38,0,0,0-1.32,1c-.31.29-2.46,2.34-2.73,2.64.33.35,2.94,3,3.46,3.44,1.06.94,1.2,1.1,1.8,1.34a2.69,2.69,0,0,0,.77.17c.09,0,.16,0,.16.1s-.06.1-.27.1h-.64a8.21,8.21,0,0,1-.87,0,2.67,2.67,0,0,1-1.53-.74c-.57-.44-3.22-3.23-3.82-3.95h-.06v1.19c0,1.17,0,2.13.06,2.63s.1.59.49.64a3.64,3.64,0,0,0,.49.06.1.1,0,0,1,.1.1c0,.06-.06.1-.2.1-.61,0-1.37,0-1.47,0s-.86,0-1.24,0c-.13,0-.2,0-.2-.1a.1.1,0,0,1,.1-.1,1.81,1.81,0,0,0,.39-.06c.24-.06.27-.29.33-.64a24.83,24.83,0,0,0,.07-2.63Z"/></g></g></svg>