<svg xmlns="http://www.w3.org/2000/svg" viewBox="0 0 127.81 31.95"><defs><style>.cls-1{fill:#fff;}</style></defs><title>1stdibs</title><g id="Layer_2" data-name="Layer 2"><g id="Layer_1-2" data-name="Layer 1"><path class="cls-1" d="M20.07,0l-7.8,25.82a16.91,16.91,0,0,0-.64,2.56A2.06,2.06,0,0,0,12,29.53a2.4,2.4,0,0,0,.89.77,11,11,0,0,0,2.94.26l-.26.77H0l.26-.77a10.15,10.15,0,0,0,3.32-.38A3.49,3.49,0,0,0,5.11,29a12.1,12.1,0,0,0,1.28-3.2l4.47-15.34C11.63,8.18,12,6.9,12,6.77a3.18,3.18,0,0,0,.13-1,2,2,0,0,0-.64-1.66,2.5,2.5,0,0,0-1.79-.51,19.5,19.5,0,0,0-2.3.13l-.13-.89L19,0Z"/><path class="cls-1" d="M36.43,10.35l-1,7h-.89a6.34,6.34,0,0,0-1.66-4.22,4.45,4.45,0,0,0-3.2-1.53,3.05,3.05,0,0,0-1.79.64,1.63,1.63,0,0,0-.64,1.41,5.44,5.44,0,0,0,.26,1.41,9.68,9.68,0,0,0,1.28,1.66A34.48,34.48,0,0,1,33.1,22a6.81,6.81,0,0,1,.77,3.07A6.19,6.19,0,0,1,33,28.37a7.38,7.38,0,0,1-2.68,2.56,8.06,8.06,0,0,1-3.83.89,11.7,11.7,0,0,1-3.32-.51,8.12,8.12,0,0,0-1.92-.38,1.9,1.9,0,0,0-.89.13,3.39,3.39,0,0,0-.77.64h-.89l1.15-7.54h.77a15.91,15.91,0,0,0,1.53,4A6.85,6.85,0,0,0,24,30a3.94,3.94,0,0,0,2.3.64,2.7,2.7,0,0,0,2-.77A2.6,2.6,0,0,0,29.14,28a3.75,3.75,0,0,0-.51-2,21.56,21.56,0,0,0-2.43-3.07,31.2,31.2,0,0,1-3.58-4.47A5.82,5.82,0,0,1,22,15.85a5.51,5.51,0,0,1,1.79-4.09,7,7,0,0,1,5.11-1.66,12.51,12.51,0,0,1,3.45.51,10.63,10.63,0,0,0,1.66.26,1.6,1.6,0,0,0,1.41-.77h1Z"/><path class="cls-1" d="M51.13,4.86,49.21,11h2.56L51,13.55H48.44L44.22,26.84a6.31,6.31,0,0,0-.38,1.92c0,.13.13.26.26.38s.26.13.51.13a1.82,1.82,0,0,0,.77-.26A11.49,11.49,0,0,0,47.8,26.2l.77.51a10.73,10.73,0,0,1-3.45,4A6.49,6.49,0,0,1,41.41,32,3.69,3.69,0,0,1,39,31.19a2.72,2.72,0,0,1-.89-1.92,12.49,12.49,0,0,1,.64-3.32l4-12.27H39.62L40,12a28.64,28.64,0,0,0,4.86-2.43,25.52,25.52,0,0,0,5-4.6h1.28Z"/><path class="cls-1" d="M76.18,0l-7.8,25.31a21,21,0,0,0-.64,2.81.45.45,0,0,0,.51.51,1.7,1.7,0,0,0,.89-.38,11,11,0,0,0,2-2.43l.77.38c-2.17,3.71-4.47,5.62-7.16,5.62a3,3,0,0,1-2.17-.77,2.32,2.32,0,0,1-.77-1.79,13,13,0,0,1,.64-3.07l.77-2.3a25,25,0,0,1-5,6.65,5.67,5.67,0,0,1-3.07,1.28,3.82,3.82,0,0,1-2.94-1.41,5.5,5.5,0,0,1-1.15-3.83,15.32,15.32,0,0,1,1.53-6.65,21.49,21.49,0,0,1,3.58-5.5,11.55,11.55,0,0,1,3.83-3.07,7.43,7.43,0,0,1,3.58-.89,3.54,3.54,0,0,1,1.66.38A7.45,7.45,0,0,1,67,12.27l1.79-5.62a9.18,9.18,0,0,0,.64-3.07,1,1,0,0,0-.51-.89,1.91,1.91,0,0,0-1.28-.38,2.5,2.5,0,0,0-.89.13L67,1.53,74.77,0ZM66,14.32a3.24,3.24,0,0,0-.51-2,1.77,1.77,0,0,0-1.28-.64,2.75,2.75,0,0,0-1.66.77c-1.15,1-2.3,2.94-3.45,5.88a21.25,21.25,0,0,0-1.79,7.41,2.9,2.9,0,0,0,.38,1.66,1,1,0,0,0,.89.51,2.47,2.47,0,0,0,1.66-.77,17.84,17.84,0,0,0,4-5.88A21,21,0,0,0,66,14.32Z"/><path class="cls-1" d="M84.36,0a3.49,3.49,0,0,1,2.43,1,3.2,3.2,0,0,1,1,2.3,3.2,3.2,0,0,1-1,2.3,2.86,2.86,0,0,1-2.43,1,3.74,3.74,0,0,1-2.43-1,3.2,3.2,0,0,1-1-2.3,3.2,3.2,0,0,1,1-2.3A3.74,3.74,0,0,1,84.36,0Zm1.92,10.35-5.11,16a8.9,8.9,0,0,0-.38,1.79,1,1,0,0,0,.26.51c.13.13.26.26.38.26a1.1,1.1,0,0,0,.77-.38,15.54,15.54,0,0,0,2.43-3.2l.77.51C83.08,29.91,80.52,32,78,32a3.69,3.69,0,0,1-2.43-.77,2.54,2.54,0,0,1-.89-2A8.62,8.62,0,0,1,75,27L78.61,16.1a6.84,6.84,0,0,0,.51-2.3,1,1,0,0,0-.51-.89,1.91,1.91,0,0,0-1.28-.38h-.89l.26-.89,8.05-1.28Z"/><path class="cls-1" d="M102.25,0,98.16,13.55A11.69,11.69,0,0,1,101.1,11a5.82,5.82,0,0,1,2.56-.64,4.48,4.48,0,0,1,4,1.92,7.65,7.65,0,0,1,1.28,4.47,15.48,15.48,0,0,1-4.35,10.86,11.88,11.88,0,0,1-8.95,4.22,17.17,17.17,0,0,1-7.8-2.17L95,5.88a8.1,8.1,0,0,0,.51-2.43A1,1,0,0,0,95,2.56a2.6,2.6,0,0,0-2-.38l.26-.89L100.85,0ZM93.3,30a2.89,2.89,0,0,0,1.92.64,3.08,3.08,0,0,0,1.92-.51,9.5,9.5,0,0,0,2.68-2.81,21.43,21.43,0,0,0,2.3-4.86,17.79,17.79,0,0,0,.89-5.62,4.23,4.23,0,0,0-.64-2.43,2.44,2.44,0,0,0-1.53-.89,3,3,0,0,0-2.56,1.53,16,16,0,0,0-1.66,4.35Z"/><path class="cls-1" d="M127.81,10.35l-1,7h-.89a6.34,6.34,0,0,0-1.66-4.22,4.45,4.45,0,0,0-3.2-1.53,3.05,3.05,0,0,0-1.79.64,1.63,1.63,0,0,0-.64,1.41,5.44,5.44,0,0,0,.26,1.41,9.68,9.68,0,0,0,1.28,1.66A34.48,34.48,0,0,1,124.49,22a6.81,6.81,0,0,1,.77,3.07,6.19,6.19,0,0,1-.89,3.32,7.38,7.38,0,0,1-2.68,2.56,8.06,8.06,0,0,1-3.83.89,11.7,11.7,0,0,1-3.32-.51,8.12,8.12,0,0,0-1.92-.38,1.9,1.9,0,0,0-.89.13,3.39,3.39,0,0,0-.77.64H110l1.15-7.54H112a15.91,15.91,0,0,0,1.53,4A6.85,6.85,0,0,0,115.42,30a3.94,3.94,0,0,0,2.3.64,2.7,2.7,0,0,0,2-.77,2.6,2.6,0,0,0,.77-1.92,3.75,3.75,0,0,0-.51-2,21.56,21.56,0,0,0-2.43-3.07A31.2,31.2,0,0,1,114,18.41a5.82,5.82,0,0,1-.64-2.56,5.51,5.51,0,0,1,1.79-4.09,7,7,0,0,1,5.11-1.66,12.51,12.51,0,0,1,3.45.51,10.63,10.63,0,0,0,1.66.26,1.6,1.6,0,0,0,1.41-.77h1Z"/></g></g></svg>