<svg xmlns="http://www.w3.org/2000/svg" viewBox="0 0 116.53 117"><defs><style>.cls-1{fill:#fff;fill-rule:evenodd;}</style></defs><title>abc</title><g id="Layer_2" data-name="Layer 2"><g id="Layer_1-2" data-name="Layer 1"><path class="cls-1" d="M58.27,0a58.5,58.5,0,1,0,58.27,58.5A58.38,58.38,0,0,0,58.27,0ZM29.65,75.45V70.61h0c-2.45,2.79-5.25,4.65-9.36,4.63a17.7,17.7,0,0,1,0-35.4c9.74,0,18.21,7.86,18.21,17.64h0V75.39l-8.86.06Zm29.06.28C49,75.73,40.5,67.86,40.5,58.09h0V28.3h8.84V44.95h0c2.45-2.79,5.25-4.65,9.36-4.63a17.7,17.7,0,0,1,0,35.4Zm37.91-.42a17.7,17.7,0,0,1,0-35.4A17.85,17.85,0,0,1,113.9,54.17h0l-8.87,0h0a8.93,8.93,0,1,0,0,7.19h0l8.86,0h0a17.61,17.61,0,0,1-17.32,14Z"/><path class="cls-1" d="M58.48,48.57a9,9,0,1,0,8.95,9,9,9,0,0,0-8.95-9Z"/><path class="cls-1" d="M20.4,48.57a9,9,0,1,0,8.95,9,9,9,0,0,0-8.95-9Z"/></g></g></svg>