<svg xmlns="http://www.w3.org/2000/svg" viewBox="0 0 109.12 109.12"><defs><style>.cls-1{fill:#fff;}</style></defs><title>AChotels</title><g id="Layer_2" data-name="Layer 2"><g id="Layer_1-2" data-name="Layer 1"><path class="cls-1" d="M54.68,107.59h52c.9,0,.9,0,.9-.88V89c0-.14,0-.31,0-.42a.9.9,0,0,0-.42-.42,3.47,3.47,0,0,0-.85,0H2.6a2.47,2.47,0,0,1-.3,0c-.44-.06-.6.11-.6.57q0,9.15,0,18.31s0,.1,0,.12a1.67,1.67,0,0,0,.43.42,1.37,1.37,0,0,0,.54,0h52m52.91-21.12v-84c0-.81,0-.81-.78-.81H2.43c-.59,0-.74.17-.74.75q0,41.67,0,83.35v.69ZM0,0H109.12V109.12H0Z"/><path class="cls-1" d="M93,25.56l-2.83,1.77c-.13-.18-.24-.32-.33-.47A14.68,14.68,0,0,0,79.59,19.5c-5.33-1-10.34-.27-14.72,3.16a14.21,14.21,0,0,0-5.25,8.6,15.51,15.51,0,0,0,2.65,13,14.93,14.93,0,0,0,9.26,5.73,19.39,19.39,0,0,0,10.22-.54,16.06,16.06,0,0,0,8.4-6.63c.81-1.22.81-1.22,2.12-.59L94,43c-.1.2-.18.37-.27.54a19.37,19.37,0,0,1-12.57,9.32,25.31,25.31,0,0,1-8.84.41,19.53,19.53,0,0,1-7.79-2.44A17.69,17.69,0,0,1,56.23,40a18.64,18.64,0,0,1,.84-13,17.64,17.64,0,0,1,10-9.49A21.91,21.91,0,0,1,86.2,18.68,17.51,17.51,0,0,1,93,25.56"/><path class="cls-1" d="M44.82,40.49,34.67,20.2,24.73,40.49Zm9.64,12.06c-1.19,0-2.32,0-3.44,0-.16,0-.37-.28-.46-.47-1.32-2.65-2.65-5.31-3.93-8a1.12,1.12,0,0,0-1.2-.73q-10.69,0-21.39,0A1,1,0,0,0,23,44c-1.31,2.71-2.65,5.39-4,8.09a.73.73,0,0,1-.78.5c-1,0-1.92,0-3,0,.3-.63.54-1.16.8-1.68l8.41-17.1q3.95-8,7.87-16.09A1,1,0,0,1,33.45,17c.87.06,1.74,0,2.6,0a.75.75,0,0,1,.8.47q3.42,6.85,6.86,13.68l10.6,21c0,.08.07.17.14.35"/><path class="cls-1" d="M39,66.71a3.58,3.58,0,0,0-3.86-3.78,3.75,3.75,0,1,0-.1,7.5c2.44,0,4-1.42,4-3.73m-3.79,4.9a5.45,5.45,0,0,1-4.66-1.91,5,5,0,0,1,2.48-7.75,6.92,6.92,0,0,1,5.61.64,5,5,0,0,1-3.43,9"/><path class="cls-1" d="M66.92,67.16H61.55c-1.18,0-1.18,0-1.18,1.18V70h.79c2.08,0,4.16,0,6.24,0,.61,0,.62.28.62.73s0,.69-.6.69c-2.64,0-5.29,0-7.93,0-.16,0-.32,0-.51,0V62H67.6v1.2H60.39v2.56c.18,0,.38.06.58.06h5.15c.88,0,.88,0,.85.9,0,.12,0,.24-.05.44"/><path class="cls-1" d="M23.25,67.11H19.59c-.67,0-1.34,0-2,0-.44,0-.6.11-.59.58,0,1,0,2.1,0,3.15,0,.49-.16.65-.63.61-.32,0-.64,0-1,0V61.93a10.45,10.45,0,0,1,1.33,0c.13,0,.31.28.32.44,0,.95,0,1.9,0,2.85,0,.46.15.59.59.58,1.68,0,3.35,0,5,0,.52,0,.71-.12.69-.67,0-1,0-2.09,0-3.17h1.61c0,.18,0,.36,0,.53,0,2.75,0,5.49,0,8.24,0,.53-.13.74-.67.67a8.79,8.79,0,0,0-1,0Z"/><path class="cls-1" d="M85,68.19,86.46,68a2.21,2.21,0,0,0,1.39,2,4.69,4.69,0,0,0,3.48,0,1.49,1.49,0,0,0,1-1.48c0-.75-.58-1.06-1.16-1.22-1.2-.33-2.43-.58-3.64-.84-1.58-.34-2-1.16-2.1-2A2.56,2.56,0,0,1,87.39,62a6.5,6.5,0,0,1,4.44.13,3,3,0,0,1,1.9,2.57c-.46,0-.87,0-1.28,0-.08,0-.2-.14-.22-.24a2,2,0,0,0-1.9-1.53,3.67,3.67,0,0,0-2.59.29,1.35,1.35,0,0,0-.64.9,1.27,1.27,0,0,0,.6,1,20.58,20.58,0,0,0,2.59.77c.72.19,1.46.3,2.16.56a2.05,2.05,0,0,1,1.46,1.89,2.41,2.41,0,0,1-1.27,2.49,6.69,6.69,0,0,1-6.22,0A2.88,2.88,0,0,1,85,68.19"/><path class="cls-1" d="M45.41,63.21V62h8.85v1.17H50.77c0,.3,0,.53,0,.76,0,2.28,0,4.56,0,6.85,0,.55-.16.74-.69.66a1,1,0,0,0-.3,0c-.49.07-.66-.11-.65-.63,0-2.32,0-4.64,0-7,0-.51-.16-.66-.66-.64-1,0-2,0-3,0"/><path class="cls-1" d="M72.68,62h1.48v.75q0,3.18,0,6.36c0,1.1-.09,1,1,1h5c.07.09.11.12.11.15.14,1.19.14,1.19-1.06,1.19H72.68Z"/><path class="cls-1" d="M41.83,95.8v1.7a.2.2,0,0,0,0,.06c.06.16.08.38.19.47a2.09,2.09,0,0,0,2-.24A2.76,2.76,0,0,0,43.78,94a3.82,3.82,0,0,0-1.52-.42c-.31-.05-.45.17-.44.5,0,.56,0,1.13,0,1.69m10.88,2.36c.94,0,1.5-.33,1.67-1.23a5.1,5.1,0,0,0,0-1.84,2,2,0,0,0-1.94-1.53c-.61,0-.78.15-.78.78,0,.93,0,1.86,0,2.79s.1,1,1,1M49,93h1c1.31,0,2.62,0,3.92.08a2.36,2.36,0,0,1,1.7,3.8,6,6,0,0,1-1,1.09c-.24.23-.29.38-.07.65.81,1,1.58,1.94,2.39,2.89a2.78,2.78,0,0,0,2.05,1.14c.67,0,.92-.16.93-.81,0-2.5.06-5,.08-7.51,0-.67-.18-1.22-1.14-1.12l.15-.2h3.51a.54.54,0,0,1,0,.11c-.82.13-.89.72-.88,1.39,0,2.22,0,4.44,0,6.66,0,.2,0,.4,0,.6a.77.77,0,0,0,.84.87.51.51,0,0,1,.39.21c-.18,0-.37,0-.55,0-1.47,0-2.94,0-4.41,0a3.11,3.11,0,0,1-2.87-1.34c-.54-.76-1.09-1.5-1.64-2.25a1.5,1.5,0,0,0-1.6-.49.48.48,0,0,0-.21.37c0,.85,0,1.69.07,2.54,0,.58.27.91.88.91.09,0,.18,0,.28.2a4.16,4.16,0,0,1-.48.05c-1.49,0-3,0-4.46,0a3,3,0,0,1-2.7-1.3,20,20,0,0,1-1.42-2,1.55,1.55,0,0,0-1.95-.8c0,1.07,0,2.15,0,3.22,0,.18.31.37.52.5s.37.1.54.26H39.33c1-.16.89-.93.9-1.6,0-2.3,0-4.61,0-6.91,0-.9,0-.93-1-1.14A1.88,1.88,0,0,1,39,93l.52,0c1.07,0,2.14,0,3.2,0a8,8,0,0,1,2.24.36A2.19,2.19,0,0,1,46,96.26a8.82,8.82,0,0,1-1.12,1.63,2.21,2.21,0,0,1-.51.35c1.1,1.3,2.09,2.49,3.12,3.65a2.31,2.31,0,0,0,1.73.76c.45,0,.8-.12.85-.64s.11-1,.11-1.45c0-2,0-3.92,0-5.88,0-1.25,0-1.25-1.14-1.69"/><path class="cls-1" d="M34.35,98.75l-1.19-3.27-.15,0-1.2,3.24Zm-.79-6.07c.22.51.44,1,.65,1.52.91,2.26,1.8,4.53,2.72,6.78.53,1.29.64,1.37,1.83,1.84h-3c-.27-.8-.48-1.51-.74-2.21-.53-1.39-.2-1.18-1.67-1.19-1.82,0-1.82,0-2.48,1.69-.06.15-.12.3-.17.45-.26.76-.16,1,.59,1.23H25.76l-.83-6.4-.16,0-3.16,6.51h-.25l-3.14-6.34H18.1c-.06.42-.12.85-.17,1.27-.16,1.28-.29,2.57-.49,3.84-.1.65.11,1,.76,1a.31.31,0,0,1,.24.19H15.31c1.63-.57,1.17-1.94,1.37-3,.44-2.23.72-4.5,1.06-6.75,0-.13.08-.26.18-.6a7.65,7.65,0,0,1,.51.76Q20,96.5,21.55,99.72c.1.2.2.38.37.71l3.72-7.76.25.06c.09.46.21.92.27,1.38.37,2.45.72,4.91,1.08,7.36.08.54.21,1,.89,1.11s1.13,0,1.45-.78c.83-2,1.61-4,2.41-5.93.33-.82.65-1.65,1-2.47.1-.23.24-.45.36-.67l.23,0"/><path class="cls-1" d="M73.39,98.2A16,16,0,0,0,73,96.08a3.61,3.61,0,0,0-4-2.62,2.91,2.91,0,0,0-2.54,2.61,5.5,5.5,0,0,0,1.36,5.37c1.43,1.4,4.5,1.57,5.31-1.38.15-.56.2-1.15.32-1.86m1.75-.52a5.18,5.18,0,0,1-5.39,5.38A5,5,0,0,1,64.43,98c0-2.75,1.71-5.18,5.41-5.19,3.26,0,5.27,1.77,5.31,4.91"/><path class="cls-1" d="M84.57,94.78c-.21-1-1-1-1.67-1a4.1,4.1,0,0,0-.42,0c-1.31,0-1.31,0-1.31,1.31,0,2,0,4,0,6,0,1.36,0,1.36,1.25,1.79H78.61c.93-.21.9-1,.91-1.63,0-2.3,0-4.6,0-6.9,0-.48-.15-.66-.62-.61s-.81,0-1.21.05c-.69.06-1.48,0-1.74,1a2.9,2.9,0,0,1,.17-1.7h8.43Z"/><path class="cls-1" d="M91.73,102.84H87.9c.92-.19.91-.88.91-1.56,0-2.32,0-4.64,0-7,0-.51-.16-.7-.65-.62a5.35,5.35,0,0,1-.6,0c-.87,0-1.84-.18-2.31,1l-.16-.12.31-1.65H93.9v1.79c-.32-1-1.13-.94-1.86-1-.5,0-1.22-.18-1.44.07s-.14,1-.14,1.5c0,1.94,0,3.88,0,5.81,0,1.19.07,1.26,1.25,1.71"/></g></g></svg>