<svg xmlns="http://www.w3.org/2000/svg" xmlns:xlink="http://www.w3.org/1999/xlink" viewBox="0 0 156.74 155.21"><defs><style>.cls-1{fill:#fff;}.cls-2{clip-path:url(#clip-path);}</style><clipPath id="clip-path"><path class="cls-1" d="M43.91,108.36c1.47-1.25,19.2-15.18,19.2-15.18,1.45-.95,2.9-.71,4.58-.14l43.25,18-68.95.1a6.38,6.38,0,0,1,1.92-2.8M76.57,48.91,65.52,85.69c-.68,2.31-1,3.44-2.75,4.84l-18.28,14.3ZM68.65,90.25a2.66,2.66,0,0,1-1.54-3.19L79,47.23l35.77,62Zm7-49.95L34.33,111.87a3.1,3.1,0,0,0-.05,3.15,3.13,3.13,0,0,0,2.78,1.52h82.64a3,3,0,0,0,2.73-4.66L81.1,40.31a3.09,3.09,0,0,0-5.45,0"/></clipPath></defs><title>adonit</title><g id="Layer_2" data-name="Layer 2"><g id="Layer_1-2" data-name="Layer 1"><path class="cls-1" d="M43.91,108.36c1.47-1.25,19.2-15.18,19.2-15.18,1.45-.95,2.9-.71,4.58-.14l43.25,18-68.95.1a6.38,6.38,0,0,1,1.92-2.8M76.57,48.91,65.52,85.69c-.68,2.31-1,3.44-2.75,4.84l-18.28,14.3ZM68.65,90.25a2.66,2.66,0,0,1-1.54-3.19L79,47.23l35.77,62Zm7-49.95L34.33,111.87a3.1,3.1,0,0,0-.05,3.15,3.13,3.13,0,0,0,2.78,1.52h82.64a3,3,0,0,0,2.73-4.66L81.1,40.31a3.09,3.09,0,0,0-5.45,0"/><g class="cls-2"><rect class="cls-1" x="20.23" y="21.56" width="116.28" height="112.09" transform="translate(-28.3 49.58) rotate(-30)"/></g><path class="cls-1" d="M41.67,135.94h0a8.69,8.69,0,0,0-13.57-1.67,8.84,8.84,0,0,0,0,12.34,8.56,8.56,0,0,0,6.12,2.53h0a8.59,8.59,0,0,0,4.3-1.1,8.49,8.49,0,0,0,1.32-.95v1.77h3.08v-7.12a16.31,16.31,0,0,0-.25-3.3,7.8,7.8,0,0,0-1-2.49m-3.52,8.54a5.48,5.48,0,0,1-7.84,0,5.72,5.72,0,0,1,0-8,5.62,5.62,0,0,1,7.83,8.06M61,133.78a8.26,8.26,0,0,0-1.32-.94,8.78,8.78,0,0,0-10.42,1.42,8.84,8.84,0,0,0,0,12.34,8.68,8.68,0,0,0,13.57-1.67,7.76,7.76,0,0,0,1-2.49,16.19,16.19,0,0,0,.25-3.3V123.78H61Zm-1.69,10.68a5.55,5.55,0,0,1-3.91,1.66,5.47,5.47,0,0,1-3.92-1.68,5.75,5.75,0,0,1-1.65-4,5.57,5.57,0,1,1,9.48,4m17.3-12.73a8.6,8.6,0,0,0-6.13,2.55A8.73,8.73,0,0,0,68,140.45a8.63,8.63,0,0,0,8.51,8.68h0a8.82,8.82,0,0,0,6.22-2.5,8.53,8.53,0,0,0,2.56-6.14h0a8.8,8.8,0,0,0-2.5-6.21,8.57,8.57,0,0,0-6.14-2.54m-.1,14.39a5.31,5.31,0,0,1-3.79-1.68,5.74,5.74,0,0,1,0-8,5.39,5.39,0,0,1,7.8,0,5.82,5.82,0,0,1,1.63,4.07,5.64,5.64,0,0,1-5.64,5.63m35.83,2.73h3.08V132.08h-3.08Zm1.53-22.17a1.87,1.87,0,0,0-1.32,3.19,1.87,1.87,0,0,0,1.32.54h0a1.87,1.87,0,1,0,0-3.74m14.57,8.41v-3h-4.15V126.9h-3.08v15a11.15,11.15,0,0,0,.33,3.07,5.23,5.23,0,0,0,1.25,2.21,5.07,5.07,0,0,0,2,1.32,7.78,7.78,0,0,0,2.63.39h1v-3l-1,0a5.44,5.44,0,0,1-1.64-.26,1.82,1.82,0,0,1-1.13-1,7,7,0,0,1-.41-2.78v-6.67Zm-30.35-3.6a8.65,8.65,0,0,0-8.64,8.64v8.71h3v-8.71a5.59,5.59,0,0,1,11.18,0v8.71h3v-8.71a8.65,8.65,0,0,0-8.64-8.64"/></g></g></svg>