<?xml version="1.0" encoding="utf-8"?>
<!-- Generator: Adobe Illustrator 20.1.0, SVG Export Plug-In . SVG Version: 6.00 Build 0)  -->
<svg version="1.1" id="Layer_1" xmlns="http://www.w3.org/2000/svg" xmlns:xlink="http://www.w3.org/1999/xlink" x="0px" y="0px"
	 viewBox="0 0 116 116" style="enable-background:new 0 0 116 116;" xml:space="preserve">
<style type="text/css">
	.st0{fill:#fff;}
</style>
<g>
	<path class="st0" d="M101.8,49.9c-0.3,0.3-7.5,8-7.9,8.5c-0.4,0.4-0.4,1,0.6,1c0,0,5.9,0,6.9,0c1,0,1.2-0.3,1.2-0.9
		c0-0.4,0.1-7.6,0.1-8.4C102.7,49.4,102.3,49.4,101.8,49.9z"/>
	<path class="st0" d="M17.3,59.5c0,0,5.9,0,6.9,0c1,0,1.2-0.3,1.2-0.9c0-0.4,0.1-7.6,0.1-8.4c0-0.8-0.5-0.8-1-0.2
		c-0.3,0.3-7.5,8-7.9,8.5C16.3,58.9,16.3,59.4,17.3,59.5z"/>
	<path class="st0" d="M0,0v72.6c0.1,0,0.1,0,0.1,0c0.1,0,1.9-0.6,2.8-1.3C3.4,70.9,28.6,43.5,29,43c0.1-0.1,0.3-0.1,0.3,0
		c0.1,0.2-0.3,26.3-0.3,26.7c0,0.4,0.1,1,0.8,1.3c0.7,0.3,3.2,1.4,3.5,1.5c0.1,0.1,0.1,0.2-0.2,0.2H19.1c0,0-0.2,0-0.1-0.1
		c0.2-0.1,4.7-1.5,5.1-1.7c0.7-0.2,0.9-0.4,0.9-1.5c0-1.1,0.3-7.2,0.3-7.5c0-0.4,0.1-1.1-0.9-1.2c-0.5,0-2-0.2-3.6-0.2
		c-1.9-0.1-3.9,0-4.3,0c-1.1,0-1.3,0.1-2,0.5C14,61.5,7.3,69.9,7,70.3c-0.3,0.4-0.2,0.8,0.5,1c0.7,0.2,5,1.1,6,1.3
		c0.2,0,0.1,0.2-0.1,0.2H0.2c0,0-0.1,0-0.2,0V116h116l0-116H0z M49.3,45.5c-0.7,0.3-0.9,0.7-1.1,1.2c-0.1,0.4-5.5,22.9-5.5,23.3
		c-0.1,0.5-0.1,0.9,0.4,1.2c0.6,0.3,3.7,1.3,3.9,1.4c0.2,0.1,0.2,0.3-0.1,0.3H33.8c-0.2,0-0.4-0.1-0.1-0.2c0.3-0.1,3.2-1.2,3.4-1.3
		c0.3-0.1,1.1-0.4,1.3-1.1c0.1-0.5,5.6-23.1,5.7-23.5c0.1-0.6,0.1-1.1-0.6-1.3c-0.3-0.1-3.7-1.3-3.8-1.3c-0.2-0.1-0.2-0.2,0-0.2
		h13.7c0.2,0,0.3,0.1,0.1,0.2c-0.2,0-2.5,0.7-2.7,0.8C50.5,45,49.7,45.3,49.3,45.5z M75.8,71c-0.4,0.2-5,1.9-9.4,2
		C55,73.3,50.9,65.4,52.8,58.2c1-3.8,3.5-7.4,6.7-9.9c1.8-1.4,7.2-4.8,14.2-4.8c1.3,0,4.7,0.2,7.2,0.8c1.2,0.3,1,1,0.9,1.5
		c-0.1,0.2-2.8,8.3-2.8,8.5c-0.1,0.3-0.4,0.3-0.4,0c0-0.2,0.3-7.3,0.3-7.6c0-0.7,0-1.2-0.8-1.5c-1.2-0.4-6.7-0.9-10.9,1.1
		c-6.9,3.2-10.9,10.7-10.1,16.6c0.7,4.9,4.6,8.9,10.7,9c1.9,0,3.4-0.2,3.8-0.4c0.6-0.2,0.7-0.4,0.8-0.7c0.1-0.4,1.2-4.7,1.2-4.9
		c0.1-0.2,0.3-0.8-0.3-1c-0.6-0.2-6.2-1.7-6.5-1.8c-0.3-0.1-0.2-0.2,0.1-0.2h10.5c0.4,0,1.5-0.1,1.2,0.9c-0.3,1.1-1.9,6.1-2,6.4
		C76.5,70.7,76.2,70.9,75.8,71z M110.4,72.8H96.3c0,0-0.2,0-0.1-0.1c0.2-0.1,4.7-1.5,5.1-1.7c0.7-0.2,0.9-0.4,0.9-1.5
		c0-1.1,0.3-7.2,0.3-7.5c0-0.4,0.1-1.1-0.9-1.2c-0.5,0-2-0.2-3.6-0.2c-1.9-0.1-3.9,0-4.3,0c-1.1,0-1.3,0.1-2,0.5
		c-0.5,0.4-7.2,8.7-7.5,9.1c-0.3,0.4-0.2,0.8,0.5,1c0.7,0.2,5,1.1,6,1.3c0.1,0,0.1,0.2-0.1,0.2H77.4c-0.1,0-0.1-0.1,0-0.2
		c0.1-0.1,1.9-0.7,2.8-1.4c0.5-0.3,25.7-27.7,26.1-28.2c0.1-0.1,0.3-0.1,0.3,0c0.1,0.2-0.3,26.3-0.3,26.7c0,0.4,0.1,1,0.8,1.3
		c0.7,0.3,3.2,1.4,3.5,1.5C110.7,72.7,110.6,72.8,110.4,72.8z"/>
	<polygon class="st0" points="0,72.6 0,72.8 0,72.8 0,72.6 	"/>
</g>
</svg>
