<svg xmlns="http://www.w3.org/2000/svg" viewBox="0 0 121.63 56.08"><defs><style>.cls-1{fill:#fff;}</style></defs><title>amc</title><g id="Layer_2" data-name="Layer 2"><g id="Layer_1-2" data-name="Layer 1"><path class="cls-1" d="M26.38,30.19c-2.61.27-6.15,1.14-6.15,4.23,0,2.28,2.25,3.31,5.44,3.31,3.69,0,6.62-1.78,7.41-3.54a6.14,6.14,0,0,0,.66-2.64V29.92h-2A48.82,48.82,0,0,0,26.38,30.19Z"/><path class="cls-1" d="M0,0V56.08H121.63V0ZM40.44,42.9H34l-.18-2.28a17.57,17.57,0,0,1-9.8,3c-6.49,0-10.7-4.94-10.7-9.12,0-8,8.27-10,18.3-10h2.06s0-.55,0-.69c0-1.06-.53-5.51-6-5.51-4.58,0-6,2-6.46,3.86H14.49c0-2.26,1.76-9.7,13.09-9.7,9.56,0,12.87,5.15,12.87,14.28Zm29.39,0V21.13l-6,21.78H57.37l-6-21.78V42.9h-7V13.19H55s5,19,5.55,21.36l5.55-21.36H76.79V42.9Zm24.5.7C85.92,43.6,80,36.9,80,28c0-9.25,5.91-15.57,14.3-15.57,7,0,12.53,5,13.94,12h-6.72c-1.12-3.43-3.85-5.74-7.22-5.74-4.43,0-7.77,4-7.77,9.32s3.34,9.33,7.77,9.33c3.38,0,6.12-2.34,7.23-5.81h6.72C106.9,38.61,101.37,43.6,94.34,43.6Z"/></g></g></svg>