<svg xmlns="http://www.w3.org/2000/svg" viewBox="0 0 182.42 44.02"><defs><style>.cls-1{fill:#fff;}</style></defs><title>azubu</title><g id="Layer_2" data-name="Layer 2"><g id="Layer_1-2" data-name="Layer 1"><path class="cls-1" d="M73.51,13.82c3.84,0,5.7,2.37,5.7,5.48A9,9,0,0,1,79,21.07L76.66,32.38c-.6,2.8-2,4.32-5.26,4.32h-12c-3.37,0-5.22-2.2-5.22-5.61a19,19,0,0,1,.22-2.59c.73-4.36,3.11-6.08,7.21-6.08H72l.22-1a5.35,5.35,0,0,0,.09-.78c0-1.29-.86-2-2.42-2H58.36l1-4.83ZM63.84,27.07a2.19,2.19,0,0,0-2.5,1.9,6.69,6.69,0,0,0-.22,1.47,1.43,1.43,0,0,0,1.6,1.6h5.74a1.66,1.66,0,0,0,1.86-1.51L71,27.07Z"/><path class="cls-1" d="M81.7,36.69a2.57,2.57,0,0,1-2.76-2.85,5.82,5.82,0,0,1,2.72-5.18l12.86-9.15c.17-.13.43-.26.43-.47s-.09-.26-.35-.26H82.83l1-5H101c2.29,0,2.93,1.29,2.93,2.76a5.68,5.68,0,0,1-2.59,5.14L88.48,31c-.22.17-.43.39-.43.6s.09.13.35.13h12.13l-1.08,5Z"/><path class="cls-1" d="M126.11,32.38c-.65,3-2,4.32-5.26,4.32h-9.23c-4.66,0-7.85-2.07-7.85-6.17a9,9,0,0,1,.22-2l3.11-14.67h6.73L111,26.77a10.24,10.24,0,0,0-.22,1.86c0,2.16,1.21,3.15,4,3.15H118a1.6,1.6,0,0,0,1.81-1.51l3.5-16.44H130Z"/><path class="cls-1" d="M133.1,36.69c-2.37,0-3.5-1.34-3.5-3.19a5.28,5.28,0,0,1,.13-1.12l5.48-25.89h6.73l-1.55,7.34h6.17c5.87,0,7.81,3.41,7.81,8.33a18.61,18.61,0,0,1-.43,4c-1.47,6.9-3.62,10.57-11.82,10.57ZM136.94,30a4.32,4.32,0,0,0-.09.69c0,.78.43,1,1.47,1h2.93c4,0,5-2.93,5.83-6.47a16.53,16.53,0,0,0,.39-3.11c0-1.94-.73-3.37-3.37-3.37h-4.75Z"/><path class="cls-1" d="M178.49,32.38c-.65,3-2,4.32-5.26,4.32H164c-4.66,0-7.85-2.07-7.85-6.17a9,9,0,0,1,.22-2l3.11-14.67h6.73l-2.76,12.95a10.22,10.22,0,0,0-.22,1.86c0,2.16,1.21,3.15,4,3.15h3.15a1.6,1.6,0,0,0,1.81-1.51l3.5-16.44h6.77Z"/><path class="cls-1" d="M9.52,3.88A22,22,0,0,0,7,5.91L6.91,6l-.28.27-.21.21-.15.15L5.94,7l0,0-.48.54-.22.25L5,8.06l-.25.32-.1.14q-.32.41-.61.83L4,9.42l-.32.47L3.59,10A22.08,22.08,0,0,0,2.16,12.5v0l-.2.42-.1.24-.09.2-.17.42v0A21.87,21.87,0,0,0,0,21.53s0,0,0,.07,0,.28,0,.41,0,.26,0,.39,0,.07,0,.1a21.86,21.86,0,0,0,1.77,8.16l.06.14.13.29.16.35,0,.09A22,22,0,0,0,3.56,34l.09.14.29.43L4,34.7q.27.39.56.76l.13.16.25.31.24.29.22.25L5.9,37l.13.13.23.24.25.25.11.11a21.85,21.85,0,0,0,2.91,2.4h0V3.89Z"/><path class="cls-1" d="M42.43,13.82v0l-.17-.4-.1-.22-.1-.22c-.11-.24-.22-.48-.34-.71L41.6,12l-.31-.59-.19-.34,0-.06-.1-.16q-.29-.5-.61-1l0-.06L40,9.33l-.14-.19-.33-.45-.12-.15q-.27-.35-.56-.7l-.3-.35-.24-.27-.56-.6-.13-.13-.23-.23L37.11,6,37,5.91l-.53-.48-.26-.22L35.94,5l-.32-.26-.11-.08q-.42-.32-.85-.63L34.59,4l-.47-.32L34,3.58a22,22,0,0,0-2.53-1.42h0L31.07,2l-.22-.1-.22-.1-.4-.16,0,0A21.86,21.86,0,0,0,22.5,0h-1a21.88,21.88,0,0,0-8.17,1.77l-.15.07L12.93,2l-.37.17h0L43.94,20.25h0a21.86,21.86,0,0,0-1.51-6.43"/><path class="cls-1" d="M29.66,22.84a.9.9,0,0,0,0-1.71L18.9,14.91c-.81-.47-1.48-.09-1.48.86V28.2c0,.94.67,1.33,1.48.86Z"/><path class="cls-1" d="M27.56,31.62c-5.24,3-8.6,7.73-9.14,12.1h0a22,22,0,0,0,3.1.29h1a21.85,21.85,0,0,0,7.7-1.58l0,0,.39-.16.23-.1.21-.09.65-.31.28-.14.54-.28.39-.22.09-.05L33.1,41q.73-.43,1.43-.91l.14-.09.43-.31.18-.14.6-.47.34-.28.25-.21.57-.51h0l.36-.35.14-.14.22-.22L38,37.1l.08-.09.51-.56.21-.25.27-.33.45-.57.16-.21.3-.41.11-.16q.47-.68.89-1.4l.06-.1.06-.11.21-.37.29-.55.13-.27q.16-.33.31-.66l.09-.21.1-.23.16-.39,0,0,.17-.43h0c-4.05-1.72-9.8-1.17-15,1.86"/></g></g></svg>