<svg xmlns="http://www.w3.org/2000/svg" viewBox="0 0 207.62 115.2"><defs><style>.cls-1{fill:#fff;}</style></defs><title>BatteryWharf</title><g id="Layer_2" data-name="Layer 2"><g id="Layer_1-2" data-name="Layer 1"><path class="cls-1" d="M5.2,97.26H0V86.33H5.07c2.23,0,3.6,1.11,3.6,2.82v0a2.54,2.54,0,0,1-1.44,2.36,2.67,2.67,0,0,1,2,2.68v0C9.28,96.26,7.66,97.26,5.2,97.26Zm1.09-7.69c0-.72-.56-1.12-1.58-1.12H2.34v2.31H4.56c1.06,0,1.73-.34,1.73-1.15Zm.61,4.37c0-.73-.55-1.19-1.78-1.19H2.34v2.4H5.2c1.06,0,1.7-.37,1.7-1.19Z"/><path class="cls-1" d="M19.79,97.26l-1-2.45H14.17l-1,2.45H10.72l4.68-11h2.22l4.68,11Zm-3.31-8.11L15,92.69h2.9Z"/><path class="cls-1" d="M27.92,88.55v8.71h-2.4V88.55H22.19V86.33h9.05v2.22Z"/><path class="cls-1" d="M38.42,88.55v8.71H36V88.55H32.69V86.33h9.05v2.22Z"/><path class="cls-1" d="M44,97.26V86.33h8.24v2.14H46.36v2.22h5.15v2.14H46.36v2.29h5.93v2.14Z"/><path class="cls-1" d="M61.46,97.26l-2.34-3.5H57.23v3.5h-2.4V86.33h5c2.57,0,4.12,1.36,4.12,3.6v0a3.39,3.39,0,0,1-2.34,3.39l2.67,3.9Zm0-7.19c0-1-.72-1.56-1.89-1.56H57.23v3.14h2.43c1.17,0,1.84-.62,1.84-1.55Z"/><path class="cls-1" d="M71.58,92.9v4.35h-2.4V93L65,86.33h2.81l2.61,4.39L73,86.33h2.73Z"/><path class="cls-1" d="M94.74,97.34H92.65l-2.47-7.15-2.47,7.15H85.63l-3.73-11h2.57l2.26,7.4,2.45-7.43h2.06l2.45,7.43L96,86.33h2.51Z"/><path class="cls-1" d="M107.48,97.26V92.87H103v4.39h-2.4V86.33H103v4.32h4.43V86.33h2.4V97.26Z"/><path class="cls-1" d="M121,97.26l-1-2.45H115.4l-1,2.45H112l4.68-11h2.22l4.68,11Zm-3.31-8.11-1.45,3.54h2.9Z"/><path class="cls-1" d="M132.24,97.26l-2.34-3.5H128v3.5h-2.4V86.33h5c2.57,0,4.12,1.36,4.12,3.6v0a3.39,3.39,0,0,1-2.34,3.39l2.67,3.9Zm0-7.19c0-1-.72-1.56-1.89-1.56H128v3.14h2.43c1.17,0,1.84-.62,1.84-1.55Z"/><path class="cls-1" d="M139.69,88.52v2.33h5.21V93h-5.21v4.23h-2.4V86.33h8.32v2.18Z"/><path class="cls-1" d="M159.82,97.26V92.87h-4.43v4.39H153V86.33h2.4v4.32h4.43V86.33h2.4V97.26Z"/><path class="cls-1" d="M170.54,97.44a5.6,5.6,0,0,1-5.79-5.62v0a5.81,5.81,0,0,1,11.61,0v0A5.65,5.65,0,0,1,170.54,97.44Zm3.31-5.65a3.32,3.32,0,0,0-3.31-3.43,3.27,3.27,0,0,0-3.28,3.4v0a3.32,3.32,0,0,0,3.31,3.43,3.27,3.27,0,0,0,3.28-3.4Z"/><path class="cls-1" d="M183.37,88.55v8.71H181V88.55h-3.32V86.33h9.05v2.22Z"/><path class="cls-1" d="M188.93,97.26V86.33h8.24v2.14h-5.85v2.22h5.15v2.14h-5.15v2.29h5.93v2.14Z"/><path class="cls-1" d="M199.77,97.26V86.33h2.4v8.74h5.45v2.18Z"/><path class="cls-1" d="M46.37,110.44a1.5,1.5,0,0,1-1,1.45,1.57,1.57,0,0,1,1.33,1.51c0,1.07-.9,1.71-2.26,1.71H41.69v-6.22h2.65C45.57,108.88,46.37,109.48,46.37,110.44Zm-.71.1c0-.62-.49-1-1.38-1H42.39v2.14h1.84C45.07,111.65,45.66,111.27,45.66,110.53Zm.35,2.82c0-.68-.57-1.07-1.65-1.07h-2v2.19h2.09C45.42,114.47,46,114,46,113.35Z"/><path class="cls-1" d="M52.33,115.2A3.22,3.22,0,1,1,55.5,112,3.12,3.12,0,0,1,52.33,115.2Zm0-5.78A2.44,2.44,0,0,0,49.89,112a2.47,2.47,0,0,0,2.45,2.58A2.44,2.44,0,0,0,54.78,112,2.47,2.47,0,0,0,52.33,109.42Z"/><path class="cls-1" d="M60.5,111.65c1.39.3,2,.81,2,1.77s-.89,1.77-2.12,1.77a3.64,3.64,0,0,1-2.54-1l.43-.52a3,3,0,0,0,2.13.88c.83,0,1.39-.44,1.39-1.07s-.31-.91-1.62-1.19-2.09-.77-2.09-1.8a1.83,1.83,0,0,1,2-1.71,3.24,3.24,0,0,1,2.18.76l-.41.54a2.73,2.73,0,0,0-1.79-.67c-.81,0-1.32.44-1.32,1S59.14,111.36,60.5,111.65Z"/><path class="cls-1" d="M67.51,115.1H66.8v-5.57H64.71v-.65H69.6v.65H67.51Z"/><path class="cls-1" d="M74.7,115.2A3.22,3.22,0,1,1,77.88,112,3.12,3.12,0,0,1,74.7,115.2Zm0-5.78A2.44,2.44,0,0,0,72.27,112a2.47,2.47,0,0,0,2.45,2.58A2.44,2.44,0,0,0,77.15,112,2.47,2.47,0,0,0,74.7,109.42Z"/><path class="cls-1" d="M85.27,108.88H86v6.22h-.56l-4-5.1v5.1H80.7v-6.22h.66l3.92,5Z"/><path class="cls-1" d="M96.81,108.86h.58l1.71,5.2,1.78-5.18h.74l-2.22,6.26h-.6l-1.71-5-1.71,5h-.59l-2.22-6.26h.76l1.78,5.18Z"/><path class="cls-1" d="M109.19,115.1h-.76l-.73-1.64h-3.38l-.74,1.64h-.72l2.83-6.26h.66ZM106,109.65l-1.42,3.17h2.83Z"/><path class="cls-1" d="M113.3,115.1h-.71v-5.57h-2.09v-.65h4.88v.65H113.3Z"/><path class="cls-1" d="M122.53,109.52h-3.79v2.12h3.39v.64h-3.39v2.18h3.84v.64H118v-6.22h4.49Z"/><path class="cls-1" d="M129.6,115.1l-1.8-2.42H126v2.42h-.7v-6.22H128c1.37,0,2.25.74,2.25,1.86a1.82,1.82,0,0,1-1.69,1.82l1.91,2.54Zm-1.66-5.57H126v2.52h1.91c.93,0,1.6-.48,1.6-1.29S128.94,109.53,127.94,109.53Z"/><path class="cls-1" d="M137.54,109.53h-3.77v2.22h3.37v.64h-3.37v2.71h-.7v-6.22h4.47Z"/><path class="cls-1" d="M144.51,115.1l-1.8-2.42h-1.78v2.42h-.7v-6.22h2.67c1.37,0,2.25.74,2.25,1.86a1.82,1.82,0,0,1-1.69,1.82l1.91,2.54Zm-1.66-5.57h-1.92v2.52h1.91c.93,0,1.6-.48,1.6-1.29S143.85,109.53,142.85,109.53Z"/><path class="cls-1" d="M150.87,115.2A3.22,3.22,0,1,1,154,112,3.12,3.12,0,0,1,150.87,115.2Zm0-5.78a2.44,2.44,0,0,0-2.43,2.56,2.47,2.47,0,0,0,2.45,2.58,2.44,2.44,0,0,0,2.43-2.56A2.47,2.47,0,0,0,150.87,109.42Z"/><path class="cls-1" d="M161.44,108.88h.68v6.22h-.56l-4-5.1v5.1h-.68v-6.22h.66l3.92,5Z"/><path class="cls-1" d="M167.57,115.1h-.71v-5.57h-2.09v-.65h4.88v.65h-2.09Z"/><path class="cls-1" d="M129.35,26.5c-4.82-1.1-12.67-2.29-17.5-3.38,6.41-.81,15.76-.64,22.07-.77,1.53,0,3.9.14,3.4-2.55-.35-1.9-.75-3.57-3.74-3.81-8-.64-16-1.92-24-3.13a3.2,3.2,0,0,1-1.81-2.39c-.17-2.37.46-4.83,0-7.12-.24-1.26-.52-3.34-3-3.34-1.64,0-2,2.13-2.14,3.3a71.53,71.53,0,0,0-.1,8.44C98.3,10.57,92.43,6.83,91,8.56s-1,5,3.06,5.71c2.12.38,4.27.67,6.42.88s2.71,1.19,1.84,3.41c-1.71-.33-3.49-.35-5-1-3.05-1.38-4.15.27-4.9,2.7-.88,2.89,1.44,3.15,3.22,3.7a29.62,29.62,0,0,0,4,.77c4,.63,4.08.73,3.24,4.8-4.22.35-8.42.49-12.53,1.18-1,.17-3.09,1.12-2.65,3.17s2.91.61,4.19.41c7.29-1.12,10.71.13,11.25.7A4.43,4.43,0,0,1,104,37.8c.52,9.51,1.31,19,2,28.5l.83,0V34.57c7.47,0,14.51.08,21.54,0C131.45,34.48,140,33.18,140,31S132.12,27.13,129.35,26.5ZM107.78,16l15.68,2.45-16.37,1.14A28.32,28.32,0,0,1,107.78,16Zm19.14,14.07H107l.21-4.46C114,26.72,126.95,29.67,126.92,30.06Z"/></g></g></svg>