<svg xmlns="http://www.w3.org/2000/svg" viewBox="0 0 202.17 41.45"><defs><style>.cls-1{fill:#fff;}</style></defs><title>berggruen</title><g id="Layer_2" data-name="Layer 2"><g id="Layer_1-2" data-name="Layer 1"><path class="cls-1" d="M0,20.64C0,14.07,0,7.5,0,.93,0,.14.24,0,1,0Q20.76,0,40.56,0c.7,0,.93.12.93.89q0,19.84,0,39.67c0,.77-.24.89-.93.89q-19.79,0-39.59,0c-.73,0-1-.14-1-.93C0,33.9,0,27.27,0,20.64Zm32.58-.92a5.87,5.87,0,0,0,2.19-1.86A7.57,7.57,0,0,0,33.21,8,10.6,10.6,0,0,0,26.72,6C20.07,6,13.42,6,6.77,6,6.13,6,6,6.17,6,6.78Q6,20.7,6,34.62c0,.67.2.82.84.82q9.6,0,19.2,0a23.51,23.51,0,0,0,4.13-.33A8.57,8.57,0,0,0,35.75,32C38.33,28.65,38.15,22.13,32.6,19.72Z"/><path class="cls-1" d="M124.7,24.08q38.22,0,76.43,0c.32,0,1-.35,1,.32s-.67.31-1,.31q-76.39,0-152.78,0c-.33,0-.94.27-.95-.29s.65-.35,1-.35Q86.52,24.07,124.7,24.08Z"/><path class="cls-1" d="M99.17,18.75a9.78,9.78,0,0,1-5,1.8c-3.93.24-7.65-1.77-8.6-5.65a7.12,7.12,0,0,1,5.27-8.76,9.81,9.81,0,0,1,8.58,1.25,5.92,5.92,0,0,1,1.7,1.8c.26.4.18.58-.27.66a1.88,1.88,0,0,0-.39.13,1.57,1.57,0,0,1-2.1-.46c-2.44-2.65-7.86-2.16-9.71.74A5.41,5.41,0,0,0,93,18.48,6.36,6.36,0,0,0,98,17a3.54,3.54,0,0,0,.46-.47c.39-.51.91-1.11.66-1.7s-.95-.17-1.45-.18c-1.25,0-2.49,0-3.74,0-.59,0-.76-.18-.74-.75.06-1.59-.18-1.33,1.3-1.34,2,0,4,0,6,0,.62,0,.87.11.86.81-.05,2,0,4.1,0,6.15,0,.66-.22.85-.81.76a.79.79,0,0,0-.25,0c-.84.15-1.19-.18-1-1A2.24,2.24,0,0,0,99.17,18.75Z"/><path class="cls-1" d="M119.77,18.7a9.44,9.44,0,0,1-8.8,1.37,7.25,7.25,0,0,1,.59-14,9.93,9.93,0,0,1,8.62,1.5,5.76,5.76,0,0,1,1.48,1.67c.21.33.14.49-.22.59a9.64,9.64,0,0,0-1.19.37c-.46.2-.71.07-1-.33-2.1-2.62-7.21-2.77-9.5-.31a5.28,5.28,0,0,0,2,8.45,6.5,6.5,0,0,0,6.48-.71,3.91,3.91,0,0,0,1.48-2c.19-.54.12-.74-.51-.72-1.52,0-3.05,0-4.57,0-.6,0-.9-.12-.79-.77a1.06,1.06,0,0,0,0-.17c0-1.31-.18-1.16,1.13-1.16,2.05,0,4.1,0,6.15,0,.59,0,.75.19.74.76,0,2.08,0,4.16,0,6.24,0,.6-.2.74-.76.74-1.24,0-1.24,0-1.27-1.2C119.79,19,119.78,18.87,119.77,18.7Z"/><path class="cls-1" d="M139,14.38l5.11,5.87c-1.1,0-2,0-2.89,0-.28,0-.41-.26-.57-.44-1.3-1.55-2.61-3.09-3.91-4.64a1.16,1.16,0,0,0-1-.49c-1.72,0-3.44,0-5.15,0-.52,0-.66.17-.65.67,0,1.38,0,2.77,0,4.16,0,.55-.1.78-.72.78-1.63,0-1.63,0-1.63-1.61,0-3.93,0-7.87,0-11.8,0-.63.13-.86.81-.85,3.16,0,6.32,0,9.48.06,1.85,0,3.45.64,4.24,2.5a4,4,0,0,1-2.5,5.59Zm-4.77-6.25h0c-1.22,0-2.44,0-3.65,0-.47,0-.63.15-.62.62,0,1,.05,2.05,0,3.07,0,.71.14,1,.9.94,2-.06,3.93,0,5.9,0a6,6,0,0,0,1.57-.14A2.14,2.14,0,0,0,140,10.1a2,2,0,0,0-2.14-2C136.63,8.09,135.41,8.12,134.19,8.12Z"/><path class="cls-1" d="M77.28,14.41l5.08,5.84c-1.1,0-2,0-2.9,0-.28,0-.4-.28-.56-.46-1.27-1.5-2.55-3-3.8-4.51a1.45,1.45,0,0,0-1.27-.6c-1.63,0-3.27,0-4.91,0-.53,0-.73.12-.71.69,0,1.41,0,2.83,0,4.24,0,.5-.14.66-.65.67-1.69,0-1.69,0-1.69-1.62,0-3.94,0-7.87,0-11.81,0-.64.15-.85.82-.84,2.83,0,5.65,0,8.48,0a9.54,9.54,0,0,1,2.55.28,3.87,3.87,0,0,1,3,3.73A3.72,3.72,0,0,1,78,14.15Zm-5-1.61a38.19,38.19,0,0,0,3.88-.11,2.3,2.3,0,0,0,2.24-2.32,2.22,2.22,0,0,0-2.45-2.25c-2.35,0-4.71,0-7.06,0-.53,0-.65.19-.64.68,0,1.14,0,2.27,0,3.41,0,.46.12.64.6.62C69.88,12.78,70.93,12.8,72.25,12.8Z"/><path class="cls-1" d="M54.14,20.26c-2,0-4,0-6.07,0-.57,0-.77-.16-.77-.75q0-6.4,0-12.8c0-.54.15-.71.7-.71q5.86,0,11.72,0c.53,0,.73.13.71.69-.06,1.75.18,1.42-1.37,1.43-2.85,0-5.71,0-8.56,0-.67,0-.87.21-.82.85a10.87,10.87,0,0,1,0,2c-.09.78.25.9.94.89,2.91,0,5.82,0,8.73,0,1,0,.79.52.84,1.09s-.07,1-.87,1c-2.91-.05-5.82,0-8.73,0-.76,0-1,.22-.91.94a21.89,21.89,0,0,1,0,2.66c0,.6.19.74.76.73,3.21,0,6.43,0,9.64,0,.7,0,.89.2.86.88-.07,1.42.17,1.24-1.24,1.24Z"/><path class="cls-1" d="M168.71,13.13c0-2.11,0-4.21,0-6.32,0-.6.12-.81.77-.8q5.82,0,11.64,0c.59,0,.76.17.74.75-.06,1.66.19,1.37-1.34,1.38-2.91,0-5.82,0-8.73,0-.58,0-.78.15-.74.74a17.22,17.22,0,0,1,0,2.24c0,.58.15.75.74.74,2.91,0,5.82,0,8.73,0,.33,0,.85-.21,1,.19a4.07,4.07,0,0,1,0,1.65c0,.28-.43.16-.67.16-3,0-5.93,0-8.9,0-.68,0-.93.14-.88.86a21.61,21.61,0,0,1,0,2.74c0,.6.19.73.75.73,3.21,0,6.43,0,9.64,0,.71,0,1,.14.93.9-.09,1.4.18,1.22-1.26,1.22-3.85,0-7.7,0-11.56,0-.64,0-.86-.14-.84-.82C168.74,17.34,168.71,15.24,168.71,13.13Z"/><path class="cls-1" d="M199.88,16.76c0-3.32,0-6.65,0-10,0-.64.2-.79.81-.78,1.48,0,1.48,0,1.48,1.49,0,3.93,0,7.87,0,11.8,0,.66-.14.83-.84.91A2.82,2.82,0,0,1,198.8,19c-3-3.23-6.09-6.43-9.16-9.68-.26.29-.15.61-.15.88,0,3.07,0,6.15,0,9.22,0,.65-.16.86-.83.84-1.47,0-1.47,0-1.47-1.51,0-4,0-8,0-12,0-.63.19-.74.79-.8a2.84,2.84,0,0,1,2.57,1.09c2.94,3.2,5.94,6.34,8.93,9.5a3.53,3.53,0,0,0,.31.27l.11.09Z"/><path class="cls-1" d="M160.28,11c0-1.41,0-2.83,0-4.24,0-.55.1-.78.72-.78,1.67,0,1.69,0,1.67,1.64,0,2.77.12,5.54-.09,8.31a4.11,4.11,0,0,1-2.38,3.56,10.12,10.12,0,0,1-9.65-.1,4.57,4.57,0,0,1-2.43-4.26c-.05-2.85,0-5.71,0-8.57,0-.43.13-.57.57-.59,1.77-.08,1.76-.09,1.78,1.7,0,2.49-.06,5,.07,7.48a2.85,2.85,0,0,0,1.86,2.69,8,8,0,0,0,6.38-.08,2.3,2.3,0,0,0,1.49-2.21c0-1.52,0-3,0-4.57Z"/><path class="cls-1" d="M196.22,32.24c0-.83,0-1.66,0-2.49,0-.43.15-.58.58-.58,1.52,0,3,0,4.57,0,.23,0,.57-.08.55.31s-.36.27-.58.27c-1.22,0-2.44,0-3.65,0-.59,0-.76.18-.74.75,0,1.64-.12,1.36,1.37,1.38,1,0,2,0,3,0,.2,0,.5-.08.49.27s-.31.26-.51.26c-1.19,0-2.38,0-3.57,0-.56,0-.77.12-.77.73,0,1.65,0,1.65,1.66,1.65h3c.23,0,.56-.08.54.32s-.3.26-.51.26c-1.61,0-3.21,0-4.82,0-.44,0-.58-.16-.57-.58C196.23,34,196.22,33.1,196.22,32.24Z"/><path class="cls-1" d="M63.41,29.87c0,1.76,0,3.31,0,4.86,0,.24.16.63-.28.65s-.35-.4-.35-.67q0-2.37,0-4.73c0-.24-.17-.59.23-.71a.82.82,0,0,1,.88.3c1.18,1.28,2.38,2.54,3.58,3.81a4.13,4.13,0,0,0,.46.48c.2.15.31.57.63.4s.07-.46.07-.69c0-1.22,0-2.44,0-3.65,0-.28-.13-.68.37-.66s.33.43.34.7q0,2.37,0,4.73c0,.25.15.59-.25.7a.79.79,0,0,1-.81-.3q-2.09-2.25-4.19-4.48Z"/><path class="cls-1" d="M86.75,29a4.82,4.82,0,0,1,2.36.65c.19.13.56.25.4.52s-.47.2-.73,0A3.73,3.73,0,0,0,86,29.62l-.33,0c-.62.15-1.24.35-1.2,1.13s.69.85,1.27.92c.85.11,1.71.16,2.56.27a1.64,1.64,0,0,1,.5,3.13,5.31,5.31,0,0,1-4.93-.35c-.19-.11-.54-.27-.37-.54s.49-.23.79,0a4.27,4.27,0,0,0,3.64.61c.67-.16,1.2-.51,1.18-1.29s-.69-.94-1.29-1c-.76-.12-1.54-.15-2.31-.23-1.11-.12-1.73-.63-1.75-1.43s.59-1.47,1.65-1.68C85.88,29.08,86.35,29.05,86.75,29Z"/><path class="cls-1" d="M162.87,31.6c0,.44,0,.89,0,1.33A2.22,2.22,0,0,1,161,35.41a4.85,4.85,0,0,1-2.14.1c-1.75-.28-2.41-1.11-2.38-2.89,0-1,0-1.94,0-2.91,0-.25,0-.52.36-.52s.34.28.34.53c0,1.08,0,2.16,0,3.24a1.67,1.67,0,0,0,1.34,1.84,3.85,3.85,0,0,0,2.6-.09,1.49,1.49,0,0,0,1-1.56c0-1.11,0-2.21,0-3.32,0-.25-.11-.61.33-.63s.36.39.37.66C162.88,30.44,162.87,31,162.87,31.6Z"/><path class="cls-1" d="M105.76,29.18h2.41c.24,0,.55,0,.53.34s-.31.22-.51.25h-.08c-.63,0-1.43-.27-1.84.13s-.13,1.26-.15,1.91c0,1,0,2,0,3,0,.27.06.6-.37.58s-.34-.36-.34-.61c0-1.44,0-2.88,0-4.31,0-.55-.17-.74-.71-.7s-1,0-1.49,0c-.2,0-.41,0-.4-.28s.18-.31.4-.31Z"/><path class="cls-1" d="M139.78,29.19h2.49c.23,0,.47,0,.45.33s-.25.24-.44.25h-.33c-1.79,0-1.79,0-1.79,1.84,0,1.05,0,2.1,0,3.15,0,.26.09.6-.34.61s-.35-.34-.35-.6c0-1.44,0-2.88,0-4.31,0-.52-.12-.76-.69-.71s-1,0-1.57,0c-.18,0-.34,0-.36-.26s.15-.33.37-.33Z"/><path class="cls-1" d="M179.57,29.18c.78,0,1.55,0,2.33,0,.22,0,.56-.11.58.28s-.32.3-.55.3a13.34,13.34,0,0,1-1.41,0c-.5,0-.68.12-.66.64,0,1.44,0,2.88,0,4.32,0,.24.15.62-.29.64s-.36-.39-.36-.65c0-1.39,0-2.77,0-4.16,0-.69-.22-.87-.85-.8a7.78,7.78,0,0,1-1.16,0c-.23,0-.57.11-.58-.27s.38-.31.62-.31C178,29.17,178.79,29.18,179.57,29.18Z"/><path class="cls-1" d="M48.08,32.3q0,1.29,0,2.58c0,.26,0,.51-.36.52s-.4-.21-.4-.49q0-2.58,0-5.15c0-.27,0-.5.37-.52s.38.29.38.56Q48.08,31,48.08,32.3Z"/><path class="cls-1" d="M123.13,32.36c0,.83,0,1.65,0,2.48,0,.24.07.53-.32.54s-.34-.28-.34-.52q0-2.52,0-5c0-.23-.08-.52.32-.53s.33.28.34.52C123.13,30.65,123.13,31.51,123.13,32.36Z"/><path class="cls-1" d="M19.62,22.3c2.74,0,5.49-.06,8.23,0a4.29,4.29,0,0,1,4.27,3c.83,3-.61,5.74-4.41,6-2.54.16-5.1.07-7.64.08-2.8,0-5.6,0-8.4,0-.65,0-.92-.12-.91-.85,0-2.49,0-5,0-7.48,0-.62.18-.8.8-.79,2.69,0,5.38,0,8.06,0Z"/><path class="cls-1" d="M19.13,18.17c-2.52,0-5,0-7.57,0-.56,0-.77-.12-.76-.73,0-2.22,0-4.44,0-6.65,0-.45,0-.71.61-.71,5.07,0,10.15,0,15.22.07A4.12,4.12,0,0,1,30.8,13c.77,2.71-1,5-4,5.14l-1,0Z"/></g></g></svg>