<svg xmlns="http://www.w3.org/2000/svg" viewBox="0 0 94.19 70.08"><defs><style>.cls-1{fill:#fff;}</style></defs><title>bravo</title><g id="Layer_2" data-name="Layer 2"><g id="Layer_1-2" data-name="Layer 1"><path class="cls-1" d="M0,51.76Q0,26,0,.22C0,0,0,0,.22,0H87.78a8.73,8.73,0,0,0,.91.14,6.18,6.18,0,0,1,5.22,4.62c.12.42.16.85.27,1.27V45.82a7,7,0,0,0-.19.88A6.1,6.1,0,0,1,90.67,51a8.38,8.38,0,0,1-3.74.76H26.44A.63.63,0,0,0,26,52L8.07,69.9l-.15.17H7.82c0-.06,0-.12,0-.19q0-8.95,0-17.89c0-.18,0-.24-.23-.23H0ZM20.63,24.68v0l.17-.07a4.14,4.14,0,0,0,2.53-2.73A6.45,6.45,0,0,0,23.64,20c0-1.8,0-3.61,0-5.41a7.8,7.8,0,0,0-.2-1.73,5,5,0,0,0-3.53-3.9A9.48,9.48,0,0,0,17,8.49H8.13c-.22,0-.25.07-.25.26q0,16.58,0,33.17c0,.2,0,.27.25.27H16.8a10.46,10.46,0,0,0,3.07-.4,5.06,5.06,0,0,0,3.24-2.6,6.91,6.91,0,0,0,.68-3.09c0-2.34,0-4.68,0-7a8,8,0,0,0-.05-.94,3.62,3.62,0,0,0-2.57-3.26Zm66.76,3.46q0-4,0-8a10.54,10.54,0,0,0-.12-1.74,5,5,0,0,0-2.76-4A7.44,7.44,0,0,0,82,13.8a28.09,28.09,0,0,0-3.48-.07,9.43,9.43,0,0,0-2.55.36,5,5,0,0,0-3.37,2.83,7,7,0,0,0-.55,2.8q0,8.34,0,16.69a8.59,8.59,0,0,0,.1,1.36,5.15,5.15,0,0,0,2,3.57,6.48,6.48,0,0,0,3,1.09,26.45,26.45,0,0,0,4,.1,8.58,8.58,0,0,0,2.38-.38,4.93,4.93,0,0,0,3.49-3.41,8.83,8.83,0,0,0,.34-2.63Q87.39,32.13,87.39,28.14Zm-40.15,12c0,.65,0,1.24,0,1.83,0,.19.06.23.24.23h5.46c.22,0,.25-.07.25-.26q0-11,0-22.09a9.86,9.86,0,0,0-.1-1.52,4.85,4.85,0,0,0-2.19-3.59A6.67,6.67,0,0,0,48,13.8a25.24,25.24,0,0,0-3.25-.07,9.29,9.29,0,0,0-2.51.35,4.7,4.7,0,0,0-3.19,2.7,7,7,0,0,0-.52,2.71c0,1.29,0,2.57,0,3.86,0,.17,0,.21.21.21h5.3c.16,0,.21,0,.21-.21,0-1.08,0-2.17,0-3.25a3.22,3.22,0,0,1,0-.38A.7.7,0,0,1,45,19c.39,0,.78,0,1.18,0,.61,0,.87.28.87.89,0,1.48,0,3,0,4.45a.22.22,0,0,1-.16.24L45,25.44c-1.4.61-2.83,1.16-4.2,1.84a4.28,4.28,0,0,0-2.35,2.81,8.35,8.35,0,0,0-.24,2.14q0,2.8,0,5.6a6.66,6.66,0,0,0,.14,1.38,3.67,3.67,0,0,0,2.75,3.06A5.6,5.6,0,0,0,45,41.89,6.31,6.31,0,0,0,47.24,40.12ZM62.84,33l0-.07-.57-4.79q-.27-2.25-.54-4.51t-.54-4.51q-.29-2.43-.58-4.86c0-.14-.06-.2-.22-.2H54.59c-.15,0-.2,0-.17.19.19,1.15.36,2.31.53,3.46q.62,4.12,1.24,8.23.6,4,1.21,7.93T58.63,42c0,.14.07.18.21.18h7.6c.14,0,.19,0,.2-.19,0-.37.11-.73.16-1.09l.87-5.74.82-5.44.82-5.42.82-5.44q.35-2.29.69-4.58c0-.11,0-.19-.13-.19H65.27c-.11,0-.17,0-.18.15q-.23,2-.47,4l-.54,4.51-.54,4.51-.58,4.88C62.92,32.41,62.88,32.7,62.84,33ZM32.2,16.89c-.06-.06,0-.12,0-.17,0-.79,0-1.59,0-2.38,0-.22-.07-.25-.26-.25H26.48c-.19,0-.25,0-.25.24q0,13.81,0,27.61c0,.19.05.23.23.23,1.88,0,3.77,0,5.65,0,.26,0,.3-.08.3-.31q0-9.82,0-19.63a.53.53,0,0,1,.23-.47,6.08,6.08,0,0,1,3.51-1.19c.22,0,.51.07.63-.07s0-.4,0-.61c0-1.93,0-3.86,0-5.79,0-.2-.06-.25-.25-.25a6.89,6.89,0,0,0-1,.07A4,4,0,0,0,33,15.68C32.69,16.06,32.45,16.47,32.2,16.89Z"/><path class="cls-1" d="M14.07,32.12c0-1.44,0-2.87,0-4.31,0-.2.06-.25.25-.25.59,0,1.18,0,1.76,0h.21c.86.05,1.23.43,1.23,1.29q0,3.27,0,6.54c0,.87-.41,1.27-1.29,1.28-.65,0-1.3,0-2,0-.19,0-.22-.06-.22-.23C14.07,35,14.07,33.57,14.07,32.12Z"/><path class="cls-1" d="M14.07,18.16q0-2,0-3.9c0-.35,0-.31.32-.31.67,0,1.33,0,2,0a1.05,1.05,0,0,1,1,1.16c0,.7,0,1.4,0,2.09q0,1.83,0,3.67c0,.12,0,.24,0,.35a1.08,1.08,0,0,1-1.14,1.12c-.68,0-1.36,0-2,0-.19,0-.17-.1-.17-.22Q14.07,20.16,14.07,18.16Z"/><path class="cls-1" d="M78.22,28.14q0-3.84,0-7.68c0-.13,0-.25,0-.38a.81.81,0,0,1,.82-.83c.45,0,.89,0,1.34,0a.8.8,0,0,1,.81.81c0,.11,0,.22,0,.33q0,7.72,0,15.44c0,.11,0,.22,0,.33a.81.81,0,0,1-.82.83A13.06,13.06,0,0,1,79,37a.81.81,0,0,1-.81-.82c0-.12,0-.25,0-.38Q78.22,32,78.22,28.14Z"/><path class="cls-1" d="M47.1,29.63v2.2c0,1.54,0,3.08,0,4.61a.31.31,0,0,1-.2.32,2.91,2.91,0,0,1-1.91.31,1,1,0,0,1-.86-.95,8.28,8.28,0,0,1,0-1c0-1,0-2,0-2.94a1.51,1.51,0,0,1,.64-1.25C45.5,30.41,46.3,30.08,47.1,29.63Z"/></g></g></svg>