<svg xmlns="http://www.w3.org/2000/svg" viewBox="0 0 187.09 50.52"><defs><style>.cls-1,.cls-2{fill:#fff;}.cls-1{fill-rule:evenodd;}</style></defs><title>butterfinger</title><g id="Layer_2" data-name="Layer 2"><g id="Layer_1-2" data-name="Layer 1"><path class="cls-1" d="M187.06,17.32c-.43-6.08-5.22-6-5.22-6H143c-5.4,0-6.14,2.21-6.14,2.21-1.47-2.7-5.34-2.15-5.34-2.15H121.44C121.31,4.92,114.75,3,111.8,3a20.79,20.79,0,0,0-5,.55C106-.3,101.43,0,101.43,0H75.77c-6.14,0-6.69,4.66-6.69,4.66C65,4.36,63,6,63,6V4.67c-14.12-1.1-14.49,7.06-14.49,7.06H37.28C35.75.74,25.37,1.29,25.37,1.29H10.52c-1.78,0-2,1.23-2,1.23L7.14,9c-.31,1.1-.37,1.29.68,2.15a2,2,0,0,1,.61,2l-3.74,16A2.7,2.7,0,0,1,2.9,31.5c-1,.37-1.41,1.84-1.41,1.84L.08,39.78C-.47,42.05,2,42,2,42H16.59C25,42,27.52,39,27.52,39,29.05,41.44,33,41.13,33,41.13H54a6.79,6.79,0,0,0,3.44-1A11.84,11.84,0,0,0,68.77,40l1.1.8h54.94c-.74,2.7.8,9.76,11.91,9.76s15-11,15-11a6.07,6.07,0,0,0,4.11,1.17h20.38a2.13,2.13,0,0,0,2.09-1.6l1.47-6.88c-1.9-.74-1.1-2.95-1.1-2.95l.74-3.07C182.39,27,187.55,23.39,187.06,17.32Zm-9.33,6.51-1.9,6.81a1.55,1.55,0,0,0,.37,1.53c.74.8,1,1.17.68,2.27s-.68,2.27-.68,2.27A2.45,2.45,0,0,1,173.86,38h-10.8l-.55-.61S155.38,41.5,150,35.24c0,0-1.78,12.89-13.32,12.89s-9.76-7.8-8.41-9.58H80.86l-.43-1S74,41.56,68.65,37.14c0,0-5.59,4.79-10.68.06,0,0-5.22,4.36-9.7.18l-1.1,1.35H38.08l-.37-.43s-6.94,3.68-9-3c0,0-2.82,4.17-11.91,4.17H3.15l1.29-6.57A3,3,0,0,1,6,31.56c1.1-.37,1.29-1.1,1.53-2l4.05-18.17s.49-1.35-.68-1.53S9.84,8.91,10,8l.68-3.38s.18-.8,1.41-.8H24.57s10.62-.18,9.51,10.44H50.23l.86-2.58s1.23-4.42,7.86-4.42h3.44l-1,4.8c.54-1.64,2.48-4.67,9.42-4.67,0,0-.18-4.85,5.59-4.85h24.25s4.48-.37,4.48,4.17a26,26,0,0,1,6.57-1c3.25,0,8.72,2,6.69,8.35h8.23l.25.49a5.25,5.25,0,0,1,3.74-1.17c2.7,0,5.46,2.33,5.46,4.6,0,0,2.09-4.54,8.65-4.54H155L154.22,17s5.46-6.94,12.83-2c0,0,.12-1.23,2.21-1.23h8.66a3.86,3.86,0,0,1,2.39-.68c1.53,0,4.05,1,4.05,4.54S181.47,25.05,177.73,23.82Z"/><path class="cls-1" d="M61.38,12a4.15,4.15,0,0,0-.22,1Z"/><polygon class="cls-1" points="100.26 4.36 95.66 4.92 95.66 5.47 100.26 5.47 100.26 4.36"/><rect class="cls-2" x="93.57" y="4.49" width="1.35" height="7"/><path class="cls-1" d="M90.56,9.58c0,.68.49,1.9,1.66,1.9.25,0,.8-.06.8-.06v-.86h-.25a1,1,0,0,1-1-1.17v-2H93v-1H91.79v-2H90.56v2h-.43v1h.43Z"/><path class="cls-1" d="M87.62,10.75c-.86,0-1.1-.43-1.1-.86h-1.1c.06,1.35,1.1,1.78,2.27,1.78,1,0,2.27-.31,2.27-1.78,0-2-3.31-1.23-3.31-2.27,0-.18.25-.61,1-.61a1,1,0,0,1,1,.8h1.17c-.12-1.35-1.29-1.72-2.27-1.72a1.83,1.83,0,0,0-2.09,1.78c0,2,3.25,1.17,3.25,2.21C88.72,10.56,88.47,10.75,87.62,10.75Z"/><polygon class="cls-1" points="75.03 6.88 77.86 11.48 79.33 11.48 79.33 5.47 89.83 5.47 89.76 4.49 77.98 4.49 77.98 9.4 77.92 9.4 74.97 4.49 73.62 4.49 73.62 11.48 75.03 11.48 75.03 6.88"/><path class="cls-1" d="M98.05,11.67a2.26,2.26,0,0,0,2.46-1.78H99.28a1.35,1.35,0,0,1-1.23.74A1.44,1.44,0,0,1,96.7,9.34h3.87V8.91a2.61,2.61,0,0,0-2.52-2.7,2.67,2.67,0,0,0-2.64,2.7A2.69,2.69,0,0,0,98.05,11.67Zm0-4.48a1.32,1.32,0,0,1,1.23,1.23L96.7,8.35A1.49,1.49,0,0,1,98.05,7.19Z"/><path class="cls-1" d="M85,8.91a2.62,2.62,0,0,0-2.58-2.7,2.66,2.66,0,0,0-2.58,2.7,2.68,2.68,0,0,0,2.58,2.76,2.31,2.31,0,0,0,2.46-1.78H83.75a1.51,1.51,0,0,1-1.29.74,1.55,1.55,0,0,1-1.35-1.29H85C85,9.21,85,9,85,8.91Zm-3.87-.55a1.42,1.42,0,0,1,1.29-1.17,1.23,1.23,0,0,1,1.23,1.23Z"/><path class="cls-1" d="M94.74,14.62c4.85,0,5.89-2.89,5.89-2.89A10.33,10.33,0,0,1,94.8,13.2c-2.76,0-9.7-1.35-13.93-1.35a19.32,19.32,0,0,0-7.24,1.29V15.6a16.48,16.48,0,0,1,8-1.9C84.79,13.69,89.95,14.62,94.74,14.62Z"/><path class="cls-1" d="M136.42,40a1,1,0,0,0-.18,1.41c1.29,1.72,3-1.72,3.13-3.25a3.38,3.38,0,0,1-2.15.18C137.34,38.86,137.21,39.29,136.42,40Z"/><path class="cls-1" d="M107.93,15h2.64a3.41,3.41,0,0,1-.43-2.95C108.24,12.41,107.93,15,107.93,15Z"/><path class="cls-1" d="M160.11,30.76a5.12,5.12,0,0,0,3.31-1.9c.55-.68,1.47-.18,1.47-.18L166.37,30l.43-2.46h-7.73C158.76,29.16,158.82,30.76,160.11,30.76Z"/><path class="cls-1" d="M124.26,31.31l2.09-8.47c.06-.43-.55-.43-.61,0l-2.09,8.29c-.06.31-.12.86.18.86S124.26,31.31,124.26,31.31Z"/><path class="cls-1" d="M114.56,32c.31,0,.43-.68.43-.68l2.58-10.62H117l-2.52,10.44C114.32,31.43,114.26,32,114.56,32Z"/><path class="cls-1" d="M104.8,31.13c-.06.31-.12.86.18.86s.43-.68.43-.68l2.33-10.62h-.61Z"/><path class="cls-1" d="M95.53,31.07l1.66-7.37c-1.6.74-2.21-.18-2.21-.18-.86.61-1.35,2.82-1.35,2.82l-1,5.59a1.89,1.89,0,0,0,.92,2C94.86,33.71,95.53,31.07,95.53,31.07Z"/><path class="cls-1" d="M77.85,31.19A5.56,5.56,0,0,0,81,29.29c.61-.74,1.17-.31,1.17-.31l1.66,1.47.55-2.39H76.69C76.07,30.45,76.81,31.19,77.85,31.19Z"/><path class="cls-1" d="M68.59,20.69a72.87,72.87,0,0,0-1.72,8.23c-.18,1.53-.18,2.33.18,2.33s.49-.68.49-.68a28.68,28.68,0,0,1,2-9.88Z"/><path class="cls-1" d="M58.7,20.69l-2,8.72c-.37,1.66.68,1,.92-.06l1.9-8.65Z"/><path class="cls-1" d="M49.43,20.39S47.53,29,47.16,30.7s.31.92.43.31l2.27-10.31Z"/><path class="cls-1" d="M39.06,29.47l1.84-8.59-.49-.49-1.9,9.08C38.14,31.31,38.94,30.33,39.06,29.47Z"/><path class="cls-1" d="M29,21.18a4.52,4.52,0,0,1,1.78,3.07L31.69,19A7.35,7.35,0,0,1,29,21.18Z"/><path class="cls-1" d="M145.44,15.78c-6.94,0-11.54,8.84-11.54,14.3s1.72,6.45,4,6.45A7.21,7.21,0,0,0,142,35c-1.17,7.12-3.25,8.41-5.09,8.41a2.35,2.35,0,0,1-2.58-2.58c0-1.41,1.72-2.39,1.72-2.39-1.72-1.29-6.32-.92-6.32,3.13s6.32,4,6.32,4c9.82,0,11.79-11.66,11.79-11.66l4.24-18.11Zm.37,3.87-2.46,10.68s-.49,2.21-2.09,2.21-1.84-2.46-1-7.06,2.95-7.06,4.36-7.06S145.87,19.59,145.81,19.65Z"/><path class="cls-1" d="M25.56,20.88s6.32-1.72,6.32-8.16S24.2,6.27,24.2,6.27H12.91l-.25,1.66c.43.31,1,.68,1,.68a1.82,1.82,0,0,1,.68,2L9.53,33.15a6.45,6.45,0,0,1-2.76,2L6.4,37H18c7.8,0,11.42-6,11.42-10.13S25.56,20.88,25.56,20.88Zm-7.67,13H15.61l2.46-11.17h1.84s3.19,0,3.19,4S20.71,33.83,17.88,33.83ZM20.4,19.71H18.68L20.89,9.27h2s2.52-.06,2.52,3.68S22.61,19.71,20.4,19.71Z"/><path class="cls-1" d="M45.26,31.31,48.7,16.95H41.33L41,18.61l.8.68a2,2,0,0,1,.43,1.84l-1.84,8.16c-.68,2.76-1.41,3.44-2.89,3.44s-.74-2.7-.74-2.7l3-13.2H32.8l-.55,1.72c.25.25.61.55.61.55a2.15,2.15,0,0,1,.37,2l-2,9c-1,4.24.12,6.69,3.07,6.69a9.19,9.19,0,0,0,5.52-2.39l-.25,2h6.14l.49-1.84C44.4,33.52,45.26,31.31,45.26,31.31Z"/><path class="cls-1" d="M65.27,29l2.27-10.13h3.62a6.4,6.4,0,0,0,.49-2.27H68.09l1.41-6.94c-5.89.12-5.89,2.82-5.89,2.82l-.92,4.17H57.9L59.5,9.7c-5.83-.25-5.89,2.89-5.89,2.89L52.32,16.7h-1.9l-.55,2c2,.74,1.41,2.33,1.41,2.33l-2.15,9.39c-1.1,4.79.74,6.45,3.44,6.45s4.79-2.7,4.79-2.7l-.18-1.53c-3.81,1.41-2-4-2-4L57.48,19H60a1.43,1.43,0,0,1,1.47,1.66L59.32,30c-1.1,4.91.43,6.75,3.56,6.75S68.28,34,68.28,34l-.49-1.35C63.55,33.89,65.27,29,65.27,29Z"/><path class="cls-1" d="M164.16,30.82c-2.46,2.27-4.85,3.07-6.45,1.47s-.18-5.83-.18-5.83h8.84s3.68-10.37-4-10.37c-8.66,0-11,9.94-11,13.44,0,2.52.74,7.12,5.89,7.12s8.16-4.6,8.16-4.6Zm-2.64-12.46c2.52,0,.86,5,.61,5.77h-3.93S159.07,18.36,161.52,18.36Z"/><path class="cls-1" d="M81.6,30.82c-2.39,2.27-4.79,3.07-6.38,1.47S75,26.46,75,26.46h8.84s3.68-10.37-4-10.37c-8.72,0-11,9.94-11,13.44,0,2.52.74,7.12,5.89,7.12S82.95,32,82.95,32ZM79,18.36c2.52,0,.86,5,.61,5.77H75.77S76.5,18.36,79,18.36Z"/><path class="cls-1" d="M179.88,16c-1.9,0-4.6,3.87-4.6,3.87l.74-3.25h-6.57l-.55,1.84s.31.25,1,.74.18,2.58.18,2.58l-2.21,9.58c-.55,3.07-2.46,3-2.46,3l-.43,1.9h9.15l.49-1.72c-2-.61-1.29-3.13-1.29-3.13a42.5,42.5,0,0,1,2.21-8.16c1.29-2.82,2.39-2.27,2.89-1.78s1.72.06,2.58-1a4.3,4.3,0,0,0,.86-2.39A1.86,1.86,0,0,0,179.88,16Z"/><path class="cls-1" d="M90.81,31.37A40.72,40.72,0,0,1,93,23.21c1.23-2.82,2.33-2.27,2.82-1.78s1.72.06,2.58-1a4.11,4.11,0,0,0,.92-2.39,1.86,1.86,0,0,0-2-2.09c-1.9,0-4.54,3.87-4.54,3.87l.74-3.25H86.94l-.55,1.84s.31.25,1,.74.18,2.58.18,2.58l-2.21,9.58c-.55,3.07-2.46,3-2.46,3l-.43,1.9H91.6L92,34.5C90.07,33.89,90.81,31.37,90.81,31.37Z"/><path class="cls-1" d="M102.72,31.19l2.76-12a.78.78,0,0,0,.06-.37h2l.61-2.33h-2c1.66-5.89,3.38-6,4.36-6s1.6-.06,1,2.39,5,2.89,5-1-5.34-3.74-5.34-3.74c-9,0-11.29,11.36-11.29,11.36L97.5,30.94c-.68,3.5-2.95,3.56-2.95,3.56L94.18,36h9.15l.43-1.6C101.92,33.4,102.72,31.19,102.72,31.19Z"/><path class="cls-1" d="M112.72,31.07l3.5-14.67h-7.06l-.43,1.84c1.53.49,1,2.27,1,2.27l-2.58,11.23a3.17,3.17,0,0,1-2.33,2.7L104.5,36h8.59l.37-1.84C111.8,33.58,112.72,31.07,112.72,31.07Z"/><path class="cls-1" d="M132,34.14c-1.41-.31-.68-2.82-.68-2.82s.8-3.87,1.84-8.47,0-7.06-3-7.06-5.46,2.58-5.46,2.58l.31-2h-6.45l-.31,1.78c1.41.55,1,2.52,1,2.52l-2.64,11.23c-.68,2.52-2.21,2.33-2.21,2.33L114.13,36h8.41l.37-1.84c-1.23-.61-.68-2.7-.68-2.7l2-8.53c.49-2.15,1.66-3.25,3-3.25s.92,1.66.92,1.66L125.67,32A3,3,0,0,1,124,34.26L123.59,36h8Z"/><path class="cls-1" d="M19,24.87l-1.53,7c2.15.25,3.44-1.78,3.5-4.54S19,24.87,19,24.87Z"/><path class="cls-1" d="M21.87,11.42l-1.35,6c1.47.18,3.13-1.41,3.13-3.81S21.87,11.42,21.87,11.42Z"/><path class="cls-1" d="M78.59,20.14c-.61,0-1.23,2.58-1.23,2.58h1.17C78.9,21.74,79.21,20.14,78.59,20.14Z"/><path class="cls-1" d="M143.29,21.49a36.15,36.15,0,0,0-2,8c-.12,2,.86.25.86.25l1.9-8.72C144.27,20.32,143.66,20.63,143.29,21.49Z"/><path class="cls-1" d="M161.09,19.83c-.68,0-1.1,2.7-1.1,2.7h1.1C161.28,21.67,161.77,19.83,161.09,19.83Z"/></g></g></svg>