<svg xmlns="http://www.w3.org/2000/svg" viewBox="0 0 205.9 59.3"><defs><style>.cls-1,.cls-2{fill:#fff;}.cls-2{fill-rule:evenodd;}</style></defs><title>calpoly</title><g id="Layer_2" data-name="Layer 2"><g id="Layer_1-2" data-name="Layer 1"><path class="cls-1" d="M68.37,17.76h0a13.7,13.7,0,0,1,9-3A19,19,0,0,1,83.11,16a3.94,3.94,0,0,0,1,.21c0,.8.25,3,.4,5.16a1,1,0,0,1-1.08,0c-.37-2.41-1.57-5.22-6.6-5.22-5.3,0-9.12,4.29-9.12,10.38s4.44,11,9.43,11c4.47,0,6.17-2.5,7-4.54a.87.87,0,0,1,1,.16A14.58,14.58,0,0,1,83.44,38l-1.36.31a25.53,25.53,0,0,1-5.15.52,13.81,13.81,0,0,1-8.42-2.22A11.57,11.57,0,0,1,63.84,27,11.46,11.46,0,0,1,68.37,17.76Z"/><path class="cls-1" d="M109.59,24.74h0c0-2.87-.18-3-1.94-3.33l-.77-.12c-.28-.19-.25-.89.09-1,1.57.06,2.87.12,4.16.12s2.59,0,3.94-.12c.34.12.37.83.09,1l-.55.12c-1.73.43-1.91.47-1.91,3.33v8.89a5.54,5.54,0,0,0,.43,2.87c.37.37.71.65,2.84.65,2.5,0,4-.12,5.21-3.43.28-.28.92-.22,1,.15a14.2,14.2,0,0,1-1.23,4.6c-1.26,0-2.43-.06-3.6-.06s-2.16-.06-3.24-.06h-3c-1.33,0-2.59,0-4.2.12a.68.68,0,0,1-.06-1l.77-.15c1.76-.28,1.94-.43,1.94-3.3Z"/><path class="cls-1" d="M105.21,37.46h0l-.65-.12c-1.48-.28-1.85-.83-2.34-2.19l-3.7-9.92c-.58-1.54-1-3.3-1.36-4.26-.06-.15-.15-.37-.21-.49a.39.39,0,0,0-.34-.19c-.68.06-1.26.09-1.85.09a23.84,23.84,0,0,0-2.56-.12.49.49,0,0,0-.31.56.59.59,0,0,0,.25.58,3.57,3.57,0,0,1,1.75.8A17.36,17.36,0,0,1,93,24.92l-3.61,9.61c-.8,2-1.26,2.44-2.53,2.72l-1,.22a.66.66,0,0,0,.09,1c.74,0,1.73-.12,2.87-.12s2.22.06,3.24.12c.4-.06.46-.83.12-1l-1.11-.22c-.77-.15-.9-.34-.46-1.67l1-2.66c.34-.93.46-1,1.38-1h3.92c.92,0,1,.06,1.38,1l1,2.69c.49,1.26.52,1.54-.53,1.7l-.83.12a.61.61,0,0,0,.09,1c1-.09,2.22-.12,3.67-.12s2.34,0,3.42.12A.62.62,0,0,0,105.21,37.46Zm-9-6.83h0l-2.68,0c-.9,0-1.33-.16-.86-1.27L94,25.67c.4-.93.58-1.36.65-1.45h0c0-.09.09-.16.12-.16s.25.16.31.37a8.49,8.49,0,0,1,.53,1.39L97,29.34C97.41,30.54,97.28,30.64,96.24,30.64Z"/><path class="cls-1" d="M174.69,24.74h0c0-2.87.06-3-1.73-3.33l-.77-.12c-.28-.19-.25-.89.09-1,1.6.06,2.65.12,3.94.12s2.59,0,3.95-.12c.34.12.37.83.09,1l-.55.12c-1.7.43-1.91.47-1.91,3.33v8.89a5.54,5.54,0,0,0,.43,2.87c.37.37,1.17.65,3.3.65,2.49,0,4-.12,5.21-3.43.28-.28,1-.22,1.08.15a16.11,16.11,0,0,1-1.23,4.6c-1.29,0-2.47-.06-3.64-.06s-2.16-.06-3.24-.06h-3.48c-1.29,0-2.25,0-3.82.12-.34-.12-.37-.83-.09-1l.77-.15c1.79-.28,1.6-.43,1.6-3.3Z"/><path class="cls-1" d="M169.69,29.31h0c0,5.59-4.16,9.66-10,9.63-6.35,0-10.11-4.17-10.11-9.39,0-5.53,4.2-9.73,10.11-9.73C166.37,19.83,169.72,24.24,169.69,29.31Zm-16.58-.43h0c0,4.29,2.1,8.89,6.84,8.89,3.11,0,6.29-2.16,6.29-7.84,0-4.42-2.28-8.89-6.78-8.89C156.5,21,153.11,23,153.11,28.88Z"/><path class="cls-1" d="M194.72,32.89h0c0-1.3-.12-1.64-1.14-3.52l-3-5.59c-.86-1.67-1.26-2-2.34-2.26l-1.08-.21a.7.7,0,0,1,.12-1c1.36.06,2.31.12,3.79.12,1.23,0,2.16-.06,3.48-.12.34.16.46.84,0,1l-.55.12c-.92.21-1,.46-.37,1.76l1.51,2.93c.62,1.23,1.23,2.38,1.85,3.46.65-1.14,1.27-2.13,2-3.46l1.64-3c.62-1.14.68-1.51-.28-1.67l-.86-.12a.6.6,0,0,1,.06-1c1.23.09,2.19.12,3.11.12s1.79,0,2.93-.12a.69.69,0,0,1,.09,1l-1,.19c-1.29.25-1.48.49-2.77,2.56l-2.53,4.14c-1.48,2.38-1.57,2.78-1.57,4v2.26c0,2.44.18,2.68,1.94,2.9l1,.12c.28.19.25.9-.09,1-1.79-.06-3.15-.12-4.41-.12s-2.59.06-4.44.12c-.34-.12-.37-.83-.09-1l1-.12c1.76-.22,1.91-.46,1.91-2.9Z"/><path class="cls-1" d="M136.19,33h0c0,3.46.12,4.29,3,4.35l1,.09c.22.19.16.9-.06,1-1.94-.06-4.13-.09-5.49-.09s-3.36,0-4.87.09c-.22-.09-.28-.77-.09-1l.83-.09c2.1-.25,2.53-.37,2.47-4.35V20.32c0-3-.06-3.59-1.6-3.74l-1.23-.12a.61.61,0,0,1,.06-.9,66.32,66.32,0,0,1,7.15-.28,16.51,16.51,0,0,1,7.28,1.45,6.61,6.61,0,0,1,3.76,5.93c0,3.37-2.74,5.37-4.81,6a15,15,0,0,1-5.67.34c-.28,0-.06-.65.16-.65,4.56,0,6.69-1.88,6.81-5.62.15-4.42-2.65-6.21-6.29-6.21-1.82,0-2.43.19-2.43,1.3Z"/><path class="cls-2" d="M56.16,19.67c-.06-.15-.34-.65-.4-.74a2.14,2.14,0,0,0-.74-.65,8,8,0,0,0-1.54-.47c-.34-.71.06-1.3,0-2.13,0-.09-.06-.19-.06-.28,0-.25,0-.47,0-.68a.55.55,0,0,0-.06-.25,7.46,7.46,0,0,1,.06-1.17,14.2,14.2,0,0,0-.06-2.1c0-.86,0-1.67,0-2.47s.12-1.94,0-2.9a3.22,3.22,0,0,0-.09-.49c0-.49.07-1,0-1.48,0-.34-.09-.68-.09-1a1.56,1.56,0,0,0,0-.65c.22-.16.09-.43.09-.74a1.52,1.52,0,0,0-.09-.56,1.37,1.37,0,0,0-.8-.8,5.27,5.27,0,0,0-.68,0A6.38,6.38,0,0,0,51,.28a1,1,0,0,0-.31,0,7.69,7.69,0,0,0-.83.21c-.31,0-.59.12-.9.16H48.4a5.44,5.44,0,0,1-.62.09,1.89,1.89,0,0,1-.43,0c-.09,0-.18,0-.25,0s-.16,0-.22,0a.91.91,0,0,1-.28.09,3,3,0,0,0-.92.09c-.09,0-.16,0-.18,0s-.12,0-.22,0a7.31,7.31,0,0,0-1.42.09c-.18-.09-.46,0-.68,0a11.41,11.41,0,0,0-1.57.12,2.25,2.25,0,0,0-.65,0,2.67,2.67,0,0,1-.68,0c-.06,0-.12,0-.18,0a5.64,5.64,0,0,0-.8,0,.92.92,0,0,1-.28,0,5.15,5.15,0,0,1-1.57,0c-.25.12-.77-.15-1,0-.21-.12-.43,0-.65-.06-.06,0-.16-.06-.22-.06l-.37,0c-.12,0-.28-.06-.43-.06l-2-.28A7.25,7.25,0,0,1,31.66.53,3.87,3.87,0,0,1,31,.5L30.83.41c-.18,0-.37,0-.53,0a7.44,7.44,0,0,1-.77-.19A8.22,8.22,0,0,0,27.87,0a4.57,4.57,0,0,0-1,.22,5,5,0,0,1-.71.12A3.93,3.93,0,0,1,25,.5c0,.12-.25,0-.25.09a11.53,11.53,0,0,0-1.17.15,6.49,6.49,0,0,1-.74.09,5.16,5.16,0,0,1-.52.09c-.06,0-.12,0-.18,0a5.68,5.68,0,0,1-.74.09.92.92,0,0,0-.31,0h-.22c-1,.09-2.1.19-3.27.19-.4,0-.8,0-1.14,0a7.79,7.79,0,0,0-.8,0c-.06,0-.15-.06-.22-.06-.4,0-.8,0-1.23,0l-.18,0c-.06,0-.12,0-.18,0s-.12,0-.18,0-.18,0-.25,0a.31.31,0,0,0-.15-.06c-.25,0-.43,0-.62,0C12.08,1,11.41,1,10.79,1c-.06,0-.12,0-.22,0s-.12,0-.18,0-.22,0-.31,0C9.49.84,9,.81,8.54.74A2,2,0,0,0,7.92.68C7.43.62,6.94.47,6.44.41A2.15,2.15,0,0,1,6,.41.62.62,0,0,1,5.8.31,8.63,8.63,0,0,0,4,.1c0,.06-.15.06-.22.06a1.43,1.43,0,0,1-.34.25c0,.19-.18.28-.28.43s0,.21,0,.31L3,1.36c-.06.25,0,.5-.06.74.09.28,0,.56.09.86a3.51,3.51,0,0,0,0,.8c0,.34-.06.8-.09,1.3-.06,0,.12,0,.06.15,0,.37.06.77,0,1.14A5.13,5.13,0,0,0,3,7a1.87,1.87,0,0,1,.09.4c0,.12-.06.19-.09.31a2.18,2.18,0,0,1,0,.43c0,.22.06.4.06.56A.82.82,0,0,1,2.93,9,8.15,8.15,0,0,0,3,9.82a1.55,1.55,0,0,0,.06.37,1.46,1.46,0,0,0-.06.53,3,3,0,0,0,0,.52c0,.09.09.19.12.28V12c0,.19-.09.37-.09.56s.06.16.06.25a1.76,1.76,0,0,1-.09.43,1.52,1.52,0,0,0,.06.74A2.37,2.37,0,0,0,3,15c0,.16,0,.25,0,.37v.22c0,.25,0,.43,0,.65A11.12,11.12,0,0,1,2.9,17.7c-.06.25-1,.31-1.39.56-.25.25-.59.34-.8.65s-.09.37-.31.49c-.06.19-.31.62-.4.86A4,4,0,0,0,.25,21.5c0,.19.06.28.06.56.09.06.06.06.06.21a1.1,1.1,0,0,1,.09.19,19.15,19.15,0,0,1,.31,2.1,4.34,4.34,0,0,1,0,.9c.09.34.06.65.12.93a7.35,7.35,0,0,0,.52,1.27c.18.15.52.31.62.56.28.06.37.37.68.43,0,.09.12.15.15.25s.18.06.22.15.25,0,.25.06a23.35,23.35,0,0,0,.28,2.35A1.81,1.81,0,0,1,4,32.58c.18.25.09.56.15.9,0,.06.06.15.06.21a1.51,1.51,0,0,1,0,.37c.06.19.22.37.15.62a4.49,4.49,0,0,1,.22.4v.28a1.86,1.86,0,0,0,.18.34,5.08,5.08,0,0,0,.49,1.42c.06.28.12.56.18.77s.09.12.12.22,0,.19,0,.28.12.15.18.25a1.37,1.37,0,0,1,.06.53,10.31,10.31,0,0,1,.49,1.23c.06.12.09.31.15.43s.18.15.22.25a.92.92,0,0,1,.06.31A15.38,15.38,0,0,0,8.2,44.13c0,.31.22.4.34.62a.53.53,0,0,0,0,.22c.06.09.25.15.28.28.06.37.4.62.56.83s.06.19.12.25.18.15.25.25a4.36,4.36,0,0,1,.25.56c0,.06.12.12.18.19a1.34,1.34,0,0,0,.18.22,2.68,2.68,0,0,1,.77,1.08,4.08,4.08,0,0,0,.68.56.77.77,0,0,0,0,.28,1.18,1.18,0,0,1,.43.34c.09.09.12.25.22.34s.22.15.31.25.06.19.12.25a4.38,4.38,0,0,1,.37.4,4.62,4.62,0,0,0,.34.4,3.08,3.08,0,0,1,.68.74c.25.09.34.31.52.46s.25.12.37.22a5.92,5.92,0,0,1,.46.43,2.16,2.16,0,0,0,.28.19,1.54,1.54,0,0,0,.22.25s.12,0,.18.06a8.66,8.66,0,0,0,1.26.77,3,3,0,0,0,1.23.9c.37.46,1,.62,1.39,1.08a6.25,6.25,0,0,0,1.2.62,1.14,1.14,0,0,1,.43.19,4.72,4.72,0,0,0,.68.34,4.66,4.66,0,0,0,1,.43,7.65,7.65,0,0,0,.9.19,1.64,1.64,0,0,0,.68.4,1.07,1.07,0,0,0,.31.06c.18.06.43,0,.65.09s.59.19.87.25l.46.09c.18,0,.34.09.49.12a2.33,2.33,0,0,1,.46,0h.25c.12,0,.25-.06.34-.06.4-.06.49,0,.74-.09a1.06,1.06,0,0,1,.31,0,5,5,0,0,1,1-.22,2.1,2.1,0,0,1,.83-.31,4,4,0,0,1,1.45-.37,4.36,4.36,0,0,1,1-.34,2.14,2.14,0,0,1,.25-.25c.09,0,.18,0,.28,0a2.64,2.64,0,0,0,.65-.4l.25-.09s0-.09.06-.12a.4.4,0,0,1,.15-.09,1.42,1.42,0,0,1,.28-.09s.09-.09.15-.12a.49.49,0,0,0,.22-.12,1.46,1.46,0,0,0,.43-.22c.18-.12.25-.43.58-.37a1.67,1.67,0,0,1,.49-.4c.12-.06.28-.06.37-.12s.16-.31.31-.34.16,0,.28,0c.21-.37.65-.49.86-.8a7.26,7.26,0,0,1,1-.65c.21-.31.55-.43.83-.71s.37-.49.59-.71.34-.19.46-.31.16-.25.28-.34.15-.19.25-.19c.06-.28.06-.12.21-.28a2.2,2.2,0,0,0,.46-.46c.06-.06.12-.19.18-.25a3.73,3.73,0,0,0,.8-1,2.61,2.61,0,0,0,.49-.56,1.59,1.59,0,0,0,.12-.25c.09-.12.31-.19.4-.31s.18-.4.4-.49c0-.15.09-.22.12-.34s.25-.12.31-.25a2.91,2.91,0,0,0,.25-.56c.16-.28.49-.43.65-.71.06-.09,0-.22.09-.31a1.36,1.36,0,0,1,.16-.28,3.07,3.07,0,0,1,.31-.37c.06-.34.37-.49.34-.83.25-.25.28-.71.55-.93a5.73,5.73,0,0,1,.53-1.24c.06-.25.25-.52.34-.77a4.57,4.57,0,0,0,.25-.4c.16-.31.06-.62.22-.9s.18-.37.21-.46.09-.25.09-.34c0-.25.25-.53.31-.83l.09-.4a2.27,2.27,0,0,0,.16-.43,2.61,2.61,0,0,0,.09-.49c.06-.25.22-.43.18-.71a3.2,3.2,0,0,0,.59-1.36,1.85,1.85,0,0,0,.18-1c0-.06.15-.16.15-.22s0-.19,0-.25l.09-.37a4.19,4.19,0,0,0,.15-1c0-.19.22-.37.16-.62.25-.31.12-.89.21-1.36a.79.79,0,0,1,0-.28c.06-.25-.06-.43.12-.9a5.57,5.57,0,0,0,.65-.56,2.62,2.62,0,0,0,1.26-1.63,6.1,6.1,0,0,0,.18-.74,8.12,8.12,0,0,0,.06-1.24,9.7,9.7,0,0,1,.12-1.36,4.94,4.94,0,0,1,.18-.71,9.18,9.18,0,0,0,.28-1.33,4.11,4.11,0,0,0,.09-.58A3.25,3.25,0,0,0,56.16,19.67ZM4,16.22c0-.49.06-1.08.06-1.42,0-1.11,0-2.19.06-3.27v-.86C4.07,8.93,4.07,7,4.07,5.19c0-.74,0-1.58,0-2.38a2.7,2.7,0,0,1,.09-1.23.67.67,0,0,1,.31-.28,1.5,1.5,0,0,1,.74.06l.4.09c.34.09.77.16,1.14.25s.55.06.83.09l.34.09c.46.06.89,0,1.29.06A6.92,6.92,0,0,1,10,2c.86.06,1.7.19,2.53.19s1.63.22,2.56.19a7.74,7.74,0,0,1,.83,0c.22,0,.52.06.68.06s.31,0,.43,0a11.09,11.09,0,0,1,1.42,0c.12,0,.28-.06.4-.06a11.68,11.68,0,0,0,1.42-.06c.12,0,.86-.09,1-.09.31-.06.68-.06,1-.09A29.87,29.87,0,0,0,28,1.15a1.74,1.74,0,0,1,.59,0,13.57,13.57,0,0,1,2,.4c.37.06.83.06,1.27.12.71.09,1.42.21,2.16.31.09,0,.12,0,.18,0s.12,0,.18,0c.25,0,.49.09.77.12a5.38,5.38,0,0,0,.68,0s.06.06.12.06c.31,0,.77.09,1.14.09s.77,0,1.08,0c.15,0,.28.06.43.06a3.12,3.12,0,0,1,.55,0,13.75,13.75,0,0,0,1.54,0c.46,0,.92,0,1.36,0s.65,0,1-.06.59-.06.9-.06.59-.06,1-.06S45.75,2,46.21,2a16.52,16.52,0,0,0,1.85-.16l2.22-.28a5.19,5.19,0,0,1,1.29-.22c.25,0,.53-.16.53.4a25.72,25.72,0,0,1,.18,3,1.68,1.68,0,0,1-.06.8,4.67,4.67,0,0,1,0,1.14s-.06.06-.06.09.06.19.06.28-.06.19-.06.28c0,.31.06.68.09,1s.06.59.06.86a2.31,2.31,0,0,0-.06.44,8.71,8.71,0,0,1-.06,1.3,2.84,2.84,0,0,0,0,.74,7.75,7.75,0,0,1,0,1.48c0,.34,0,1,0,1.39,0,1.14-.12,2.22,0,3.34,0,0,0,.09,0,.12s.06,0,.06.09,0,.4,0,.62,0,.4,0,.59c0,.4,0,.77,0,1.17a.67.67,0,0,1-.49.15c0-.34.06-.65.06-1s-.09-.68-.09-1c-.06-.71,0-1.45,0-2.19s0-1.51,0-2.25,0-1.33,0-2a.79.79,0,0,0,0-.28c0-.06,0-.15,0-.21,0-.22,0-.47,0-.74a5.32,5.32,0,0,1,.09-.71c-.09-1.3-.09-3-.09-4.35,0-.52.06-1,0-1.51a8,8,0,0,1-.06-1.23c0-.4.09-1-.25-1.21a1.39,1.39,0,0,0-.71,0,1.42,1.42,0,0,1-.71.06c-.09.09-.31.06-.4.15a2.27,2.27,0,0,0-.77.06,17.9,17.9,0,0,1-1.79.28c-.28,0-.59,0-.86,0a.25.25,0,0,0-.16,0c-.06,0-.06,0-.12.06h-.62a7.28,7.28,0,0,1-.86,0c-.16,0-.31.06-.49.06-.65,0-1.48.12-2.22.12-.59,0-1.17,0-1.73,0-.25,0-.49,0-.74,0s-.49-.06-.74-.06-.4.06-.59.06a7.45,7.45,0,0,0-1.63-.09,3.52,3.52,0,0,0-1-.15,6.56,6.56,0,0,0-.8,0c-.4,0-.77-.09-1.23-.12-.06,0-.16,0-.25,0S33,2.42,33,2.42a1.16,1.16,0,0,0-.34,0,2,2,0,0,0-.43-.06c-1-.12-2.16-.43-3.36-.53-.34.28-.25.74-.21,1.17a16.1,16.1,0,0,1,0,1.67c0,.34,0,.84,0,1.23,0,.65,0,1.61.06,2.38,0,.56,0,1.21,0,1.79,0,.43,0,.86,0,1.27,0,.12,0,.25,0,.37,0,.4,0,.71,0,1a12.73,12.73,0,0,0,0,1.48c0,.16.06.28.06.4s0,.37,0,.52.06.59.06.9c0,.12-.06.25-.06.37s.09.46.09.68-.06.19-.06.28.06.28.06.4-.06.19-.06.25a1.39,1.39,0,0,0,.06.37,1.14,1.14,0,0,1-.06.47v.37c0,.12,0,.25,0,.37s.09.19.09.31a2.75,2.75,0,0,1-.09.56c0,.06.06.15,0,.15s-.34.09-.43.06a2,2,0,0,1,0-.74,6.54,6.54,0,0,1,0-.8c0-.12,0-.21,0-.34a2.21,2.21,0,0,0,0-.47,5.3,5.3,0,0,1,0-1c0-1,0-1.94,0-3,0-.15,0-.31,0-.46a4.35,4.35,0,0,0-.06-.65c0-.25.06-.49.06-.74s-.06-.34-.06-.52c0-.49,0-1,0-1.58,0-1.39,0-2.53,0-3.86a6,6,0,0,1,0-.77c0-.22.06-.47.06-.65s-.06-.52-.06-.8.09-.71.06-1c0-.12,0-.25,0-.37,0-.47.06-.8-.28-1-.43-.06-.8.21-1.17.28s-.5.09-.74.12c-.58.06-1.23.16-1.85.25-.28.06-.52,0-.8.09a7.45,7.45,0,0,1-.83,0c-.12,0-.34.06-.56.06s-.49,0-.74,0-.28.09-.43.12c-.34,0-.74-.06-1.11,0-.12,0-.25.09-.37.09a1.1,1.1,0,0,1-.31,0,1,1,0,0,1-.31.09A4.32,4.32,0,0,1,18,2.88c-.59,0-1.39,0-2,0h-.59c-.34,0-.65.12-1,.09a1,1,0,0,0-.28-.06l-.8-.12a3.13,3.13,0,0,0-.55,0c-.65,0-1.26-.12-1.82-.16a6,6,0,0,1-.77,0c-.15,0-.28-.09-.46-.09a2.62,2.62,0,0,0-.49,0,2.31,2.31,0,0,0-.43-.09,3.12,3.12,0,0,0-.55,0c-.25,0-.52-.09-.8-.12C6.81,2.29,6.17,2.17,5.36,2c-.4-.06-.52-.12-.77.12v1.7c0,.49-.09,1-.06,1.42a2.92,2.92,0,0,0,.06.37c0,.71,0,1.51,0,2.26s.09,1.73,0,2.65c.09.16-.06.56,0,.71a.72.72,0,0,0-.06.37,4.64,4.64,0,0,0,0,.93,2.51,2.51,0,0,0,0,.49v.46c0,.34-.06.84-.06,1.27s0,.83.06,1.3c0,.09,0,.19,0,.25s-.06.12-.06.19.06.25.06.37a3.74,3.74,0,0,0,0,.59,2.68,2.68,0,0,1,.06.31c0,.12,0,.25,0,.34,0,1,.09,1.85,0,2.75a.94.94,0,0,1-.4,0,1,1,0,0,1-.06-.68,6.72,6.72,0,0,1-.06-1.79A.91.91,0,0,0,4,18.13,8.25,8.25,0,0,1,4,16.9a1.13,1.13,0,0,0,.06-.31A1.83,1.83,0,0,0,4,16.22ZM50.83,7.79a1.92,1.92,0,0,1-.06.56c.09.19.06.28.06.62,0,.06,0,.15,0,.21s-.06.09-.06.16v.4c0,.19-.06.52-.09.86.22.31,0,.65,0,1,0,.06.06.12.06.16,0,.19-.06.37-.06.52s.09.25.09.37c0,.4-.15.74-.12,1.17a8.48,8.48,0,0,1,0,1.27v.8c0,.52-.09,1-.06,1.45a2.16,2.16,0,0,1,.09.53.86.86,0,0,1-.06.28c0,.46.16,1,.09,1.42,0,.06-.06.12-.09.21a3.88,3.88,0,0,1-.12.86,3.16,3.16,0,0,1-1.14.31.31.31,0,0,1-.18-.06c-.06.06-.16.06-.22.12-.49-.09-1,0-1.51-.09-.12,0-.31,0-.43,0h-.18l-.18,0c-.22,0-.43.06-.59,0-.31.12-.62,0-.89,0-.09,0-.16,0-.25,0-.31,0-.65,0-1,0a1.86,1.86,0,0,1-.31.09,4.22,4.22,0,0,1-.59,0c-.06,0-.12-.06-.18-.06s-.31.06-.46.06a.47.47,0,0,1-.18-.06,2.15,2.15,0,0,1-.43,0c-.06,0-.12-.06-.22-.06a6.56,6.56,0,0,0-1.11,0c-.37,0-.74,0-1.08,0a6.6,6.6,0,0,1-.74.12c-.18,0-.37,0-.55,0a3.24,3.24,0,0,1-.53.06l-.77-.09a2.06,2.06,0,0,0-.62,0c-.22,0-.37-.16-.55-.19-.34,0-.83,0-1.24,0l-.62.09c-.06,0-.15,0-.25,0s-.12.06-.18.06a3.59,3.59,0,0,0-.55,0c-.15,0-.34.06-.49.06a2.32,2.32,0,0,0-.92,0,7.8,7.8,0,0,1-1.73-.22c0-.8,0-1.33,0-2.41a7,7,0,0,1,0-.77c0-.06,0-.15,0-.21s0-.22,0-.34a.78.78,0,0,0,0-.28c0-.16-.06-.37-.06-.56s.06-.16.06-.22a2.74,2.74,0,0,1-.12-.46,1.5,1.5,0,0,1,.09-.31c0-.09,0-.22,0-.34a2.4,2.4,0,0,0-.06-1c0-.12.09-.19.09-.28a1.61,1.61,0,0,0,0-.37c0-.16.09-.4.09-.68,0-.12,0-.28,0-.43s-.06-.09-.06-.16a.81.81,0,0,1,.06-.25c0-.43,0-.8,0-1.26V8.68a7,7,0,0,1-.06-.74c0-.12.06-.21.06-.31s0-.28,0-.4a1.74,1.74,0,0,1,0-.4c0-.43,0-1,0-1.39V3.9a1.56,1.56,0,0,0,0-.53s.09-.06.09-.09c.37,0,.46.06.77.06.12,0,0,.09.06.12s0-.12.12-.12a2.72,2.72,0,0,0,.68.06,1.73,1.73,0,0,1,.37.09c.25,0,.55,0,.77.06h.21c.18,0,.4.09.59.12a1.08,1.08,0,0,0,.46,0,1.24,1.24,0,0,0,.68.16.85.85,0,0,1,.28-.06,7.72,7.72,0,0,1,.9.06,5.77,5.77,0,0,1,.74,0s.06.06.09.06l.22,0c.06,0,.15.06.21.06.37,0,.77-.06,1.14,0a.83.83,0,0,1,.21.06A13.38,13.38,0,0,0,40,4c.58,0,1.11,0,1.75,0,.46,0,.92.06,1.39,0,.71-.06,1.42-.16,2.1-.19a4.7,4.7,0,0,0,.68,0,5.29,5.29,0,0,0,.65-.15l.37,0c.09,0,.15-.06.25-.06a6.62,6.62,0,0,0,.71,0,20.89,20.89,0,0,1,2.84-.31.89.89,0,0,1,.06.49,12.09,12.09,0,0,1,0,1.54.55.55,0,0,1-.06.34,3.78,3.78,0,0,1,.09,1c0,.22.06.43.06.62A2.1,2.1,0,0,0,50.83,7.79Zm-23.7,9.82c0,.12-.06.21-.06.34a1.46,1.46,0,0,0,.06.37c0,.22,0,.47,0,.68a6.07,6.07,0,0,0,0,.74,5.12,5.12,0,0,0-.12,1c-.22,0-.43.15-.65.15a1.66,1.66,0,0,1-.4,0,3.33,3.33,0,0,1-.77.06s-.09-.06-.12-.06-.22.06-.28.06a8.47,8.47,0,0,1-1.17-.06,7,7,0,0,0-.83,0,1.45,1.45,0,0,0-.37-.06,1,1,0,0,0-.31.06c-.12,0-.25-.06-.34-.06a6.27,6.27,0,0,0-1,.09,12.79,12.79,0,0,1-2.16.22,4.75,4.75,0,0,1-1-.16,6.09,6.09,0,0,0-1.51,0,9.47,9.47,0,0,0-1,.12c-.15,0-.34.06-.49.06-.37,0-.71-.09-1-.06-.12,0-.22,0-.34,0-.43,0-.86-.12-1.26-.06-.15,0-.28.09-.43.09a1,1,0,0,1-.25-.06c-.28,0-.74-.09-1,.12-.43-.22-.92,0-1.39,0-.12,0-.28-.09-.4-.09s-.49.06-.68.06S7.49,21,7.27,21a2.72,2.72,0,0,1-.71,0A.66.66,0,0,1,6,20.63c-.09-.19,0-.53,0-.8,0-.12-.06-.22-.06-.34s0-.43,0-.68a3.78,3.78,0,0,1-.06-.62c0-.34.09-.68.09-1,0-.68,0-1.3,0-2.1a5.94,5.94,0,0,0,0-.74.7.7,0,0,1-.06-.25,4.17,4.17,0,0,1,0-.62c0-.15-.09-.31-.09-.46,0-.43.06-.9.06-1.33s0-.93,0-1.36a10.72,10.72,0,0,1-.06-1.39A4,4,0,0,0,6,8.34c0-.12-.06-.25-.06-.37S6,7.48,6,7.23a8.41,8.41,0,0,1,0-.86A2.07,2.07,0,0,0,6,5.72a1.19,1.19,0,0,1,0-.8A1.75,1.75,0,0,1,6,4.23a1.76,1.76,0,0,1,0-.8c.15-.12.31.06.49.09l.4.09c.12,0,.25-.06.37-.06a.59.59,0,0,1,.15.06.71.71,0,0,1,.25,0c.12,0,.22.09.34.09s.28,0,.4,0c.34,0,.68.12,1,.16.15,0,.28,0,.43.06a3,3,0,0,0,.43.09c.22,0,.4-.06.59-.06a3.25,3.25,0,0,1,.52.06,1.4,1.4,0,0,0,.49.09c.09,0,.18-.09.28-.09a8.66,8.66,0,0,1,1.14.12c.52,0,1.11-.06,1.57,0a.69.69,0,0,1,.22.09h.43c.31,0,.83,0,1.23,0,.12,0,.25.06.37.06s.18-.06.28-.06l.12,0s0-.06.09-.06.18.06.28.06.22-.06.34-.06a4.26,4.26,0,0,0,.89,0c.15,0,.28-.12.43-.15.31,0,.65,0,1,0,.65,0,1.6-.16,2.16-.16.12,0,.25-.06.37-.06s.21,0,.34,0a2,2,0,0,0,.43-.09,9.59,9.59,0,0,0,1.42-.06c.09,0,.22-.15.31-.19s.53.06.77,0a1.46,1.46,0,0,0,.65-.12s0,0,0,0c.22.12.06.43.06.62,0,.34,0,.71,0,1.08a3.66,3.66,0,0,0-.06.4,6.07,6.07,0,0,1,.09,1,2.48,2.48,0,0,0-.06.71,10,10,0,0,1,.06,1,2.36,2.36,0,0,0-.06.4,1,1,0,0,0,.06.28c0,.59-.06,1.24-.09,1.86,0,.37,0,.8,0,1.14a.86.86,0,0,0,.06.28,7.24,7.24,0,0,1,0,1.14c0,.65,0,1.3.06,1.85,0,.25-.06.49-.06.74a1.07,1.07,0,0,0,.09.34c0,.12-.06.21-.06.31v.34c0,.12,0,.25,0,.34A1.33,1.33,0,0,0,27.13,17.61ZM51.88,30.88a3.31,3.31,0,0,1-.12.65c-.09.4-.12.86-.21,1.26a4.63,4.63,0,0,1-.18.59c0,.16,0,.34-.06.49s-.18.47-.22.68-.09.53-.15.74-.31.68-.4,1,0,.53-.09.74-.16.19-.18.31-.06.31-.12.43-.16.28-.18.4,0,.28-.06.4-.18.37-.25.56-.25.37-.31.52,0,.28-.09.4c-.21.65-.62,1.14-.77,1.73a11.22,11.22,0,0,1-.55,1c-.09.34-.25.65-.37,1a2.13,2.13,0,0,1-.37.53c-.16.25-.34.56-.49.83A12.88,12.88,0,0,0,46,46.26a4.6,4.6,0,0,1-.53.59c-.21.46-.52.83-.77,1.27-.18.06-.28.22-.44.31-.12.31-.21.65-.55.77-.31.52-.86.77-1.14,1.3a2.68,2.68,0,0,0-.43.37c-.12.12-.22.31-.34.43a3.38,3.38,0,0,0-.31.34s-.09,0-.12,0a5.3,5.3,0,0,0-.4.4,1.5,1.5,0,0,0-.53.46,2.67,2.67,0,0,1-.28.09,2.1,2.1,0,0,1-.49.56,1.85,1.85,0,0,1-.34.19,3.16,3.16,0,0,0-.31.31c-.09.06-.25.09-.34.15s-.31.34-.53.49a.6.6,0,0,0-.25,0,2.2,2.2,0,0,1-1,.65c-.21.19-.49.37-.71.59-.31,0-.43.25-.65.37a.46.46,0,0,0-.18,0s-.06.06-.09.06l-.4.22a.76.76,0,0,0-.34.28c-.06,0-.21,0-.25,0-.31.06-.52.34-.8.46a4.21,4.21,0,0,1-.74.19c-.18.09-.31.19-.49.28-.25-.09-.34,0-.58.12,0,0-.06-.09-.09-.09s-.12.15-.15.15-.09,0-.12,0a2.41,2.41,0,0,0-.43.15c-.12,0-.22,0-.31.06s-.16,0-.25.06a2.61,2.61,0,0,1-.74.15c-.12,0-.28,0-.4,0s-.18.12-.31.15-.31-.09-.49,0c-.34-.06-.83-.31-1.14-.15a4.35,4.35,0,0,0-1-.25,4,4,0,0,0-1.2-.34c-.09,0-.25,0-.34-.06s-.31-.25-.49-.31-.43-.09-.68-.19a.56.56,0,0,1-.28-.12s-.06-.09-.09-.09-.12,0-.18,0a1.63,1.63,0,0,0-.53-.25c-.15,0-.25-.19-.37-.25a1.8,1.8,0,0,0-.4-.06,3.36,3.36,0,0,1-.46-.25c-.15-.09-.31-.15-.43-.25-.28-.15-.49-.43-.77-.56a1.28,1.28,0,0,0-.25-.09c-.15-.09-.31-.25-.46-.34a4.31,4.31,0,0,0-.49-.31,4,4,0,0,1-.37-.34c-.15-.12-.34-.22-.49-.34s-.31-.28-.52-.31c-.12-.19-.34-.31-.46-.53a4.45,4.45,0,0,1-1-.83c-.09-.09-.22-.15-.31-.25s-.09-.15-.15-.22a1.11,1.11,0,0,0-.31-.22,6.1,6.1,0,0,1-.77-.77c-.15-.19-.37-.34-.55-.53s-.34-.37-.49-.52-.18-.12-.25-.19-.12-.22-.18-.31a1,1,0,0,1-.15-.31c-.15-.09-.22-.25-.4-.31-.15-.34-.46-.46-.55-.83-.28-.4-.59-.74-.86-1.14a2.65,2.65,0,0,1-.28-.34,2.3,2.3,0,0,1-.22-.37c-.15-.25-.34-.46-.49-.71s-.25-.52-.46-.68a3.77,3.77,0,0,0-.28-.62c0-.06-.09-.09-.12-.19A3,3,0,0,1,8.94,43a7.8,7.8,0,0,1-.49-1,4,4,0,0,0-.28-.49,7.8,7.8,0,0,1-.49-1,6.19,6.19,0,0,0-.31-.8l-.09-.09v-.15a2.17,2.17,0,0,0-.22-.28V39c0-.09-.09-.25-.15-.4s0-.19-.06-.28-.12-.15-.15-.22,0-.25-.06-.34a1.84,1.84,0,0,1-.18-.34,6.06,6.06,0,0,1-.18-.86c-.09-.34-.34-.71-.43-1a1.5,1.5,0,0,0,0-.37c0-.09-.09-.19-.12-.28a1.14,1.14,0,0,0,0-.34c0-.12-.09-.22-.12-.37a1.9,1.9,0,0,0-.09-.4,2.86,2.86,0,0,0-.15-.47c0-.15,0-.34-.06-.49s-.09-.25-.12-.37v-.25a9.06,9.06,0,0,1-.22-.93c.06-.25.34-.06.59-.12a4.44,4.44,0,0,1,.22,1.11c0,.06,0,.12,0,.19.09.34.15.59.25,1,0,.19.09.34.12.58a2.6,2.6,0,0,0,.12.47,3.53,3.53,0,0,0,.18.52,6.52,6.52,0,0,1,.22.84,2.12,2.12,0,0,0,.4.92,4.93,4.93,0,0,0,.25,1c.12.15.12.37.28.49a3.38,3.38,0,0,0,.15.52,4.53,4.53,0,0,0,.18.43c0,.09,0,.25.06.37s.28.43.37.68.12.46.22.62a5,5,0,0,1,.31.56c0,.09.12.19.15.28s.15.19.19.31.06.28.12.37a4.57,4.57,0,0,0,.4.65c0,.22.22.31.22.52l.18.28a1.85,1.85,0,0,0,.18.34c.18.25.22.46.49.65a3.72,3.72,0,0,0,1,1.61,6.21,6.21,0,0,0,.83,1.24c.22.31.56.49.77.8,0,.06.09.06.12.12a2.08,2.08,0,0,1,.22.34c.22.28.52.52.77.83,0,.06.09.06.12.12s.18.15.28.28a1.86,1.86,0,0,0,.25.25c.06.06.09.12.12.15s.15,0,.22.06,0,.09.06.12.09,0,.09,0,.15.22.28.34.28.12.34.28a6,6,0,0,1,.8.71c.12.09.18.25.28.34a4,4,0,0,0,.46.31,2.38,2.38,0,0,0,.83.59,7,7,0,0,0,1.48,1c.34.25.68.46,1,.71a2.69,2.69,0,0,0,.31.25,1.17,1.17,0,0,0,.31.09c.19.09.37.22.52.31a2.64,2.64,0,0,0,.28.09.86.86,0,0,0,.62.19,1.92,1.92,0,0,0,.43.25,1.12,1.12,0,0,0,.43.22c.15.06.31.09.46.15a2.67,2.67,0,0,1,.31.15,4.13,4.13,0,0,0,.92.37l.53.06c.22,0,.46.19.74.25a1.79,1.79,0,0,0,.43.12c.31.06.37,0,.53-.19a4.66,4.66,0,0,0,.12-1.76c0-1,.09-2.25,0-3.4a4.36,4.36,0,0,1,0-.9,9.3,9.3,0,0,0,0-1c0-.09-.06-.22-.06-.31a2.56,2.56,0,0,1,.06-.46c0-.46,0-1,0-1.48S28,46.94,28,46.26c0-.22,0-.4,0-.68s0-.83,0-1.24a8.94,8.94,0,0,1,0-1.61,4.34,4.34,0,0,0-.06-.62,8.65,8.65,0,0,1,.06-1.23c0-.49-.15-1-.12-1.48a2.32,2.32,0,0,0,.12-.59c0-.06-.06-.12-.06-.22s.06-.12.06-.19a7.11,7.11,0,0,0-.06-.83c0-.28.16-.65,0-.9a12.26,12.26,0,0,0,0-1.82c0-.52-.09-1-.06-1.48a7.52,7.52,0,0,0,.06-.84,7.06,7.06,0,0,1-.06-.8c0-.09,0-.15,0-.21,0-.22,0-.47.09-.65l.4-.09A8.24,8.24,0,0,1,28.51,33c0,.25,0,.47,0,.74,0,.56,0,1.11,0,1.64a5.29,5.29,0,0,0,0,1c0,.06,0,.12,0,.21a7.08,7.08,0,0,1,0,1.14,7,7,0,0,0,0,1.14c0,.15.06.31.06.43,0,.56-.09,1.11-.06,1.64,0,.12,0,.22,0,.34,0,.34,0,.71,0,1.08,0,.15.06.31.06.46a2.54,2.54,0,0,1-.06.49c0,.56.09,1.33,0,1.95,0,.09-.06.22-.06.31a3.37,3.37,0,0,0,.12.56c.12,1-.18,2,0,3-.16.25,0,.46,0,.71s-.09.74-.06,1.14.09.74.09,1.17-.06.68-.06,1c0,.71.09,1.48.09,2.22,0,.09-.06.15-.06.25s.06.31.06.46a3.52,3.52,0,0,0-.09.77c0,.12.09.19.09.31a.26.26,0,0,0,.09.28,1.31,1.31,0,0,0,.86-.06c.06,0,.09.09.18.06a2.16,2.16,0,0,1,.59-.19c.06,0,.15,0,.21,0a1.87,1.87,0,0,0,.55-.15,3.57,3.57,0,0,1,.55-.12,2,2,0,0,0,.59-.25,3.34,3.34,0,0,1,.43-.15,3.38,3.38,0,0,1,.92-.37c.21,0,.4-.31.62-.4.06,0,.18,0,.28,0a3.57,3.57,0,0,0,.53-.19c.15-.09.31-.28.46-.37a2.71,2.71,0,0,0,.4-.15,2.89,2.89,0,0,0,.37-.28,4.16,4.16,0,0,0,.86-.65,2.44,2.44,0,0,0,.8-.4.67.67,0,0,1,.09-.15c.09-.06.21-.09.34-.19a2.12,2.12,0,0,1,.25-.25c.18-.09.43-.06.49-.31.65-.34,1-1.11,1.7-1.42.21-.22.43-.49.68-.71a1.6,1.6,0,0,1,.25-.19c.25-.22.37-.53.65-.68a.28.28,0,0,0,.09-.15c.31-.12.37-.52.68-.68.12-.4.49-.56.62-1a1.1,1.1,0,0,0,.53-.46,1.24,1.24,0,0,0,.18-.22c.06-.09.06-.22.12-.28.09-.22.34-.37.37-.68a3.12,3.12,0,0,0,.65-.77l.18-.19a3.14,3.14,0,0,1,.53-.86,2.66,2.66,0,0,1,.52-.93,1.33,1.33,0,0,1,.16-.49c0-.06,0-.12.06-.15.12-.22.34-.43.46-.65,0,0,0-.09,0-.15a2.93,2.93,0,0,0,.15-.31,2.77,2.77,0,0,1,.18-.52,2.7,2.7,0,0,1,.34-.49c.09-.19.12-.4.21-.62a2.18,2.18,0,0,1,.22-.37l.09-.22c0-.09,0-.15,0-.25a.92.92,0,0,1,.15-.31c.09-.28.18-.62.28-1a1.75,1.75,0,0,0,.43-.93,2.27,2.27,0,0,1,.06-.49c0-.12.18-.22.25-.34s0-.15,0-.21a7.43,7.43,0,0,0,.25-1.11c.06-.25.25-.43.31-.68s0-.43.06-.65a12.2,12.2,0,0,1,.37-1.48c0-.09.06-.19.06-.28a2.48,2.48,0,0,0,0-.49,4.62,4.62,0,0,0,.16-.65c.15-.09,0-.31.25-.31h.18C52,30.54,51.85,30.79,51.88,30.88Zm-45-1.11A23.73,23.73,0,0,1,9.46,30c.06,0,.15,0,.22,0a.31.31,0,0,0,.15.06c.09,0,.22-.06.34-.06l.25,0c.12,0,.25-.06.37-.06s.49,0,.71,0,.46-.16.71-.19.43,0,.65,0a4.4,4.4,0,0,1,.62,0c.43,0,.83.12,1.26.12.12,0,.25-.06.37-.06s.15.06.25.06.15,0,.25,0,.28.06.4.06.37-.06.59-.06c.43,0,.8.06,1-.16a5.7,5.7,0,0,0,1.48.06,1.31,1.31,0,0,0,.34.09c.34,0,.68,0,1,0,.06,0,.15.06.25.06a1.9,1.9,0,0,0,.43,0c.12,0,.28-.06.4-.06s.25.06.37.06a1.31,1.31,0,0,0,.34-.09.79.79,0,0,0,.28,0c.18,0,.37-.09.55-.12a3.22,3.22,0,0,1,.52.06l.71,0a3.3,3.3,0,0,1,.52.09,3.71,3.71,0,0,1,.62,0c.34,0,.62.09.9.06s.37-.12.55,0c0,.28,0,.71,0,1,0,0,0-.09,0-.09s-.06.28,0,.4.06.22.06.31,0,.22,0,.34a5.77,5.77,0,0,1,0,.74c0,.37,0,.77,0,1.14,0,.15-.06.34-.06.52,0,.34.06.68.06,1s-.06.71-.06,1.11a1,1,0,0,1,.06.34.54.54,0,0,1-.06.22c0,.19.06.34,0,.49a1.66,1.66,0,0,1,0,.56c.09.49-.06,1.14,0,1.79,0,.15.06.28.06.4s-.06.22-.06.31,0,.19,0,.25a.9.9,0,0,0,0,.28c0,.15.06.31.06.43.06.43-.12.93,0,1.45,0,.09.06.22.06.34,0,.28-.06.56,0,.83,0,.12.09.25.09.37s-.12.31-.12.43,0,.19,0,.28a.79.79,0,0,1,0,.28c0,.46.09,1,.06,1.51,0,.37-.06.71-.06,1.05a1.46,1.46,0,0,1,.06.37c0,.34-.06.68-.06,1a1.54,1.54,0,0,1,.09.37,3.29,3.29,0,0,1-.09.56c0,.37.06.71.09,1.08s-.06.74-.06,1.14c0,.09.06.22.06.34a.87.87,0,0,1-.06.22c0,.06,0,.15,0,.25a.56.56,0,0,1-.06.25c0,.28.06.49.06.77a9.41,9.41,0,0,0,0,1.64c-.31.37-.65-.19-1.08-.06a1.24,1.24,0,0,0-.4-.22,1.06,1.06,0,0,0-.71-.19c-.22-.15-.55-.15-.71-.34H23.8a11.49,11.49,0,0,1-1-.62c-.16-.06-.34-.09-.46-.15S21.95,54,21.7,54s-.43-.43-.8-.49c-.65-.49-1.36-.9-2-1.39-.22-.43-.77-.56-1.11-.9-.12-.09-.18-.22-.31-.31s-.12-.09-.18-.12a1,1,0,0,0-.09-.19,1.87,1.87,0,0,0-.31-.22,3.47,3.47,0,0,1-.68-.8,7.09,7.09,0,0,1-1.11-1,3.51,3.51,0,0,1-.34-.34,7.39,7.39,0,0,1-.43-.62,6.46,6.46,0,0,0-.43-.52,5.8,5.8,0,0,1-.62-.9,1.64,1.64,0,0,0-.18-.31,2.79,2.79,0,0,0-.49-.56,1.72,1.72,0,0,0-.62-1,3,3,0,0,0-.37-.77,1.86,1.86,0,0,1-.25-.25c-.09-.12-.12-.31-.28-.4,0-.09,0-.12,0-.22-.22-.25-.28-.65-.56-.8,0-.15-.09-.19-.15-.28-.12-.4-.31-.74-.46-1.17,0-.09-.06-.25-.09-.31s-.18-.19-.22-.28a4,4,0,0,1-.22-.65A7.65,7.65,0,0,0,8.82,38a1.62,1.62,0,0,0-.4-1,7.91,7.91,0,0,0-.12-.9,1.18,1.18,0,0,0-.15-.25c-.06-.12-.09-.21-.15-.37a1.83,1.83,0,0,1-.18-.34c-.12-.31,0-.68-.31-1,.09-.4-.15-.71-.22-1.08a1.72,1.72,0,0,0,0-.4c0-.12-.12-.25-.15-.37s0-.31,0-.47S7,31.66,7,31.56a4.88,4.88,0,0,1-.09-.71.67.67,0,0,0,0-.25c0-.06,0-.12,0-.19s0-.16,0-.22S6.84,29.89,6.87,29.77Zm23,7.6c0-.12.06-.25.06-.34,0-.31-.18-.65.06-.93,0-.31.09-.68-.12-.93A4,4,0,0,0,30,33.91a1.06,1.06,0,0,1-.09-.28c-.09-.65.21-1.39-.09-1.82a2.73,2.73,0,0,0,0-1.57c.06-.12,0-.34.09-.47.34,0,.77,0,1.17-.06.22,0,.43-.09.65-.09s.25,0,.34,0c.28,0,.53-.09.77-.09a2.1,2.1,0,0,0,.77,0h.09c.46,0,1,.19,1.48.19a2.81,2.81,0,0,1,.49,0c.18,0,.37.06.55.06a.85.85,0,0,0,.28-.06c.49,0,1,.12,1.38-.09a5.34,5.34,0,0,0,1.42-.06c.25.19.71.12,1.11.15a5.86,5.86,0,0,0,1,0c.09,0,.22,0,.31,0s.37,0,.55,0a5.49,5.49,0,0,1,1.42-.09c.22.06.62,0,.93,0s.46.12.71.16.49,0,.74,0a1.05,1.05,0,0,1,.28.09,11,11,0,0,0,1.45-.09,18.45,18.45,0,0,1,1.88-.19s.09-.06.12.06a.47.47,0,0,1,.49,0c.15.34-.06.65-.12,1s-.12.68-.16,1a1.64,1.64,0,0,1,0,.56c-.06.28-.16.56-.25.86-.22.71-.4,1.49-.62,2.19-.06.16-.06.34-.12.47s-.18.31-.25.46,0,.28,0,.4-.09.15-.12.25l-.28.77a1.88,1.88,0,0,1-.16.56,1.75,1.75,0,0,0-.12.22,1.13,1.13,0,0,1-.09.25c-.12.34-.31.65-.43,1a3.06,3.06,0,0,1-.43,1,1,1,0,0,1-.34.62,4.62,4.62,0,0,1-.37.83.64.64,0,0,0-.15.25c-.06.09,0,.25-.09.34a2.75,2.75,0,0,1-.46.59,11.16,11.16,0,0,1-1.27,1.88.8.8,0,0,1-.22.46c-.06.12-.12.28-.21.43s-.34.28-.4.49-.28.22-.4.37-.12.37-.22.56-.31.28-.34.49c-.37.12-.59.56-.86.83-.09.12-.22.22-.31.34a1.65,1.65,0,0,0-.34.28,1.73,1.73,0,0,1-.15.25c-.16.19-.4.31-.53.59a.92.92,0,0,0-.25.12c-.06.06-.06.19-.12.25s-.18.06-.25.12-.09.22-.15.31-.22.15-.37.25-.55.19-.65.49c-.15.09-.31.15-.37.31a.81.81,0,0,0-.4.31,2.77,2.77,0,0,0-.8.52c-.25.15-.49.34-.74.53-.34-.09-.46.31-.68.43a1.87,1.87,0,0,0-.34.09c-.09,0-.12.12-.22.19a3.06,3.06,0,0,1-.68.28c-.31.15-.58.4-.92.56a3.39,3.39,0,0,0-.52.15c-.25.09-.4.28-.74.28-.09,0-.16.22-.22.25s-.18,0-.28.06l-.22.09h-.34c-.34.09-.74.46-1.11.28a.63.63,0,0,1-.22-.37A1.48,1.48,0,0,1,30,55.4c0-.09,0-.19,0-.25S30,55,30,54.88a7.08,7.08,0,0,0,0-1.14.61.61,0,0,1-.06-.22c0-.19.09-.37.09-.56a2.22,2.22,0,0,0,0-.62c0-.15-.09-.34-.09-.49a1.78,1.78,0,0,1,.09-.4v-.59a.68.68,0,0,1-.06-.25A.43.43,0,0,1,30,50.4c0-.12,0-.31,0-.43s0-.34,0-.43a1.17,1.17,0,0,1-.09-.25c0-.25.06-.56,0-.8a1.31,1.31,0,0,1-.09-.34,3.5,3.5,0,0,1,.12-.43,4.22,4.22,0,0,0,0-.59.93.93,0,0,1-.09-.28c0-.28.09-.62.09-1s-.16-.74-.12-1.05c0-.12.09-.25.12-.4,0-.34-.06-.86,0-1.3s.16-.77,0-1a1.27,1.27,0,0,0,0-.83,4.15,4.15,0,0,0,0-1.39,2.51,2.51,0,0,1-.06-.74,1.49,1.49,0,0,0,.09-.34,2.79,2.79,0,0,0-.12-.56C29.93,38.08,29.84,37.71,29.87,37.37ZM55.52,20.6a3,3,0,0,1-.16,1c-.09.28-.12.53-.21.84l-.06.12a16.7,16.7,0,0,0-.28,1.91,1.11,1.11,0,0,0,0,.31c0,.06-.06.12-.06.15s.06.06.06.09a2.35,2.35,0,0,1-.12,1,6,6,0,0,1-.31.77s-.06,0-.09.06a1.43,1.43,0,0,0-.09.22c-.09.09-.21.12-.25.25a4.22,4.22,0,0,0-.37.21c-.12.06-.28.12-.34.25-.21,0-.37.28-.52.31a1.68,1.68,0,0,1-.55,0,.63.63,0,0,1-.25.09,4.25,4.25,0,0,1-.65,0,4.2,4.2,0,0,1-1.08-.09,7.36,7.36,0,0,0-1.45,0c-.21,0-.4.16-.58.19a9,9,0,0,1-1,0,11.8,11.8,0,0,1-1.48,0,3.45,3.45,0,0,0-.58,0,.56.56,0,0,0-.25-.06,6,6,0,0,0-.77,0l-.71-.09a1.16,1.16,0,0,1-.34,0c-.12,0-.25-.09-.34-.06a4.47,4.47,0,0,0-.52.16h-.43c-.43,0-.9,0-1.23.06-.62-.12-1.23-.09-1.91-.19a1.76,1.76,0,0,0-.59,0,1.1,1.1,0,0,1-.31,0l-.15.09s-.06,0-.12,0l0,.06c-.09,0-.15,0-.25,0a.47.47,0,0,0-.18.06l-.21,0a.31.31,0,0,0-.18.06,1.64,1.64,0,0,0-.4,0c-.37,0-.77,0-1.2,0a5.77,5.77,0,0,0-.71,0c-.4,0-.8-.09-1.23-.12h-.16c-.09,0-.12,0-.18,0a3.3,3.3,0,0,1-.52.09,3.71,3.71,0,0,1-.55-.09H31.1a.75.75,0,0,1-.25.06,3.93,3.93,0,0,1-.8-.06,2.45,2.45,0,0,1-.46,0,7.25,7.25,0,0,0-1.14-.16c-.15,0-.31.09-.49.12a4,4,0,0,1-.83.09c-.59,0-1.18,0-1.76,0a15.89,15.89,0,0,0-1.7-.06.6.6,0,0,1-.25.06,3.41,3.41,0,0,1-.52,0c-.12,0-.22.06-.34.06s-.49,0-.77,0-.4.06-.59.06H19.48l-.83-.09a13.87,13.87,0,0,0-1.54.12,3.18,3.18,0,0,0-.52,0c-.09,0-.15.06-.25.06a5.55,5.55,0,0,1-.74,0c-.4,0-.77,0-1.14-.09l-.28-.09a10.35,10.35,0,0,0-1.66.15,2.59,2.59,0,0,0-1.2.16c-.09-.06-.25-.06-.34-.12a8.06,8.06,0,0,1-1.45.12c-.46,0-.89-.25-1.33-.25l-.49,0c-.12,0-.22-.09-.34-.12a6.65,6.65,0,0,0-1.08.09,9.07,9.07,0,0,1-1.42.15l-.28,0L4,28.2a.18.18,0,0,0-.12,0,1.53,1.53,0,0,1-.77-.4c-.15-.12-.34-.19-.43-.28a2.3,2.3,0,0,1-.22-.28,3.9,3.9,0,0,1-.4-.53c-.12-.19-.22-.21-.31-.46a9.57,9.57,0,0,1-.22-1.82c-.06-.25-.12-.59-.18-.9s0-.74-.06-1A2.38,2.38,0,0,0,1.08,22c0-.15-.06-.34-.09-.52a3.14,3.14,0,0,1-.06-1.51c.12-.15.25-.37.4-.56a1.82,1.82,0,0,1,.46-.49,1.3,1.3,0,0,0,.28-.09.9.9,0,0,1,.77-.12,1,1,0,0,1,0,.68c-.09.19-.46.19-.62.4s0,.28-.22.47a1.5,1.5,0,0,1-.09.56,2.7,2.7,0,0,0,.52.74c.31,0,.59.09.89.12a13.49,13.49,0,0,0,1.45-.12,32.48,32.48,0,0,1,3.91.21,2.31,2.31,0,0,0,.65-.06.35.35,0,0,1,.18-.06,4.47,4.47,0,0,1,.62.06c.18,0,.31-.12.43-.12s.22,0,.31,0,.19-.06.28-.06a10.63,10.63,0,0,1,1.45,0,16.65,16.65,0,0,0,2.13,0,8.33,8.33,0,0,1,.89-.12,3.82,3.82,0,0,1,.86.06c.31,0,.62,0,.89,0a10.89,10.89,0,0,0,2.25.06,8.73,8.73,0,0,0,.92-.06c.43-.06.8-.15,1.17-.21a8.42,8.42,0,0,0,1.51,0,3.57,3.57,0,0,0,1.36.12h1a1,1,0,0,1,.25-.06,7.76,7.76,0,0,0,.8,0l.28-.09c.18,0,.37,0,.58,0,.4,0,.83,0,1.23-.06.16,0,.34,0,.49,0s.25,0,.34,0,.25.06.4.06.22,0,.34,0,.43.09.65.12h.74c.09,0,.16-.06.22-.06s.15,0,.25,0,.12-.06.21-.06a1.41,1.41,0,0,1,.16,0,7.21,7.21,0,0,1,.83-.12c.49,0,1,.06,1.51,0a5.14,5.14,0,0,1,.71,0c.06,0,.09,0,.18,0s.12,0,.21,0l1,.19a3.18,3.18,0,0,0,.8.06c.4,0,.8-.09,1.2-.12s.83,0,1.26-.06c.06,0,.18-.06.25-.06s.25.06.34.06l.37,0c.52,0,1,.21,1.51.21l.49,0a8.77,8.77,0,0,1,1-.06,7.79,7.79,0,0,1,1.27-.06c.43.06.83.28,1.26.12a5,5,0,0,0,1,.09,2.56,2.56,0,0,0,.4-.09,8.67,8.67,0,0,1,.92,0l1,0c.43-.06.86-.06,1.29-.09a4.35,4.35,0,0,1,.9,0,4.94,4.94,0,0,0,1.17.15,2.53,2.53,0,0,0,.77-.21c.46-.28.74-1.36.21-1.76-.31-.25-.92-.31-.8-.74.06-.15.37-.25.62-.21s.46.21.65.28.43.31.37.59c.09.09.15.25.25.34s0,.19,0,.31,0,.19,0,.28.09,0,.09.09S55.52,20.57,55.52,20.6Z"/><path class="cls-2" d="M30.73,35.89c0,.09,0,.21.06.31s.06.09.09.18l.09.19a.37.37,0,0,1,0,.19,2.16,2.16,0,0,0,.09.25s.06.09.12.12.06.09.09.12c.18.22.31.4.58.46.09,0,.22,0,.37,0a6.57,6.57,0,0,0,.92-.09l.4-.09a.44.44,0,0,1,.21-.06.53.53,0,0,1,.22,0,.45.45,0,0,0,.21,0s0,0,0,0l.09,0a.42.42,0,0,1,.25-.06c.09,0,.18,0,.25-.09l.06,0,0,.06a3.11,3.11,0,0,0,.21.56c.06.15.16.31.22.46s0,.15,0,.22,0,.15.06.19a.47.47,0,0,1,.06.19c0,.09.06.15.09.25s.12.4.18.59a5.58,5.58,0,0,0,.25.83l0,.06a.71.71,0,0,1,.06.37c.25.25.12.49,0,.71a2.5,2.5,0,0,1-.12.25v0a2,2,0,0,0-.59.8v0h0a.73.73,0,0,0-.19.25.86.86,0,0,1-.21.25,1.69,1.69,0,0,1-.25.46,1.08,1.08,0,0,0-.28.56l0,0c-.09,0-.12.12-.18.22a.62.62,0,0,1-.18.22,7.37,7.37,0,0,1-.62,1.17,10.73,10.73,0,0,0-.68,1.33v0a7.11,7.11,0,0,0-.49.83,2.59,2.59,0,0,1-.25.49,4.11,4.11,0,0,0-.25.56l-.09.19a.11.11,0,0,0,0,.06,2.6,2.6,0,0,0-.16.43v.06a.25.25,0,0,0-.12.12l-.09.09v.28a.47.47,0,0,0-.18.46v.06a.31.31,0,0,0-.09.34.29.29,0,0,0,.18.19h0c.18,0,.28-.25.4-.46,0,0,0-.06,0-.09a2.45,2.45,0,0,0,.21-.37,1.06,1.06,0,0,0,.18-.31l0,0a4.24,4.24,0,0,1,1.23-.49l.15,0A2.25,2.25,0,0,1,34,48.24c.06-.31.15-.49.34-.59a2,2,0,0,1,.43-.74,3.51,3.51,0,0,0,.31-.43l0,0a1.49,1.49,0,0,0,.59-.49s.09-.09.09-.09a1.78,1.78,0,0,0,.55-.4l.28-.19.06-.06a2.43,2.43,0,0,1,.83-.46h.06a1,1,0,0,1,.18.56.11.11,0,0,1,0,.09s0,0,0,0a.19.19,0,0,1,.09.15,7.94,7.94,0,0,0,.21,1c.06.22.12.46.18.71a.37.37,0,0,0,0,.19.77.77,0,0,0,.09.4,1.49,1.49,0,0,0,.46.4,1.8,1.8,0,0,0,.58.12,2,2,0,0,0,1-.31v0a.71.71,0,0,0,.34-.09,3.62,3.62,0,0,0,.25-.68V47a.1.1,0,0,0,0-.06s0-.06-.06-.12a.68.68,0,0,1-.09-.15v-.19l-.09-.09a.42.42,0,0,0-.09-.12.5.5,0,0,1,0-.22s0-.09-.06-.15,0-.06-.06-.12a.48.48,0,0,1-.09-.22s0,0,0-.06a.11.11,0,0,1,0-.06.18.18,0,0,1,0-.12c0-.06,0-.09,0-.12l0,0s-.06,0-.06-.06a.92.92,0,0,1-.09-.28.37.37,0,0,0,0-.19.22.22,0,0,0-.06-.12L40,44.38l-.18-.46c-.06-.19-.12-.31-.18-.46v0a1,1,0,0,0-.18-.52,1.27,1.27,0,0,1-.22-.68v0a.58.58,0,0,1,.22-.19,1.11,1.11,0,0,0,.28-.25s.06,0,.12,0,0,0,0,0l.25-.25c.28-.22.52-.46.37-.83l0-.09h.06a1.16,1.16,0,0,0,.68-.31l.06-.06a.74.74,0,0,1,.16-.09.92.92,0,0,0,.49-.86v-.06a.92.92,0,0,1,.49-.15s0-.06.06-.09a2.06,2.06,0,0,1,.68-.4c.15-.19.43-.56.18-.83l-.06-.06h.09a2.05,2.05,0,0,0,.62-.37,4,4,0,0,1,.53-.31.09.09,0,0,1,0-.06c.15-.25.28-.46.09-.62l-.06-.06.09,0a6.61,6.61,0,0,0,1.17-.74.65.65,0,0,0-.09-.37l0-.06.06,0,.4-.19c.43-.19.86-.37.83-1v0h0c.09-.06.18-.09.28-.15.46-.22.92-.44.68-1v-.06a1.6,1.6,0,0,1,.25-.19.89.89,0,0,0,.18-.16,2.28,2.28,0,0,0,.37-.77.56.56,0,0,0-.34-.4.78.78,0,0,0-.28-.06H48a1.48,1.48,0,0,1-.34,0l0,0a.78.78,0,0,1-.49.16h0c-.31.21-.62.43-.89.65s-.8.56-1.23.8a1.1,1.1,0,0,1-.34.31,1.06,1.06,0,0,0-.28.19,1.67,1.67,0,0,1-.22.16.68.68,0,0,1-.12.06,1.37,1.37,0,0,0-.28.19l-.09.09s-.06,0-.09.06a2.36,2.36,0,0,0-.49.46,2.72,2.72,0,0,1-.55.49s-.06,0-.12.06-.06,0-.09,0l-.09.15s0,.09-.09.12A.89.89,0,0,1,42,35c-.12.09-.22.15-.25.25v0h0a1.57,1.57,0,0,0-.4.28l-.06.06-.16.15s-.06.06-.06.09,0,.09-.09.12a1,1,0,0,1-.28.21.46.46,0,0,0-.12.09c0,.06-.09.12-.12.18a.17.17,0,0,0-.09.15l0,0a2,2,0,0,0-.52.49l-.34.34s-.06.06-.09.06l-.09.06s0,.06-.06.12,0,.12-.09.15a.78.78,0,0,1-.28.28,1.42,1.42,0,0,1-.21.22v0c-.06.12-.12.28-.31.28h0A.48.48,0,0,1,38,38.2a.55.55,0,0,1-.18-.37.3.3,0,0,0,0-.15.25.25,0,0,0-.06-.12.15.15,0,0,1-.06-.12c0-.06,0-.15-.06-.22a.37.37,0,0,0,0-.19,1.53,1.53,0,0,0-.09-.22.26.26,0,0,1,0-.15c0-.22.22-.28.4-.31s.31-.09.34-.15l0,0h0a.28.28,0,0,0,.22-.09.11.11,0,0,0,.06,0,1.09,1.09,0,0,0,.25-.15c.12-.06.25-.16.37-.22a1.86,1.86,0,0,1,.37-.12l.28-.09a.73.73,0,0,0,.28-.4c0-.09.09-.19.12-.28a1.91,1.91,0,0,1,0-.4,1.62,1.62,0,0,0,0-.4.86.86,0,0,0-.06-.25.7.7,0,0,1-.09-.22v-.28c0-.12-.06-.21-.09-.31a1.13,1.13,0,0,1-.12-.43l0,0a3.18,3.18,0,0,1-.25-.47v-.12a1.14,1.14,0,0,0,0-.15,1.83,1.83,0,0,0-.77-.56.85.85,0,0,0-.31-.09.5.5,0,0,0-.18,0h-.31l-.12,0a.23.23,0,0,1-.12.06.37.37,0,0,1-.18,0h-.18a2,2,0,0,1-.4.06l-.21,0a.64.64,0,0,0-.4.16,1.62,1.62,0,0,1-.4.12l-.06,0v-.31a1,1,0,0,1-.18-.19l-.18-.19h-.09a.2.2,0,0,0-.12,0,.46.46,0,0,0-.28-.06.82.82,0,0,0-.25,0h-.25s0,0,0,0-.06,0-.09,0,0,0-.06,0h-.06s0,0-.06,0a0,0,0,0,1,0,0s0,.06-.06.06a.25.25,0,0,1-.12,0h-.06a2,2,0,0,0-.65.43.38.38,0,0,1-.12.25c0,.09-.09.16-.09.22a.74.74,0,0,0,0,.25.64.64,0,0,1,0,.34v0h0a1,1,0,0,1-.55.21.65.65,0,0,1-.43.22c-.06,0-.15,0-.21.06a2.21,2.21,0,0,0-.34.25,1.19,1.19,0,0,1-.55.31.8.8,0,0,1-.15.28,1.07,1.07,0,0,0-.28.56,4.39,4.39,0,0,0,.12,1.08A1.08,1.08,0,0,1,30.73,35.89Zm3.85,9.76a1.38,1.38,0,0,1-.12.37c-.09.19-.28.34-.37.52s0,.12,0,.19-.15.25-.21.37a2.67,2.67,0,0,0-.22.31s0,.09,0,.12a7.14,7.14,0,0,0-.49,1c-.06.15-.06.37-.16.59a5.34,5.34,0,0,0-.74.28,5.8,5.8,0,0,1,.65-1.24,1.35,1.35,0,0,1,.25-.62c.12-.22.25-.4.37-.59s.12-.31.21-.46a1.75,1.75,0,0,1,.12-.22.76.76,0,0,0,.12-.37c.16,0,.16-.22.28-.25a1.56,1.56,0,0,1,.18-.46,1.59,1.59,0,0,1,.28-.37c0-.09.06-.12.06-.19.31-.31.4-.8.74-1,0-.09,0-.12,0-.19.31-.34.53-.77.8-1.14h.09c.15.19,0,.46-.18.56-.06.37-.34.52-.43.83a2.84,2.84,0,0,0-.59,1c-.16.09-.22.25-.34.4S34.68,45.46,34.59,45.64ZM37,43.36c0,.15-.22.19-.34.25a1.49,1.49,0,0,1-.43.28C36.28,43.64,36.81,43.11,37,43.36Zm-.83,1.48A12.52,12.52,0,0,1,35,45.92c-.06-.09.09-.12.12-.22s0-.12,0-.19.44-.31.62-.49.18-.25.28-.34.31-.22.43-.31.12-.06.16-.09a4.78,4.78,0,0,1,.4-.28c.06,0,.06,0,.06.06C36.81,44.32,36.5,44.59,36.19,44.84Zm3.05-3.37c0-.12,0-.19.06-.28.28-.09.46-.31.8-.37,0,0,0,0,0,.06A1.12,1.12,0,0,1,39.24,41.47Zm1.42-1.54c-.18.09-.43.19-.65.28a.5.5,0,0,1-.43.06c.12-.49.65-.59,1-.8.34.15.49-.09.83-.09C41.43,39.75,41,39.78,40.66,39.93Zm6.44-6.7c-.18.12-.49.25-.71.4-.18,0-.31.12-.46.19s-.25,0-.34.06-.37.22-.55.31-.52.19-.49.37c.09.34.49,0,.65,0s.28-.06.4-.12a4.34,4.34,0,0,1,.68-.31c0,.15-.34.21-.55.31-.06,0-.15.12-.25.19-.25.12-.55.09-.74.28-.37-.12-.4.28-.65.4s-.34.09-.34.28a.17.17,0,0,0,.09.16c.49,0,.9-.4,1.45-.49.09,0-.18.28-.25.31a1.91,1.91,0,0,1-.43.06c-.15,0-.21.12-.34.19a1.37,1.37,0,0,0-.21.06,1.43,1.43,0,0,0-.46.31c-.21.12-.62.15-.62.4,0,.49.71,0,1,0-.18.62-1,.56-1.51.93-.31,0-.37.22-.68.22-.12.15-.4.19-.58.31s-.4.46,0,.49c.12,0,.18-.06.34-.15a2.5,2.5,0,0,1,.37-.12l.34-.19c.22-.09.49-.15.71-.25,0,.4-.34.56-.68.68a3.33,3.33,0,0,1-.59.19,1.61,1.61,0,0,1-.4.19c-.12.06-.28.06-.37.19h-.18a8.09,8.09,0,0,0-1.14.59c-.06-.12.16-.19.22-.25,0-.34.34-.4.43-.68.18-.12.37-.25.4-.49.59-.34.83-1,1.42-1.36.06-.15.22-.19.22-.4.58-.28.83-.93,1.38-1.24.09-.19.28-.28.37-.49.09,0,.09-.06.18-.06A19.12,19.12,0,0,1,46.06,33s0,.19.06.21a1.48,1.48,0,0,0,1-.15c.16-.06.28-.25.46-.25C47.56,33.1,47.29,33.14,47.1,33.23Zm-7.86,5.19c.18-.06.25-.22.37-.37l.21-.19c.12-.12.16-.34.34-.4a5.13,5.13,0,0,1,.8-.86,6.77,6.77,0,0,1,.65-.68c.06-.06.16-.06.18-.12.22-.19.37-.43.59-.65a5.85,5.85,0,0,1,.46-.43c.31-.28.62-.59,1-.86a1.54,1.54,0,0,0,.28-.19,1.8,1.8,0,0,1,.59-.4c.18-.25.49-.37.71-.62.28,0,.43-.34.68-.47.06-.06.12-.06.18-.09s.21-.25.34-.31.22,0,.28,0,.15-.15.28-.19.31-.09.43-.21a2.74,2.74,0,0,0,.59-.12s0,0,0,0-.09.12-.12.19c-.37-.06-.55.12-.8.25s-.34.19-.49.28c-.34.19-.62.43-1,.58a1,1,0,0,1-.49.37c-.18.06-.25.25-.4.37a3,3,0,0,1-.34.25c-.18.19-.34.37-.56.56a2.36,2.36,0,0,1-.31.28l-.21.09c-.16.12-.25.37-.43.49s-.28.15-.31.34a.61.61,0,0,0-.43.43c-.4.28-.65.71-1.08,1-.43.59-1,1-1.45,1.64-.37.19-.49.65-.86.86-.06.19-.25.25-.31.46C38.13,39.31,39.18,38.76,39.24,38.42Zm-1.79,1c.09.22.09.46.18.68.18.59.43,1.17.65,1.79s.37,1.2.62,1.82a4.47,4.47,0,0,1,.22.56c0,.09,0,.19,0,.28s.22.31.31.52,0,.25.06.37.22.28.25.43,0,.15,0,.28c.09.34.4.68.37.9,0,.37-.59.59-1,.62-.25-.19-.21-.46-.37-.71a8.1,8.1,0,0,0-.55-1.73c-.12-.31-.18-.62-.31-.93a1.16,1.16,0,0,1-.12-.34c-.06-.15,0-.34-.09-.53s-.12-.15-.16-.28-.06-.4-.21-.52a4.21,4.21,0,0,0-.53-1.51c0-.09,0-.19,0-.25a9.21,9.21,0,0,1-.46-1.3c-.06-.19-.12-.43-.21-.65S36,38.7,36,38.6a1.64,1.64,0,0,1,0-.4,1.54,1.54,0,0,1-.09-.31c.06-.25.46-.31.74-.31.06.06.09.19.22.19a6.72,6.72,0,0,1,.34.93c0,.09.09.19.12.28s0,.15,0,.25S37.42,39.38,37.45,39.47Zm1-7.6a.47.47,0,0,1,.46.09c-.06.15.12.21.18.31s.06.46.25.58c0,.4.22.68.22,1a4.34,4.34,0,0,1,0,.86c-.4.09-.53-.52-.77-.71a1.65,1.65,0,0,0-.18-.59c0-.09,0-.16,0-.22a3.67,3.67,0,0,0-.25-1C38.41,32.15,38.38,32,38.44,31.87Zm-4.1-.21c.28-.09.89-.31.68.21-.49,0-.74.34-1.23.37C33.54,31.93,34,31.78,34.34,31.66ZM31.5,34.06a2.28,2.28,0,0,1,.28-.19,4.35,4.35,0,0,1,1-.43c.18-.22.49-.25.77-.37.09,0,.15-.12.25-.16s.46,0,.58-.19h.22a1.73,1.73,0,0,1,.8-.25c.12,0,.25-.12.4-.15s.18,0,.25,0,.18-.12.28-.12a3.63,3.63,0,0,1,.55-.06,2.74,2.74,0,0,1,.59-.12h.06c.18.4,0,.74.15,1,0,0,0,0,0,.06a2.22,2.22,0,0,0,0,.4,7,7,0,0,0,.34.71c.06.09.09.28.18.43s.15.25.15.4c-.06.4-.68.34-.92.59-.09,0-.15,0-.25,0-.31.19-.77.19-1,.43a5.15,5.15,0,0,0-.71.16c-.46.09-.9.28-1.33.4a4.07,4.07,0,0,0-.86.28,7.45,7.45,0,0,1-.83,0,.86.86,0,0,1-.37-.12s-.06-.15-.12-.25a1.77,1.77,0,0,1-.34-.43,4.35,4.35,0,0,1-.25-.65,5.8,5.8,0,0,0-.09-.74C31.44,34.5,31.38,34.28,31.5,34.06Z"/><path class="cls-2" d="M37.73,35.05a.5.5,0,0,0,0-.37,2.56,2.56,0,0,1-.46-1.17,1.12,1.12,0,0,0-.31,0,1.64,1.64,0,0,0,.46,1.61A.89.89,0,0,0,37.73,35.05Z"/><path class="cls-2" d="M36.9,35.36c.31-.09,0-.4-.06-.49s-.18-.34-.22-.62,0-.68-.4-.49C35.91,34.31,36.41,35.52,36.9,35.36Z"/><path class="cls-2" d="M35.79,35.7a1.31,1.31,0,0,0,.34,0c0-.09.09-.12.09-.28a2.89,2.89,0,0,0-.25-.31v-.19c0-.06-.12,0-.12-.12-.06-.37-.16-1-.59-.68a3.08,3.08,0,0,0,.22,1C35.67,35.24,35.7,35.48,35.79,35.7Z"/><path class="cls-2" d="M35,36c.25.06.37-.12.31-.43-.28-.09-.37-.4-.37-.74,0-.09.09-.19.06-.28a.29.29,0,0,0-.55,0c-.12.31.09.49.09.8C34.71,35.42,34.77,35.95,35,36Z"/><path class="cls-2" d="M34,36.2c.06,0,.06,0,.09.06.18,0,.4,0,.4-.19s-.18-.22-.25-.34a1.73,1.73,0,0,1-.16-1.11c-.58-.21-.62.49-.46.9C33.72,35.73,34,35.95,34,36.2Z"/><path class="cls-2" d="M32.89,36c.09.19.28.31.31.43.25.06.46.09.53-.12s-.31-.37-.43-.68a.37.37,0,0,1,0-.19,1.32,1.32,0,0,1,0-.62c-.28-.25-.49.16-.53.37a2,2,0,0,0,.16.47C32.89,35.83,32.86,35.95,32.89,36Z"/><path class="cls-2" d="M32.33,36.69c.18,0,.46.09.55,0,.06-.31-.21-.31-.28-.49s0-.12,0-.21c-.22-.22-.12-.74-.34-1-.4-.06-.4.34-.4.59a4.8,4.8,0,0,0,.15.56A3.26,3.26,0,0,0,32.33,36.69Z"/><path class="cls-2" d="M54.19,22.24c-.18.12-.49.12-.55.4a.81.81,0,0,0,.9-.34c.12-.16.21-.19.12-.43C54.41,21.9,54.35,22.08,54.19,22.24Z"/><path class="cls-2" d="M2.74,22.73c0-.4-.31-.28-.59-.47s-.15-.4-.46-.34a.65.65,0,0,0,.22.46C2.1,22.58,2.56,22.95,2.74,22.73Z"/><path class="cls-2" d="M54,23.32c-.18.09-.34,0-.43.19a.22.22,0,0,0,.22.25,1.32,1.32,0,0,0,.4-.21.61.61,0,0,0,.31-.59C54.25,22.92,54.19,23.23,54,23.32Z"/><path class="cls-2" d="M2.81,23.78V23.6c-.18-.22-.65-.19-.68-.53-.19-.06-.25.06-.22.22C2.13,23.5,2.4,24,2.81,23.78Z"/><path class="cls-2" d="M2.44,24.8c.09,0,.09.16.22.16.4,0,.12-.43-.15-.4a1.34,1.34,0,0,0-.43-.4H2c-.09,0,0,.21-.09.28a2.35,2.35,0,0,1,.31.28C2.31,24.8,2.31,24.74,2.44,24.8Z"/><path class="cls-2" d="M53.55,24.61a.28.28,0,0,0,0,.25.84.84,0,0,0,.77-.58C54.1,23.93,53.76,24.55,53.55,24.61Z"/><path class="cls-2" d="M54.13,25.08c-.12.31-.68.34-.62.74.37.09.53-.25.77-.4,0-.13,0-.16,0-.28S54.22,25,54.13,25.08Z"/><path class="cls-2" d="M2.84,25.88a.52.52,0,0,0,0-.31.49.49,0,0,0-.31-.06c-.15-.09-.18-.28-.4-.31H2.07c0,.06,0,.12-.06.15C2.22,25.61,2.44,25.94,2.84,25.88Z"/><path class="cls-2" d="M53.23,26.84a.77.77,0,0,0,1-.74c-.25,0-.37.19-.52.19C53.57,26.53,53.3,26.56,53.23,26.84Z"/><path class="cls-2" d="M3,26.65c0-.12-.22-.12-.31-.25s-.18-.25-.37-.25c-.25.37.31.65.65.65C2.9,26.72,3,26.75,3,26.65Z"/><path class="cls-2" d="M42.29,12.08a1.34,1.34,0,0,0-1.11-.71l0,0-.22-.47a1.41,1.41,0,0,0-1.11-.56h-.21a1.49,1.49,0,0,0-.92.71h0a1.89,1.89,0,0,0,0,1.17l0,0h0a4.23,4.23,0,0,0-.25.74,1.52,1.52,0,0,0,.83,1.39,1.44,1.44,0,0,0,.62.15,1.62,1.62,0,0,0,.8-.21v0a.65.65,0,0,1,.65-.28c.28,0,.55,0,.71-.31A1.38,1.38,0,0,0,42.29,12.08Zm-2.9-1s0-.06,0-.09a.64.64,0,0,1,.8-.21.57.57,0,0,1,.25.56.4.4,0,0,1-.46.31h-.09c-.18,0-.4,0-.53-.19S39.37,11.15,39.39,11ZM40.57,13a.56.56,0,0,1-.62.4h0a.8.8,0,0,1-.46-.37v-.06a.71.71,0,0,1,.09-.56.74.74,0,0,1,.52-.22h0c.09,0,.18.09.28.16s.06.06.09.06A.59.59,0,0,1,40.57,13Zm1.29-.37-.06.06c-.09.09-.15.19-.28.19a.09.09,0,0,1-.06,0c-.18-.06-.22-.25-.28-.43l0-.06a.35.35,0,0,1,.15-.4.12.12,0,0,1,.09,0,.65.65,0,0,1,.46.28A.68.68,0,0,1,41.86,12.6Z"/><path class="cls-2" d="M34.83,10.38a1,1,0,0,0,.34.06.83.83,0,0,0,.28-.06v0a.63.63,0,0,0,.28-.49.67.67,0,0,0-.28-.56.52.52,0,0,0-.53,0,.84.84,0,0,0-.43.43A.68.68,0,0,0,34.83,10.38Z"/><path class="cls-2" d="M43.62,10.38a1.82,1.82,0,0,0,.46-.09v0a.63.63,0,0,0,.31-.46.71.71,0,0,0-.31-.71A.61.61,0,0,0,43.74,9a.72.72,0,0,0-.68.43.75.75,0,0,0,.28.87A.5.5,0,0,0,43.62,10.38Z"/><path class="cls-2" d="M47.13,9.05a1.76,1.76,0,0,0-.4-.21,1,1,0,0,1-.49-.37c0-.62.09-2.65-1.39-3.4a2.69,2.69,0,0,0-1.33-.31,6.24,6.24,0,0,0-3.39,1.36.24.24,0,0,0-.12.12c-.09.06-.15.15-.25.19l-1.29-.59a7.06,7.06,0,0,0-2.22-.43,3.38,3.38,0,0,0-2,.62,3.76,3.76,0,0,0-.74,3.92.75.75,0,0,0,.12.37c.09.12.16.19,0,.31A3.64,3.64,0,0,0,32,13.71a3.51,3.51,0,0,0,2.53,2.59l0,0a4.06,4.06,0,0,0,.81,2.72,2.41,2.41,0,0,0,1.91.77,4.33,4.33,0,0,0,1.57-.31.63.63,0,0,0,.25-.12.39.39,0,0,0-.06-.22s0,0,0-.06l0,0H38.9a4.86,4.86,0,0,1-1.79.43,1.6,1.6,0,0,1-.68-.12,2.15,2.15,0,0,1-1.33-1.58v0A2.41,2.41,0,0,1,35,16.55v0h0a12.81,12.81,0,0,0,3.24.37h1a13.48,13.48,0,0,0,1.48.84l0,0a.54.54,0,0,1-.31.22l0,0,0,0-.06.06a.23.23,0,0,0-.12.21.28.28,0,0,0,.15.22.07.07,0,0,0,.06.06c.06,0,.06,0,.09,0a.8.8,0,0,0,.31-.25s.06-.06.09-.09a2.22,2.22,0,0,1,.34-.25h0a6.3,6.3,0,0,0,2.68.68,3.74,3.74,0,0,0,1.85-.47,3.25,3.25,0,0,0,1-3.68v0h0c.59-.49,2-1.73,1.73-3.24A2.89,2.89,0,0,0,47.13,9.05Zm-7-2.5a6.19,6.19,0,0,1,2.74-1.36,1.37,1.37,0,0,1,.49-.06,2.87,2.87,0,0,1,1.57.58,3.31,3.31,0,0,1,.8,2.59v0h0A14.17,14.17,0,0,0,42,7.88,8.37,8.37,0,0,0,40.78,7c-.22-.12-.43-.28-.65-.4l0,0ZM39.67,7V7a6.49,6.49,0,0,1,1.08.65l.28.19.06.06H41a19.55,19.55,0,0,0-2.65.4l-.09,0,.06-.06.37-.37A6.54,6.54,0,0,1,39.64,7Zm-6.07.8h0a2.39,2.39,0,0,0,.12-.46.89.89,0,0,1,.18-.47h0a2.59,2.59,0,0,1,2-1H36a8.26,8.26,0,0,1,3.24.86l.06,0,0,0c-.21.25-.46.49-.68.74s-.58.62-.86,1A6.19,6.19,0,0,0,36,9.17s0,0-.06,0,0,0,0,.09,0,.12.06.19l.06.09.09.06.12,0h0a.81.81,0,0,0,.25-.12h.09l.18-.09a.63.63,0,0,1,.34-.12l.06,0,0,.06a15.4,15.4,0,0,0-1.82,3.31v.06l0-.06s0,0,0-.09a.69.69,0,0,0-.12-.19h0a1.85,1.85,0,0,0-.25-.43h0a4.56,4.56,0,0,1-.62-1.14v0s0,0,0,0l0,0c.06,0,.09-.09.18-.12l.09-.09v0a.22.22,0,0,0-.06-.09.3.3,0,0,1-.12-.15l-.06-.06-.18.09v0h-.06l0,0,0,0A5.05,5.05,0,0,1,33.6,7.82Zm1,7.38c0,.16,0,.31-.06.47v.28l0,0h0a3.51,3.51,0,0,1-2.19-2.47A3.52,3.52,0,0,1,33.88,11l0,0,.06.09A11,11,0,0,0,35.17,13v0c-.06.22-.09.43-.15.65h0A12,12,0,0,0,34.65,15.2Zm4,1.39h-.53A10.14,10.14,0,0,1,35,16.15h0a4.41,4.41,0,0,1,.18-1.54c.06-.22.09-.43.16-.68,0-.06,0-.12.06-.19a1.32,1.32,0,0,1,.06-.22l0-.06,0,0a13.82,13.82,0,0,0,3.14,3l.06.06ZM35.63,13v0a13.12,13.12,0,0,1,2.13-4h0a10.93,10.93,0,0,1,1.6-.34c.28,0,.55-.09.83-.12a4.45,4.45,0,0,1,1.08-.16h.28a.24.24,0,0,1,.12,0c.18,0,.28.09.71.49l.06.09s.12.12.22.12h0A.93.93,0,0,0,43,8.9s0-.06,0-.09a1.1,1.1,0,0,1-.12-.19l-.15-.15h.06a8.2,8.2,0,0,1,2.84.46V9a7.9,7.9,0,0,1-.46,2l0,0h0s-.06-.06-.09-.12l-.34-.43h0v0a.15.15,0,0,0-.12-.06h0a.36.36,0,0,0-.28.28.17.17,0,0,0,.06.19l.06.06,0,0,.09.12.12.19c.18.21.22.21.25.28s0,.09.06.16v0A15,15,0,0,1,42.41,16h0a14.17,14.17,0,0,1-3,.52A13.28,13.28,0,0,1,35.63,13Zm9.74-.68a7.41,7.41,0,0,1,.92,1.85l0,0h0a12.39,12.39,0,0,1-2.87,1.42l-.06,0,0-.06a20.21,20.21,0,0,0,1.94-3.27v0ZM41,17.48l0,0v0a4.91,4.91,0,0,1-1-.53l-.06-.06H40a9.44,9.44,0,0,0,1.29-.22,3.11,3.11,0,0,0,.58-.12l0,.06-.43.43A3.34,3.34,0,0,1,41,17.48Zm5,.21a3,3,0,0,1-2,.65,7,7,0,0,1-2.47-.56h0v0l.31-.31,0-.06c.31-.34.65-.68.92-1v0h0a13.33,13.33,0,0,0,3.57-1.54h0v0A2.84,2.84,0,0,1,46.06,17.7Zm2.22-6.08v0a3.25,3.25,0,0,1-1.51,2.25l0,0v0c-.22-.56-.46-1-.71-1.54-.12-.21-.28-.49-.4-.74v0a16.56,16.56,0,0,0,.58-2.44v0l0,0a4.08,4.08,0,0,1,1.38.84A1.75,1.75,0,0,1,48.27,11.61Z"/><path class="cls-2" d="M39.7,18.41h-.09v0s-.06,0-.09,0-.12,0-.15.09a.5.5,0,0,0,0,.56.53.53,0,0,0,.4.22.83.83,0,0,0,.21-.06.6.6,0,0,0,.18-.65A.44.44,0,0,0,39.7,18.41Z"/><path class="cls-2" d="M19.08,11.15a5.94,5.94,0,0,0,.43-.47s0-.06.06-.09a.68.68,0,0,1,.12-.22c0-.09,0-.21.06-.34a.76.76,0,0,1,0-.25c0-.06,0-.09,0-.16a.11.11,0,0,0,0-.09,2.19,2.19,0,0,0-.09-1,3.68,3.68,0,0,1-.09-.62,2,2,0,0,1-.25-.31A1.42,1.42,0,0,0,18.34,7a.42.42,0,0,1-.25.06h-.22a1.58,1.58,0,0,0-.28.09s-.06,0-.09.06a1.66,1.66,0,0,0-.52.25c0,.06,0,.09-.06.12a2.08,2.08,0,0,1-.18.37,2,2,0,0,1-.18.62.65.65,0,0,1,0,.34.33.33,0,0,1,0,.15,3.9,3.9,0,0,0,.15,1c0,.12.06.21.09.34l.18.28c.15.25.31.49.46.71.09,0,.18.09.28.12a1.17,1.17,0,0,0,.52.19h.06a.88.88,0,0,0,.25-.12l0,0a2,2,0,0,0,.46-.31Zm-.22-.22a.5.5,0,0,0-.18.09.41.41,0,0,1-.18.12h0c-.28,0-.59-.34-.77-.53l0,0a.12.12,0,0,1,0-.06h-.06l0,0a.24.24,0,0,0,0-.09.22.22,0,0,0-.06-.12,5.17,5.17,0,0,1-.31-1.82,1.33,1.33,0,0,1,.65-1.08.29.29,0,0,1,.15,0,1.3,1.3,0,0,1,.8.49.46.46,0,0,0,.09.12l.09.09a.41.41,0,0,1,.18.25v.19a.34.34,0,0,0,0,.16c0,.12.06.31.09.46a1.5,1.5,0,0,1,0,.16c0,.06,0,.12,0,.15v.09a1,1,0,0,1,0,.59c.06.09,0,.19,0,.25a.7.7,0,0,0-.06.25v0h0a.53.53,0,0,0-.18.31Z"/><path class="cls-2" d="M8.82,8a1,1,0,0,0,0,.31.88.88,0,0,0,.12.4l0,.06h0l0,0v0s.06.06,0,.12a1.2,1.2,0,0,0-.06.59,1.18,1.18,0,0,1,0,.47,1.79,1.79,0,0,1-.06.4,2.12,2.12,0,0,0-.06.62v0c-.12.06-.15.19-.22.34a.29.29,0,0,1,0,.16h0a1.23,1.23,0,0,0,.34,0H9a.62.62,0,0,0,.25-.09l.15-.09a16.08,16.08,0,0,1,.15-2.78c.06-.37.09-.74.12-1.11h0s.06,0,.09-.06a.17.17,0,0,0,.15-.09c-.06-.15-.25-.15-.43-.19a1.86,1.86,0,0,1-.25-.06,1,1,0,0,1-.43.06c-.18,0-.37,0-.4.16C8.82,7.35,8.82,7.66,8.82,8Z"/><path class="cls-2" d="M21.73,7.14l-.09,0s0,0-.06,0,0,0,0,0,0,0-.06,0h-.25a1.26,1.26,0,0,0-.15,0h0a.11.11,0,0,1-.09,0h-.09a.19.19,0,0,0-.15.06c0,.06.09.06.18.09s.18,0,.22.12a1,1,0,0,1,0,.58,3,3,0,0,1,.22.77v.49a4.34,4.34,0,0,0,0,.62h0c0,.12-.06.25-.09.4a.78.78,0,0,1,0,.25,2,2,0,0,1-.12.4,5.3,5.3,0,0,0-.15.56c.06.06.12.06.25.06h.15a.6.6,0,0,0,.37-.19,2.68,2.68,0,0,1,0-.49v-.06a1,1,0,0,0,0-.31c0-.12,0-.21,0-.31a2.06,2.06,0,0,1,.06-.21.58.58,0,0,0,.06-.22V9.64a.11.11,0,0,1,0-.09s0-.06,0-.13a.1.1,0,0,0,0-.06,1.38,1.38,0,0,0,0-.37c0-.06,0-.15,0-.21V8.28a2.36,2.36,0,0,1,0-.47.46.46,0,0,1,.25-.4c0-.06.09-.09.12-.16s-.22-.12-.37-.12Z"/><path class="cls-2" d="M23.92,7.57v0c-.12.21,0,.43,0,.68a.79.79,0,0,1,0,.65,2.39,2.39,0,0,1,0,1.14c0,.09,0,.16,0,.22v.25a1,1,0,0,1,0,.31,1.16,1.16,0,0,1-.12.28.62.62,0,0,0-.09.4.65.65,0,0,0,.25,0,1.31,1.31,0,0,0,.55-.15,12.64,12.64,0,0,1,.12-2.17c0-.56.09-1.11.09-1.73h0c0-.06.12-.09.18-.12s.09,0,.12-.06c-.09-.21-.43-.25-.68-.25a2.7,2.7,0,0,0-.58.06h-.09a.28.28,0,0,0-.18.06s0,0,0,.06h0C23.67,7.32,23.86,7.38,23.92,7.57Z"/><path class="cls-2" d="M12,7.11a1.05,1.05,0,0,0-.68.15s.06,0,.09.06.12,0,.15.09v0a2.41,2.41,0,0,0,.06.47,3,3,0,0,1,0,.89v0s.09,0,.06.09a5.29,5.29,0,0,0,0,.68.87.87,0,0,1,0,.4.92.92,0,0,1-.06.28.68.68,0,0,0,0,.43,3.57,3.57,0,0,0-.22.62c0,.06,0,.12-.06.19a.61.61,0,0,0,.25.06,1.19,1.19,0,0,0,.59-.19,28.67,28.67,0,0,1,.31-4l.06,0a.19.19,0,0,0,.18-.09.67.67,0,0,0-.55-.21Z"/><path class="cls-2" d="M15,7.11l-.28,0c-.06,0-.09,0-.12,0h-.22s-.06,0-.12,0a.24.24,0,0,0-.22.09c0,.06,0,.06.12.09a.16.16,0,0,1,.15.12.8.8,0,0,0,.06.4l0,0h0c-.06,0-.06.09-.06.22a.39.39,0,0,1,0,.19c.22.21.18.49.18.8v.34a3.82,3.82,0,0,1-.06.87v.12a.11.11,0,0,1,0,.09.57.57,0,0,1-.06.25.76.76,0,0,0-.06.28v0c-.09.06-.12.25-.15.4v0a.42.42,0,0,0,.22.06,1.62,1.62,0,0,0,.56-.12A23.4,23.4,0,0,1,15,8.84c0-.47.09-.9.12-1.36,0-.06.09-.06.15-.09s.12,0,.12-.06a1.51,1.51,0,0,0-.31-.19A.29.29,0,0,0,15,7.11Z"/><path class="cls-2" d="M11,14.12c0-.06,0-.09,0-.16l0-.06a1,1,0,0,0-.15-.52,1.27,1.27,0,0,0-1.2-.77,1.08,1.08,0,0,0-.31,0A2.17,2.17,0,0,0,8,13.28c-.06.19-.12.43-.22.71,0,0,0,.09,0,.12s0,.09-.06.09l0,0s0,.06,0,.12a.45.45,0,0,1,0,.21.34.34,0,0,1,0,.16,7.55,7.55,0,0,0,0,.77.44.44,0,0,1,.06.19c0,.09.09.19.06.28a2.56,2.56,0,0,1,.15.25l.15.25s.06.09.12.12a2.5,2.5,0,0,1,.22.31,4.32,4.32,0,0,0,.74.4h.12A1,1,0,0,0,10,17l.22-.19.06,0a1.8,1.8,0,0,0,.49-.46,1.8,1.8,0,0,0,.12-.43c0-.06,0-.12.06-.19a3.52,3.52,0,0,0,0-1.51S11,14.15,11,14.12ZM10.42,16a2,2,0,0,1-.12.4,1,1,0,0,1-.59.47.9.9,0,0,1-.34-.16s-.06,0-.06-.06a1.92,1.92,0,0,1-.56-.43s0-.06,0-.09S8.66,16,8.6,16v0a3.6,3.6,0,0,1,.06-2.65,1.31,1.31,0,0,0,.22-.15A.42.42,0,0,1,9.19,13a.26.26,0,0,1,.15,0,.61.61,0,0,1,.18.12s.06,0,.09.06a.25.25,0,0,0,.15.06l.12.09a1.16,1.16,0,0,1,.37.49,1,1,0,0,0,.09.19l0,0c0,.19,0,.37,0,.56a6,6,0,0,0,.09,1A1.13,1.13,0,0,0,10.42,16Z"/><path class="cls-2" d="M21.67,13.1a1.18,1.18,0,0,0-1-.49h0a2.2,2.2,0,0,0-1.2.31l-.06.06c-.12.19-.28.37-.4.56a.79.79,0,0,1-.15.56,4.71,4.71,0,0,0,.09,1.64,3.53,3.53,0,0,0,.28.49v0c0,.06,0,.09,0,.12a.12.12,0,0,1,0,.06c.06,0,.06.06.06.12s0,0,0,.06h0l.06.06s0,.06,0,.09a1.71,1.71,0,0,1,.25.19,5,5,0,0,0,.56.28c.09,0,.25,0,.37,0s.09,0,.12,0,.15-.06.25-.15l.15-.09A2.22,2.22,0,0,0,22,16a.45.45,0,0,0,.06-.28c0-.09,0-.16.06-.25a.22.22,0,0,1,.06-.12s0-.09.06-.12a3.75,3.75,0,0,0,0-.56A4,4,0,0,0,21.67,13.1Zm-.55,3.52c-.09.09-.18.19-.28.19h0a1,1,0,0,1-.62-.31l-.25-.25A1,1,0,0,0,19.7,16c0-.06,0-.09,0-.12v-.06c0-.06-.06-.09-.09-.15s-.12-.12-.12-.19a.39.39,0,0,1,0-.19v-.22a4.38,4.38,0,0,1-.06-.93,1.2,1.2,0,0,1,0-.15.77.77,0,0,0,0-.25v0a1.44,1.44,0,0,0,.12-.19c.15-.25.34-.58.65-.58a.42.42,0,0,1,.18,0c.06,0,.09.06.12.09s.12.15.25.15h0s.06.09.09.12.15.25.28.28l0,0a.68.68,0,0,0,.09.31.78.78,0,0,1,.12.22,8.83,8.83,0,0,1,.09,1.3A1.44,1.44,0,0,1,21.12,16.62Z"/><path class="cls-2" d="M13.22,12.7v0l-.25.09c-.12,0-.25,0-.28.12a.68.68,0,0,0,.15.09c.06,0,.15,0,.18.12v0a.72.72,0,0,0,0,.62s0,.06,0,.09v.22c0,.06,0,.12,0,.15v.06a.27.27,0,0,1,.06.09c0,.09,0,.15,0,.25a.39.39,0,0,0,0,.19,1.38,1.38,0,0,0,0,.34.87.87,0,0,0,0,.28,4.92,4.92,0,0,1-.22,1.23,5.42,5.42,0,0,0-.15.58s.09,0,.15,0,.12,0,.18,0a.64.64,0,0,1,.28-.06.09.09,0,0,1,.06,0s0,0,0-.06,0-.06.06-.09,0-.12,0-.15,0-.09,0-.16,0-.09.06-.15a.12.12,0,0,0,0-.06,1.06,1.06,0,0,1,0-.62,1.83,1.83,0,0,0,.06-.4,1.91,1.91,0,0,1,0-.43c0-.19,0-.37,0-.58A5.27,5.27,0,0,1,14,13.07S14,13,14.06,13s.09,0,.09-.09a1.27,1.27,0,0,0-.77-.25A.26.26,0,0,0,13.22,12.7Z"/><path class="cls-2" d="M16.77,12.66a3.27,3.27,0,0,0-.56.09h-.06l-.12,0c-.06,0-.15,0-.18,0s0,0,0,.06,0,0,.06,0H16a.18.18,0,0,1,.12,0,1,1,0,0,1,.06.52.75.75,0,0,0,0,.37.89.89,0,0,1,.06.84,1.25,1.25,0,0,1,0,.34c0,.16,0,.31.06.47v0a.12.12,0,0,0,0,.06s0,0-.06.06.06.19,0,.31-.06.22,0,.28l0,.06h0s0,0-.06,0a.12.12,0,0,1,0,.09.19.19,0,0,1,0,.19.25.25,0,0,0,0,.21v0c-.06.06-.18.21-.12.34a.42.42,0,0,0,.22.06,1.86,1.86,0,0,0,.59-.19h0A15.7,15.7,0,0,1,17,13.87c0-.25.06-.49.09-.71s.09-.12.15-.12.12-.06.12-.12l-.22-.19A1.17,1.17,0,0,0,16.77,12.66Z"/><path class="cls-2" d="M24.51,12.7a.11.11,0,0,0-.09,0c-.09,0-.21,0-.31,0a.42.42,0,0,1-.18,0h-.18c-.12,0-.15,0-.18.09s.12.06.18.09.16,0,.22.16a.8.8,0,0,1,0,.37,1.64,1.64,0,0,0,0,.4l0,0s0,0,0,.06a.55.55,0,0,1,0,.21c0,.06,0,.16.06.22l0,0h0a1.4,1.4,0,0,0,0,.8,2.22,2.22,0,0,0,0,.47,2,2,0,0,1,0,.43c0,.06,0,.09-.06.15a.48.48,0,0,0,0,.22v0a1,1,0,0,0-.16.47c0,.09,0,.19-.06.28h.16a1.41,1.41,0,0,0,.65-.19,12,12,0,0,1,.12-2.37c.06-.49.12-1,.16-1.58v0a1,1,0,0,1,.28-.09h.06A.75.75,0,0,0,24.51,12.7Z"/><path class="cls-2" d="M6.13,22.79H4.72v.09c.12,0,.15.06.15.22v3.24c0,.12,0,.19-.15.19v.12H6c1.08,0,1.66-.65,1.66-1.95C7.68,23.66,7.18,22.79,6.13,22.79ZM5.89,26H5.52V23.41h.37c.86,0,1.14.31,1.14,1.3S6.75,26,5.89,26Z"/><path class="cls-2" d="M8.29,22.88c.22,0,.25.06.25.22v3.24c0,.12,0,.19-.25.19v.12H9.37v-.12c-.18,0-.22-.06-.22-.19V23.1c0-.16,0-.19.22-.22v-.09H8.29Z"/><path class="cls-2" d="M10.7,23.75c0-.25.15-.43.52-.43.52,0,.83.25.83.43,0,0,0,.09,0,.12l.09,0,.49-.9-.06,0a.2.2,0,0,1-.15.09c-.06,0-.15-.09-.34-.15a1.67,1.67,0,0,0-.77-.16,1.08,1.08,0,0,0-1.2,1.11c0,1.36,2,.84,2,1.64,0,.34-.18.56-.77.56-.37,0-.89-.19-.89-.43v-.06l-.09-.06-.37.93.06,0c0-.06.06-.09.09-.09s.18.06.4.16a2.43,2.43,0,0,0,.77.15,1.28,1.28,0,0,0,1.45-1.2C12.73,24,10.7,24.52,10.7,23.75Z"/><path class="cls-2" d="M15.44,25.42v.15c0,.25-.31.49-.68.49-.56,0-1-.52-1-1.3,0-1,.37-1.39,1-1.39.34,0,.65.22.65.49v.06l.06,0,.4-.86,0-.06a.12.12,0,0,1-.12.06.88.88,0,0,1-.31-.16,1,1,0,0,0-.65-.19c-.83,0-1.63.62-1.63,2a1.71,1.71,0,0,0,1.54,1.91c.83,0,1-.52,1.17-.52s.09,0,.12.09l.06-.06-.55-.8Z"/><path class="cls-2" d="M18.62,26H17.14V25H18c.15,0,.18,0,.22.09h.09v-.86h-.09c0,.12-.06.15-.22.15h-.83v-1h1.39c.15,0,.22,0,.22.12h.09v-.86h-.09c0,.09-.06.12-.22.12H16.28v.09c.19,0,.22.06.22.22v3.24c0,.12,0,.19-.19.19v.12h2.31c.15,0,.22,0,.22.12h.09v-.9h-.09C18.83,26,18.77,26,18.62,26Z"/><path class="cls-2" d="M22,26.07,21.55,25a1,1,0,0,0,.71-1.08,1,1,0,0,0-1.11-1.08h-1.6v.09c.12,0,.15.06.15.22v3.24c0,.12,0,.19-.15.19v.12h.92v-.12c-.12,0-.15-.06-.15-.19V25h.59l.55,1.18a.53.53,0,0,1,.06.21c0,.06-.06.09-.12.09v.12h1v-.12C22.23,26.53,22.19,26.41,22,26.07Zm-1-1.64h-.74v-1h.74c.4,0,.59.19.59.52S21.45,24.43,21.05,24.43Z"/><path class="cls-2" d="M25.31,26H23.83V25h.83c.16,0,.18,0,.22.09H25v-.86h-.09c0,.12-.06.15-.22.15h-.83v-1h1.38c.16,0,.22,0,.22.12h.09v-.86h-.09c0,.09-.06.12-.22.12H23v.09c.18,0,.21.06.21.22v3.24c0,.12,0,.19-.18.19v.12h2.31c.15,0,.21,0,.21.12h.09v-.9h-.09C25.52,26,25.46,26,25.31,26Z"/><path class="cls-2" d="M29.81,22.79H27.56v.09c.18,0,.21.06.21.22v3.24c0,.12,0,.19-.21.19v.12h1.08v-.12c-.18,0-.21-.06-.21-.19V25h.86c.15,0,.21,0,.21.12h.09v-.89H29.5c0,.12-.06.15-.21.15h-.86v-1h1.38c.12,0,.18,0,.22.12h.06v-.86H30C30,22.76,29.93,22.79,29.81,22.79Z"/><path class="cls-2" d="M33,26.38l-.92-3.06a.83.83,0,0,1-.06-.31c0-.06,0-.09.12-.12v-.09H31.1v.09c.12,0,.16.06.16.09a1.61,1.61,0,0,1-.06.25l-1,3.15c0,.06,0,.16-.12.16v.12H31v-.12c-.12,0-.15-.06-.15-.12a.19.19,0,0,1,0-.12l.18-.62h1.14l.21.68s0,.09,0,.12,0,.06-.12.06v.12h.86v-.12C33.11,26.53,33.07,26.5,33,26.38ZM31.2,25.14l.4-1.51h0l.4,1.51Z"/><path class="cls-2" d="M35.73,25.42s0,.12,0,.15c0,.25-.31.49-.68.49-.59,0-1-.52-1-1.3,0-1,.37-1.39,1-1.39.34,0,.65.22.65.49a.1.1,0,0,1,0,.06l.06,0,.43-.86,0-.06a.17.17,0,0,1-.15.06,1.33,1.33,0,0,1-.28-.16,1,1,0,0,0-.68-.19c-.8,0-1.6.62-1.6,2,0,1,.55,1.91,1.54,1.91.83,0,1-.52,1.17-.52a.16.16,0,0,1,.12.09l0-.06-.53-.8Z"/><path class="cls-2" d="M36.65,22.88c.18,0,.21.06.21.22v3.24c0,.12,0,.19-.21.19v.12h1.08v-.12c-.18,0-.21-.06-.21-.19V23.1c0-.16,0-.19.21-.22v-.09H36.65Z"/><path class="cls-2" d="M40.84,26H39.37V25h.83c.12,0,.18,0,.22.09h.09v-.86h-.09c0,.12-.09.15-.22.15h-.83v-1h1.38c.16,0,.18,0,.22.12h.09v-.86H41c0,.09-.06.12-.22.12H38.5v.09c.18,0,.21.06.21.22v3.24c0,.12,0,.19-.21.19v.12h2.34c.15,0,.18,0,.21.12h.09v-.9h-.09C41,26,41,26,40.84,26Z"/><path class="cls-2" d="M43.74,22.88c.09,0,.12.06.12.22v2.28c-.06-.34-1.17-2.28-1.17-2.44s0,0,.09-.06v-.09h-1v.09c.09,0,.12.06.12.22v3.24c0,.12,0,.19-.15.19v.12h.86v-.12c-.09,0-.12-.06-.12-.19V23.81c.21.68,1.32,2.5,1.32,2.63s-.06.09-.12.09v.12h.93v-.12c-.09,0-.12,0-.12-.19V23.1c0-.16,0-.19.15-.22v-.09h-.86Z"/><path class="cls-2" d="M46.86,22.79H45.44v.09c.12,0,.15.06.15.22v3.24c0,.12,0,.19-.15.19v.12h1.29c1.08,0,1.66-.65,1.66-1.95C48.4,23.66,47.9,22.79,46.86,22.79ZM46.61,26h-.37V23.41h.37c.86,0,1.14.31,1.14,1.3S47.47,26,46.61,26Z"/><path class="cls-2" d="M50.46,22.76c-1,0-1.54.86-1.54,1.95s.55,2,1.54,2,1.54-.86,1.54-2S51.45,22.76,50.46,22.76Zm0,3.31c-.58,0-.89-.46-.89-1.36s.31-1.33.89-1.33.9.47.9,1.33S51,26.07,50.46,26.07Z"/><path class="cls-2" d="M12.7,35s.06,0,.09.09a.83.83,0,0,1-.15.19.18.18,0,0,1,0,.12c0,.06-.12.09-.12.22s.06,0,.06.09.09.06.09.12-.18.28-.18.43,0,.34,0,.53a.67.67,0,0,1,.12.15s0,.09,0,.12.18.19.22.25.18,0,.25,0,0,.09,0,.15a.34.34,0,0,0,0,.25c-.06.06-.06.19-.09.28s.18,0,.28.09l.28-.09c-.06,0,0-.09,0-.09a.84.84,0,0,1,.28,0c.06,0,.12.09.22.06s0,.06.06.09,0,.12,0,.15a.45.45,0,0,0,.31.28c.12,0,.19-.06.19-.22a.08.08,0,0,1,0-.12.11.11,0,0,1,0,.09,1.31,1.31,0,0,0,.15.22c0,.06-.06.09,0,.12s.22.19.37.22.22-.06.34-.06c0,.06-.09.06-.09.12a4.42,4.42,0,0,1,.4.86s0,0,0,.06a.34.34,0,0,1,.12.28.28.28,0,0,1,.09.22s.06,0,.09.06a.33.33,0,0,0,.06.19.23.23,0,0,0,0,.12c0,.06,0,.12,0,.19v.06c0,.06,0,.09,0,.15s-.06.12-.09.19a.19.19,0,0,1,0,.12c0,.06-.12.12-.12.19s-.09.09-.15.12a1.1,1.1,0,0,0,.09.34c0,.09,0,.28,0,.37.09,0,.09.12.18.15s0,.06,0,.12a.46.46,0,0,1-.09.22c0,.06,0,.12-.06.19a.1.1,0,0,1,0,.06.11.11,0,0,1,0,.06v.09c0,.06-.09.19-.06.28-.12.15-.06.46-.25.56,0,.06-.12.15-.06.28-.12.12-.09.34-.12.49s-.09.15-.06.25a.11.11,0,0,0,0,.06c0,.19-.15.31-.09.43L15,46s0,.09,0,.09-.06.19-.12.25a.26.26,0,0,1-.06.19s0,0,0,.06-.09.19-.09.31a.57.57,0,0,0-.06.22.34.34,0,0,0,0,.15v.12a.43.43,0,0,0,.22.25c.12,0,.15.09.25.12s.12,0,.15-.06a.44.44,0,0,0,.18.06c.09,0,.18.15.28.19s.12,0,.18.06a.52.52,0,0,0,.22,0c.06,0,.15-.06.25-.06s.09,0,.15,0a.46.46,0,0,0,.22.09H17c.06,0,.12.06.22.06s.28,0,.37,0l.12,0a.11.11,0,0,0,.06,0c.09,0,.15-.09.22-.06s.09.12.09.19a.33.33,0,0,0,.34,0,1.39,1.39,0,0,0,.62,0c0-.06.06-.12.12-.12s.12,0,.18,0,.28.12.37.09a.16.16,0,0,0,.12.06s0,0,.09,0a.84.84,0,0,0,.28,0,.59.59,0,0,0,.31-.15c.12.12.4,0,.52.09.12-.09.18,0,.31-.09a2.08,2.08,0,0,0,.22-.34c.09,0,.12.09.22.09a.2.2,0,0,0,.19,0,.11.11,0,0,1,.06,0,.24.24,0,0,0,.15-.06c.06,0,.06-.06.09-.06a.09.09,0,0,1,.06,0,.44.44,0,0,0,.12-.12s.06,0,.06,0a.22.22,0,0,1,.09-.19.52.52,0,0,0,.52-.25s0-.06,0-.12.06-.12.06-.19,0-.09,0-.12a.48.48,0,0,1-.09-.22,1.21,1.21,0,0,1-.22-.71c0-.06-.12-.12-.15-.22s0-.19-.12-.25-.09-.15-.06-.34c0,0,0-.06-.06-.09s-.06-.12-.06-.15-.06-.19-.09-.28,0-.06,0-.06-.09-.22-.12-.31a1.89,1.89,0,0,0-.09-.4c0-.09,0-.09-.06-.15,0-.22-.15-.56-.12-.9s0-.46.22-.59c0-.06,0-.12.09-.15s0-.31-.06-.43c.06-.09.15-.12.19-.25s0-.19,0-.31a.41.41,0,0,0-.31-.19.77.77,0,0,1,0-.25c0-.09.09-.12.09-.19s0-.12,0-.19a.44.44,0,0,0,.06-.19s.06,0,.09-.09v-.09a.73.73,0,0,1,.12-.22.9.9,0,0,1,.21-.37c.06-.12.16-.25.22-.37s0-.06.09,0a.43.43,0,0,1,.34-.25s.12,0,.15-.06a.41.41,0,0,1,.28.19c.12,0,.15.06.25.09s.09,0,.15,0,.06,0,.09-.06h.12s.06,0,.09-.06.06,0,.12-.09a.66.66,0,0,0,.16-.52c0-.06.09-.06.15,0a2.85,2.85,0,0,1,.31-.22c.12-.12.16-.4.31-.56a1.19,1.19,0,0,0,.43-.15.49.49,0,0,0,.12-.34c.12-.25.09-.59-.12-.68a.48.48,0,0,0-.21-.28c-.06-.09,0-.22,0-.34s-.15-.19-.15-.28.21,0,.25-.12.09-.37.06-.59c-.06-.06-.06-.15-.12-.19a.54.54,0,0,1-.31-.28h-.16a.56.56,0,0,1-.25-.34c0-.06.09-.06.12-.12a.56.56,0,0,0,.06-.25,1.06,1.06,0,0,0-.21-.62.32.32,0,0,1-.25-.12h-.06a2,2,0,0,0-1.17-.25c-.06-.06,0-.09,0-.19s-.25-.31-.4-.4a6.21,6.21,0,0,1-.83-.15s0-.06-.06-.09-.06,0-.09-.06-.09,0-.12-.06-.09-.09-.15-.12-.25,0-.37-.12a.17.17,0,0,1-.22.06,0,0,0,0,0,0,0c-.09-.09-.22.09-.31,0a.61.61,0,0,1-.46.12,1.65,1.65,0,0,0-.56.16c0,.06,0,.09-.09.09a.35.35,0,0,1-.22-.15,1.12,1.12,0,0,0-.46-.06c-.06,0-.15.12-.25.15s0,0-.06,0-.15.19-.25.25-.09,0-.15,0,0,0-.06-.06h-.15s0-.06-.06-.06-.09,0-.12,0-.06-.09-.12-.09-.15,0-.25,0-.22.09-.31.12-.06.09-.12.09,0,.09-.06.12-.15-.09-.28-.12-.15-.09-.25-.09a3.33,3.33,0,0,0-.52.09H16c-.06,0-.12.09-.15.12s-.09.22-.12.43h-.43a.37.37,0,0,1-.25.06,1.51,1.51,0,0,0-.62.43s-.06,0-.09,0a.16.16,0,0,0-.06.12s0,0-.06,0a1.52,1.52,0,0,0-.12.34s0,.09-.06.12-.06,0-.09,0-.22.19-.31.12-.09,0-.12.07,0,0-.06,0-.15.12-.28.12a.82.82,0,0,1-.37.25l-.28.19c0,.12-.06.15-.06.28s-.06.09-.06.16l0,0v.12c-.06.09-.12.16-.09.28A.66.66,0,0,0,12.7,35Zm2.13,1.11c0-.12,0-.19.06-.34s.25,0,.28-.12h.09s0,0,0,0a1.16,1.16,0,0,1,.34,0c.12.12,0,.19,0,.34-.22.09-.25.37-.52.4a.27.27,0,0,0-.18-.09C14.92,36.13,14.83,36.1,14.83,36.07Zm.83,1.23s0,0,0,.06-.06,0-.06.06a.23.23,0,0,0,0,.12c0,.06-.06.09-.09.15a.39.39,0,0,0,0,.19.16.16,0,0,0-.06.12.19.19,0,0,0,0,.12c0,.06-.12.19-.18.19S15,38.23,15,38.2A.79.79,0,0,1,15,38s0-.12,0-.19,0-.43.15-.56c0,0,0,0,0-.06s.09-.12.15-.22a.38.38,0,0,1,.34-.12c.09,0,.18.09.18.19S15.69,37.18,15.66,37.31ZM15.81,35c-.06.06-.12.06-.18.12a1.06,1.06,0,0,0-.46.06c0-.06-.15,0-.18-.12h-.12c-.09-.25.15-.31.28-.43a.78.78,0,0,1,.37-.06c.15,0,.31.06.46.06C16.06,34.8,15.94,34.9,15.81,35Zm0,10.56v.15c0,.12-.12.25-.15.37s0,.19-.09.22,0,.12-.06.19a.11.11,0,0,0,0,.06c0,.09-.09.12-.09.22a0,0,0,0,0,0,0c0,.15-.15.25-.15.37s-.12-.09-.15-.15.06-.09,0-.15,0-.12.06-.15c.09-.22.06-.52.18-.68a.33.33,0,0,1,.09-.22c0-.09.06-.22.12-.28a.18.18,0,0,1,.06-.15.53.53,0,0,1,.15-.4c0-.06,0-.06,0-.12s0-.15.06-.22,0-.06.06-.06c0-.15,0-.28.06-.4s.09-.22.15-.28,0,0,0-.06,0,.09.06.15c0,.22-.06.37-.06.65-.12.06-.06.19-.09.34s-.09.22-.06.31S15.88,45.52,15.78,45.58Zm1.33-1.76c.09.06,0,.19-.06.22a1.74,1.74,0,0,1,0,.4.08.08,0,0,0,0,.12c-.06.06-.06.19-.09.25s0,.06,0,.09S17,45,17,45s-.06.06,0,.12-.06,0-.09.06,0,0,0,.06-.06.09,0,.19-.06.15-.06.28,0,.06-.06.09,0,.37-.09.49,0,.09,0,.12.06.06.06.09-.06.22-.09.31,0,0,0,.06,0,.06,0,.09l.06.06a.28.28,0,0,0,0,.15c0,.15-.15.28-.18.46l-.15.09s-.06,0-.06-.06-.22,0-.22-.19c0,0,0,0,.06,0a.91.91,0,0,1,.06-.31c0-.06,0-.06,0-.09s0-.25.06-.37a1.53,1.53,0,0,0,.09-.4c.15-.09.06-.43.19-.59a5.43,5.43,0,0,1,.31-1.27c-.06-.19.09-.37.12-.59s0-.19.06-.28,0,0,.09,0a.43.43,0,0,1,.09.12C17.17,43.79,17.11,43.76,17.11,43.82Zm-.43-9.66c.09,0,.18,0,.28,0a.17.17,0,0,1,.12.06c.09,0,.12,0,.15.06a.36.36,0,0,1,.09.19c0,.19-.28.25-.49.25s-.22-.28-.34-.4C16.52,34.25,16.65,34.25,16.68,34.16Zm-.15-1.05a.25.25,0,0,1,.46,0,.48.48,0,0,1,.31.34c-.12.15-.4,0-.46-.13-.12,0-.09-.06-.22,0S16.55,33.17,16.52,33.1Zm1.85,1.49a.35.35,0,0,1-.25.21c-.06,0-.12-.09-.15-.15s-.12-.09-.12-.19c-.22,0-.15-.34-.12-.53,0,0,.06,0,.06,0,.18.06.25.25.43.31,0,.06,0,.06,0,.12S18.37,34.47,18.37,34.59Zm3.94,2.65c0,.06-.09.22-.18.25a1.33,1.33,0,0,0-.15,0c0-.06-.12-.09-.12-.22s0,0-.06,0,0-.19-.09-.22-.12-.25-.15-.34a.3.3,0,0,1,.31-.09l.09.09s.09.06.09.09.06.09.15.09a.46.46,0,0,1,0,.22s.06.06.06.09v.06A0,0,0,0,1,22.32,37.24Zm-1.73.46a.17.17,0,0,1-.31,0,.16.16,0,0,1-.12-.06,1.15,1.15,0,0,0-.12-.46c.06-.06.06-.12.12-.19s.31.09.4.19a.31.31,0,0,0,.09.25c0,.06-.06.12-.06.15S20.62,37.68,20.59,37.71ZM19.7,36s0,0,0-.06a.48.48,0,0,1,.31.22c0,.15.25.31,0,.4-.09.22-.25.06-.31-.15a1.46,1.46,0,0,1,0-.16A.33.33,0,0,1,19.7,36Zm1.08.37c.25,0,.28.15.4.25,0,.15.09.19.06.28s.06,0,.09,0a.46.46,0,0,1,.06.31c-.12,0-.18.15-.31.12s-.15-.15-.25-.22-.12-.28-.15-.4S20.65,36.53,20.78,36.41Zm.46-.21s-.06,0-.09,0-.09-.25,0-.34.18.09.28.12.18.15.22.34a.47.47,0,0,0-.18.16C21.36,36.38,21.24,36.35,21.24,36.2Zm.06-2a1.13,1.13,0,0,1,.68-.06.31.31,0,0,1-.4.19C21.45,34.41,21.27,34.34,21.3,34.22Zm.62-.59a2.47,2.47,0,0,1-.49,0c-.06,0-.06-.15,0-.25a.42.42,0,0,1,.15-.28.88.88,0,0,1,.49,0,.17.17,0,0,0,.15.09c.06.12.12.25,0,.31a0,0,0,0,1-.06,0C22,33.57,21.95,33.57,21.92,33.63Zm-.49-1s-.06,0-.09,0a.64.64,0,0,1-.25.15,1,1,0,0,1-.46.28.07.07,0,0,1-.06-.06c0-.31.28-.37.4-.59.09-.06.15-.06.18-.12a.42.42,0,0,0,.22,0C21.52,32.3,21.45,32.49,21.42,32.61Zm-.83,3.24c.06.31-.18.31-.31.19a.61.61,0,0,1-.09-.15s0-.09-.06-.12-.12-.12-.12-.22.09-.12.15-.15.25.19.31.25,0,.09,0,.12Zm-.28-1.73c0,.19-.18.25-.25.37s-.15.09-.25.06-.09-.06-.15-.12-.09,0-.12-.06,0-.09.06-.15A.66.66,0,0,1,19.7,34c.09-.15.37-.34.56-.15,0,0,.12.19,0,.25S20.31,34.06,20.31,34.13Zm-.68,3.15a.79.79,0,0,1,.06.4.42.42,0,0,1-.06.25c-.18,0-.28-.09-.46-.06,0,0-.06-.12-.12-.15s-.09-.25-.09-.43.12-.37.22-.4.18,0,.31.06S19.61,37.15,19.64,37.28ZM19,36.2s.06-.09.06-.19.12-.12.22-.09,0,.19.09.25a.64.64,0,0,1-.12.34c0,.06-.06.15-.12.15s-.12-.28-.12-.37l0,0S19,36.22,19,36.2ZM19.36,35a1.46,1.46,0,0,0-.18.28c-.15,0-.22.06-.34,0a1,1,0,0,0-.18-.4c.09-.12.15-.34.37-.37.06,0,.18,0,.22,0C19.42,34.53,19.42,34.87,19.36,35Zm-.55,3.86a.14.14,0,0,1,.09.15c0,.06.06.09.09.15a1.25,1.25,0,0,1,0,.34s0,.06,0,.06V40S19,40,19,40s0,.19,0,.28,0,.06,0,.12,0,.12,0,.19,0,.09,0,.12v.09a.91.91,0,0,1-.06.31c0,.06.06.06.06.12s-.18.06-.28.12a.42.42,0,0,0-.34,0,.26.26,0,0,0-.28-.06s-.06,0-.06-.09-.22,0-.28.06-.25-.09-.37-.19,0-.4-.15-.56c0-.12,0-.22,0-.37A.67.67,0,0,0,17,39.9a.81.81,0,0,0-.09-.34s0-.06-.06-.09a.53.53,0,0,1,0-.31c0-.06,0-.09,0-.15s.06,0,.09,0,.12,0,.18,0c.12.15.09.37.25.52,0,0,0,0,0,.09a3.5,3.5,0,0,0,.12.46.7.7,0,0,0,.09.34.07.07,0,0,1,.06.06.19.19,0,0,1,0,.12c0,.06.12.06.15.12.18-.15,0-.49,0-.68a4.19,4.19,0,0,0-.06-.62l0-.06s0,0,0-.06,0-.09,0-.15.15-.15.22-.25c.31,0,.28.34.37.56s0,.15,0,.22,0,.09,0,.15.09.15.06.28a.07.07,0,0,0,.06.06c0,.09,0,.22.06.28l0,0c0,.06,0,.09.09.09s.06-.09.06-.19a2.35,2.35,0,0,0,0-.43s0-.06,0-.09-.06-.22-.06-.31,0-.06,0-.09A.47.47,0,0,1,18.8,38.85ZM17.48,36.6c-.09.09-.15.34-.37.22-.06,0,0-.09,0-.19v-.09c0-.09.12-.09.18-.15s.09-.06.15-.06.06.06.09.09A.19.19,0,0,0,17.48,36.6Zm.89.34c0,.09.06.12.12.19s0,.09,0,.15a1.35,1.35,0,0,0,0,.15c.06.25-.09.43-.09.65s-.34,0-.46,0-.06-.09-.09-.12,0-.06,0-.09,0,0,0-.06,0-.19-.09-.25a1.11,1.11,0,0,1,.06-.56v-.09a1.71,1.71,0,0,1,.18-.25.11.11,0,0,1,0-.09.18.18,0,0,1,.28.06C18.4,36.72,18.34,36.84,18.37,36.94Zm.22-.62c-.06.09-.28,0-.37,0s-.06-.21-.09-.31.09-.28.15-.37.28.09.34.25A.47.47,0,0,0,18.59,36.32ZM17.82,35c.09.12.06.34.15.46a.69.69,0,0,1-.15.4.7.7,0,0,1-.28-.09c-.06-.15-.22-.21-.28-.37a.82.82,0,0,1,0-.28c.06,0,.12-.16.25-.19A1,1,0,0,1,17.82,35Zm-.62,2.28c.06,0,.09,0,.15,0a.81.81,0,0,1-.12.62.33.33,0,0,1,0,.19c-.12,0-.18.12-.31.15s-.09,0-.18,0l-.15-.15a.6.6,0,0,1-.15-.49.86.86,0,0,1,.22-.4C16.83,37.12,17,37.12,17.2,37.31Zm-.65,2.25a3.22,3.22,0,0,0,.18.49.43.43,0,0,1,.09.12v.09c.06.12.06.37.15.49s0,.09,0,.15.12.12.09.22-.12,0-.25-.06a.23.23,0,0,0-.09-.22c.09-.19-.12-.22-.09-.43s-.15-.22-.15-.37V40c0-.09-.12-.15-.19-.25s0-.19,0-.28,0,0,0,0S16.49,39.53,16.55,39.56ZM22,44.38a2.41,2.41,0,0,0,.25.71.17.17,0,0,0,.09.15c0,.09,0,.12.06.22a0,0,0,0,0,0,.06,1.25,1.25,0,0,1,.06.22.28.28,0,0,0,.12.25.28.28,0,0,1,0,.15.06.06,0,0,0,.06.06c-.09.31.34.68,0,.9-.09-.06-.25-.15-.25-.28s-.06-.22-.15-.28a.48.48,0,0,0-.06-.25s0-.06-.06-.06A.42.42,0,0,0,22,46s-.06,0-.09,0,0,.22,0,.37.09.19.12.28a.19.19,0,0,0,0,.12.58.58,0,0,1,.12.28s0,.06.06.12.09.15,0,.25l-.06.06a1,1,0,0,1-.34.06.33.33,0,0,1-.19-.22s-.09-.06-.09-.09,0-.09,0-.15-.06-.12,0-.19a4,4,0,0,0-.25-.52s0,0,0,0-.09-.09,0-.12l-.09-.09c0-.06-.06-.12-.09-.19s-.09-.19-.18-.19,0,.12-.06.15V46s0,.06,0,.12v.06c0,.06.06.22,0,.31s.06.06.06.09,0,.06.06.12a.39.39,0,0,1,0,.19,3.27,3.27,0,0,1,.15.59c-.06,0,0,.09,0,.15s-.12,0-.12.12a.84.84,0,0,1-.46-.06.1.1,0,0,0-.09-.09.52.52,0,0,0-.09-.31c0-.09,0-.28-.06-.34-.06-.28-.15-.62-.22-1-.09,0-.09.09-.09.12s-.06.06-.06.09,0,.06,0,.06,0,.12-.09.12.06.09.09.12,0,0,0,.06,0,.06,0,.06,0,.19,0,.25a.44.44,0,0,1,.09.12c-.06.12,0,.31.09.4s-.06.22,0,.25a.28.28,0,0,1,0,.15c-.12.09-.19.09-.37,0s-.15,0-.18-.09,0-.15,0-.19a2.12,2.12,0,0,0-.09-.25v-.15c-.12-.15-.09-.34-.15-.46s-.09-.22,0-.28a.19.19,0,0,1,0-.22h0s0-.06,0-.12a1.16,1.16,0,0,1,0-.34s-.06-.06-.09-.06,0-.09,0-.15H19c-.06.09,0,.19-.09.25s0,.09.06.15-.06,0-.06.06,0,.19,0,.22,0,.06,0,.09,0,.34.09.46c-.09.12,0,.22-.06.34a.17.17,0,0,0-.12.09c0,.12-.06.28,0,.37-.09.09,0,.25-.09.37s-.15-.09-.25-.12-.06-.31-.12-.43,0-.06,0-.09a1.62,1.62,0,0,1-.09-.56c0-.06,0-.12,0-.19,0-.25.12-.52,0-.71a1.8,1.8,0,0,0-.09-.59h-.06A2.32,2.32,0,0,0,18,46s-.06,0-.09.06-.06.12,0,.22a.19.19,0,0,1,0,.12c0,.09,0,.19,0,.25a.86.86,0,0,0,0,.28l0,0v.15s0,0,0,.06,0,.09-.06.15-.09.06-.09.09-.06.09-.09.15,0,.22-.12.28-.06-.19-.15-.19,0-.28-.09-.34.09-.22,0-.28a.51.51,0,0,0,0-.31s0-.06.06-.09,0-.09,0-.12,0-.06,0-.12,0-.09,0-.15a.19.19,0,0,1,0-.12s0,0,0-.06a.14.14,0,0,0,0-.15c.06-.12.06-.31.12-.46s0-.06,0-.09.06-.06.06-.09.06-.15.06-.28-.06-.09-.06-.15a2.74,2.74,0,0,1,.06-.46c0-.06,0-.12,0-.19s-.06-.25,0-.37a.77.77,0,0,1,.12-.4c.06,0,.09,0,.12-.09s.15.15.12.37c0,0-.06.09-.06.15s0,.22,0,.31,0,.22,0,.4H18c0-.15.12-.28.15-.4s0-.09,0-.09,0,0,.06,0a1.1,1.1,0,0,1,.12-.28c0-.06,0-.15,0-.19a.4.4,0,0,1,.15-.34c.43,0,.15.56.22.86,0,.06.09.09.12.12a.41.41,0,0,0,.18-.31,1,1,0,0,0,.15-.43c-.06-.09,0-.12,0-.25.06,0,0-.06.06-.09s.25-.22.37-.09c0,.28-.06.56.15.65.06,0,.06,0,.09-.06A.81.81,0,0,1,20,43c.19.06.15-.15.34-.15,0,.12,0,.22,0,.31s.12.19.15.31.18,0,.22,0,0-.19.06-.28,0-.31.09-.4a.6.6,0,0,1,.22,0c0,.09,0,.15,0,.22s0,0,0,0a.94.94,0,0,1,.09.49c.09.12,0,.34.25.37s.12-.12.09-.31,0-.19,0-.25-.06-.19,0-.25a.19.19,0,0,1,0-.19c.06,0,.06,0,.09,0a1.31,1.31,0,0,0,.12.37c0,.09.09.28.09.37a.11.11,0,0,1,0,.06,1.35,1.35,0,0,0,.15.37c0,.06,0,.06,0,.06S21.95,44.32,22,44.38Zm0-3.3s-.06,0-.09.06-.09.12-.15.15l-.15.06c-.15.06-.28.19-.43.19s-.15.19-.34.15c0,0-.09.06-.09.12s.15,0,.22.06.06-.06.12-.06,0,0,0,0a.76.76,0,0,1,.28-.12c.06,0,.12,0,.12,0s0,0,.09,0,.09-.06.18-.06.06-.09.09-.06,0,.12,0,.15a.23.23,0,0,1,0,.15c0,.12-.25.25-.4.31s-.12,0-.18,0a1,1,0,0,1-.28.09c-.06,0-.06,0-.09,0s-.06.06-.12.06v0a.62.62,0,0,1-.4.06c-.06.06-.06.15-.22.12a.42.42,0,0,0-.12-.09c-.09,0-.19.06-.28.06H19.7c-.06,0-.12,0-.18.06a.2.2,0,0,1-.18,0,.23.23,0,0,0-.15,0,5.77,5.77,0,0,1-1.63-.19c-.06,0-.09,0-.12,0a.68.68,0,0,0-.25,0,1.88,1.88,0,0,0-.37-.15,1.37,1.37,0,0,1-.18-.22A.22.22,0,0,1,17,42a2.64,2.64,0,0,0,.59.19s.06,0,.09.06.09,0,.15,0a4.34,4.34,0,0,0,.62,0h.15s.06,0,.09,0,.12,0,.15,0,.06,0,.09,0a1.32,1.32,0,0,0,.15,0s.06-.06.09-.06.25,0,.34-.06,0-.09,0-.15c-.25-.06-.49.12-.74,0,0,0-.06,0-.09,0s-.18,0-.28,0-.25-.06-.37-.06a3.69,3.69,0,0,1-.59,0,1.52,1.52,0,0,0-.55-.25c.06-.06.15-.19.28-.19a.77.77,0,0,1,.43.12s.06,0,.09,0a3.52,3.52,0,0,0,.86.09s0,0,.06,0h.18c.15,0,.31,0,.4-.09a1.89,1.89,0,0,0,.4,0h.06c.15,0,.31,0,.43-.06a.66.66,0,0,0,.25,0h.09c.06,0,.12-.06.18-.06s.31,0,.4-.09c.31-.06.49-.22.8-.28l.19-.09a0,0,0,0,1,0,0S22,41,22,41.07Zm-2.87-.34c.12-.12.34,0,.43.06a.39.39,0,0,0,.22.15s.09,0,.12,0S20,41,20,41h.15c.06,0,.09.06.15.09s-.12.06-.15.12H19.7a5.45,5.45,0,0,1-.52-.19A.51.51,0,0,1,19.14,40.73ZM22.26,39c.06.15-.12.28-.12.4s-.12.4-.31.46a1.13,1.13,0,0,0-.06.28s-.06,0-.09.09c0,.22-.22.28-.22.49,0,.06-.15.06-.25,0s0-.15-.06-.19a.45.45,0,0,0-.31.22.74.74,0,0,1-.28-.06c0-.06-.06-.09-.06-.15s-.09.09-.18.09a.36.36,0,0,1-.31-.12.72.72,0,0,1-.37-.06l-.09-.28c-.12-.06-.18,0-.25.09s-.15-.12-.18-.28.06-.15.06-.25,0-.06,0-.12,0,0,0-.06,0-.25,0-.31.06-.25.15-.34.09.22.06.34,0,.06,0,.06a.92.92,0,0,1,.06.31c0,.09-.09.28,0,.31s.12-.34.12-.49,0-.06,0-.06c.09-.19.06-.43.18-.49s0,0,.06.06.15,0,.22-.06.15,0,.18.06a2,2,0,0,1-.06.22s.06.06.09.09.06-.15.06-.25a1.28,1.28,0,0,0,.09-.25c.22,0,.31-.19.46-.28s0,.09,0,.15,0,0,0,.06-.06,0-.06,0,0,.09,0,.15a.43.43,0,0,0,0,.34s0,0,0,.09,0,.06.09.06c.12-.19.18-.43.34-.56a.58.58,0,0,1,.15-.34c.06,0,.12,0,.18,0a.44.44,0,0,1-.12.43c.06.12-.09.25-.12.37s0,.12,0,.15,0,.09.06.09-.06,0,0,.06a.19.19,0,0,0,.12,0c.12-.06.12-.25.22-.34s.06,0,.09,0a.83.83,0,0,1,.15-.19s0-.06,0-.06a.31.31,0,0,1,.15-.12c.06-.09.09-.15.25-.15C22.41,38.91,22.32,39,22.26,39Zm0-2.72c0-.09-.15-.12-.12-.22S22.07,36,22,36s.12-.28.22-.21.06,0,.09,0,.06.09.12.12.15.19.21.28,0,.16-.06.19A.52.52,0,0,1,22.26,36.32Zm.74,1.2c-.09,0-.18-.12-.21-.19s-.09-.25-.16-.34-.09-.15,0-.25.18,0,.21-.09h0c.06.09.15.09.21.19s0,.09.06.15.09.09.09.12,0,.22,0,.31C23.12,37.43,23.12,37.55,23,37.52Zm.28-2.72c-.12,0-.25,0-.31,0s0-.06,0-.06a3.89,3.89,0,0,0-.46-.28.43.43,0,0,1,0-.22c.12,0,.22,0,.34,0a.19.19,0,0,0,.12,0c.09.06.15.16.25.19A.27.27,0,0,1,23.27,34.8Zm.18.28.09-.09c0-.06,0-.12,0-.12a.63.63,0,0,1,.34,0c.06,0,.25.28.18.37A.48.48,0,0,1,23.46,35.08Zm.28,1.79c-.09,0-.12-.09-.15-.12s0-.22,0-.34.16,0,.28.06a.4.4,0,0,1,.18.4c0,.06-.06.15-.16.15S23.77,36.94,23.73,36.87ZM24.45,38a.49.49,0,0,1-.25.19c-.18,0-.31-.28-.34-.46a.93.93,0,0,1,0-.25c0-.09.12-.15.15-.25h0c0-.06.09,0,.12,0a1.83,1.83,0,0,1,.34.59A.42.42,0,0,0,24.45,38Zm.4-1.33a1.18,1.18,0,0,1-.34-.46c0-.06-.06,0-.06-.06V36.1a.42.42,0,0,1-.16-.25.43.43,0,0,1,.09-.28,1.13,1.13,0,0,1,.31,0s.06.06.12.12v.09a.12.12,0,0,1,.06,0c0,.09,0,.19.06.28s.06.09.09.15,0,.06,0,.09,0,0,0,.06S24.94,36.66,24.84,36.72Zm.86-.8s0,.06.06.09c0,.21.12.34,0,.55-.22.06-.25-.06-.34-.22a.77.77,0,0,1-.12-.4C25.43,35.83,25.58,35.89,25.71,35.92Zm-.21-.37c0,.06-.09.12-.06.19-.37.12-.43-.21-.62-.37,0,0,0-.06,0-.06s-.21-.28-.37-.37v-.06s-.06,0-.06-.06.09-.09.18-.06.31.31.46.34C25.15,35.27,25.4,35.33,25.49,35.55Zm-.16-1.3v.16c0,.12-.15.31-.34.28s-.12-.09-.22-.15-.12,0-.15-.09a.63.63,0,0,0,.15-.25C25,34.1,25.25,34,25.34,34.25Zm-2-1.58a.12.12,0,0,0,.06,0s0-.09,0-.12A1.87,1.87,0,0,1,25,33v.28c-.06.16-.31.09-.43,0s-.37,0-.58-.09a1.53,1.53,0,0,0-.25-.12.4.4,0,0,1-.18-.12c-.06,0-.18-.12-.18-.22Zm.18.65a1.62,1.62,0,0,0,.37.06H24c.06,0,.09.09.15.12s.18.06.25.16a1.41,1.41,0,0,1,.18.21c0,.06,0,.09,0,.16s-.25.21-.37.21-.25-.12-.34-.15a.09.09,0,0,0-.06,0c-.06,0-.06-.06-.12-.06s-.15-.06-.21-.09a.72.72,0,0,0-.28-.12c-.09,0-.25-.12-.25-.25s.18-.22.25-.25A.65.65,0,0,1,23.52,33.32ZM22,32.06c.09,0,.22-.06.34-.06a2.44,2.44,0,0,0,.28-.06c.09,0,.18,0,.25.06s-.09.06-.09.12.28,0,.34.16-.16.09-.18.15,0,0-.06,0c-.28.06-.65.06-1,.12a.39.39,0,0,1-.22-.12c0-.09.12-.09.12-.19S22,32.15,22,32.06ZM20.25,32c.06,0,.09-.09.18-.12a1.54,1.54,0,0,1,.49-.37c.06,0,.09,0,.12,0s.06,0,.09-.06h.15a1.42,1.42,0,0,0,.15,0c.06,0,.12-.06.22,0s.15.12.22.15-.09.06-.12.12,0,0,0,0-.09,0-.18.06-.12.09-.18.09l-.22,0s-.09,0-.15.06a.42.42,0,0,1-.12.09s-.09,0-.15,0a.68.68,0,0,1-.15.09c-.09.06-.22.22-.31.22s-.15,0-.22-.06S20.19,32.12,20.25,32Zm-.62.71c.06,0,.12,0,.22,0s.19,0,.25.09a.54.54,0,0,1-.56.31L19.45,33C19.51,32.83,19.51,32.71,19.64,32.71Zm-.37-.93a1.4,1.4,0,0,1,.25.34c-.09.09-.15.25-.25.34H19.2c-.09-.12-.12-.31-.25-.4C19,31.87,19.08,31.62,19.27,31.78Zm-.15,1.85a.39.39,0,0,1,0,.37c0,.06-.06.12-.09.22a.34.34,0,0,1-.4-.16c0-.06.06-.06.06-.15a.23.23,0,0,0,.15-.19A.18.18,0,0,1,19.11,33.63Zm-.43-1.33c0,.06.06.12.09.19a.24.24,0,0,0,0,.16.19.19,0,0,0,0,.12c0,.06,0,.12,0,.15s-.18-.19-.28-.25-.15-.15-.12-.28S18.53,32.27,18.68,32.3Zm-1-.56c.06,0,.12,0,.25,0a1.11,1.11,0,0,1,.31,0s.28.16.28.22-.31.12-.37.21c-.15-.12-.37-.15-.49-.31S17.66,31.81,17.66,31.75Zm.12.62s0,.06,0,.06.06,0,.09,0a2.8,2.8,0,0,1,.4.46l-.06.06a1.84,1.84,0,0,0-.4,0,3.86,3.86,0,0,1-.52-.4,1.29,1.29,0,0,1,.12-.22C17.57,32.3,17.72,32.36,17.79,32.36ZM17,31.87c.09,0,.15,0,.18.06s.09.09.18.09c.06.15-.09.25-.22.28a.88.88,0,0,1-.4,0,1.17,1.17,0,0,1-.25-.16c-.09-.06-.25-.06-.22-.28S16.74,31.81,17,31.87Zm-.49,3.83a.2.2,0,0,1,.22.06,1,1,0,0,1-.06.43,1.5,1.5,0,0,1-.43.34s0-.06-.06-.09a.36.36,0,0,1-.12-.22,1,1,0,0,1,.06-.25l.12-.09A2.14,2.14,0,0,1,16.46,35.7ZM14.7,32.89a.61.61,0,0,1,.31-.19,1.61,1.61,0,0,0,.4-.09,3.48,3.48,0,0,0,.59,0c0,.09.12.16.12.25a.28.28,0,0,1-.31.22c-.06,0-.06-.06-.09-.06s-.06,0-.09,0a.12.12,0,0,0-.09,0s0,0-.06,0-.25.09-.43.06-.28.06-.4,0S14.7,33,14.7,32.89Zm-.19.9A.58.58,0,0,1,15,33.6a2.49,2.49,0,0,0,.25.12,1.72,1.72,0,0,0,.25.15.55.55,0,0,1-.06.31,1.9,1.9,0,0,0-.43,0c-.06,0-.12.06-.18.06s-.22-.09-.34-.16A.93.93,0,0,0,14.52,33.79Zm.19,2.65a.68.68,0,0,1,.06.43,1.21,1.21,0,0,1-.12.28c-.12,0-.12.12-.19.19s-.06,0-.15.06-.12-.06-.15-.19-.09-.15,0-.25c0-.15.09-.31.09-.43S14.52,36.32,14.7,36.44Zm-.4-1.23c.15.09,0,.37-.18.37s-.18.19-.34.21a.28.28,0,0,1-.15.09c-.25.19-.31.55-.55.74v.06a.31.31,0,0,0-.12.15c-.15,0-.31-.12-.31-.28s.09-.15.06-.25.09-.16.12-.22.22-.19.25-.34c0,0,.06-.06.09,0a1,1,0,0,1,.4-.4c.12-.06.25-.22.43-.12A.35.35,0,0,1,14.3,35.21Zm-1.54-.74a.64.64,0,0,1,.19-.28s0,.06.06.06.18-.06.18-.15a.06.06,0,0,0,.09,0s.09-.06.09-.12c.15,0,.28-.12.43-.09a.91.91,0,0,1,.4.06c0,.25-.15.31-.25.47-.12,0-.18.09-.28.15s-.25.09-.4.09l-.09,0a1,1,0,0,0-.31.06.22.22,0,0,1-.12-.06C12.79,34.62,12.73,34.56,12.76,34.47Z"/><path class="cls-1" d="M68.37,17.76h0a13.7,13.7,0,0,1,9-3A19,19,0,0,1,83.11,16a3.94,3.94,0,0,0,1,.21c0,.8.25,3,.4,5.16a1,1,0,0,1-1.08,0c-.37-2.41-1.57-5.22-6.6-5.22-5.3,0-9.12,4.29-9.12,10.38s4.44,11,9.43,11c4.47,0,6.17-2.5,7-4.54a.87.87,0,0,1,1,.16A14.58,14.58,0,0,1,83.44,38l-1.36.31a25.53,25.53,0,0,1-5.15.52,13.81,13.81,0,0,1-8.42-2.22A11.57,11.57,0,0,1,63.84,27,11.46,11.46,0,0,1,68.37,17.76Z"/><path class="cls-1" d="M109.59,24.74h0c0-2.87-.18-3-1.94-3.33l-.77-.12c-.28-.19-.25-.89.09-1,1.57.06,2.87.12,4.16.12s2.59,0,3.94-.12c.34.12.37.83.09,1l-.55.12c-1.73.43-1.91.47-1.91,3.33v8.89a5.54,5.54,0,0,0,.43,2.87c.37.37.71.65,2.84.65,2.5,0,4-.12,5.21-3.43.28-.28.92-.22,1,.15a14.2,14.2,0,0,1-1.23,4.6c-1.26,0-2.43-.06-3.6-.06s-2.16-.06-3.24-.06h-3c-1.33,0-2.59,0-4.2.12a.68.68,0,0,1-.06-1l.77-.15c1.76-.28,1.94-.43,1.94-3.3Z"/><path class="cls-1" d="M105.21,37.46h0l-.65-.12c-1.48-.28-1.85-.83-2.34-2.19l-3.7-9.92c-.58-1.54-1-3.3-1.36-4.26-.06-.15-.15-.37-.21-.49a.39.39,0,0,0-.34-.19c-.68.06-1.26.09-1.85.09a23.84,23.84,0,0,0-2.56-.12.49.49,0,0,0-.31.56.59.59,0,0,0,.25.58,3.57,3.57,0,0,1,1.75.8A17.36,17.36,0,0,1,93,24.92l-3.61,9.61c-.8,2-1.26,2.44-2.53,2.72l-1,.22a.66.66,0,0,0,.09,1c.74,0,1.73-.12,2.87-.12s2.22.06,3.24.12c.4-.06.46-.83.12-1l-1.11-.22c-.77-.15-.9-.34-.46-1.67l1-2.66c.34-.93.46-1,1.38-1h3.92c.92,0,1,.06,1.38,1l1,2.69c.49,1.26.52,1.54-.53,1.7l-.83.12a.61.61,0,0,0,.09,1c1-.09,2.22-.12,3.67-.12s2.34,0,3.42.12A.62.62,0,0,0,105.21,37.46Zm-9-6.83h0l-2.68,0c-.9,0-1.33-.16-.86-1.27L94,25.67c.4-.93.58-1.36.65-1.45h0c0-.09.09-.16.12-.16s.25.16.31.37a8.49,8.49,0,0,1,.53,1.39L97,29.34C97.41,30.54,97.28,30.64,96.24,30.64Z"/><path class="cls-1" d="M174.69,24.74h0c0-2.87.06-3-1.73-3.33l-.77-.12c-.28-.19-.25-.89.09-1,1.6.06,2.65.12,3.94.12s2.59,0,3.95-.12c.34.12.37.83.09,1l-.55.12c-1.7.43-1.91.47-1.91,3.33v8.89a5.54,5.54,0,0,0,.43,2.87c.37.37,1.17.65,3.3.65,2.49,0,4-.12,5.21-3.43.28-.28,1-.22,1.08.15a16.11,16.11,0,0,1-1.23,4.6c-1.29,0-2.47-.06-3.64-.06s-2.16-.06-3.24-.06h-3.48c-1.29,0-2.25,0-3.82.12-.34-.12-.37-.83-.09-1l.77-.15c1.79-.28,1.6-.43,1.6-3.3Z"/><path class="cls-1" d="M169.69,29.31h0c0,5.59-4.16,9.66-10,9.63-6.35,0-10.11-4.17-10.11-9.39,0-5.53,4.2-9.73,10.11-9.73C166.37,19.83,169.72,24.24,169.69,29.31Zm-16.58-.43h0c0,4.29,2.1,8.89,6.84,8.89,3.11,0,6.29-2.16,6.29-7.84,0-4.42-2.28-8.89-6.78-8.89C156.5,21,153.11,23,153.11,28.88Z"/><path class="cls-1" d="M194.72,32.89h0c0-1.3-.12-1.64-1.14-3.52l-3-5.59c-.86-1.67-1.26-2-2.34-2.26l-1.08-.21a.7.7,0,0,1,.12-1c1.36.06,2.31.12,3.79.12,1.23,0,2.16-.06,3.48-.12.34.16.46.84,0,1l-.55.12c-.92.21-1,.46-.37,1.76l1.51,2.93c.62,1.23,1.23,2.38,1.85,3.46.65-1.14,1.27-2.13,2-3.46l1.64-3c.62-1.14.68-1.51-.28-1.67l-.86-.12a.6.6,0,0,1,.06-1c1.23.09,2.19.12,3.11.12s1.79,0,2.93-.12a.69.69,0,0,1,.09,1l-1,.19c-1.29.25-1.48.49-2.77,2.56l-2.53,4.14c-1.48,2.38-1.57,2.78-1.57,4v2.26c0,2.44.18,2.68,1.94,2.9l1,.12c.28.19.25.9-.09,1-1.79-.06-3.15-.12-4.41-.12s-2.59.06-4.44.12c-.34-.12-.37-.83-.09-1l1-.12c1.76-.22,1.91-.46,1.91-2.9Z"/><path class="cls-1" d="M136.19,33h0c0,3.46.12,4.29,3,4.35l1,.09c.22.19.16.9-.06,1-1.94-.06-4.13-.09-5.49-.09s-3.36,0-4.87.09c-.22-.09-.28-.77-.09-1l.83-.09c2.1-.25,2.53-.37,2.47-4.35V20.32c0-3-.06-3.59-1.6-3.74l-1.23-.12a.61.61,0,0,1,.06-.9,66.32,66.32,0,0,1,7.15-.28,16.51,16.51,0,0,1,7.28,1.45,6.61,6.61,0,0,1,3.76,5.93c0,3.37-2.74,5.37-4.81,6a15,15,0,0,1-5.67.34c-.28,0-.06-.65.16-.65,4.56,0,6.69-1.88,6.81-5.62.15-4.42-2.65-6.21-6.29-6.21-1.82,0-2.43.19-2.43,1.3Z"/></g></g></svg>