<svg xmlns="http://www.w3.org/2000/svg" viewBox="0 0 144.98 89.98"><defs><style>.cls-1{fill:#fff;}</style></defs><title>cbsinteractive</title><g id="Layer_2" data-name="Layer 2"><g id="Layer_1-2" data-name="Layer 1"><path class="cls-1" d="M2.08,76.16a6.17,6.17,0,0,1,4.6-1.85,6.2,6.2,0,0,1,5.47,2.48,5.4,5.4,0,0,1,1,2.79H10A4.26,4.26,0,0,0,9.28,78,3.08,3.08,0,0,0,6.8,77a3.05,3.05,0,0,0-2.64,1.38,6.72,6.72,0,0,0-1,3.9,5.9,5.9,0,0,0,1,3.77,3.19,3.19,0,0,0,2.59,1.25,2.93,2.93,0,0,0,2.45-1.08A4.73,4.73,0,0,0,10,84.47h3.11a6.74,6.74,0,0,1-2.06,4A6,6,0,0,1,6.85,90a6.36,6.36,0,0,1-5-2.07A8.35,8.35,0,0,1,0,82.2,8.28,8.28,0,0,1,2.08,76.16Z"/><path class="cls-1" d="M26.84,76.19a3.81,3.81,0,0,1,.69,2.29,3.34,3.34,0,0,1-.69,2.2,3.58,3.58,0,0,1-1.14.85,3.34,3.34,0,0,1,1.73,1.32A4,4,0,0,1,28,85a4.38,4.38,0,0,1-.67,2.39,4.12,4.12,0,0,1-2.75,1.93,10.37,10.37,0,0,1-2.12.2H15.73v-15H23A4.59,4.59,0,0,1,26.84,76.19Zm-8.13,1v3.3h3.64a3,3,0,0,0,1.58-.37,1.41,1.41,0,0,0,.61-1.32,1.34,1.34,0,0,0-.8-1.38A5.63,5.63,0,0,0,22,77.19Zm0,5.78v4h3.64a3.53,3.53,0,0,0,1.52-.26,1.89,1.89,0,0,0,1-1.87,1.61,1.61,0,0,0-1-1.61A3.79,3.79,0,0,0,22.4,83Z"/><path class="cls-1" d="M33,84.95a3,3,0,0,0,.57,1.53,3.32,3.32,0,0,0,2.67.92A5.74,5.74,0,0,0,38,87.16a1.74,1.74,0,0,0,1.34-1.74,1.28,1.28,0,0,0-.66-1.15,7.12,7.12,0,0,0-2.08-.7L35,83.22a10.09,10.09,0,0,1-3.28-1.15,3.65,3.65,0,0,1-1.51-3.24,4.3,4.3,0,0,1,1.48-3.34A6.31,6.31,0,0,1,36,74.16a6.67,6.67,0,0,1,4.09,1.25,4.46,4.46,0,0,1,1.77,3.64h-3a2.14,2.14,0,0,0-1.21-1.92,4.14,4.14,0,0,0-1.86-.38,3.55,3.55,0,0,0-2,.49,1.54,1.54,0,0,0-.74,1.36,1.28,1.28,0,0,0,.73,1.2,9.08,9.08,0,0,0,2,.62l2.63.62A6.68,6.68,0,0,1,41,82.13a3.66,3.66,0,0,1,1.34,3.06A4.3,4.3,0,0,1,40.8,88.6,6.7,6.7,0,0,1,36.32,90a7.33,7.33,0,0,1-4.65-1.34A4.42,4.42,0,0,1,30,84.95Z"/><path class="cls-1" d="M51,89.57v-15h1.41v15Z"/><path class="cls-1" d="M57.3,89.57H56.06V78.79H57.3v1.5A7.93,7.93,0,0,1,58.85,79a3.56,3.56,0,0,1,1.92-.5,4.91,4.91,0,0,1,1.85.34A3.16,3.16,0,0,1,64.07,80a2.69,2.69,0,0,1,.47,1.2,10.89,10.89,0,0,1,.07,1.28v7.05H63.36v-7a3.21,3.21,0,0,0-.64-2.18,2.74,2.74,0,0,0-2.14-.73,3,3,0,0,0-1.06.18,3.33,3.33,0,0,0-.86.47,3.13,3.13,0,0,0-.66.67,3.09,3.09,0,0,0-.42.79,4,4,0,0,0-.23,1q0,.48,0,1Z"/><path class="cls-1" d="M71.41,89.61l-.6.15a3.11,3.11,0,0,1-.83.1,2,2,0,0,1-1.42-.47,2.28,2.28,0,0,1-.49-1.68V79.83H66.54v-1h1.52v-3h1.25v3h2v1h-2v7.39q0,.4,0,.69a1.14,1.14,0,0,0,.12.48.59.59,0,0,0,.32.27,1.78,1.78,0,0,0,.61.08,3.18,3.18,0,0,0,.51,0l.51-.1Z"/><path class="cls-1" d="M74.18,84.47a5.86,5.86,0,0,0,.23,1.65,4,4,0,0,0,.68,1.35,3.29,3.29,0,0,0,1.13.92,3.49,3.49,0,0,0,1.58.34,3.44,3.44,0,0,0,2.1-.65,3.11,3.11,0,0,0,1.17-1.83h1.39a6.69,6.69,0,0,1-.6,1.43,4.38,4.38,0,0,1-.94,1.14,4,4,0,0,1-1.33.76,5.39,5.39,0,0,1-1.79.27,5.22,5.22,0,0,1-2.23-.44A4.2,4.2,0,0,1,74,88.23a5,5,0,0,1-.89-1.79,8.09,8.09,0,0,1-.29-2.22A7.05,7.05,0,0,1,73.19,82a5.67,5.67,0,0,1,1-1.82,4.56,4.56,0,0,1,1.55-1.23,4.69,4.69,0,0,1,2.08-.45A4.3,4.3,0,0,1,81.29,80a6.72,6.72,0,0,1,1.25,4.44Zm7-1A5,5,0,0,0,81,81.94a3.48,3.48,0,0,0-.65-1.21,3.06,3.06,0,0,0-1.07-.81,3.45,3.45,0,0,0-1.48-.3,3.27,3.27,0,0,0-1.47.31,3.36,3.36,0,0,0-1.08.83A4.17,4.17,0,0,0,74.53,82a5.55,5.55,0,0,0-.35,1.46Z"/><path class="cls-1" d="M86.29,89.57H85V78.79h1.25v2h0A3.62,3.62,0,0,1,87.67,79a4.09,4.09,0,0,1,2.17-.51v1.35a3.65,3.65,0,0,0-1.75.33,2.88,2.88,0,0,0-1.09,1,3.79,3.79,0,0,0-.56,1.42,9.17,9.17,0,0,0-.16,1.72Z"/><path class="cls-1" d="M96.86,83.28l.84-.12a3.17,3.17,0,0,0,.8-.23.66.66,0,0,0,.39-.49,3.1,3.1,0,0,0,.07-.63,2.13,2.13,0,0,0-.61-1.57,2.87,2.87,0,0,0-2.07-.61,5.74,5.74,0,0,0-1.19.11,2.57,2.57,0,0,0-.95.4,2.18,2.18,0,0,0-.67.75,3.17,3.17,0,0,0-.34,1.18H91.86a3.86,3.86,0,0,1,.44-1.63,3.32,3.32,0,0,1,1-1.1,4,4,0,0,1,1.37-.62,6.75,6.75,0,0,1,1.65-.2,6.4,6.4,0,0,1,1.53.18,3.54,3.54,0,0,1,1.25.56,2.6,2.6,0,0,1,.83,1,3.72,3.72,0,0,1,.3,1.58v5.87q0,.73.26.93t1.05-.09v1l-.43.12a1.93,1.93,0,0,1-.55.08,2.51,2.51,0,0,1-.56-.06,1,1,0,0,1-.5-.2,1.21,1.21,0,0,1-.3-.37,1.54,1.54,0,0,1-.16-.48,3.44,3.44,0,0,1,0-.55,5.44,5.44,0,0,1-1.81,1.33,5.33,5.33,0,0,1-2.21.46,5,5,0,0,1-1.36-.19,3.3,3.3,0,0,1-1.15-.58,2.89,2.89,0,0,1-.79-1,3,3,0,0,1-.29-1.36q0-2.75,3.77-3.25Zm2.1.62a6.11,6.11,0,0,1-1.6.44q-.81.1-1.62.17a4.58,4.58,0,0,0-2.24.65,1.85,1.85,0,0,0-.8,1.64,1.78,1.78,0,0,0,.2.86,1.81,1.81,0,0,0,.52.6,2.17,2.17,0,0,0,.75.35,3.29,3.29,0,0,0,.86.11,5.66,5.66,0,0,0,1.46-.19A3.94,3.94,0,0,0,97.74,88a2.92,2.92,0,0,0,.88-1,2.83,2.83,0,0,0,.33-1.4Z"/><path class="cls-1" d="M111.11,82.18A3.63,3.63,0,0,0,110,80.3a3.11,3.11,0,0,0-2.06-.68,3.24,3.24,0,0,0-1.64.4,3.33,3.33,0,0,0-1.12,1.05,4.73,4.73,0,0,0-.64,1.48,6.72,6.72,0,0,0-.21,1.65,7,7,0,0,0,.2,1.66,4.45,4.45,0,0,0,.63,1.46,3.26,3.26,0,0,0,1.12,1,3.36,3.36,0,0,0,1.66.39,3.19,3.19,0,0,0,2.24-.77,3.58,3.58,0,0,0,1.07-2.12h1.33a6.29,6.29,0,0,1-.53,1.63,4.3,4.3,0,0,1-.94,1.27,4,4,0,0,1-1.36.82,5.84,5.84,0,0,1-4-.15,4.2,4.2,0,0,1-1.54-1.2,5,5,0,0,1-.89-1.8A8.22,8.22,0,0,1,103,84.2a7.15,7.15,0,0,1,.32-2.15,5.6,5.6,0,0,1,.95-1.82A4.57,4.57,0,0,1,105.77,79a4.66,4.66,0,0,1,2.13-.47,4.81,4.81,0,0,1,3,.89,4.16,4.16,0,0,1,1.45,2.79Z"/><path class="cls-1" d="M118.83,89.61l-.6.15a3.11,3.11,0,0,1-.83.1,2,2,0,0,1-1.43-.47,2.28,2.28,0,0,1-.49-1.68V79.83H114v-1h1.52v-3h1.25v3h2v1h-2v7.39q0,.4,0,.69a1.15,1.15,0,0,0,.12.48.59.59,0,0,0,.32.27,1.78,1.78,0,0,0,.61.08,3.19,3.19,0,0,0,.51,0l.51-.1Z"/><path class="cls-1" d="M120.95,76.44V74.59h1.37v1.85ZM121,89.57V78.79h1.25V89.57Z"/><path class="cls-1" d="M124.3,78.79h1.35l3.5,9.24,3.5-9.24H134l-4.18,10.78h-1.39Z"/><path class="cls-1" d="M136.62,84.47a5.86,5.86,0,0,0,.23,1.65,4,4,0,0,0,.68,1.35,3.27,3.27,0,0,0,1.13.92,3.49,3.49,0,0,0,1.58.34,3.44,3.44,0,0,0,2.1-.65,3.11,3.11,0,0,0,1.16-1.83h1.39a6.69,6.69,0,0,1-.6,1.43,4.38,4.38,0,0,1-.94,1.14,4,4,0,0,1-1.33.76,5.39,5.39,0,0,1-1.79.27,5.23,5.23,0,0,1-2.23-.44,4.2,4.2,0,0,1-1.54-1.2,5,5,0,0,1-.9-1.79,8.11,8.11,0,0,1-.29-2.22,7.05,7.05,0,0,1,.34-2.23,5.66,5.66,0,0,1,1-1.82,4.55,4.55,0,0,1,1.55-1.23,4.68,4.68,0,0,1,2.08-.45,4.3,4.3,0,0,1,3.5,1.53A6.72,6.72,0,0,1,145,84.47Zm7-1a5,5,0,0,0-.22-1.49,3.48,3.48,0,0,0-.65-1.21,3.07,3.07,0,0,0-1.07-.81,3.45,3.45,0,0,0-1.48-.3,3.28,3.28,0,0,0-1.47.31,3.36,3.36,0,0,0-1.08.83A4.18,4.18,0,0,0,137,82a5.57,5.57,0,0,0-.35,1.46Z"/><path class="cls-1" d="M73.8,0c1.06.16,2.13.28,3.18.47a27.57,27.57,0,0,1,20.29,15,27.87,27.87,0,0,1,3,15.92,28.16,28.16,0,0,1-55.75,3c-1.9-10,.68-18.75,7.76-26a26.79,26.79,0,0,1,16.17-8L70.78,0ZM72,12c-1.4.15-3,.24-4.59.52-9.62,1.72-16.64,7-21.3,15.55a1.36,1.36,0,0,0,0,1.09A29.07,29.07,0,0,0,77.26,44.81c9.45-1.71,16.36-7.06,21-15.45a1.44,1.44,0,0,0,0-1.59C92.46,17.7,83.78,12.51,72,12Z"/><path class="cls-1" d="M57.07,28.55A15.13,15.13,0,1,1,72.21,43.76,15.13,15.13,0,0,1,57.07,28.55Z"/></g></g></svg>