<svg xmlns="http://www.w3.org/2000/svg" viewBox="0 0 206.06 42.19"><defs><style>.cls-1,.cls-2{fill:#fff;}.cls-2{fill-rule:evenodd;}</style></defs><title>coffeemate</title><g id="Layer_2" data-name="Layer 2"><g id="Layer_1-2" data-name="Layer 1"><path class="cls-1" d="M.21,20.95C-1.26,31.5,4.87,42.36,19.6,42.19a23,23,0,0,0,13.77-4.53c1.45-1.12.58-2.29-1-1.28A26.17,26.17,0,0,1,22.49,39c-8.58.13-15.63-6.77-14.13-17.34,1.22-8.73,8.83-17,17.13-17.07a15.68,15.68,0,0,1,2.45.14c7.7,1.07,8.43,2.86,9,1.14s-3.16-4.2-7.08-4.75C7.87-2,1.1,14.65.21,20.95Z"/><path class="cls-1" d="M56.19,29.57c-.92,6.51-9.17,5.8-8.92,4s2.46-1.16,2.85-4L52.5,12.71a.25.25,0,0,0-.24-.29l-5,.07a.23.23,0,0,0-.24.22c0,.09-2.4,17-2.4,17-.91,6.5-9.16,5.81-8.91,4s2.47-1.18,2.86-4l2.38-16.94a.23.23,0,0,0-.25-.26l-2.46,0a.24.24,0,0,1-.22-.3l.38-2.68a.23.23,0,0,1,.23-.22h2.6a.23.23,0,0,0,.25-.2l.47-3.3c.75-5.38,5.22-6,7.92-5.66,1.85.26,3.2,1.32,3,3.06s-2.25.64-3,.52S48.21,4.17,47.95,6l-.44,3a.26.26,0,0,0,.25.28l5-.05A.26.26,0,0,0,53,9l.47-3.31c.74-5.37,5.23-6,7.93-5.65,1.83.25,3.19,1.31,2.94,3.08s-2.25.6-3,.5S59.78,4,59.5,5.92l-.41,3a.25.25,0,0,0,.24.29l3.06,0a.24.24,0,0,1,.25.27l-.37,2.69a.24.24,0,0,1-.25.21l-3.2.06c-.15,0-.24.09-.24.2S56.19,29.57,56.19,29.57Z"/><path class="cls-1" d="M68.23,16c-.39,1.28-.43,1.18.57,1.17.58,0,4.16,0,4.82,0a.86.86,0,0,0,.89-.89c.23-1.92,0-4.34-2.06-4.64C69.47,11.14,68.47,15.18,68.23,16Zm5.52-8c5.93.82,6.72,7.66,6.21,11.23a1.41,1.41,0,0,1-1.31,1.09c-2.58,0-10.06.08-10.93.12-.18,0-.37,0-.43.43-.16,1.17-1.6,6.75,3,7.43,3.44.47,7.1-1.56,7.69-.5.74,1.26-4.42,5-10.64,4.17-4.94-.68-7-6.38-6.25-11.6C62.26,12.42,67.12,7,73.75,8Z"/><path class="cls-1" d="M88.68,15.74c-.38,1.29-.41,1.18.56,1.18.57,0,4.17,0,4.82,0A.88.88,0,0,0,95,16c.23-1.9,0-4.34-2.09-4.61C89.94,10.94,88.91,15,88.68,15.74Zm5.54-8c5.91.83,6.69,7.65,6.2,11.22a1.43,1.43,0,0,1-1.33,1.1l-10.91.1c-.19,0-.4,0-.44.45-.17,1.18-1.61,6.77,3.06,7.4,3.43.49,7.07-1.54,7.68-.47.73,1.27-4.45,5-10.65,4.17-4.93-.69-7-6.4-6.24-11.62C82.71,12.21,87.58,6.84,94.22,7.77Z"/><path class="cls-1" d="M103.12,23.71c-.64,0-.72-.48-.66-.91l.09-.66a.79.79,0,0,1,.88-.7c50.08,0-43.57,0,6.51,0,.63,0,.73.44.67.83l-.09.69a.82.82,0,0,1-.9.67C108.08,23.65,103.72,23.71,103.12,23.71Z"/><path class="cls-1" d="M19.18,11.78A9.51,9.51,0,0,1,28,8.37c7.16.67,9.54,6,8.69,12.07-1,6.85-5.56,12-12.47,12-6.74.06-10.06-5.08-9.09-12,1.1-7.74,10.17-8.82,12.38-6a3.85,3.85,0,0,1,.64,1c.33.86.1.82-.22.59a8,8,0,0,0-.63-.56c-1.36-1.34-5.25-.16-6,4.95s-.2,8.36,3.4,8.32c4-.23,5.32-6,5.47-6.84a18.84,18.84,0,0,0,.43-5.6c-.29-4.12-2.92-5-5.32-5.14a13.81,13.81,0,0,0-5.19.77S18.5,12.82,19.18,11.78Z"/><path class="cls-1" d="M19.18,11.78A9.51,9.51,0,0,1,28,8.37c7.16.67,9.54,6,8.69,12.07-1,6.85-5.56,12-12.47,12-6.74.06-10.06-5.08-9.09-12,1.1-7.74,10.17-8.82,12.38-6a3.85,3.85,0,0,1,.64,1c.33.86.1.82-.22.59a8,8,0,0,0-.63-.56c-1.36-1.34-5.25-.16-6,4.95s-.2,8.36,3.4,8.32c4-.23,5.32-6,5.47-6.84a18.84,18.84,0,0,0,.43-5.6c-.29-4.12-2.92-5-5.32-5.14a13.81,13.81,0,0,0-5.19.77S18.5,12.82,19.18,11.78Z"/><path class="cls-1" d="M179.06,12.21a1.42,1.42,0,0,1-1.27,1.21l-2.77,0a.26.26,0,0,0-.26.21l-1.93,13.83c-.21,1.49.6,2,1.26,2.11s1.83-.38,2.19.25-2,3.47-6.16,2.88c-2.27-.32-3.81-1.91-3.36-5.14l1.93-13.77a.24.24,0,0,0-.23-.27h-1.12c-.71,0-.81-.58,0-1.37s6-5,6.68-5.57,1.82-.68,1.66.47-.2,1.4-.27,2-.22,1.12.88,1.1l1.88,0c.61,0,1,.77.94,1.55Z"/><path class="cls-1" d="M162.66,26.05l.25-1.72L157,23.49l-.25,1.85A3.74,3.74,0,0,1,153,28.53c-2.14.05-3.25-1-3-3.17.55-3.92,6.44-3.72,7.41-5.21L157,23.49l5.93.83,1.3-9.23c.61-4.4-.86-5.82-3.85-6.25-4.74-.67-12.4,1.07-11.94,3.73.61,3.47,5-.67,8.54-.18,1.43.2,1.61,1.11,1.48,2.07-.76,5.45-13.25,2.08-14.51,11-.68,4.89,2.73,7.63,6.31,7.54,2.31,0,4.63-1.83,6-3.2-.38,2.65,4.18,3.58,6.76,1.44.5-.42.62-1.65-.13-1.76C161.9,29.39,162.36,28.34,162.66,26.05Z"/><path class="cls-1" d="M184.48,16.53c-.38,1.27-.41,1.19.57,1.17.58,0,4.16,0,4.82,0a.88.88,0,0,0,.91-.88c.22-1.92,0-4.35-2.09-4.62C185.73,11.7,184.71,15.77,184.48,16.53Zm5.54-8c5.91.81,6.71,7.65,6.19,11.2a1.38,1.38,0,0,1-1.3,1.1c-2.58,0-10.07.12-10.94.15-.17,0-.37,0-.42.42-.17,1.17-1.61,6.75,3.06,7.42,3.42.48,7.08-1.56,7.69-.49.72,1.25-4.45,5-10.65,4.17-5-.71-7-6.38-6.25-11.59C178.52,13,183.38,7.61,190,8.56Z"/><path class="cls-1" d="M115.53,14.23,113.38,29.5c-.13,1-1.11.9-1.24,1.69s.31,1.3,1.26,1.28l5.17-.07c.93,0,1.43,0,1.58-1,.13-.78-.85-1-.72-2l2-14.13c.42-3,5.59-3.68,5.09-.27l-2,14.35c-.13,1-1.13.91-1.24,1.69s.33,1.31,1.27,1.28l5.17-.07c.94,0,1.42,0,1.57-1,.1-.76-.85-1-.72-2l.16-1.17,1.85-12.95c.4-3,5.56-3.71,5.08-.29l-2,14.34c-.13,1-1.13.93-1.24,1.68s.32,1.31,1.26,1.3l5.17-.06c.95,0,1.44,0,1.58-1s-.86-1-.72-2l2.22-15.88c.78-5.39-6.19-5.54-11.7-2.13C131,8.31,126,8.42,121.64,10.76c-.33-1-.08-1.92-1.81-1.34s-2.38.74-4.41,1.41-1.61,2.74-.3,2.92A.44.44,0,0,1,115.53,14.23Z"/><path class="cls-2" d="M202,29.3V28.11h.79c.4,0,.83.09.83.57s-.44.63-.93.63Zm0,.49h.67l1,1.66h.66l-1.09-1.69a1,1,0,0,0,1-1.05c0-.75-.45-1.09-1.35-1.09h-1.46v3.84H202Zm-2-.26a2.7,2.7,0,1,1,2.71,2.78A2.69,2.69,0,0,1,200,29.53m2.71,3.33a3.32,3.32,0,1,0-3.37-3.33A3.32,3.32,0,0,0,202.7,32.86Z"/></g></g></svg>