<svg xmlns="http://www.w3.org/2000/svg" viewBox="0 0 155.57 45.79"><defs><style>.cls-1{fill:#fff;fill-rule:evenodd;}</style></defs><title>coldwellbanker</title><g id="Layer_2" data-name="Layer 2"><g id="Layer_1-2" data-name="Layer 1"><polygon class="cls-1" points="66 22.89 66 41.93 72.79 41.93 72.79 37.54 74.7 35.16 80.42 45.79 87.73 45.79 80.58 31.93 77.82 31.93 85.4 22.89 78.25 22.89 72.79 28.92 72.79 22.89 66 22.89 66 22.89"/><path class="cls-1" d="M146.66,13.12V0h-6.78V13.12H131V0h-6.78V13.12H111.47c-2.12,0-3.55-1.8-3.55-4.07s1.22-4.28,3.6-4.28h3.87c1.59,0,1.59,1.85.05,1.85H109.3c-.16,3.17,1.75,4.5,3.82,4.5h3.76c5.72,0,5.94-4.23,5.94-5.92A6,6,0,0,0,117.09,0h-6.15a9.38,9.38,0,0,0-9.11,9.26c0,4.71,3.29,9.78,9.11,9.78h6.47c3.63,0,5.83-2.64,6.81-4.43A4.88,4.88,0,0,0,129.08,19H135a4.88,4.88,0,0,0,4.88-4.84A4.88,4.88,0,0,0,144.76,19h5.92a4.88,4.88,0,0,0,4.88-4.87v-1Z"/><path class="cls-1" d="M87.52,16.4A4.64,4.64,0,0,0,92.14,19h3.21a4.88,4.88,0,0,0,4.88-4.87V0H97.83c-3.18,0-4.37,3-4.37,5.08v6.61a1.27,1.27,0,1,1-2.52-.05V0H84.16V11.85a1.29,1.29,0,1,1-2.57,0V0H74.81V14.17A4.88,4.88,0,0,0,79.69,19h3.15a4.78,4.78,0,0,0,4.68-2.64Z"/><path class="cls-1" d="M151.42,22.9H137.19a2.9,2.9,0,0,0-2.9,2.89V39a2.9,2.9,0,0,0,2.9,2.89h14.23a2.9,2.9,0,0,0,2.9-2.89V25.8a2.9,2.9,0,0,0-2.9-2.89Zm-13.27,7.21c0-2.12,1.75-4.76,4.45-4.76H146V28h-3.58v4.15H146V35h-3.29a4.78,4.78,0,0,1-4.61-4.87Zm9.09,8.27h-4V35.75h3.58V31.43h-3.58V28.76h4.32c1.8,0,2.86,1,2.81,2.27A2.79,2.79,0,0,1,149,33.52a2.55,2.55,0,0,1,1.59,2.54c0,1.59-1.8,2.33-3.39,2.33Z"/><path class="cls-1" d="M65.48,0H54.72V13.12h-8.9V0H39V14.17A4.88,4.88,0,0,0,43.92,19h5.92a4.88,4.88,0,0,0,4.88-4.72V19H65.58c2.91,0,7.84-3.76,7.84-9.73S67.86,0,65.48,0ZM63.77,13.11H61.54V5.39h2.23c2.28,0,3.6,1.38,3.6,4.07s-1.54,3.65-3.6,3.65Z"/><path class="cls-1" d="M123.17,33.32c4.08-.69,4.56-3.49,4.56-5.29a5.42,5.42,0,0,0-5.25-5.13H107.54V36H93.6c-2.12,0-3.55-1.8-3.55-4.07s1.22-4.28,3.6-4.28h4a.93.93,0,1,1,.11,1.85H91.43c-.16,3.17,1.75,4.5,3.82,4.5h4.35c5.72,0,6.25-4.23,6.25-5.92a5.88,5.88,0,0,0-5.62-5.18H93.07A9.38,9.38,0,0,0,84,32.16c0,4.71,3.29,9.78,9.12,9.78h7.68a7.92,7.92,0,0,0,6.78-4.38v4.38h6.78V31.79l6.31,10.15h7.53l-5-8.62Zm-2.7-3.83h-6.09V27.64h6a.93.93,0,1,1,.11,1.85Z"/><path class="cls-1" d="M28,0a9.59,9.59,0,0,0-8.91,13.19H9.65a3.59,3.59,0,0,1-3.34-3.6c0-2.33,1.64-4.44,3.44-4.44h7.53V.11H9.06A9.51,9.51,0,0,0,0,9.94c0,7.09,7.1,9.2,9.06,9.2h4.4c1.35,0,5.14-1.79,6.23-4.66A9.61,9.61,0,1,0,28,0Zm0,13.26A3.66,3.66,0,1,1,31.7,9.63,3.67,3.67,0,0,1,28,13.29Z"/><path class="cls-1" d="M57.09,22.9v9.84L49.67,22.9H43.52V41.07L35.79,22.9h-3c-2.91,0-4,2.38-4.5,3.76L21.74,41.94h6l2-4.47a5.87,5.87,0,0,0,6.12,4.47H50.62V33.8l4.66,6.4c1.7,2,3.23,1.75,4.5,1.75h4.08v-19Zm-27,13.66,2.26-5.08,1.91,5.08Z"/><path class="cls-1" d="M19.36,32.21c1.06-.69,1.54-1.8,1.48-4a5.36,5.36,0,0,0-5.72-5.34H2.46v19H16.4c5.41.05,7.42-6.4,3-9.73Zm-5.51,4H9.45V34H13.8a1.08,1.08,0,1,1,.05,2.17Zm0-6.44H9.45v-2H13.8a1,1,0,1,1,.05,2Z"/></g></g></svg>