<svg xmlns="http://www.w3.org/2000/svg" viewBox="0 0 216.65 42.72"><defs><style>.cls-1{fill:#fff;}</style></defs><title>dignityhealth</title><g id="Layer_2" data-name="Layer 2"><g id="Layer_1-2" data-name="Layer 1"><path class="cls-1" d="M57.48,11.42H63c6.23,0,9.62,3.47,9.62,8.69S68.79,29,62.67,29H57.48Zm5.24,15c4.65,0,6.41-2.94,6.41-6.25C69.14,16.47,67,14,62.67,14h-2V26.41Z"/><path class="cls-1" d="M74.21,12.43a2,2,0,1,1,2,1.9,1.88,1.88,0,0,1-2-1.9m.35,4h3.21V29H74.56Z"/><path class="cls-1" d="M78.86,31.65a3.4,3.4,0,0,1,2.27-3A1.79,1.79,0,0,1,80.3,27a3.09,3.09,0,0,1,1.52-2.38,4.42,4.42,0,0,1-2.11-3.93c0-2.32,1.71-4.65,5.16-4.65a5.21,5.21,0,0,1,2.51.56.28.28,0,0,0,.32-.05,3.88,3.88,0,0,1,3-1.1,7.3,7.3,0,0,1,.86.05L91,17.83A3.73,3.73,0,0,0,90,17.7a2,2,0,0,0-.94.21,4.34,4.34,0,0,1,1.12,3c0,2.83-2.16,4.68-5.24,4.68a5.27,5.27,0,0,1-1.55-.21,1.77,1.77,0,0,0-.32.94c0,2.27,8.31.16,8.31,4.89,0,2.3-2.3,4.17-6.68,4.17-3.71,0-5.88-1.52-5.88-3.72m9.51-.11c0-1.82-3.93-1.44-5.64-2.11a2.13,2.13,0,0,0-1,1.66c0,1.26,1.34,2,3.45,2,1.92,0,3.21-.64,3.21-1.58M87.19,20.85a2.26,2.26,0,0,0-2.27-2.38,2.12,2.12,0,0,0-2.19,2.35,2.2,2.2,0,0,0,2.22,2.35,2.13,2.13,0,0,0,2.25-2.32"/><path class="cls-1" d="M93,16.39h2.73l.32,1.42a7.06,7.06,0,0,1,4.33-1.74c2,0,4.06,1,4.06,4.6V29h-3.21V21.65c0-1.55-.32-2.81-2-2.81a5.17,5.17,0,0,0-3.1,1.34V29H93Z"/><path class="cls-1" d="M106.32,12.43a2,2,0,1,1,2,1.9,1.88,1.88,0,0,1-2-1.9m.35,4h3.21V29h-3.21Z"/><path class="cls-1" d="M114.15,25.9v-7h-2.27V16.39h2.27V13.45l3.18-.94v3.87h3.82l-.78,2.49h-3v6.25c0,1.18.4,1.6,1.23,1.6a3.58,3.58,0,0,0,1.92-.61l1,2.19a7.22,7.22,0,0,1-3.69,1c-2.24,0-3.61-1.28-3.61-3.39"/><path class="cls-1" d="M122.38,32.32a4.15,4.15,0,0,0,1.9.48c1.42,0,2.54-1,3.53-3.85l-5.69-12.56h3.31l3.82,9h.05l3.08-9h3.23l-4.84,13c-2,5.26-4.06,5.93-6.36,5.93a7,7,0,0,1-2.83-.59Z"/><polygon class="cls-1" points="141.87 11.42 145.08 11.42 145.08 18.69 153.63 18.69 153.63 11.42 156.87 11.42 156.87 29.03 153.63 29.03 153.63 21.41 145.08 21.41 145.08 29.03 141.87 29.03 141.87 11.42"/><path class="cls-1" d="M158.84,22.72c0-3.79,2.08-6.65,5.69-6.65s5.61,2.56,5.61,6.76v.75H162a3.23,3.23,0,0,0,3.56,3.21,6.33,6.33,0,0,0,3.21-.86l1,2.19a8.46,8.46,0,0,1-4.46,1.18c-4.62,0-6.47-3.15-6.47-6.57m8.07-1.36c-.05-1.44-.75-2.86-2.43-2.86A2.58,2.58,0,0,0,162,21.36Z"/><path class="cls-1" d="M179.26,27.83a5.21,5.21,0,0,1-3.64,1.47,3.94,3.94,0,0,1-4.2-4,3.61,3.61,0,0,1,2.14-3.45,7.84,7.84,0,0,1,3.26-.72L179,21v-.4c0-1.47-1-2.11-2.43-2.11a7.17,7.17,0,0,0-3.31.88l-1-2.06a9.92,9.92,0,0,1,4.89-1.26c3.39,0,5.08,1.55,5.08,4.6V25.8a13.83,13.83,0,0,0,.24,3.23h-2.67Zm-2-4.62a4,4,0,0,0-1.84.4,1.52,1.52,0,0,0-.78,1.44,1.67,1.67,0,0,0,1.87,1.74,3.92,3.92,0,0,0,2.46-.94v-2.7Z"/><path class="cls-1" d="M184.38,10.11h3.18V25.31c0,.88.35,1.15.94,1.15a2.66,2.66,0,0,0,.8-.16l.62,2.46a6.22,6.22,0,0,1-2.35.46c-2.11,0-3.18-1-3.18-3Z"/><path class="cls-1" d="M191.87,25.9v-7H189.6V16.39h2.27V13.45l3.18-.94v3.87h3.82l-.78,2.49h-3v6.25c0,1.18.4,1.6,1.23,1.6a3.58,3.58,0,0,0,1.92-.61l1,2.19a7.22,7.22,0,0,1-3.69,1c-2.24,0-3.61-1.28-3.61-3.39"/><path class="cls-1" d="M200.46,10.11h3.18v7.67a6.64,6.64,0,0,1,4.2-1.71c2,0,4,1,4,4.6V29h-3.18V21.65c0-1.55-.32-2.81-1.95-2.81a5.1,5.1,0,0,0-3.1,1.34V29h-3.18Z"/><path class="cls-1" d="M214,27.24V29h-.28V27.24h-.56V27h1.4v.25ZM216.38,29V27.56l-.48,1h-.27l-.48-1V29h-.28V27h.28l.62,1.23.62-1.23h.27v2Z"/><path class="cls-1" d="M15,1.37c-.1.3-.21.65-.28,1v0A10.77,10.77,0,0,0,14.47,4v.15l.64.34A9.94,9.94,0,0,1,20,13.85c.24.12.48.22.74.32a9.91,9.91,0,0,0,2.75.63,13.41,13.41,0,0,0,.11-1.68A13.52,13.52,0,0,0,16.88,1.43,13.81,13.81,0,0,0,15.28.64c0,.12-.15.4-.26.73"/><path class="cls-1" d="M33.43.66a13.69,13.69,0,0,0-1.56.77A13.5,13.5,0,0,0,25.23,14.8a10,10,0,0,0,1.66-.28,9.39,9.39,0,0,0,.9-.28,9.64,9.64,0,0,0,.93-.39,9.93,9.93,0,0,1,4.95-9.33l.64-.34h0A10.9,10.9,0,0,0,34,2.35v0c-.07-.3-.18-.64-.28-.94s-.22-.62-.26-.74l-.05,0"/><path class="cls-1" d="M29.09,26.77l-.05.17a10,10,0,0,0-.33,1.92,9.93,9.93,0,0,1,5.6,8.95v0c0,.23,0,.47,0,.7.26.13.51.25.77.35s.58.22.93.33H36a17.24,17.24,0,0,0,1.72.37,13.83,13.83,0,0,0,.12-1.79,13.51,13.51,0,0,0-8.25-12.44,9.88,9.88,0,0,0-.54,1.4"/><path class="cls-1" d="M10.88,37.81a13.62,13.62,0,0,0,.1,1.68l0,.11.77-.14c.31-.06.66-.14,1-.23l.08,0a10.85,10.85,0,0,0,1.55-.61l.11-.06c0-.23,0-.46,0-.68h0v0A9.93,9.93,0,0,1,20,28.87a9.81,9.81,0,0,0-.92-3.5,13.51,13.51,0,0,0-8.25,12.44"/><path class="cls-1" d="M3.08,22.52l0,0c-.22.21-.46.46-.66.7l-.51.6a13.51,13.51,0,0,0,16.39.07,10.1,10.1,0,0,0-1.07-1.29c-.19-.19-.39-.38-.59-.55a9.63,9.63,0,0,0-.91-.7,9.85,9.85,0,0,1-1.24.72,9.93,9.93,0,0,1-9.3-.34c-.21-.12-.41-.25-.61-.38a10.63,10.63,0,0,0-1.48,1.17"/><path class="cls-1" d="M29,20.11a13.51,13.51,0,0,0,2.87,21.18,13.72,13.72,0,0,0,3.35,1.37,1.79,1.79,0,0,0,2.18-1.27c.16-.59.36-1.79.36-1.79h0A17.24,17.24,0,0,1,36,39.24H36c-.32-.1-.63-.21-.93-.33s-.52-.22-.77-.35l-.63-.34A9.92,9.92,0,0,1,29,26.95l.05-.17A10.08,10.08,0,0,1,30,24.62a10.18,10.18,0,0,1,.76-1.14h0l0,0a10,10,0,0,1,.71-.82A9.93,9.93,0,0,1,43.59,21l.61.37a10.42,10.42,0,0,1,1.48,1.16l.06.06,0,0,.19.19c.4.41.79.88.91,1h0s.93-.77,1.37-1.21a1.78,1.78,0,0,0,0-2.52,13.5,13.5,0,0,0-19.24,0"/><path class="cls-1" d="M3.38,17.89A13.62,13.62,0,0,0,.51,20.11a1.79,1.79,0,0,0,0,2.52c.43.44,1.37,1.21,1.37,1.21a17.06,17.06,0,0,1,1.18-1.31A11,11,0,0,1,5.16,21a9.91,9.91,0,0,1,13.57,3.64,10.05,10.05,0,0,1,1,2.33A9.93,9.93,0,0,1,15.1,38.19a11,11,0,0,1-2.38,1A16.59,16.59,0,0,1,11,39.6s.2,1.19.36,1.79a1.78,1.78,0,0,0,2.17,1.27A13.51,13.51,0,1,0,3.38,17.89"/><path class="cls-1" d="M35.21.06c-.59.16-1.73.58-1.73.58A17.15,17.15,0,0,1,34,2.32a11,11,0,0,1,.29,2.58,9.94,9.94,0,0,1-7.44,9.62,10.12,10.12,0,0,1-5,0A9.94,9.94,0,0,1,14.44,4.9a11.06,11.06,0,0,1,.29-2.58A16.88,16.88,0,0,1,15.28.64S14.14.22,13.55.06a1.78,1.78,0,0,0-2.19,1.25A13.51,13.51,0,0,0,21,18,13.51,13.51,0,0,0,37.89,4.9a13.6,13.6,0,0,0-.49-3.59A1.79,1.79,0,0,0,35.68,0a1.75,1.75,0,0,0-.47.06"/><path class="cls-1" d="M43.59,21.74a9.93,9.93,0,0,1-10.29-.21h0l-.11-.07L33,21.36c-.19.13-.38.27-.57.41h-.1l-.13.11h-.11q-.3.26-.59.55l0,0h0l0,0h0a10.12,10.12,0,0,0-1,1.26,13.5,13.5,0,0,0,14.9.92,13.92,13.92,0,0,0,1.49-1l-.09-.11c-.16-.19-.49-.59-.82-.93l-.21-.21-.07-.06a11,11,0,0,0-1.48-1.17c-.2.13-.4.26-.61.38"/></g></g></svg>