<svg xmlns="http://www.w3.org/2000/svg" viewBox="0 0 210.63 28.11"><defs><style>.cls-1{fill:#fff;}</style></defs><title>directtv</title><g id="Layer_2" data-name="Layer 2"><g id="Layer_1-2" data-name="Layer 1"><path class="cls-1" d="M79.72,25.23a10.07,10.07,0,0,1-7.3,2.65h-10V.22h10a10.07,10.07,0,0,1,7.3,2.64c3.1,3.11,2.8,6.92,2.8,11.07S82.83,22.13,79.72,25.23ZM76,6.74a4.83,4.83,0,0,0-4-1.71H67.84v18h4.08a4.83,4.83,0,0,0,4-1.71c1-1.25,1.16-3.22,1.16-7.42S77,8,76,6.74Z"/><path class="cls-1" d="M87.51,27.88V.23h5.39V27.88Z"/><path class="cls-1" d="M113,27.88l-5.4-11h-3.88v11H98.35V.23h10.83c5.63,0,9,3.84,9,8.46a7.44,7.44,0,0,1-5,7.26l6.17,11.92ZM108.83,5h-5.08v7.3h5.08a3.61,3.61,0,0,0,3.92-3.65A3.61,3.61,0,0,0,108.83,5Z"/><path class="cls-1" d="M122.76,27.88V.23H141V5H128.15v6.49h10.91v4.81H128.15v6.71H141v4.82Z"/><path class="cls-1" d="M154.16,28.11a10.12,10.12,0,0,1-7.45-3,8,8,0,0,1-2.25-4.15,37.68,37.68,0,0,1-.46-6.87,37.64,37.64,0,0,1,.46-6.87A7.79,7.79,0,0,1,146.7,3a10.11,10.11,0,0,1,7.45-3c5.32,0,9.24,3.11,10.17,8.73h-5.48c-.58-2.37-2.05-3.92-4.66-3.92a4.27,4.27,0,0,0-3.46,1.44c-1.12,1.21-1.36,2.44-1.36,7.8s.23,6.6,1.36,7.8a4.28,4.28,0,0,0,3.46,1.43c2.6,0,4.07-1.55,4.66-3.92h5.48C163.4,25,159.44,28.11,154.16,28.11Z"/><path class="cls-1" d="M178.42,5V27.88H173V5H165.8V.23h19.84V5Z"/><path class="cls-1" d="M201.46,27.88h-4L188.3.23h5.59l5.56,18L205,.23h5.63Z"/><path class="cls-1" d="M46.83.28H40C44.54,5,45.47,10.95,42.15,16.11,38.4,21.53,27.89,26.45,15.25,27.9H47.17a1.75,1.75,0,0,0,1.91-1.78V1.92C49.08,1.33,48.65.28,46.83.28Z"/><path class="cls-1" d="M1.82,27.9H6.16C24.53,27,33.55,20.74,34,14.41c0-.23,0-.45,0-.68C33.92,7.42,25.72.22,9.21.3H1.92A1.87,1.87,0,0,0,0,2.31V26A1.91,1.91,0,0,0,1.82,27.9Z"/><path class="cls-1" d="M208.45,25.87h.26c.3,0,.56,0,.56-.3s-.24-.3-.48-.3h-.33Zm-.37-.94h.81c.49,0,.74.2.74.64a.57.57,0,0,1-.55.63l.62.88h-.43l-.61-.87h-.21v.87h-.37Zm.69,2.6a1.48,1.48,0,1,0-1.44-1.48A1.42,1.42,0,0,0,208.78,27.53Zm0-3.32a1.84,1.84,0,1,1-1.84,1.84A1.84,1.84,0,0,1,208.78,24.21Z"/></g></g></svg>