<svg xmlns="http://www.w3.org/2000/svg" viewBox="0 0 200.96 42.07"><defs><style>.cls-1{fill:#fff;}</style></defs><title>equityoffice</title><g id="Layer_2" data-name="Layer 2"><g id="Layer_1-2" data-name="Layer 1"><path class="cls-1" d="M29.83,2.1h.39v-1H0V33.5H1C1.07,15.29,13.17,2.1,29.83,2.1"/><path class="cls-1" d="M3.07,33.5H30.23V4.35h-.39C14.38,4.34,3.15,16.59,3.07,33.5"/><path class="cls-1" d="M39.42,33.92v-1h2V2.52h-2v-1H56v10.4h-.72C53.56,3.13,53,2.52,51.4,2.52H44.92V16.58h2.56c1.64,0,2.42-1.45,3.07-6.47h.72v14h-.72c-.65-5-1.44-6.47-3.07-6.47H44.92V32.89h5.76c2.33,0,3-1.26,4.95-11h.71v12Z"/><path class="cls-1" d="M64.82,33.36c2.07,0,3.47-3,3.47-12.28,0-8.76-1.25-10.68-3.31-10.68S61.55,12.83,61.55,22c0,8.9,1.31,11.34,3.27,11.34m1.44,8.72V41h1.84V31.57H68c-.66,2-2.1,3.09-3.6,3.09-3.76,0-6.29-4.4-6.29-12.65,0-7.26,2.85-12.65,6.71-12.65,2.26,0,3.67,1.78,4.52,3.94l1-3.18h.82V41h1.57v1Z"/><path class="cls-1" d="M88.22,33.92H83.56V30.83H83.5c-.52,2.11-2.23,3.84-4.25,3.84-3,0-4.52-2-4.52-6.79V11.14H73v-1H77.8V28.67c0,3.14.66,4.31,2.36,4.31s3.41-2.25,3.41-7.12V11.14h-1.9v-1h5V32.89h1.58Z"/><path class="cls-1" d="M92.69,2.15c1.05,0,1.87,1.07,1.87,2.67s-.82,2.67-1.87,2.67-1.87-1.08-1.87-2.67.82-2.67,1.87-2.67m1.54,30.74H95.8v1H89.65v-1h1.51V11.14H89.58v-1h4.65Z"/><path class="cls-1" d="M96.51,10.11h2.06V4.49h3.07v5.63h3v1h-3V30.45c0,1.78.53,2.53,1.77,2.53,1.41,0,2.23-1.22,2.23-4.69V24.54h.85V28c0,5-1.44,6.65-4.12,6.65-2.36,0-3.8-1.78-3.8-5.62V11.14H96.51Z"/><path class="cls-1" d="M106,10.11h7v1h-2.45l4.78,16.36,3.93-16.36h-2.85v-1h5.69v1h-1.6l-6,24.7c-1.25,5.2-2.26,6.23-4.13,6.23a3.4,3.4,0,0,1-2.81-1.13V33.64h.72l.88,4.54c.46,2.44,1,2.86,1.51,2.86,1.31,0,2.35-3.23,3.14-7.27l-6.58-22.64H106Z"/><path class="cls-1" d="M136.34,33.64c3.63,0,5.37-3.65,5.37-15.94S140,1.77,136.34,1.77,131,5.42,131,17.7s1.74,15.94,5.37,15.94m0-32.9c4.94,0,9.43,6.65,9.43,17s-4.48,17-9.43,17-9.43-6.65-9.43-17,4.49-17,9.43-17"/><path class="cls-1" d="M147.1,9.37h1.57V6.8c0-4.31,1.57-6.8,5.17-6.8a6.88,6.88,0,0,1,2.88.66V6.84H156C154.82,1.5,154.36,1,153.31,1c-.78,0-1.57.75-1.57,3.09V9.37h3.67v1h-3.67V32.15h2.36v1h-7v-1h1.57V10.4H147.1Z"/><path class="cls-1" d="M156.85,9.37h1.51V6.8c0-4.31,1.57-6.8,5.17-6.8a6.86,6.86,0,0,1,2.88.66V6.84h-.72C164.51,1.5,164.05,1,163,1c-.78,0-1.57.75-1.57,3.09V9.37h3.93v1h-3.93V32.15h2.36v1h-7v-1h1.57V10.4h-1.51Z"/><path class="cls-1" d="M169.77,1.41c1,0,1.87,1.08,1.87,2.67s-.82,2.67-1.87,2.67-1.87-1.08-1.87-2.67.82-2.67,1.87-2.67m1.54,30.74h1.57v1h-6.22v-1h1.57V10.4h-1.45v-1h4.52Z"/><path class="cls-1" d="M186.3,18.65h-.92c-1.57-8.25-2.29-9-4-9-2,0-4.13,2.9-4.13,11.15,0,8.62,1.57,11.81,4.26,11.81,2.52,0,4.16-2.58,4.25-8.25h.73c0,6.61-2.36,9.56-5.43,9.56-4.39,0-7.21-5.15-7.21-12.65s3-12.65,7.92-12.65a11.61,11.61,0,0,1,4.52,1.5Z"/><path class="cls-1" d="M197.43,18V16.17c0-4.69-1.08-6.52-2.78-6.52-2,0-3.24,2.9-3.5,8.34Zm-6.32,1c0,.46,0,.93,0,1.4,0,9,1.57,12.18,4.06,12.18,2.78,0,4.78-2.53,5.11-8.34H201c-.17,6.47-2.81,9.65-6.15,9.65-4.16,0-7.14-5.15-7.14-12.65s3.18-12.65,7-12.65,6.12,3.75,6.12,10.41Z"/></g></g></svg>