<svg xmlns="http://www.w3.org/2000/svg" viewBox="0 0 119.2 29.73"><defs><style>.cls-1{fill:#fff;}</style></defs><title>espn</title><g id="Layer_2" data-name="Layer 2"><g id="Layer_1-2" data-name="Layer 1"><path class="cls-1" d="M36.11,0c-2.27,0-6.27,2.59-6.27,8.4H88.73C89.53-.23,83.46,0,83.46,0ZM29.34,11.46s0,1.79,0,2.72A4.52,4.52,0,0,0,34,18.27H48.25l-.45,3.5H28.48l-1,7.94H50.1c1.9,0,6.34-1.54,7.09-6.06,0,0,.89-7.44.91-7.72.11-1.45-.77-4.48-4.7-4.48Zm30.8,0H88.39l-.62,3.18s-.62,3.63-5,3.63H68.93L67.63,29.73H58l2.1-18.26ZM89.87,8.4h29c1.31-5.62-1.42-8.4-4.26-8.4H90.95L89.87,8.4ZM97,29.73H87.43l2.1-18.26h9.7L97,29.73Zm19.29,0h-9.59l2.1-18.26h9.7l-2.21,18.26ZM2.16,11.46H28.08l-.85,6.81H11.29l-.51,3.52h16l-1,7.94H0L2.16,11.46ZM3.46,0H29.39L28.28,8.4H2.55L3.46,0Z"/></g></g></svg>