<svg xmlns="http://www.w3.org/2000/svg" viewBox="0 0 114.21 49.16"><defs><style>.cls-1{fill:#fff;fill-rule:evenodd;}</style></defs><title>fox</title><g id="Layer_2" data-name="Layer 2"><g id="Layer_1-2" data-name="Layer 1"><path class="cls-1" d="M30,24.65a23.43,23.43,0,1,1,46.85,0,23.43,23.43,0,1,1-46.85,0ZM0,49.16V0H29.48l.89,13.48H13.88v6.45H27.36V33.22H13.88V49.16ZM114.21,49,99.45,23.62,112.93.2H98L92,10.63,85.92.2H70.71L84.34,23.77,69.83,49H84.74l7-12.2L98.91,49ZM57.52,34.4V14.91a4.14,4.14,0,0,0-4-4.28,4.19,4.19,0,0,0-3.94,4.28V34.4a4,4,0,0,0,3.94,4,3.84,3.84,0,0,0,4-4Z"/></g></g></svg>