<svg xmlns="http://www.w3.org/2000/svg" viewBox="0 0 140.06 73.6"><defs><style>.cls-1{fill:#fff;}</style></defs><title>gatorade</title><g id="Layer_2" data-name="Layer 2"><g id="Layer_1-2" data-name="Layer 1"><path class="cls-1" d="M139.56,10.68a1.73,1.73,0,0,1-3-1.23,1.73,1.73,0,1,1,3,1.23ZM137.28,8.4a1.44,1.44,0,0,0-.43,1.05,1.46,1.46,0,0,0,.43,1.06,1.49,1.49,0,0,0,2.11,0,1.51,1.51,0,0,0,0-2.12,1.48,1.48,0,0,0-2.11,0Zm1,.1a1.45,1.45,0,0,1,.52.07.47.47,0,0,1,.3.48.42.42,0,0,1-.19.38.72.72,0,0,1-.27.09.46.46,0,0,1,.33.19.52.52,0,0,1,.1.29v.14s0,.09,0,.14a.3.3,0,0,0,0,.1v0h-.31v-.25a.46.46,0,0,0-.18-.44.81.81,0,0,0-.37-.06H138v.75h-.34V8.49Zm.36.3a.87.87,0,0,0-.41-.07H138v.69h.3a.91.91,0,0,0,.32,0,.34.34,0,0,0,.07-.58Z"/><path class="cls-1" d="M139.56,10.68a1.73,1.73,0,0,1-3-1.23,1.73,1.73,0,1,1,3,1.23ZM137.28,8.4a1.44,1.44,0,0,0-.43,1.05,1.46,1.46,0,0,0,.43,1.06,1.49,1.49,0,0,0,2.11,0,1.51,1.51,0,0,0,0-2.12,1.48,1.48,0,0,0-2.11,0Zm1,.1a1.45,1.45,0,0,1,.52.07.47.47,0,0,1,.3.48.42.42,0,0,1-.19.38.72.72,0,0,1-.27.09.46.46,0,0,1,.33.19.52.52,0,0,1,.1.29v.14s0,.09,0,.14a.3.3,0,0,0,0,.1v0h-.31v-.25a.46.46,0,0,0-.18-.44.81.81,0,0,0-.37-.06H138v.75h-.34V8.49Zm.36.3a.87.87,0,0,0-.41-.07H138v.69h.3a.91.91,0,0,0,.32,0,.34.34,0,0,0,.07-.58Z"/><polygon class="cls-1" points="19.75 21.08 12.95 23.78 22.53 7.83 47.23 0 35.3 14.55 47.03 10.41 47.02 10.41 6.86 55.54 19.75 21.08"/><polygon class="cls-1" points="3.63 63.96 54.34 7.82 62.89 4.34 0 73.6 3.63 63.96"/><path class="cls-1" d="M2.29,36.31,17.89,7.73h-13a4.52,4.52,0,0,0-4.5,4.45V64.9L12.7,32.45Z"/><path class="cls-1" d="M131.17,66.11a4.5,4.5,0,0,0,4.5-4.5V12.23a4.5,4.5,0,0,0-4.5-4.51H63.62L10.35,66.1Zm3.22-4.5a3.22,3.22,0,0,1-3.22,3.22H68V9h63.21a3.23,3.23,0,0,1,3.22,3.22Z"/><path class="cls-1" d="M92.91,33.53V28.34a2,2,0,0,0-2.29-2.17H89.44a2,2,0,0,0-2.28,2.17v5.18a2,2,0,0,0,2.28,2.15h1.18a2,2,0,0,0,2.29-2.15m-3.43,1.14a1.15,1.15,0,0,1-1.25-1.33v-4.8a1.15,1.15,0,0,1,1.26-1.32h1.1a1.15,1.15,0,0,1,1.25,1.32v4.8c0,1-.56,1.33-1.24,1.33Z"/><path class="cls-1" d="M74.86,31.32c.91,0,2,.13,1.93,1.19v1.08c0,.91-.94,1.08-1.76,1.08s-2.55-.15-2.55-.15l-.1.1v.9s1.74.15,2.95.15,2.53-.37,2.53-2V32.3c0-1.65-1.43-2-2.53-2s-2-.06-2-1.08v-1c0-.9.92-1.05,1.73-1.05s2.22.15,2.22.15l.1-.1v-.92s-1.39-.15-2.61-.15-2.51.29-2.51,1.93v1.16c0,1.63,1.39,2.05,2.6,2.05"/><path class="cls-1" d="M111.76,31.32c.9,0,2,.13,1.92,1.19v1.08c0,.91-.94,1.08-1.75,1.08s-2.56-.15-2.56-.15l-.1.1v.9s1.73.15,2.95.15,2.53-.37,2.53-2V32.3c0-1.65-1.44-2-2.53-2s-2-.06-2-1.08v-1c0-.9.92-1.05,1.73-1.05s2.23.15,2.23.15l.1-.1v-.92s-1.4-.15-2.62-.15-2.51.29-2.51,1.93v1.16c0,1.63,1.38,2.05,2.61,2.05"/><path class="cls-1" d="M80.92,31.86h2.4a2,2,0,0,0,2.28-2.21V28.53a2,2,0,0,0-2.28-2.21H79.86v9.2h1.06Zm0-4.51h2.4a1.1,1.1,0,0,1,1.21,1.23v1a1.09,1.09,0,0,1-1.2,1.22H80.92Z"/><polygon class="cls-1" points="107.92 26.33 102.09 26.33 102.09 27.35 104.47 27.35 104.47 35.52 105.54 35.52 105.54 27.35 107.92 27.35 107.92 26.33"/><path class="cls-1" d="M99.87,35.52h1.28L99,31.67a2,2,0,0,0,1.77-2.2v-.93a2,2,0,0,0-2.29-2.21H95v9.2h1.07V31.71h1.67Zm-3.75-8.17h2.39a1.1,1.1,0,0,1,1.22,1.23v.89a1.09,1.09,0,0,1-1.2,1.23H96.12Z"/><path class="cls-1" d="M85.16,47l-.09-.1S83.63,47,82.7,47s-1.78-.15-1.78-1.2V40.76c0-1.05.92-1.2,1.78-1.2s2.36.15,2.36.15l.09-.1v-.93s-1.53-.15-2.74-.15-2.56.3-2.56,1.93v5.64c0,1.63,1.45,1.93,2.56,1.93s2.74-.15,2.74-.15Z"/><rect class="cls-1" x="87.16" y="38.69" width="1.07" height="9.2"/><path class="cls-1" d="M77.86,46V44.67c0-1.65-1.43-2-2.53-2s-2-.06-2-1.08v-1c0-.9.92-1,1.73-1s2.22.15,2.22.15l.1-.1v-.92s-1.39-.15-2.61-.15-2.51.3-2.51,1.93v1.15c0,1.64,1.39,2.06,2.6,2.06.91,0,2,.14,1.93,1.19V46c0,.9-.94,1.08-1.76,1.08s-2.55-.15-2.55-.15l-.1.1v.91s1.74.15,2.95.15,2.53-.37,2.53-2"/><polygon class="cls-1" points="96.12 39.71 96.12 38.69 90.67 38.69 90.67 47.89 96.12 47.89 96.12 46.89 91.74 46.89 91.74 43.66 95.25 43.66 95.25 42.65 91.74 42.65 91.74 39.71 96.12 39.71"/><path class="cls-1" d="M111.45,47.89V47l-.1-.1S109.92,47,109,47s-1.78-.15-1.78-1.2V40.77c0-1.05.92-1.2,1.78-1.2s2.36.15,2.36.15l.1-.1v-.93s-1.53-.15-2.75-.15-2.55.3-2.55,1.93v5.64c0,1.63,1.44,1.93,2.55,1.93s2.75-.15,2.75-.15"/><polygon class="cls-1" points="118.61 46.89 114.23 46.89 114.23 43.66 117.74 43.66 117.74 42.65 114.23 42.65 114.23 39.72 118.61 39.72 118.61 38.69 113.16 38.69 113.16 47.89 118.61 47.89 118.61 46.89"/><polygon class="cls-1" points="104.01 47.89 104.01 38.69 102.94 38.69 102.94 46.04 99.38 38.69 98.12 38.69 98.12 47.89 99.19 47.89 99.19 40.81 102.65 47.89 104.01 47.89"/><polygon class="cls-1" points="80.75 58.41 77.18 51.06 75.92 51.06 75.92 60.26 76.99 60.26 76.99 53.18 80.45 60.26 81.81 60.26 81.81 51.06 80.75 51.06 80.75 58.41"/><path class="cls-1" d="M86.88,55c-1.09,0-2-.06-2-1.08V53c0-.9.92-1.05,1.74-1.05s2.22.15,2.22.15l.1-.11v-.92s-1.4-.14-2.62-.14-2.51.29-2.51,1.93V54c0,1.63,1.39,2.06,2.6,2.06.91,0,2,.13,1.94,1.18v1.08c0,.9-.94,1.08-1.76,1.08S84,59.25,84,59.25l-.1.1v.91s1.73.15,2.95.15,2.53-.37,2.53-2V57c0-1.65-1.44-2-2.53-2"/><rect class="cls-1" x="72.41" y="51.06" width="1.06" height="9.2"/><polygon class="cls-1" points="126.95 52.09 126.95 51.06 121.5 51.06 121.5 60.26 126.95 60.26 126.95 59.25 122.57 59.25 122.57 56.03 126.08 56.03 126.08 55.02 122.57 55.02 122.57 52.09 126.95 52.09"/><polygon class="cls-1" points="114.3 52.09 116.69 52.09 116.69 60.26 117.75 60.26 117.75 52.09 120.13 52.09 120.13 51.06 114.3 51.06 114.3 52.09"/><path class="cls-1" d="M111.86,58.07a1.15,1.15,0,0,1-1.24,1.33h-1.13a1.15,1.15,0,0,1-1.24-1.33v-7h-1.07v7.2a2,2,0,0,0,2.28,2.15h1.19a2,2,0,0,0,2.28-2.15v-7.2h-1.07Z"/><polygon class="cls-1" points="90.34 52.09 92.72 52.09 92.72 60.26 93.79 60.26 93.79 52.09 96.17 52.09 96.17 51.06 90.34 51.06 90.34 52.09"/><polygon class="cls-1" points="99.98 52.09 102.36 52.09 102.36 60.26 103.43 60.26 103.43 52.09 105.81 52.09 105.81 51.06 99.98 51.06 99.98 52.09"/><rect class="cls-1" x="97.54" y="51.06" width="1.07" height="9.2"/><path class="cls-1" d="M78.23,23.17s-2.12.15-3.34.15-2.67-.29-2.67-1.93V15.73c0-1.64,1.55-1.93,2.67-1.93s3,.15,3,.15v1.51l-.1.1s-1.44-.15-2.36-.15S74,15.56,74,16.61v3.9c0,1.06.53,1.2,1.49,1.2.19,0,.78,0,1,0v-2H75.7l-.1-.1V18.27h2.64Z"/><path class="cls-1" d="M84,13.87l2.32,9.3h-2l-.62-2.84h-2l-.57,2.84h-2l2.32-9.3Zm-2,4.85H83.4l-.7-3.31Z"/><polygon class="cls-1" points="89.95 15.56 89.95 23.17 88.19 23.17 88.19 15.56 85.99 15.56 85.99 13.95 92.15 13.95 92.15 15.56 89.95 15.56"/><path class="cls-1" d="M93.17,21.24V15.88c0-1.64,1.19-2.08,2.3-2.08H97c1.11,0,2.3.44,2.3,2.08v5.36c0,1.64-1.19,2.08-2.3,2.08H95.47c-1.11,0-2.3-.44-2.3-2.08m1.76-.59c0,.92.4,1.06,1,1.06h.7c.57,0,1-.13,1-1.06V16.47c0-.92-.41-1-1-1h-.66c-.57,0-1,.12-1,1Z"/><path class="cls-1" d="M107.24,17.21c0,1.29-.42,2-1.49,2.28l1.86,3.68h-2.05l-1.76-3.59h-1v3.59h-1.76V13.94h3.85a2,2,0,0,1,2.3,2.23Zm-2.58.76c.57,0,.82-.13.82-.76v-.89c0-.62-.26-.76-.85-.76h-1.79V18Z"/><path class="cls-1" d="M113.34,13.87l2.32,9.3h-2l-.62-2.84h-2l-.57,2.84h-2l2.31-9.3Zm-2,4.85h1.47l-.7-3.31Z"/><path class="cls-1" d="M123,20.68c0,1.9-1.17,2.49-2.64,2.49h-3.52V13.94h3.52c1.47,0,2.64.59,2.64,2.49Zm-1.76-4c0-.59-.15-1.17-1.17-1.17h-1.47v6h1.47c1,0,1.17-.59,1.17-1.17Z"/><polygon class="cls-1" points="126.52 17.61 129.74 17.61 129.74 19.22 126.52 19.22 126.52 21.56 130.62 21.56 130.62 23.17 124.76 23.17 124.76 13.95 130.62 13.95 130.62 15.56 126.52 15.56 126.52 17.61"/></g></g></svg>