<svg xmlns="http://www.w3.org/2000/svg" viewBox="0 0 120.79 76.93"><defs><style>.cls-1{fill:#fff;}</style></defs><title>hampton</title><g id="Layer_2" data-name="Layer 2"><g id="Layer_1-2" data-name="Layer 1"><path class="cls-1" d="M60.8,0,0,17.82V59.9l60.35,17,60-17.37v-42Zm55.27,56.17L60.35,72.64l-56.06-16V21.09L60.69,4.51l55.38,16.36Z"/><path class="cls-1" d="M64.11,14.07s.51.78,1,.26S65,13,64.32,12.88A2.87,2.87,0,0,0,61.39,14a5.08,5.08,0,0,0,.32,5.34,4.94,4.94,0,0,0,5.51,2c2.53-.71,2.51-2.56,2.29-3.06a.89.89,0,0,0-1.08-.37c-.16.12.32.64-.16,1.51a3,3,0,0,1-3.65,1.14,4.29,4.29,0,0,1-2.9-4c.05-1.55,1.12-2.74,2.38-2.51Z"/><path class="cls-1" d="M56.92,14s-.5.77-1.06.26S56,13,56.7,12.85A2.79,2.79,0,0,1,59.63,14a5.13,5.13,0,0,1-.3,5.33,5,5,0,0,1-5.53,2c-2.53-.71-2.5-2.55-2.29-3.06a.86.86,0,0,1,1.08-.36c.16.1-.31.63.16,1.5a3,3,0,0,0,3.65,1.14,4.22,4.22,0,0,0,2.89-4c-.05-1.57-1.1-2.74-2.37-2.5Z"/><path class="cls-1" d="M58.8,12.24A8.93,8.93,0,0,0,60.64,10a5.62,5.62,0,0,0,1.7,2.16,4,4,0,0,0-1.72,2.25,5.1,5.1,0,0,0-1.82-2.19Z"/><path class="cls-1" d="M58.8,20.93a9.78,9.78,0,0,0,1.74-2.21,4.89,4.89,0,0,0,1.59,2.19,3.5,3.5,0,0,0-1.61,2.21,4.62,4.62,0,0,0-1.72-2.18Z"/><path class="cls-1" d="M89.57,45.81c.9,0,1.27-.47,1.27-.74s-.35-.82-1.32-.82-1.27.46-1.25.77S88.68,45.81,89.57,45.81Z"/><path class="cls-1" d="M105.45,48.14a3.51,3.51,0,0,1,.07-1.43h-1.9c-.66.42-1.63,2.77-2.37,4.17a8.32,8.32,0,0,1-2.25,3c-.75.58-1.67.64-2.07-.26A2.41,2.41,0,0,1,97,51.71a3.24,3.24,0,0,0,3.8-2.51c.27-.88.55-2.56-1.55-2.73s-3.15,1.54-3.6,2.29a31.82,31.82,0,0,1-2.6,4.15c-.9,1-1,.3-.89-.34s1.73-5.09,1.73-5.09h1.63L96,47a.24.24,0,0,0-.12-.34l-1.66,0,.94-2.8L92.88,44l-.93,2.66H90.46l-.2.73h1.49c-.58,1.59-1.36,3.93-1.7,4.48s-1.71,1.49-2,1.39,0-.81.27-1.76S90,46.67,90,46.67H88l-1.52,4.14s-.28.49-.77,1.27A2.66,2.66,0,0,1,84,53.28c-.27,0-.18-.53.07-1.39S86,46.62,86,46.62H83.83s-1.35,3.75-1.61,4.47A5.4,5.4,0,0,1,80.72,53c-.47.37-.8,0-.73-.32s2.15-6.12,2.15-6.12H80a53.67,53.67,0,0,0-1.78,5.22c-.16.56-.75,2.87.28,3.14,1.67.43,3.12-1.84,3.12-1.84C81.54,54.35,81.85,55,83,55s2.78-2,2.78-2c-.28,1.28.37,2.19,1.49,2s2.59-2,2.59-2a11.59,11.59,0,0,0,.17,1.5c.15.7,1.29.88,2.25.18a17.39,17.39,0,0,0,2.2-2.09c0,2.36,2,2.92,3.59,2.78a3.3,3.3,0,0,0,2.25-1c-.12.47.11,1.42,2.43,1.31a3.75,3.75,0,0,0,3.59-3.13C106.51,51.39,105.6,48.84,105.45,48.14ZM98.11,49c.75-.83,1.21-.76,1.4-.42A1.67,1.67,0,0,1,99,50.19a2.36,2.36,0,0,1-1.73.63A3.46,3.46,0,0,1,98.11,49Zm6.17,3.63c-.45,1.7-1.39,2.42-2.24,2.25-.47-.08-.71-.29-1.44-.79a19.49,19.49,0,0,0,1.75-2.56c.48-.95.84-2.09,1.15-2.51A5.34,5.34,0,0,1,104.28,52.65Z"/><path class="cls-1" d="M74.91,42.56a2.93,2.93,0,0,1,2.92,2.12c.28,1.07.68,1.31,1.29,1.13s.93-1.52-.42-2.93-3.95-1.3-4.88-1.18-3,.9-3,2.41.86,2.73,2,3.9a5.64,5.64,0,0,1,1.86,3.86c0,1.61-1.3,2.89-3.33,3.13s-4.33-.33-5.11-2.57a3.68,3.68,0,0,1,.94-4.22c.73-.68.9-1.36.54-1.74s-1.18.15-1.39.41a5,5,0,0,0-1.13,5.27c.78,2.85,3.15,4.13,6.69,4,3.83-.17,5.5-2.32,5.57-4.84s-2.5-4.5-3.54-5.22-1.78-1.6-1.66-2.31S73.24,42.52,74.91,42.56Z"/><path class="cls-1" d="M64.6,56.49c-.66,0-1-.34-1.68-1.11a8,8,0,0,1-1.08-2.07,5.14,5.14,0,0,0,1.2-3c0-.32-.61-.35-.65.29a4.14,4.14,0,0,1-.79,2,7.63,7.63,0,0,1-.82-2.63,3.46,3.46,0,0,0,1.62-1.46,1.6,1.6,0,0,0-.64-2.06,1.79,1.79,0,0,0-2.23.76,4.45,4.45,0,0,0-.13,2.51c-2.05.61-3.81,2.05-3.68,3.83s1.48,2.2,2.81,2.11a4,4,0,0,0,2.32-1.2c.31.89,1.5,2.5,2.74,2.72s1.93-.26,1.92-.5S65.25,56.53,64.6,56.49Zm-4.28-8.82c.09-.7.51-.93,1-.8s.36.91.28,1.11a3.14,3.14,0,0,1-1,1.17A3.68,3.68,0,0,1,60.33,47.67Zm-1.08,7.15a1.51,1.51,0,0,1-1.91-.73,2.42,2.42,0,0,1,.42-2.28,3.6,3.6,0,0,1,1.74-1.35s.77,2.38,1.14,3.28A3.21,3.21,0,0,1,59.25,54.82Z"/><path class="cls-1" d="M53.41,47.76c-.25.35.12,1.2.12,2.31a6.53,6.53,0,0,1-3.37,5.5c-2.83,1.56-4.13-.22-4.24-1.24s1.64-5.21,2-6.45-.59-1.66-1.58-1.51a7.22,7.22,0,0,0-2.55,1.53l.4-1.45-2-.06-2,5.53c-.85,1.56-2.21,1.8-2.48,1.53s.1-1.31.42-2.18,1.27-2.46,1.22-3.74c-.07-1.67-1.41-1.42-2.29-1a7.64,7.64,0,0,0-1.93,1.64l.52-1.9h-2l-2.72,8.41H33l1.08-3.39c1.18-2.91,2.8-3.82,3.09-3.69s-.24,1.62-.49,2.12a14.55,14.55,0,0,0-1.3,4.08c0,1.3,1.28,1.27,2.29,1a6.31,6.31,0,0,0,2.19-1.53l-.41,1.48,2.18.06s.57-2,1.17-4a5,5,0,0,1,2.61-3.09c.42-.15.5,0,.39.63s-1.16,2.38-1.68,4.47c-.6,2.48.83,4.08,3.76,4A7.77,7.77,0,0,0,54,52.92a6.55,6.55,0,0,0,.7-4.47C54.38,47.46,53.67,47.43,53.41,47.76Z"/><path class="cls-1" d="M33.65,43.09c.57-.51,1.11-1.28.12-1.07s-3,.45-4,.73a10.42,10.42,0,0,0-4.19,2.09A4.38,4.38,0,0,0,24,49.53c.58,1.42,1.48,1.19,1.79,1s.31-.71-.09-1.27a2,2,0,0,1-.21-2.61c.79-1.19,1.78-2.69,5.95-3.29a27.37,27.37,0,0,0-3.16,5c-1,2.38-1.77,6.4-4.21,7.65s-5.37,1.43-6.92-1.25.55-6.14,1.12-6.36a.64.64,0,0,0,.15-1.05c-.29-.17-1-.09-1.75.88a6.08,6.08,0,0,0-.71,6,5.16,5.16,0,0,0,4.24,3.35A9.73,9.73,0,0,0,25.05,57a10,10,0,0,0,4-4.28c1-2.12,1.65-4.73,2.29-6.06A15.92,15.92,0,0,1,33.65,43.09Z"/><path class="cls-1" d="M97.44,29.38c-.53.11-.38.39-.31,2.32s-2,4.72-3.2,5.7-3,1.66-4.11.59-.08-3.81.77-6,1-2.93.84-3.74-1.45-.79-2-.56a13.18,13.18,0,0,0-2,1.51l.1-1.32-1.87-.05a6.58,6.58,0,0,1-1.43,2.31,2.78,2.78,0,0,1-1.35.83s0-.32.06-1.38a2.16,2.16,0,0,0-1.77-2.06,4.13,4.13,0,0,0-3.78,1.85,10.15,10.15,0,0,0-1.63,4.12,7.14,7.14,0,0,1-1.93,2c-.54.33-1,.6-.54-1.46a42.41,42.41,0,0,1,1.83-5.61H76.9l.14-.66-1.84,0,1-3.43L74,24.55l-1,3.08-1.66,0v.66h1.48s-.74,2.21-.82,2.59S70.69,34,70.86,35.63c.23,2,2,1.23,2.86.76a12.21,12.21,0,0,0,2.07-1.87c.25,2.22,2.41,2.77,4.32,1.77s2.53-4.43,2.53-4.43c.71,0,2-1.11,2-1.11l-2,5.89H84.8a22.11,22.11,0,0,1,3-6.75c.58-.79,1.18-1.08,1.39-.87s-.17,1-.81,2.63a9.52,9.52,0,0,0-.9,5.11c.32,1.8,1.29,2.52,3.22,2.62s4.48-1.24,6-3.59a8.21,8.21,0,0,0,1.56-5C98.33,29.72,98,29.28,97.44,29.38Zm-17.1,4.93c-.48.93-1.16,1.77-1.79,1.48s-.5-2.35-.16-3.58a9.87,9.87,0,0,1,1.08-2.38,3.12,3.12,0,0,0,1.65,2.11A10.94,10.94,0,0,1,80.34,34.31ZM81.42,31s-.6-.07-.94-1a2.23,2.23,0,0,1-.2-1.37,1,1,0,0,1,1-.35C81.85,28.48,81.69,30.25,81.42,31Z"/><path class="cls-1" d="M69.16,27.43a2.66,2.66,0,0,0-2.37,1l-.1-.79H64.91l-1.71,5.22a5.83,5.83,0,0,1-2.38,2.54c-.84.46-.69-.75-.31-1.76s1.29-3.09,1.63-4.49-.53-2-1.71-1.66-2.8,2.35-2.8,2.35c.27-2.3-.86-2.51-1.68-2.28a9.27,9.27,0,0,0-2.27,1.56,9,9,0,0,0,.13-1.63H51.85s-1.53,5.06-1.8,5.57c-.17.3-1.63,2.29-2.29,2.18s-.37-1.05,0-2,1.84-5.78,1.84-5.78H47.31L47,28c-.36-.95-2.54-1.08-4.14.61a9.59,9.59,0,0,0-2.35,5.51c-.16,1.51,0,2.46,1.5,2.46s3-1.9,3-1.9c0,1.32.35,2,1.53,2S49.41,35,49.41,35l-.51,1.43h2.29a41.48,41.48,0,0,1,2-5.19,4.1,4.1,0,0,1,1.72-2.11c.58-.21.81.24.67.68s-2.1,6.68-2.1,6.68h2s1.08-2.95,1.67-4.31A8.05,8.05,0,0,1,59.29,29c.74-.53.56.12.4.69S58,34.26,57.87,34.95a1.47,1.47,0,0,0,1.39,1.88c1.25,0,3.12-1.88,3.12-1.88L60.8,40l2.24,0,1.3-3.87c.31.29.34.45,1.5.52s3-1.58,3.82-3.51S70.76,27.66,69.16,27.43ZM46.28,30.91a10.13,10.13,0,0,1-1.61,3.16c-.64.68-1.39,1.08-1.77.95s-.15-1.63.31-2.92A7.92,7.92,0,0,1,45.07,29a1.72,1.72,0,0,1,1.36-.37A3.05,3.05,0,0,1,46.28,30.91Zm21.37,1.63c-.77,1.84-2,3.14-2.49,3s-.36-1.69.43-3.7S67.46,28.5,68,28.72C68.29,28.85,68.42,30.7,67.65,32.55Z"/><path class="cls-1" d="M40.58,30.25l-.91-.08a34.19,34.19,0,0,1,1.4-4,11.89,11.89,0,0,1,2.82-4s-1-.4-3,1.08-3.93,7-3.93,7l-3.54-.05A23.73,23.73,0,0,1,35,25.87a28.46,28.46,0,0,1,1.85-3.2s-3.83,1-4.44,1.07a12.12,12.12,0,0,0-3,.55c-.93.42-1.32,1.68-1,1.88s1.06-.38,1.68-.81A8.08,8.08,0,0,1,34.23,24a16.78,16.78,0,0,0-3.4,6H28.77l0,.93,1.74,0a27.33,27.33,0,0,1-1.88,5.49c-1.15,2.29-2.55,4.25-4.64,4a4.77,4.77,0,0,1-3.92-5c0-2.79.15-3.85,1.64-5.41.6-.63.54-1.5-.43-1.24s-1.62.87-2.07,2.67a10.13,10.13,0,0,0,1.26,7.85c1.58,2.64,5.38,2.59,7.27,1a15.45,15.45,0,0,0,3.9-5.51c.94-2.3,1.45-3.75,1.45-3.75h3.61s-3.43,8.23,1,10.4a7.86,7.86,0,0,1-.26-4.41,40.07,40.07,0,0,1,2-6l.52,0c.11,0,.46.16.58-.06A1.6,1.6,0,0,0,40.58,30.25Z"/><path class="cls-1" d="M116.18,64.15a2.31,2.31,0,1,1,2.31,2.28,2.28,2.28,0,0,1-2.31-2.28Zm2.31,1.9a1.9,1.9,0,1,0-1.86-1.9,1.84,1.84,0,0,0,1.86,1.9Zm-.48-.59h-.4V62.84h1c.62,0,.92.23.92.75a.68.68,0,0,1-.67.72l.73,1.15h-.43l-.69-1.14H118v1.14Zm.47-1.47c.34,0,.64,0,.64-.43s-.3-.39-.58-.39H118V64Z"/></g></g></svg>