<svg xmlns="http://www.w3.org/2000/svg" viewBox="0 0 169.1 65.79"><defs><style>.cls-1{fill:#fff;}</style></defs><title>hollywoodmedia</title><g id="Layer_2" data-name="Layer 2"><g id="Layer_1-2" data-name="Layer 1"><path class="cls-1" d="M59,25.78C58.53,28.52,56,30,50.59,30c-4.24,0-8.05-1.59-8.05-6.47,0-4.16,3.38-6.33,8.57-6.33,5.49,0,8.11,2.33,8.11,6.64v.82h-10V25c0,1.4.58,2,2,2a1.66,1.66,0,0,0,1.73-1.25Zm-6.12-3.66V22a1.64,1.64,0,0,0-1.82-1.76A1.67,1.67,0,0,0,49.23,22v.17Z"/><path class="cls-1" d="M15.62,17.62h6.81l.17,1.83h.06a5.16,5.16,0,0,1,4.56-2.19c2.22,0,3.84.7,4.73,2.19a5.16,5.16,0,0,1,4.56-2.19c2.92,0,5,1.2,5,4.4v8h-7V22.12a1.19,1.19,0,0,0-1.21-1.3,1.21,1.21,0,0,0-1.27,1.35V29.7h-7V22.12a1.19,1.19,0,0,0-1.21-1.3,1.21,1.21,0,0,0-1.27,1.35V29.7h-7Z"/><path class="cls-1" d="M97.34,20.92c0-.6-.38-1-1.36-1s-1.33.24-1.41,1.25H88.79C89,18,92.6,17.27,96.27,17.27c5.57,0,7.36,1.47,7.36,4.28V29.7H97.51l-.17-1.15a5.44,5.44,0,0,1-4.13,1.52c-2.94,0-5-1.3-5-3.68,0-3,2.89-4.21,8.31-4.21h.84Zm0,3.51h-1c-1.85,0-2.25.72-2.25,1.4s.55,1.25,1.62,1.25,1.59-.65,1.59-1.64Z"/><path class="cls-1" d="M8.71,5.3,8.83,5q.37-1,.93-2.19a8.17,8.17,0,0,1,1-1.77,3.07,3.07,0,0,1,.94-.8A1.21,1.21,0,0,1,12.25.1a.17.17,0,0,1,.12,0,.15.15,0,0,1,0,.11.82.82,0,0,1-.17.37,20,20,0,0,0-1,1.84q-.64,1.29-1.06,2.39l-.09.24L11,4.86l.31.84a15.24,15.24,0,0,1-1.64.4L8.89,8.36H7.64l.66-2q-1,.07-2,.08A9.58,9.58,0,0,1,5.06,7.55a5.43,5.43,0,0,1-1.48.7,5.86,5.86,0,0,1-1.74.26A2.49,2.49,0,0,1,.45,8.2.89.89,0,0,1,0,7.45,1.17,1.17,0,0,1,.45,6.6,3.7,3.7,0,0,1,2.17,5.8a19.63,19.63,0,0,1,3.47-.31,11.92,11.92,0,0,0,.83-1.26A12.09,12.09,0,0,0,7.2,2.55a6.45,6.45,0,0,0,.32-1.29l1.3-.16A7.75,7.75,0,0,1,8.3,3,13.1,13.1,0,0,1,7.09,5.43l.69,0ZM4.83,6.42l-.46,0a9.73,9.73,0,0,0-2.46.41q-.69.22-.69.49a.23.23,0,0,0,.14.19,1.16,1.16,0,0,0,.56.1,3.91,3.91,0,0,0,1.21-.2,4.77,4.77,0,0,0,1-.44A4.8,4.8,0,0,0,4.83,6.42Z"/><path class="cls-1" d="M15.56,7.32a3.09,3.09,0,0,1-1,.73,2.92,2.92,0,0,1-1.16.21,2.05,2.05,0,0,1-1.34-.36,1.43,1.43,0,0,1-.43-1.16,2.58,2.58,0,0,1,.92-2.05,3.22,3.22,0,0,1,2.16-.79A2.13,2.13,0,0,1,16,4.21a.94.94,0,0,1,.46.78.79.79,0,0,1-.42.65.83.83,0,0,1,.13.4,1.34,1.34,0,0,1-.13.48.43.43,0,0,0,.19,0A1.36,1.36,0,0,0,17,6.2v.88a2.37,2.37,0,0,1-.52.31,1.2,1.2,0,0,1-.42.07A1.4,1.4,0,0,1,15.56,7.32Zm-.79-.44a1.12,1.12,0,0,1-.25-.62.62.62,0,0,1,.16-.44,1.33,1.33,0,0,1,.55-.3,1.67,1.67,0,0,0,0-.22.46.46,0,0,0-.17-.38.72.72,0,0,0-.46-.14,1.72,1.72,0,0,0-1.17.54,1.74,1.74,0,0,0-.58,1.32.65.65,0,0,0,.21.52.82.82,0,0,0,.55.18,1.41,1.41,0,0,0,.51-.09A2.76,2.76,0,0,0,14.76,6.87Z"/><path class="cls-1" d="M18.42,5.18l.13-.3.21-.52,1.13-2.8A4.24,4.24,0,0,1,20.65.19.61.61,0,0,1,21.07,0a.36.36,0,0,1,.27.12.59.59,0,0,1,.15.42,3.38,3.38,0,0,1-.28,1.16,17.32,17.32,0,0,1-1.12,2.16,6.61,6.61,0,0,0-.3.69l-.15.33-.84,2a.62.62,0,0,0-.06.22.12.12,0,0,0,0,.1.21.21,0,0,0,.13,0,5.94,5.94,0,0,0,1.48-.9l.25-.18v.88A10.9,10.9,0,0,1,19,8a2.48,2.48,0,0,1-.93.19.86.86,0,0,1-.51-.12.4.4,0,0,1-.16-.34,1.48,1.48,0,0,1,.16-.55l.1-.22a3.25,3.25,0,0,0,.17-.47,9.79,9.79,0,0,1-1,.67v-.9q.58-.35.88-.57A7.71,7.71,0,0,0,18.42,5.18Z"/><path class="cls-1" d="M22,5.18l.13-.3.21-.52,1.13-2.8A4.24,4.24,0,0,1,24.25.19.61.61,0,0,1,24.66,0a.36.36,0,0,1,.27.12.59.59,0,0,1,.15.42A3.38,3.38,0,0,1,24.8,1.7a17.32,17.32,0,0,1-1.12,2.16,6.61,6.61,0,0,0-.3.69l-.15.33-.84,2a.62.62,0,0,0-.06.22.12.12,0,0,0,0,.1.21.21,0,0,0,.13,0A5.94,5.94,0,0,0,24,6.38l.25-.18v.88a10.91,10.91,0,0,1-1.62,1,2.48,2.48,0,0,1-.93.19.86.86,0,0,1-.51-.12A.4.4,0,0,1,21,7.78a1.48,1.48,0,0,1,.16-.55l.1-.22a3.25,3.25,0,0,0,.17-.47,9.79,9.79,0,0,1-1,.67v-.9q.58-.35.88-.57A7.71,7.71,0,0,0,22,5.18Z"/><path class="cls-1" d="M26.22,4.25h1.12l-.18.33Q26.46,5.88,26,6.65a.85.85,0,0,0-.14.3s0,.05.08.08a.93.93,0,0,0,.42-.22l.09-.07a22.2,22.2,0,0,0,3.1-2.49h1l-2,3.63q1-.82,2.31-1.68v.88l-.32.2q-1.61,1-2.67,1.76l-.3.58a6.93,6.93,0,0,1-1.07,1.67.8.8,0,0,1-.55.24.53.53,0,0,1-.35-.11.37.37,0,0,1-.13-.3,2.33,2.33,0,0,1,.36-1.06A6.33,6.33,0,0,1,27,8.6q.25-.52.78-1.4t.9-1.42l-2.7,2.08a2.07,2.07,0,0,1-.56.27,2,2,0,0,1-.61.12.49.49,0,0,1-.3-.08.24.24,0,0,1-.11-.2,2.62,2.62,0,0,1,.33-.81q.12-.21.3-.6a10.17,10.17,0,0,1-.93.64v-.9a16.55,16.55,0,0,0,1.38-1l.25-.19Z"/><path class="cls-1" d="M32.78,4.25h1.14L32.39,7a.71.71,0,0,0-.12.31.14.14,0,0,0,0,.11.2.2,0,0,0,.13,0A1.87,1.87,0,0,0,33.39,7a7.48,7.48,0,0,0,1.74-1.93,1.92,1.92,0,0,1,.37-.48.57.57,0,0,1,.33-.09.52.52,0,0,1,.3.07.22.22,0,0,1,.1.18,1,1,0,0,1-.09.32l-.82,1.87a.77.77,0,0,0-.08.27.21.21,0,0,0,.08.17.29.29,0,0,0,.19.06,1.23,1.23,0,0,0,.71-.28A4.46,4.46,0,0,0,37,6.32a3,3,0,0,1,.55-1.51q.48-.67,1-.67a.34.34,0,0,1,.25.09.41.41,0,0,1,.09.3,2,2,0,0,1-.15.72A8,8,0,0,1,38,6.49a.45.45,0,0,0,.28.13,2.08,2.08,0,0,0,.82-.42v.88a1.59,1.59,0,0,1-1,.41.8.8,0,0,1-.65-.34A5.43,5.43,0,0,1,36.21,8a2.62,2.62,0,0,1-1.06.24,1,1,0,0,1-.61-.18.58.58,0,0,1-.23-.48,1.49,1.49,0,0,1,.11-.46l.08-.19A6.22,6.22,0,0,1,33.19,8a2.18,2.18,0,0,1-1,.24,1.32,1.32,0,0,1-.79-.19.65.65,0,0,1-.26-.55,1.89,1.89,0,0,1,.24-.76l0-.06,0,0a8.85,8.85,0,0,1-.81.54v-.9a13.2,13.2,0,0,0,1.64-1.13A10.59,10.59,0,0,1,32.78,4.25Z"/><path class="cls-1" d="M42.85,7.32a3.09,3.09,0,0,1-1,.73,2.92,2.92,0,0,1-1.16.21,2.05,2.05,0,0,1-1.34-.36,1.43,1.43,0,0,1-.43-1.16,2.58,2.58,0,0,1,.92-2.05A3.22,3.22,0,0,1,42,3.88a2.13,2.13,0,0,1,1.26.33.94.94,0,0,1,.46.78.79.79,0,0,1-.42.65.83.83,0,0,1,.13.4,1.35,1.35,0,0,1-.13.48.43.43,0,0,0,.19,0,1.36,1.36,0,0,0,.83-.36v.88a2.38,2.38,0,0,1-.52.31,1.2,1.2,0,0,1-.42.07A1.4,1.4,0,0,1,42.85,7.32Zm-.79-.44a1.12,1.12,0,0,1-.25-.62A.62.62,0,0,1,42,5.81a1.33,1.33,0,0,1,.55-.3,1.7,1.7,0,0,0,0-.22.46.46,0,0,0-.17-.38.72.72,0,0,0-.46-.14,1.72,1.72,0,0,0-1.17.54,1.74,1.74,0,0,0-.58,1.32.65.65,0,0,0,.21.52.82.82,0,0,0,.55.18,1.41,1.41,0,0,0,.51-.09A2.76,2.76,0,0,0,42.06,6.87Z"/><path class="cls-1" d="M48.08,7.32a3.09,3.09,0,0,1-1,.73,2.92,2.92,0,0,1-1.16.21,2.05,2.05,0,0,1-1.34-.36,1.43,1.43,0,0,1-.43-1.16,2.58,2.58,0,0,1,.92-2.05,3.22,3.22,0,0,1,2.16-.79,2.13,2.13,0,0,1,1.26.33A.94.94,0,0,1,49,5a.79.79,0,0,1-.42.65.83.83,0,0,1,.13.4,1.35,1.35,0,0,1-.13.48.43.43,0,0,0,.19,0,1.36,1.36,0,0,0,.83-.36v.88a2.37,2.37,0,0,1-.52.31,1.2,1.2,0,0,1-.42.07A1.4,1.4,0,0,1,48.08,7.32Zm-.79-.44A1.12,1.12,0,0,1,47,6.25a.62.62,0,0,1,.16-.44,1.33,1.33,0,0,1,.55-.3,1.7,1.7,0,0,0,0-.22.46.46,0,0,0-.17-.38.72.72,0,0,0-.46-.14A1.72,1.72,0,0,0,46,5.33a1.74,1.74,0,0,0-.58,1.32.65.65,0,0,0,.21.52.82.82,0,0,0,.55.18,1.41,1.41,0,0,0,.51-.09A2.76,2.76,0,0,0,47.29,6.87Z"/><path class="cls-1" d="M53.15,4.24A10.49,10.49,0,0,1,55.26.56a1.56,1.56,0,0,1,1-.53.34.34,0,0,1,.28.14,1.2,1.2,0,0,1,.17.73,6.59,6.59,0,0,1-.43,2.33,8.1,8.1,0,0,1-1.18,2.12A14.6,14.6,0,0,1,53.48,7v.05a.37.37,0,0,0,.1.28.32.32,0,0,0,.23.1,6,6,0,0,0,2.3-1.23v.88a10.93,10.93,0,0,1-1.76,1,3.06,3.06,0,0,1-1.06.21.77.77,0,0,1-.51-.15,1,1,0,0,1-.26-.62,3.17,3.17,0,0,1-.87.59,2.23,2.23,0,0,1-.89.18,1.41,1.41,0,0,1-1-.35,1.41,1.41,0,0,1-.37-1.08,2.4,2.4,0,0,1,.95-1.9,3.19,3.19,0,0,1,2.09-.79A3.09,3.09,0,0,1,53.15,4.24Zm-.54,2.5a7.45,7.45,0,0,1,.07-.9,8.12,8.12,0,0,1,.24-.94,1,1,0,0,0-.34-.06,2,2,0,0,0-1.34.55,1.77,1.77,0,0,0-.61,1.37.77.77,0,0,0,.16.55.53.53,0,0,0,.39.17,1.31,1.31,0,0,0,.54-.13A5.18,5.18,0,0,0,52.61,6.74Zm1-.82A8.7,8.7,0,0,0,54.7,4.37a11,11,0,0,0,1-2.14A4.48,4.48,0,0,0,56,1a.2.2,0,0,0,0-.11l0,0s-.07,0-.12.08a9.41,9.41,0,0,0-1.38,2.59A12.58,12.58,0,0,0,53.59,5.92Z"/><path class="cls-1" d="M97.36,45.92A1.38,1.38,0,0,0,97,44.79a1.6,1.6,0,0,0-1-.26c-1.15,0-1.5.36-1.5.89s.29.79,2.14,1c5.63.65,7.13,1.56,7.13,3.92,0,2.62-2.17,4.28-7.94,4.28-4.71,0-7.59-1.15-7.65-4.38h6.29a1.83,1.83,0,0,0,.43,1.32,1.61,1.61,0,0,0,1.15.36c1.1,0,1.41-.46,1.41-1,0-.36-.17-.75-1.07-.89l-3.09-.51c-3.55-.58-4.94-1.42-4.94-3.63s2.11-4,7.28-4c4.47,0,7.56.91,7.68,4.09Z"/><path class="cls-1" d="M158.19,45.56h-1.88V42h1.88V40.05l7-2v4h3.15v3.56h-3.15v3.7c0,.91.35,1.23,1.18,1.23a7.41,7.41,0,0,0,1.7-.14v3.56a27.66,27.66,0,0,1-4.65.53c-2.71,0-5.23-.7-5.23-3.39Z"/><path class="cls-1" d="M105.89,45.81H104V42.25h1.88V40.31l7-2v4H116v3.56h-3.15v3.7c0,.91.35,1.23,1.18,1.23a7.4,7.4,0,0,0,1.7-.14v3.56a27.65,27.65,0,0,1-4.65.53c-2.71,0-5.23-.7-5.23-3.39Z"/><path class="cls-1" d="M117.64,42.31h6.81l.17,1.32a3.88,3.88,0,0,1,2.86-1.47,4.42,4.42,0,0,1,1.85.34v4.38a13.14,13.14,0,0,0-2.92-.34c-1.33,0-1.79.75-1.79,1.52v6.33h-7Z"/><path class="cls-1" d="M149.4,47.11c-.06-1.52-.29-2.33-1.5-2.33s-1.73.5-1.73,3.58c0,2.81.58,3.25,1.65,3.25s1.44-.7,1.59-2.26h6.47c-.09,3.37-2.6,5.24-8.34,5.24-4.53,0-8.34-1.59-8.34-6.47,0-4.16,3.38-6.33,8.52-6.33,5.63,0,8,2,8.17,5.32Z"/><path class="cls-1" d="M86.6,10.22c0,1.94-1.58,2.87-3.52,2.87s-3.52-.93-3.52-2.87,1.58-2.87,3.52-2.87S86.6,8.27,86.6,10.22Z"/><path class="cls-1" d="M86.71,35.34c0,1.95-1.58,2.87-3.52,2.87s-3.52-.93-3.52-2.87,1.58-2.87,3.52-2.87S86.71,33.39,86.71,35.34Z"/><path class="cls-1" d="M137.3,35.34c0,1.95-1.58,2.87-3.52,2.87s-3.52-.93-3.52-2.87,1.58-2.87,3.52-2.87S137.3,33.39,137.3,35.34Z"/><path class="cls-1" d="M137.63,59.84c0,1.95-1.58,2.87-3.52,2.87s-3.52-.93-3.52-2.87S132.16,57,134.1,57,137.63,57.9,137.63,59.84Z"/><path class="cls-1" d="M144.93,58.17c3.12,0,4.68,1.55,4.68,3.81s-1.55,3.81-4.68,3.81-4.68-1.55-4.68-3.81S141.81,58.17,144.93,58.17Zm0,5.74c.55,0,1-.25,1-1.93s-.39-1.93-1-1.93-1,.29-1,1.93S144.38,63.9,144.93,63.9Z"/><path class="cls-1" d="M150.56,58.36h5.35c1.94,0,3.08.47,3.08,1.84,0,.83-.44,1.46-1.79,1.73v0c.88.06,1.35.37,1.53.92a23.53,23.53,0,0,0,.59,2.74h-3.51a14.64,14.64,0,0,1-.45-2.08c-.08-.36-.3-.5-.88-.5h-.41V65.6h-3.51Zm3.81,3c.69,0,1.19-.19,1.19-.73s-.46-.64-1.17-.64h-.33v1.37Z"/><path class="cls-1" d="M164.44,61.52h4.66v3.79a23.15,23.15,0,0,1-4.51.48c-3.26,0-4.85-1.59-4.85-3.81s1.59-3.81,5-3.81c2.78,0,4.24.73,4.28,2.43H165.6a.56.56,0,0,0-.28-.47,1.38,1.38,0,0,0-1.65.38,4,4,0,0,0-.23,1.61,2.77,2.77,0,0,0,.24,1.41,1.17,1.17,0,0,0,1,.43,2.68,2.68,0,0,0,1-.15v-.87h-1.23Z"/><rect class="cls-1" x="79.91" y="16.01" width="6.59" height="13.69"/><path class="cls-1" d="M70.31,23.66A5.57,5.57,0,0,1,70,26a1.29,1.29,0,0,1-1.3.65c-1.5,0-1.67-1.35-1.67-3,0-1.92.2-3,1.65-3a1.43,1.43,0,0,1,1.5,1.11A7.54,7.54,0,0,1,70.31,23.66Zm.4,6H77.3V13h-7v5.7A6.08,6.08,0,0,0,66,17.26c-3.15,0-5.95,1.68-5.95,6.25,0,4.28,2.51,6.54,6,6.54a5.77,5.77,0,0,0,4.5-1.76Z"/><path class="cls-1" d="M70.1,48.36a5.57,5.57,0,0,1-.29,2.33,1.29,1.29,0,0,1-1.3.65c-1.5,0-1.67-1.35-1.67-3,0-1.92.2-3,1.65-3A1.43,1.43,0,0,1,70,46.48,7.54,7.54,0,0,1,70.1,48.36Zm.4,6h6.58V37.72h-7v5.7A6.08,6.08,0,0,0,65.79,42c-3.15,0-5.95,1.68-5.95,6.25,0,4.28,2.51,6.54,6,6.54A5.77,5.77,0,0,0,70.38,53Z"/><rect class="cls-1" x="79.91" y="40.7" width="6.59" height="13.69"/><rect class="cls-1" x="130.82" y="40.7" width="6.59" height="13.69"/></g></g></svg>