<svg xmlns="http://www.w3.org/2000/svg" viewBox="0 0 146.91 47.39"><defs><style>.cls-1{fill:#fff;}</style></defs><title>hotpockets</title><g id="Layer_2" data-name="Layer 2"><g id="Layer_1-2" data-name="Layer 1"><path class="cls-1" d="M72.93,47.39C46.83,47.39,12.82,44,12.48,44,6.53,43.35,1.13,38.3.45,32.7a89.26,89.26,0,0,1,0-18c.68-5.57,6.07-10.61,12-11.24C12.8,3.47,46,0,73.59,0s59.88,3.45,60.2,3.48c5.9.64,11.49,5.65,12.46,11.17a62.71,62.71,0,0,1,0,18.14c-1,5.56-6.57,10.56-12.48,11.15C133.43,44,99,47.39,72.93,47.39Zm.66-44c-27.46,0-60.44,3.45-60.77,3.49-4.37.46-8.48,4.24-9,8.25a85.13,85.13,0,0,0,0,17.13c.49,4,4.6,7.81,9,8.26C13.16,40.58,47,44,72.93,44s60.16-3.4,60.5-3.43c4.41-.44,8.74-4.26,9.45-8.34l1.69.3-1.69-.3a59.6,59.6,0,0,0,0-17c-.71-4.05-5-7.88-9.46-8.36C133.1,6.85,101,3.42,73.59,3.42Z"/><path class="cls-1" d="M25.8,31.78c-.9-.05-1.07-.24-1.07-1.13q0-7.7,0-15.41c0-.11,0-.23,0-.34a.76.76,0,0,1,.82-.78c.45,0,.58-.14.51-.55a.53.53,0,0,1,0-.21c.09-.37-.09-.42-.41-.41-1.74,0-3.47,0-5.21,0-.8,0-.79,0-.79.8,0,.29.08.39.38.38.7,0,.93.23.93.94,0,1.93,0,3.87,0,5.8,0,.35-.12.42-.44.41-1.26,0-2.51,0-3.77,0-.59,0-.6,0-.6-.57q0-2.86,0-5.71a.76.76,0,0,1,.86-.86c.43,0,.55-.13.49-.52a.74.74,0,0,1,0-.21c0-.34-.07-.46-.44-.46-1.74,0-3.47,0-5.21,0-.82,0-.81,0-.81.84,0,.28.08.36.36.35.72,0,1,.24,1,1q0,3.94,0,7.87t0,7.75c0,.85-.18,1-1,1.07-.22,0-.31.07-.3.29a6.33,6.33,0,0,1,0,.63c0,.21.09.26.28.26H17.2c.27,0,.36-.09.33-.35a1.18,1.18,0,0,1,0-.3c.06-.41-.07-.58-.52-.55a.73.73,0,0,1-.83-.8c0-2.72,0-5.45,0-8.17,0-.25.08-.35.34-.35h4.15c.23,0,.32.07.32.31,0,2.72,0,5.45,0,8.17,0,.54-.28.87-.79.83s-.58.13-.51.54a.65.65,0,0,1,0,.21c-.06.36.1.44.44.44,1.72,0,3.44,0,5.16,0,.91,0,.9,0,.82-.91C26.07,31.84,26,31.79,25.8,31.78Z"/><path class="cls-1" d="M71.56,15.76a5.7,5.7,0,0,0-5.39,2.37A11.23,11.23,0,0,0,64,24.87a10.84,10.84,0,0,0,1.21,5.26,5.73,5.73,0,0,0,4.39,3.16,5.85,5.85,0,0,0,5.93-2.88,11.08,11.08,0,0,0,1.75-6.05,10.44,10.44,0,0,0-1.08-5.2A5.85,5.85,0,0,0,71.56,15.76Zm1.34,13.6a4.53,4.53,0,0,1-.86,2,1.17,1.17,0,0,1-2,.1,5.59,5.59,0,0,1-1.26-2.59,20.92,20.92,0,0,1-.62-5.44,14.37,14.37,0,0,1,.6-4.68,4,4,0,0,1,.64-1.23,1.2,1.2,0,0,1,2-.1A5,5,0,0,1,72.6,19.6,21,21,0,0,1,72.9,29.35Z"/><path class="cls-1" d="M63.61,16.13A4.5,4.5,0,0,0,59.41,13c-1.17,0-2.34,0-3.51,0v0H53c-.89,0-.74-.12-.77.76,0,.33.08.44.43.42.64,0,.92.26.92.92,0,.45,0,.9,0,1.35q0,7.21,0,14.43c0,.64-.27,1-.86.94-.4,0-.54.1-.48.49a2.18,2.18,0,0,1,0,.42c0,.2.09.27.28.27h5.88c.2,0,.28-.07.27-.27a2.39,2.39,0,0,1,0-.38c0-.38-.07-.56-.51-.53s-.82-.29-.83-.84c0-2.09,0-4.17,0-6.26,0-.32.09-.33.37-.26a4.35,4.35,0,0,0,3.63-.63A6.45,6.45,0,0,0,63.61,16.13Zm-4,5.36a2.81,2.81,0,0,1-.89,1.41,1.18,1.18,0,0,1-.69.29c-.54,0-.7-.13-.7-.66q0-1.84,0-3.68c0-1.24,0-2.48,0-3.72,0-.32,0-.65.36-.8s.6,0,.84.25a4,4,0,0,1,1.21,2.28A8.54,8.54,0,0,1,59.66,21.48Z"/><path class="cls-1" d="M48.73,16.5c0-.28-.12-.4-.44-.4q-5.1,0-10.2,0c-.31,0-.41.08-.42.4,0,.64-.07,1.28-.11,1.92l-.1,0-.24-.34a5.64,5.64,0,0,0-4.13-2.36,5.8,5.8,0,0,0-5.51,2.66,11.16,11.16,0,0,0-1.9,6.51,9.94,9.94,0,0,0,1.45,5.61,5.63,5.63,0,0,0,4.16,2.75,5.83,5.83,0,0,0,6.07-3.15,11.92,11.92,0,0,0,1-9.92c-.08-.25-.29-.5.1-.68,0,0,0-.13.06-.2a2.73,2.73,0,0,1,2.42-2.1c.31,0,.4.06.4.36q0,6.65,0,13.29c0,.55-.29.89-.82.86s-.56.2-.51.59a.85.85,0,0,1,0,.21c0,.28.09.35.37.35h5.42c.65,0,.64,0,.67-.67,0-.34-.06-.47-.43-.46a.77.77,0,0,1-.9-.86q0-6.65,0-13.29c0-.34.12-.4.43-.35a2.64,2.64,0,0,1,2.35,2.11c.12.51.48.24.74.29s.25-.18.25-.36Q48.79,17.9,48.73,16.5ZM34.9,26.64a11.27,11.27,0,0,1-.73,3.8,3.33,3.33,0,0,1-.56.94,1.19,1.19,0,0,1-2,0,5,5,0,0,1-1-1.81,19.25,19.25,0,0,1-.85-5.84,14.89,14.89,0,0,1,.67-5.2,3.38,3.38,0,0,1,.7-1.2,1.13,1.13,0,0,1,1.75-.09,4.54,4.54,0,0,1,1.27,2.2A21.31,21.31,0,0,1,34.9,26.64Z"/><path class="cls-1" d="M130.24,20.09a5.67,5.67,0,0,1-2.36-1.58,3,3,0,0,1-.66-2.88,2.61,2.61,0,0,1,2.34-1.85,2.2,2.2,0,0,1,2.18,1.45,7.24,7.24,0,0,1,.54,1.95c.11.66.11.66.79.64h.08c.19,0,.24-.08.23-.26q-.11-1.94-.2-3.89a.4.4,0,0,0-.24-.4,6.78,6.78,0,0,0-3.32-.69,5.72,5.72,0,0,0-4.89,3.15.71.71,0,0,1-.72.42c-3.36,0-6.72,0-10.07,0-.29,0-.43.06-.44.39,0,.9-.11,1.8-.14,2.7,0,.16-.14.47.2.43s.64.26.76-.29a2.73,2.73,0,0,1,2.46-2.11c.29,0,.37.07.37.35q0,6.64,0,13.29c0,.55-.29.9-.81.87s-.56.2-.52.59a.59.59,0,0,1,0,.17c-.06.33.09.39.4.39,1.75,0,3.5,0,5.25,0,.82,0,.81,0,.78-.81,0-.24-.08-.31-.32-.32-.8,0-1-.26-1-1.06q0-3.22,0-6.43c0-2.21,0-4.43,0-6.64,0-.32.09-.43.41-.38a2.67,2.67,0,0,1,2.07,1.3,11.78,11.78,0,0,1,.77,1.71,6.33,6.33,0,0,0,.92,1.75,7.21,7.21,0,0,0,3.08,2.15,6.9,6.9,0,0,1,2.41,1.53A3.87,3.87,0,0,1,129.46,32a2.61,2.61,0,0,1-3.54-1.09,7.89,7.89,0,0,1-.78-2.27c-.17-.71-.18-.71-.92-.7h-.08c-.22,0-.25.09-.23.29q.22,2,.43,3.91a.56.56,0,0,0,.36.51,9.15,9.15,0,0,0,2.64.71c5.3.68,8.79-5,7.1-9.26A7.08,7.08,0,0,0,130.24,20.09Z"/><path class="cls-1" d="M89.58,28.77a2.84,2.84,0,0,0-.88,0c-.22,0-.2.21-.24.34a5,5,0,0,1-1,1.91,2.12,2.12,0,0,1-3.33.17A5,5,0,0,1,82.87,29a16.46,16.46,0,0,1-.1-9.3,4.54,4.54,0,0,1,1.51-2.54,1.62,1.62,0,0,1,2.35.17,4.35,4.35,0,0,1,1,2.1c0,.15.06.28.25.25s.7.12,1-.1c0,0,0-.11,0-.16,0-.86.08-1.72.13-2.58a.4.4,0,0,0-.25-.43,6.71,6.71,0,0,0-4.5-.76,6.91,6.91,0,0,0-5.08,3.89,12.23,12.23,0,0,0-1.17,5.65,10.61,10.61,0,0,0,.6,3.7,6.18,6.18,0,0,0,4.16,4.22A7.42,7.42,0,0,0,89,31.85a.38.38,0,0,0,.18-.27c.13-.86.27-1.73.41-2.59C89.63,28.91,89.67,28.79,89.58,28.77Z"/><path class="cls-1" d="M94.76,18.13c0-.6.29-.9.89-.87.39,0,.51-.12.45-.48a.68.68,0,0,1,0-.21c.06-.36-.08-.48-.46-.48-1.76,0-3.53,0-5.29,0-.71,0-.69,0-.71.72,0,.33.09.43.43.42.63,0,.9.27.91.9s0,1.27,0,1.9q0,5.38,0,10.75c0,.6-.25,1-.78.94s-.62.16-.54.6a.49.49,0,0,1,0,.17c-.06.32.08.4.4.39,1.75,0,3.5,0,5.25,0,.87,0,.87,0,.81-.86,0-.19-.06-.27-.27-.28-.92-.07-1.09-.27-1.09-1.21q0-2.54,0-5.08c0-.12-.1-.29.07-.34s.18.14.24.25c1.26,2.15,2.49,4.32,3.78,6.46a6.47,6.47,0,0,0,3.12,2.81,7.88,7.88,0,0,0,3.29.34c.89,0,.87,0,.85-.91,0-.3-.13-.34-.38-.35a2.47,2.47,0,0,1-1.4-.41c-.13-.09-.35-.19-.29-.37s.28-.06.42-.06h8.17c.15,0,.36.1.41-.17q.35-1.85.7-3.69c0-.11,0-.26-.12-.27a2.76,2.76,0,0,0-.88,0c-.23.06-.2.37-.26.58a2.68,2.68,0,0,1-2.3,2.32c-.32,0-.65.07-1,.08-.73,0-1-.29-1-1q0-2.62,0-5.25c0-1.18,0-1.18,1.16-1.12a1.15,1.15,0,0,1,1.18,1.22c0,.82,0,.81.84.8.21,0,.3,0,.3-.28,0-1.45,0-2.91,0-4.36,0-.11,0-.28-.1-.29a2.6,2.6,0,0,0-.92,0c-.24.07-.1.37-.11.57a1.14,1.14,0,0,1-1.14,1.17c-.3,0-.59,0-.89,0s-.32-.06-.31-.29c0-1.64,0-3.27,0-4.91a.8.8,0,0,1,.9-.8c.25,0,.51,0,.76.06a1.57,1.57,0,0,1,1.63,1.59c.1.83.1.82.93.78.22,0,.28-.09.29-.3,0-.93.1-1.86.19-2.79,0-.35-.06-.45-.42-.45-2.88,0-5.76,0-8.63,0-.76,0-.74,0-.77.75,0,.29.06.39.37.39.76,0,1,.25,1,1q0,3.11,0,6.22t0,6.35a.8.8,0,0,1-.6.89c-.55.13-.77,0-1-.44-.11-.2-.2-.41-.31-.6q-2.38-4.14-4.77-8.27a.38.38,0,0,1,0-.52c1.11-1.37,2.21-2.75,3.31-4.12a1.31,1.31,0,0,1,.93-.52c.75-.07.74-.08.72-.83,0-.24-.08-.32-.32-.31H97.82c-.08,0-.2,0-.23.05a2.14,2.14,0,0,0,0,1c0,.21.26.1.4.11.77.07,1,.57.61,1.23l-.48.75L95,24c-.06.09-.1.23-.24.2s-.06-.14-.06-.22"/><path class="cls-1" d="M17.27,11.51a2.15,2.15,0,0,1,1.21.34h.6a2.64,2.64,0,0,1,1.55-.33h5.22a2,2,0,0,1,1.63.71,1.85,1.85,0,0,1,.37,1.41,2,2,0,0,1-.43,1.58,1.89,1.89,0,0,1-.91.59v1.76a7.38,7.38,0,0,1,6.15-3.27h0c.24,0,.48,0,.73,0a7,7,0,0,1,3.24,1.08,2,2,0,0,1,1.63-.74h10.2a1.94,1.94,0,0,1,2,1.94l0,.9q0,.94.08,1.89v0a1.89,1.89,0,0,1-.48,1.46,1.76,1.76,0,0,1-1.3.55h-.13a2.48,2.48,0,0,1-.36,0,1.87,1.87,0,0,1-1.5-.73c0,1.83,0,3.66,0,5.45v4.23a1.85,1.85,0,0,1,.82.5,2,2,0,0,1,.52,1.56v0a2.19,2.19,0,0,1-.61,1.64,2.23,2.23,0,0,1-1.65.51H40.49A1.94,1.94,0,0,1,39,34.05a1.86,1.86,0,0,1-.45-1.42,2.32,2.32,0,0,1,.12-1.09,7.3,7.3,0,0,1-6.33,3.58,8.83,8.83,0,0,1-1.06-.07,6.87,6.87,0,0,1-3.53-1.46,1.81,1.81,0,0,1-.33.5,2.38,2.38,0,0,1-1.94.63H20.25A2.14,2.14,0,0,1,19,34.37h-.44a2,2,0,0,1-1.19.36H11.52a1.87,1.87,0,0,1-1.39-.56,1.81,1.81,0,0,1-.5-1.37,4.71,4.71,0,0,0,0-.47,1.84,1.84,0,0,1,.47-1.39,1.79,1.79,0,0,1,.86-.52V23.13q0-3.65,0-7.3A1.83,1.83,0,0,1,9.63,14v0a2.36,2.36,0,0,1,.57-1.83A2.32,2.32,0,0,1,12,11.52h5.25m0-1.5H12a3.77,3.77,0,0,0-2.88,1,3.8,3.8,0,0,0-1,2.89v0a3.41,3.41,0,0,0,1.33,2.78q0,3.19,0,6.39v6.38a3.24,3.24,0,0,0-.47.42,3.36,3.36,0,0,0-.85,2.48c0,.08,0,.18,0,.32a3.33,3.33,0,0,0,.91,2.47,3.37,3.37,0,0,0,2.47,1h5.83A3.67,3.67,0,0,0,18.77,36a3.84,3.84,0,0,0,1.48.28h5.21A4.12,4.12,0,0,0,28,35.56a8.47,8.47,0,0,0,3.08,1,10.33,10.33,0,0,0,1.24.08,8.53,8.53,0,0,0,5.36-1.8l.18.22a3.44,3.44,0,0,0,2.63,1.13h5.43a3.69,3.69,0,0,0,2.68-.91,3.65,3.65,0,0,0,1.09-2.66v0a3.5,3.5,0,0,0-.93-2.66,3.28,3.28,0,0,0-.41-.36V26.19c0-1.06,0-2.14,0-3.23h0l.42,0h.07a3.24,3.24,0,0,0,2.39-1,3.35,3.35,0,0,0,.88-2.58h0q0-.94-.08-1.88l0-.9a3.44,3.44,0,0,0-3.54-3.37H38.26a3.7,3.7,0,0,0-1.79.44,8.62,8.62,0,0,0-3-.78c-.28,0-.57,0-.85,0a8.85,8.85,0,0,0-3.3.62,3.33,3.33,0,0,0-.71-2.11A3.41,3.41,0,0,0,25.84,10H20.63a4.53,4.53,0,0,0-1.84.29,3.8,3.8,0,0,0-1.51-.3Z"/><path class="cls-1" d="M130.13,11.13a8.44,8.44,0,0,1,3.67.86,2,2,0,0,1,1.15,1.77c.08,1.57.14,2.77.2,3.88a1.83,1.83,0,0,1-.48,1.4,1.79,1.79,0,0,1-1.32.55H133l-.34,0a8.1,8.1,0,0,1,3.49,4.07,8.6,8.6,0,0,1-1,7.87,8.06,8.06,0,0,1-6.72,3.64,8.49,8.49,0,0,1-1.07-.07,10.7,10.7,0,0,1-3.1-.84h0l-.53-.34h0l-.16.19a2.35,2.35,0,0,1-1.85.59h-5.27a2,2,0,0,1-1.57-.67,1.84,1.84,0,0,1-.2-.3,1.76,1.76,0,0,1-1.62,1h-5.1a2.12,2.12,0,0,1-.64,1.58,2.61,2.61,0,0,1-1.76.51h-.19l-.92,0a7.44,7.44,0,0,1-2.84-.48,7.83,7.83,0,0,1-3.67-3.11,1.79,1.79,0,0,1-.46.87,2.36,2.36,0,0,1-1.92.62H90.17a2,2,0,0,1-1.44-.56,9,9,0,0,1-4,1,8,8,0,0,1-2.2-.31,7.49,7.49,0,0,1-4.88-4.36,11.28,11.28,0,0,1-.62,1,7.41,7.41,0,0,1-6.37,3.65,8.58,8.58,0,0,1-1.1-.07,7.27,7.27,0,0,1-5.59-4,12.28,12.28,0,0,1-1.41-5.91l-.2.14a6.11,6.11,0,0,1-3.26,1c0,.79,0,1.57,0,2.34q0,.87,0,1.75A1.89,1.89,0,0,1,60,31a2.08,2.08,0,0,1,.47,1.67s0,.09,0,.12A1.83,1.83,0,0,1,60,34.17a1.85,1.85,0,0,1-1.38.56H52.72a1.86,1.86,0,0,1-1.38-.56,1.82,1.82,0,0,1-.5-1.38v-.16A2,2,0,0,1,51.27,31a1.87,1.87,0,0,1,.9-.58V15.83a1.83,1.83,0,0,1-.82-.49,2,2,0,0,1-.53-1.51c0-.1,0-.19,0-.27a2.1,2.1,0,0,1,.32-1.27,1.82,1.82,0,0,1,1.61-.77h4.91v0h.58l1.39,0a6.07,6.07,0,0,1,5.62,4.13,7.61,7.61,0,0,1,.33,1,7.18,7.18,0,0,1,5.4-2.4,8.44,8.44,0,0,1,.9,0,7.37,7.37,0,0,1,5.94,4.25c.06.11.11.23.16.34a8.45,8.45,0,0,1,6.2-4.72,8,8,0,0,1,1.49-.14,8.46,8.46,0,0,1,3.59.83,3.06,3.06,0,0,1,1.24-.22h5.32a2.2,2.2,0,0,1,1.12.28,1.81,1.81,0,0,1,.94-.25h4.68a2.16,2.16,0,0,1,.58.08,4.07,4.07,0,0,1,.84-.07h8.65a2.46,2.46,0,0,1,.74.11,2.34,2.34,0,0,1,.73-.11h9.63a7.25,7.25,0,0,1,6-3.57h.44m0-1.5h-.52a8.64,8.64,0,0,0-6.67,3.56H114.1a3.9,3.9,0,0,0-.74.07,4.15,4.15,0,0,0-.72-.07H104a6.21,6.21,0,0,0-.8,0,3.73,3.73,0,0,0-.61-.05H97.89a3.41,3.41,0,0,0-.93.13,3.93,3.93,0,0,0-1.12-.16H90.51a5.19,5.19,0,0,0-1.16.12,9.82,9.82,0,0,0-3.68-.73,9.51,9.51,0,0,0-1.76.17A9.87,9.87,0,0,0,78,16.15a8.6,8.6,0,0,0-6-3.3A9.94,9.94,0,0,0,71,12.79a8.57,8.57,0,0,0-4.78,1.41,7.44,7.44,0,0,0-6.52-4.13l-.53,0v0H52.77a3.33,3.33,0,0,0-2.85,1.43,3.55,3.55,0,0,0-.58,2.1c0,.07,0,.14,0,.22a3.47,3.47,0,0,0,.95,2.6,3.28,3.28,0,0,0,.4.35v12.8a3.35,3.35,0,0,0-.54.5,3.49,3.49,0,0,0-.8,2.64v0h0a3.34,3.34,0,0,0,.92,2.48,3.37,3.37,0,0,0,2.46,1h5.88A3.31,3.31,0,0,0,62,32.71,3.56,3.56,0,0,0,61.12,30a3.36,3.36,0,0,0-.47-.43q0-.43,0-.86t0-1q.33-.07.65-.18a12.36,12.36,0,0,0,1.42,4.31,8.81,8.81,0,0,0,6.7,4.73,10.08,10.08,0,0,0,1.29.08,8.72,8.72,0,0,0,6.94-3.39,8.63,8.63,0,0,0,4.52,3,9.53,9.53,0,0,0,2.61.37,10,10,0,0,0,3.8-.76,3.61,3.61,0,0,0,1.6.35h5.29a4.17,4.17,0,0,0,2.4-.57,8.58,8.58,0,0,0,6.49,2.67l1,0h.19a4.07,4.07,0,0,0,2.71-.89,3.2,3.2,0,0,0,.85-1.2H113a3.36,3.36,0,0,0,1.64-.42,3.67,3.67,0,0,0,1.75.41h5.27a4.28,4.28,0,0,0,2.18-.46,12.3,12.3,0,0,0,3.32.87,10,10,0,0,0,1.26.08,9.54,9.54,0,0,0,8-4.29,10.12,10.12,0,0,0,1.17-9.26,9.52,9.52,0,0,0-1.83-3l.08-.08a3.34,3.34,0,0,0,.89-2.51c-.06-1.09-.12-2.28-.2-3.87a3.51,3.51,0,0,0-2-3,9.91,9.91,0,0,0-4.32-1Z"/><path class="cls-1" d="M140.25,15.46a1.69,1.69,0,1,1,.49-1.2A1.62,1.62,0,0,1,140.25,15.46ZM138,13.24a1.4,1.4,0,0,0-.42,1,1.42,1.42,0,0,0,.42,1,1.45,1.45,0,0,0,2.05,0,1.47,1.47,0,0,0,0-2.06,1.45,1.45,0,0,0-2.05,0Zm1,.09a1.42,1.42,0,0,1,.51.07.46.46,0,0,1,.29.47.4.4,0,0,1-.18.37.7.7,0,0,1-.27.09.45.45,0,0,1,.32.18.51.51,0,0,1,.1.29v.14s0,.09,0,.14a.3.3,0,0,0,0,.1v0h-.31v-.25a.45.45,0,0,0-.17-.42.79.79,0,0,0-.36-.06h-.26v.73h-.33V13.33Zm.35.29a.85.85,0,0,0-.4-.07h-.28v.67h.3a.89.89,0,0,0,.31,0,.33.33,0,0,0,.07-.56Z"/></g></g></svg>