<svg xmlns="http://www.w3.org/2000/svg" viewBox="0 0 172.93 55.8"><defs><style>.cls-1{isolation:isolate;}.cls-2,.cls-4{fill:#fff;}.cls-2,.cls-3{mix-blend-mode:multiply;}</style></defs><title>instantly</title><g class="cls-1"><g id="Layer_2" data-name="Layer 2"><g id="Layer_1-2" data-name="Layer 1"><path class="cls-2" d="M25.07,48.53a2.12,2.12,0,0,1-2.35-2.44V35.93c0-4.59-1.7-6.36-5.62-6.36-3.3,0-5.2,1.86-5.2,6.36v12.6H10.49c-1.36,0-2.31-.83-2.31-2.56V35.85c0-6.2,3.72-9.83,9.38-9.83s8.89,3.18,8.89,9.8V48.53Z"/><path class="cls-2" d="M36.54,48.95c-3.72,0-6.69-1.73-6.69-4.38V43h.2a9.15,9.15,0,0,0,6.57,2.48c3.27,0,4.71-1,4.71-3.22,0-1.82-.79-2.61-5.83-3.68-4.13-.87-6.07-2.27-6.07-5.58,0-3.59,3.27-6.94,8.76-6.94,3.26,0,6.45,1.49,6.45,4.18v1.65h-.21a8.26,8.26,0,0,0-5.95-2.27c-3.76,0-5.25,1.28-5.25,3.14,0,1.49.83,2.11,5.41,3.1,4.38,1,6.53,3,6.53,6C45.18,46.47,41.58,48.95,36.54,48.95Z"/><path class="cls-2" d="M52.05,26.47h7.6v1.24c0,1.36-.9,2.28-2.89,2.28H52.09V40.93c0,3.14,1.24,4.46,3.64,4.46a7,7,0,0,0,3.47-.62h.2V46.1c0,1.86-1.44,2.85-4,2.85-4.92,0-7.07-2.56-7.07-7.65V26.92a6.18,6.18,0,0,1,1-3.43,4.11,4.11,0,0,1,2.32-1.57h.45Z"/><path class="cls-2" d="M68.86,48.95c-4.5,0-8.43-2.61-8.43-6.53,0-4.75,3.68-7.36,10.29-7.36h3V34c0-3.22-1.62-4.54-5.2-4.54-3.31,0-5.75,1.24-7,3h-.21V30.68c0-2,2.64-4.67,7.6-4.67,5.62,0,8.6,2.93,8.6,8.3v6.95C77.45,45.72,75.05,48.95,68.86,48.95ZM73.73,38.2h-3c-4.42,0-6.45,1.36-6.45,3.8,0,1.95,1.9,3.47,4.75,3.47,3.35,0,4.71-1.32,4.71-4.5Z"/><path class="cls-2" d="M97.25,48.53A2.12,2.12,0,0,1,94.9,46.1V35.93c0-4.59-1.7-6.36-5.62-6.36-3.3,0-5.21,1.86-5.21,6.36v12.6h-1.4c-1.37,0-2.32-.83-2.32-2.56V35.85c0-6.2,3.72-9.83,9.38-9.83s8.89,3.18,8.89,9.8V48.53Z"/><path class="cls-2" d="M105.4,26.47H113v1.24c0,1.36-.91,2.28-2.9,2.28h-4.67V40.93c0,3.14,1.24,4.46,3.64,4.46a7,7,0,0,0,3.47-.62h.21V46.1c0,1.86-1.45,2.85-4,2.85-4.91,0-7.06-2.56-7.06-7.65V26.92a6.18,6.18,0,0,1,1-3.43A4.05,4.05,0,0,1,105,21.92h.45Z"/><path class="cls-2" d="M122.85,48.7c-4.34,0-6.69-2.11-6.69-6.57V18.78h1.16c1.52,0,2.64,1,2.64,2.89v20c0,2.76,1.4,3.55,3.47,3.55h2.44v1.24C125.86,48,124.87,48.7,122.85,48.7Z"/><path class="cls-2" d="M137.28,46.42c-3.51,7.11-5.58,9.38-8.72,9.38-1.7,0-2.85-1-2.85-1.9V52.5h1.77c1.74,0,2.86-.41,5.42-5.25a63.48,63.48,0,0,1-8.51-20.83h2.14c1.54,0,2.07,1.2,2.32,2.23a54.4,54.4,0,0,0,6,15c2.34-4.05,5.54-12.44,6.28-17.27h1.49c1,0,1.74.37,1.74,1.7a14.39,14.39,0,0,1-.46,2.31C142.2,37,138.48,44,137.28,46.42Z"/><g class="cls-3"><path class="cls-4" d="M2.56,23.37a2.54,2.54,0,0,0,2.52-2.56,2.58,2.58,0,0,0-2.52-2.6A2.61,2.61,0,0,0,0,20.81,2.58,2.58,0,0,0,2.56,23.37Z"/><path class="cls-4" d="M4.33,39.3V29.36a2.68,2.68,0,0,0-2.6-2.94H.58V43.22c0,4.29,1,5.12,3.75,5.12v-9Z"/></g><g class="cls-3"><polygon class="cls-4" points="172.93 10.55 134.52 2.3 141.34 10.55 172.93 10.55"/><polygon class="cls-4" points="164.8 11.58 124.67 11.58 135.03 18.97 164.8 11.58"/><polygon class="cls-4" points="148.1 0 150.22 4.6 169.26 8.79 148.1 0"/><polygon class="cls-4" points="150.77 5.8 152.15 8.79 164.66 8.79 150.77 5.8"/></g></g></g></g></svg>