<svg xmlns="http://www.w3.org/2000/svg" viewBox="0 0 100.33 86.36"><defs><style>.cls-1{fill:#fff;}</style></defs><title>itv</title><g id="Layer_2" data-name="Layer 2"><g id="Layer_1-2" data-name="Layer 1"><g id="layer1"><g id="g4651"><g id="layer1-3"><g id="layer1-4"><g id="g3100"><g id="g3093"><g id="g3266"><g id="g3030"><path id="path3018" class="cls-1" d="M.23,6.57A6.38,6.38,0,0,1,6.91,0c4.33,0,6.66,3.1,6.66,6.75,0,4-2.94,6.44-6.63,6.44A6.35,6.35,0,0,1,.23,6.57Z"/><path id="path3020" class="cls-1" d="M.27,18.68a1,1,0,0,1,1-1.06H12.55a1,1,0,0,1,1,1V35.92c0,2.94,1.67,6.36,6.84,6.36S28,39.15,28,32.76V31.41l5.34,10.17L34.05,45S28.81,50.1,19.31,50.1c-4.72,0-19-.77-19-16.44Z"/><path id="path3024" class="cls-1" d="M34.05,45l5.34-13.79,1.72-1.72v2.41c0,5.8,2.82,10.27,10.1,10.27,6.64,0,11.32-3.76,11.32-9.6a11.31,11.31,0,0,0-1.44-5.32L68.64,31l.66,9.17S64.28,50,50.13,50C39.09,50,34.05,45,34.05,45Z"/><path id="path3022" class="cls-1" d="M34.05,45A17.4,17.4,0,0,1,28,31.8V7.11c0-2,1.28-3.71,6.62-3.71,5.84,0,6.48,2.27,6.48,4V17.62H51.46c.75,0,1,.44,1,1.13v6.11c0,.58-.24,1-.91,1H44.74a12,12,0,0,1-3.62-.69v4.14C41.12,34.5,39.78,39.77,34.05,45Z"/><path id="path3028" class="cls-1" d="M69.3,40.2l1.64-18L71.68,19S75,23.8,83.31,39.17A122.37,122.37,0,0,0,92,18c.24-.79.87-1,1.78-.74L99.49,19c.69.25,1.07.52.68,1.81A128.65,128.65,0,0,1,88,46.14c-1.44,2.13-2.9,3.93-7.74,3.93-3.91,0-5.27-1.33-6.63-3.36Z"/><path id="path3026" class="cls-1" d="M69.3,40.2,60.38,26.14a5.23,5.23,0,0,1-.94-2.8c0-1.75.92-3,4-4.95a11.65,11.65,0,0,1,5-1.39C71.07,17,73,19.72,73,25.4c0,9.24-3.72,14.8-3.72,14.8Z"/></g><g id="g3257"><path id="path2998" class="cls-1" d="M29.77,58.9h2.72V67a2.83,2.83,0,0,0,.65,2,2.68,2.68,0,0,0,2,.64,2.25,2.25,0,0,0,2.57-2.42V58.9h2.74v8.22a4.69,4.69,0,0,1-1.23,3.49c-.6.63-1.66,1.35-4.1,1.35A5.33,5.33,0,0,1,31,70.61a4.53,4.53,0,0,1-1.21-3.41Z"/><path id="path3000" class="cls-1" d="M46.38,58.9V71.07c0,.41.05.69.56.69h4.93a5.81,5.81,0,0,0,4-1.45,6.71,6.71,0,0,0,1.74-5A6.69,6.69,0,0,0,56,60.43a6,6,0,0,0-4.45-1.54H46.38Zm2.74,2.21h2.18a3.71,3.71,0,0,1,2.52.78,4.65,4.65,0,0,1,1,3.43,4.85,4.85,0,0,1-1,3.42,3.93,3.93,0,0,1-2.81.82H49.11V61.11Z"/><path id="path3004" class="cls-1" d="M63.17,58.9h2.72V71.3c0,.43-.3.56-1.38.56s-1.34-.1-1.34-.59Z"/><path id="path3030" class="cls-1" d="M4.77,71.95A13.23,13.23,0,0,1,1,71.43c-.34-.1-.46-.19-.46-.55a4.8,4.8,0,0,1,.26-1.37c.13-.28.17-.32.39-.32a15.15,15.15,0,0,0,3.46.52c1.36,0,1.82-.29,2.09-.56A1.42,1.42,0,0,0,7,68.2a1.31,1.31,0,0,0-.33-1c-.92-.86-3.84-1-5-2.22a3.76,3.76,0,0,1,0-5.09,5.49,5.49,0,0,1,3.92-1.21,12.65,12.65,0,0,1,3.41.47L8.81,61.4a14.16,14.16,0,0,0-3-.44c-1.84,0-2.28.72-2.28,1.42a1.1,1.1,0,0,0,.33.82c.8.83,3.71.88,5,2.15A3.58,3.58,0,0,1,9.8,68a3.83,3.83,0,0,1-1,2.8,5.66,5.66,0,0,1-4,1.14Z"/><path id="path3034" class="cls-1" d="M77.34,58.71a5.78,5.78,0,0,0-4.25,1.54c-.91,1-1.66,2.28-1.66,5.11a6.92,6.92,0,0,0,1.66,5.08A5.52,5.52,0,0,0,77.36,72a5.49,5.49,0,0,0,4.25-1.56,7,7,0,0,0,1.62-5,7,7,0,0,0-1.63-5.07,5.57,5.57,0,0,0-4.27-1.57Zm0,2.28a2.81,2.81,0,0,1,2.1.82,5,5,0,0,1,1,3.53,5.21,5.21,0,0,1-1,3.54,3.21,3.21,0,0,1-4.21.06c-.92-.9-1-2.48-1-3.62a5,5,0,0,1,1-3.56A3.22,3.22,0,0,1,77.35,61Z"/><path id="path3038" class="cls-1" d="M19.08,71.87c-1.16,0-1.37-.18-1.37-.68V61.12H13.89V58.89H24.25v2.22H20.43V71.18C20.43,71.71,20.2,71.87,19.08,71.87Z"/><path id="path3108" class="cls-1" d="M92.17,71.95a13.23,13.23,0,0,1-3.79-.52c-.34-.1-.46-.19-.46-.55a4.81,4.81,0,0,1,.26-1.37c.13-.28.17-.32.39-.32a15.15,15.15,0,0,0,3.46.52c1.36,0,1.82-.29,2.09-.56a1.42,1.42,0,0,0,.32-.95,1.31,1.31,0,0,0-.33-1c-.92-.86-3.84-1-5-2.22a3.76,3.76,0,0,1,0-5.09A5.49,5.49,0,0,1,93,58.72a12.65,12.65,0,0,1,3.41.47l-.24,2.21a14.16,14.16,0,0,0-3-.44c-1.84,0-2.28.72-2.28,1.42a1.1,1.1,0,0,0,.33.82c.8.83,3.71.88,5,2.15a3.58,3.58,0,0,1,1,2.66,3.83,3.83,0,0,1-1,2.8,5.66,5.66,0,0,1-4,1.14Z"/></g></g></g></g></g></g><g id="g4640"><path id="path3036" class="cls-1" d="M27,78.24v7.65c0,.31.12.43.85.43s.84-.1.84-.43V83.31h1.12l1.48,2.48a1.87,1.87,0,0,0,.21.31,1.47,1.47,0,0,0,1,.2c.69,0,.84-.12.84-.22s0-.13-.13-.29l-1.7-2.63a2.37,2.37,0,0,0,1.72-2.44A2.41,2.41,0,0,0,32.6,79a3.27,3.27,0,0,0-2.48-.72Zm1.69,1.38h1.56a1.32,1.32,0,0,1,.94.28,1.05,1.05,0,0,1,.28.82,1.27,1.27,0,0,1-.27.91,1.34,1.34,0,0,1-.93.32H28.69Z"/><path id="path3038-1" class="cls-1" d="M55.13,81.85c-.32,0-.38,0-.38-.19v-2.8H53.69v-.62h2.88v.62H55.51v2.8C55.51,81.8,55.44,81.85,55.13,81.85Z"/><path id="path3004-5" class="cls-1" d="M34.89,78.24h1.7V86c0,.27-.19.35-.86.35s-.84-.06-.84-.37Z"/><path id="path3198" class="cls-1" d="M2.76,78.24c-.3,0-.43.1-.51.34C1.53,80.81.84,83.17.13,85.48A2,2,0,0,0,0,86c0,.24.38.28.86.28s.75-.08.85-.18a.5.5,0,0,0,.11-.2l.39-1.36H5.32l.36,1.26a.64.64,0,0,0,.15.31,1.29,1.29,0,0,0,.84.16c.55,0,.86-.06.86-.29a.74.74,0,0,0-.06-.26C6.73,83.2,6,81,5.3,78.63c-.11-.34-.18-.39-.56-.39Zm.85,1.34h.32c.34,1.18.68,2.4,1,3.62H2.58C2.92,82,3.25,80.8,3.61,79.58Z"/><path id="path3202" class="cls-1" d="M20.18,86.24a.28.28,0,0,1-.32-.32V78.6c0-.25.07-.36.46-.36h5v1.38H21.54v1.86h3.21v1.37H21.54v2h3.83v1.37Z"/><path id="path4251" class="cls-1" d="M38,82.27a4.33,4.33,0,0,1,1.06-3.18,3.92,3.92,0,0,1,2.93-1,8.55,8.55,0,0,1,2,.22l-.08,1.42a10.31,10.31,0,0,0-1.77-.19,2.33,2.33,0,0,0-1.8.6,3,3,0,0,0-.62,2.07,2.85,2.85,0,0,0,.66,2.08,2.35,2.35,0,0,0,1.73.58,9.48,9.48,0,0,0,1.74-.23c.13,0,.19.08.23.29a3.9,3.9,0,0,1,.1.79c0,.26-.05.27-.26.35a7.55,7.55,0,0,1-2,.25A3.93,3.93,0,0,1,39,85.44,4.43,4.43,0,0,1,38,82.27Z"/><path id="path4263" class="cls-1" d="M9.43,86.27c-.71,0-.8-.13-.8-.32s.37-5.28.67-7.48c0-.25.18-.28.47-.28h1.41c.27,0,.41.07.48.28l1.67,5.07h.1l1.51-5c.05-.18.12-.33.51-.33H16.9c.29,0,.44,0,.47.28.27,2.17.47,4.77.65,7.24v.23c0,.14,0,.32-.79.32s-.85-.12-.87-.46c-.08-2-.18-4.13-.34-5.74h-.1c-.3,1-.9,2.83-1.64,5.2H12.42l-1.7-5.2h-.09c-.14,1.57-.24,3.41-.34,5.78,0,.25,0,.42-.86.42Z"/><path id="path4636" class="cls-1" d="M48,78.24c-.3,0-.43.1-.51.34-.73,2.24-1.42,4.6-2.12,6.91a2,2,0,0,0-.13.53c0,.24.38.28.86.28s.75-.08.85-.18a.5.5,0,0,0,.11-.2l.39-1.36H50.6L51,85.81a.64.64,0,0,0,.15.31,1.29,1.29,0,0,0,.84.16c.55,0,.86-.06.86-.29a.74.74,0,0,0-.06-.26C52,83.2,51.3,81,50.58,78.63c-.11-.34-.18-.39-.56-.39Zm.85,1.34h.32c.34,1.18.68,2.4,1,3.62H47.86C48.2,82,48.53,80.8,48.89,79.58Z"/><path id="path4638" class="cls-1" d="M57.36,81.85c-.32,0-.36-.06-.36-.14s.17-2.36.3-3.34c0-.11.08-.12.21-.12h.63c.12,0,.18,0,.22.13l.74,2.27h0l.68-2.24c0-.08.05-.15.23-.15h.64c.13,0,.2,0,.21.12.12,1,.21,2.13.29,3.24v.1c0,.06,0,.14-.35.14s-.38-.05-.39-.21c0-.88-.08-1.85-.15-2.57h0c-.13.47-.4,1.26-.74,2.32h-.84l-.76-2.32h0c-.06.7-.11,1.53-.15,2.58,0,.11,0,.19-.38.19Z"/></g></g></g></g></g></svg>