<?xml version="1.0" encoding="utf-8"?>
<!-- Generator: Adobe Illustrator 22.1.0, SVG Export Plug-In . SVG Version: 6.00 Build 0)  -->
<svg version="1.1" id="Layer_1" xmlns="http://www.w3.org/2000/svg" xmlns:xlink="http://www.w3.org/1999/xlink" x="0px" y="0px"
	 viewBox="0 0 465.7 161.5" style="enable-background:new 0 0 465.7 161.5;" xml:space="preserve">
<style type="text/css">
	.st0{fill:#FFFFFF;}
</style>
<path class="st0" d="M141,0H12C5.4,0,0,5.4,0,12v137.5c0,6.6,5.4,12,12,12h129c6.6,0,12-5.4,12-12V12C153,5.4,147.6,0,141,0z
	 M13.8,78.4c0-4.5,0-8.9,0-13.4c0-0.9,0.2-1.2,1.2-1.2c4.1,0.1,8.3,0,12.6,0c0,3.2,0,6.2,0,9.2c0.2,0.1,0.3,0.1,0.4,0.1
	c2.4,0.1,2.4,0.1,2.4,2.5c0,3.7,0,7.4,0,11.2c-0.4,0-0.8,0.1-1.1,0.1c-2.3,0-4.6,0-6.9,0C17.8,86.9,13.8,83,13.8,78.4z M36.1,143.2
	c-2.9,0-5.9,0-8.9,0c0-15.5,0-31.1,0-46.7c3,0,5.9,0,8.9,0C36.1,112.1,36.1,127.6,36.1,143.2z M52.8,143.4c-2.7,0-5.3,0-7.9,0
	c-0.3,0-0.6,0-1.1,0c0-3.1,0-6.2,0-9.3c0-3.1,0-6.2,0-9.5c-1.5,0-3,0-4.5,0c0-3.1,0-6,0-9.1c1.5,0,2.9,0,4.4,0c0-0.6,0.1-1,0.1-1.5
	c0-5.4,0-10.8,0-16.2c0-1,0.2-1.3,1.2-1.3c2.6,0.1,5.2,0,7.8,0C52.8,112.1,52.8,127.6,52.8,143.4z M53,78.2c0,4.9-3.9,8.8-8.8,8.8
	c-2.7,0-5.4,0-8.2,0c0-4.7,0-9.1,0-13.7c1,0,2,0,3.2,0c0-0.6,0-1.1,0-1.5c0-18.1,0-36.2,0-54.3c0-1.6,0-1.6,1.6-1.6
	c3.7,0,7.4,0,11.1,0c0.9,0,1.2,0.2,1.2,1.1C53,37.3,53.1,57.7,53,78.2z M72.3,141.7c0,0.5,0,0.9,0,1.6c-3.1,0-6,0-9.1,0
	c0-15.6,0-31.1,0-46.9c2.1,0,4.2,0,6.2,0c2.8,0,2.8,0,2.8,2.9C72.3,113.5,72.3,127.6,72.3,141.7z M80.1,143.3
	c-0.2,0-0.6-0.4-0.7-0.6c-1.4-3.3-2.7-6.5-4-9.8c-0.1-0.2-0.2-0.4-0.2-0.6c0-3.4,0-6.8,0-10.4c1.6,0,3,0,4.5,0c0-5.5,0-10.8,0-16.3
	c-1.5,0-2.9,0-4.5,0c0-3.1,0-6,0-9c0.3,0,0.7-0.1,1-0.1c1.6,0,3.3,0,4.9,0c4.4,0,7.8,3.4,7.8,7.8c0,6.1,0,12.3,0,18.4
	c0,3.4-1.3,6-4.4,7.6c-0.1,0.1-0.2,0.1-0.3,0.2c1.7,4.3,3.4,8.5,5.2,12.9C86.2,143.3,83.2,143.4,80.1,143.3z M92.3,17.6
	c-7.7,22.7-15.4,45.3-23.1,68c-0.3,0.7-0.6,1.1-1.4,1.1c-3.3-0.1-6.5,0-10.1,0c0.2-0.9,0.2-1.5,0.4-2.2
	c7.1-21.1,14.3-42.2,21.5-63.3c0.5-1.6,1-3.2,1.6-4.7c0.1-0.3,0.6-0.8,0.8-0.8c3.5-0.1,6.9,0,10.6,0C92.5,16.4,92.5,17,92.3,17.6z
	 M110.7,105.5c-0.8,0-1.5,0.1-2.3,0.1c0,9.6,0,19,0,28.6c0.7,0,1.4,0.1,2.2,0.1c0,3,0,5.9,0,8.9c-3.6,0.2-7.2,0.5-9.8-2.8
	c-1-1.3-1.6-2.8-1.6-4.4c0-10.7,0-21.4,0-32.1c0-3.9,3.3-7.2,7.2-7.4c1.2-0.1,2.3-0.1,3.5,0c0.3,0,0.8,0.4,0.8,0.6
	C110.8,99.9,110.7,102.6,110.7,105.5z M112.8,86.9c-4.6,0-9,0-13.6,0c0-23.6,0-47.3,0-71c4.5,0,9,0,13.6,0
	C112.8,39.6,112.8,63.2,112.8,86.9z M125.1,136.2c-0.1,3.9-3.5,7.1-7.4,7.2c-1.3,0-2.5,0-3.9,0c0-3,0-6,0-9c0.7-0.1,1.4-0.1,2.1-0.2
	c0-9.5,0-19,0-28.6c-0.7,0-1.4-0.1-2.1-0.1c0-3,0-5.9,0-9c2.4,0.1,4.7-0.4,6.9,0.8c2.6,1.4,4.3,3.5,4.4,6.6c0.1,6,0.1,11.9,0.1,17.9
	C125.2,126.6,125.2,131.4,125.1,136.2z M138.3,56.1c0,5.9-3.8,10.6-9.3,11.8c-1.4,0.3-2.8,0.3-4.3,0.3c-2.1,0-4.1-0.1-6.2-0.2
	c0-2.1-0.1-4.1-0.1-6.2c0-2,0-4.1,0-6.1c0-0.4,0-0.8,0.1-1.3c2,0,3.9,0,5.8,0c0-8.3,0-16.5,0-24.8c-1.9,0-3.8,0-5.8,0
	c0-4.6,0-9.1,0-13.6c0,0,0.1-0.1,0.2-0.1c3.3,0,6.7-0.2,10,0.2c5.1,0.6,9.4,5.6,9.5,10.8c0.1,4.7,0.1,9.3,0.1,14
	C138.3,45.9,138.3,51,138.3,56.1z"/>
<g>
	<path class="st0" d="M174.3,42v18.5h12.1V42h4.9v43.2h-4.9V65h-12.1v20.2h-4.9V42H174.3z"/>
	<path class="st0" d="M204.2,72.2l-2.9,13h-4.8l9.9-43.2h5.5l9.6,43.2h-4.9l-2.8-13H204.2z M213.1,68.3l-2.3-11
		c-0.6-3.1-1.2-6.6-1.7-9.9h-0.2c-0.5,3.3-1.1,7-1.7,9.9l-2.3,10.9H213.1z"/>
	<path class="st0" d="M231.9,42v43.2H227V42H231.9z"/>
	<path class="st0" d="M244.7,46.4h-7.9V42h20.7v4.4h-7.9v38.8h-4.9V46.4z"/>
	<path class="st0" d="M267.3,42v43.2h-4.9V42H267.3z"/>
	<path class="st0" d="M280.3,72.2l-2.9,13h-4.8l9.9-43.2h5.5l9.6,43.2h-4.9l-2.8-13H280.3z M289.2,68.3l-2.3-11
		c-0.6-3.1-1.2-6.6-1.7-9.9H285c-0.5,3.3-1.1,7-1.7,9.9L281,68.3H289.2z"/>
	<path class="st0" d="M303,85.2V42h4.6l7.9,20.3c1.8,4.6,4,10.4,5.5,15h0.1c-0.4-6.8-0.6-12.4-0.6-19.8V42h4.4v43.2h-4.6l-8.2-20.8
		c-1.7-4.4-3.6-9.3-5.1-14.7H307c0.4,5.8,0.5,11.3,0.5,20.5v15H303z"/>
	<path class="st0" d="M342.9,42.6c2.1-0.6,4.7-0.8,7.1-0.8c4.2,0,7.5,0.9,9.7,3.1c2.1,2.1,3.1,5,3.1,8.4c0,5.5-2.6,9.1-6.9,11.1v0.1
		c3.2,1,4.9,4,5.8,9.7c1,5.9,1.9,9.6,2.5,10.9h-5c-0.6-1.3-1.4-5.4-2.3-10.7c-1-5.9-2.8-8.1-7-8.1h-1.9v18.8h-4.9V42.6z M347.8,62.5
		h2.1c4.7,0,7.9-3.5,7.9-8.6c0-5-2-8.1-7.3-8.1c-1,0-1.9,0.1-2.6,0.3V62.5z"/>
	<path class="st0" d="M384.8,64.7H374v16.2h12.3v4.3h-17.2V42h16.4v4.3H374v14.2h10.8V64.7z"/>
	<path class="st0" d="M391.8,42h4.9v39h12.1v4.2h-17.1V42z"/>
	<path class="st0" d="M418.7,42v43.2h-4.9V42H418.7z"/>
	<path class="st0" d="M442.3,64.7h-10.8v16.2h12.3v4.3h-17.2V42H443v4.3h-11.5v14.2h10.8V64.7z"/>
	<path class="st0" d="M449.3,42h16.4v4.3h-11.5v15.1H465v4.2h-10.8v19.6h-4.9V42z"/>
	<path class="st0" d="M192,118.2c0,16.2-5.5,22.4-12.5,22.4c-7.2,0-12-7.6-12-22.1c0-14.3,5.2-22.1,12.7-22.1
		C187.6,96.4,192,104.4,192,118.2z M172.7,118.5c0,8.9,1.7,17.8,7.2,17.8c5.6,0,7-9.4,7-17.9c0-8.1-1.5-17.6-7.1-17.6
		C174.4,100.7,172.7,109.7,172.7,118.5z"/>
	<path class="st0" d="M198.6,97.5c2.1-0.6,4.7-0.8,7.1-0.8c4.2,0,7.5,0.9,9.7,3.1c2.1,2.1,3.1,5,3.1,8.4c0,5.5-2.6,9.1-6.9,11.1v0.1
		c3.2,1,4.9,4,5.8,9.7c1,5.9,1.9,9.6,2.5,10.9h-5c-0.6-1.3-1.4-5.4-2.3-10.7c-1-5.9-2.8-8.1-7-8.1h-1.9v18.8h-4.9V97.5z
		 M203.5,117.5h2.1c4.7,0,7.9-3.5,7.9-8.6c0-5-2-8.1-7.3-8.1c-1,0-1.9,0.1-2.6,0.3V117.5z"/>
	<path class="st0" d="M246.8,139c-1.8,0.8-4.9,1.5-7.6,1.5c-3.8,0-7.3-1-10.2-4.2c-3.1-3.3-5.2-9.3-5.2-17.2
		c0.1-16.8,8.7-22.6,16.3-22.6c2.7,0,4.8,0.5,6.2,1.2l-1.1,4.3c-1.1-0.6-2.7-1.1-5-1.1c-5.4,0-11.2,4.3-11.2,17.7
		c0,13.3,5.1,17.6,10.3,17.6c1.6,0,2.6-0.3,3-0.5v-14.1h-5.6v-4.1h10.2V139z"/>
	<path class="st0" d="M259.3,127.1l-2.9,13h-4.8l9.9-43.2h5.5l9.6,43.2h-4.9l-2.8-13H259.3z M268.2,123.2l-2.3-11
		c-0.6-3.1-1.2-6.6-1.7-9.9H264c-0.5,3.3-1.1,7-1.7,9.9l-2.3,10.9H268.2z"/>
	<path class="st0" d="M282.8,140.1V96.9h4.6l7.9,20.3c1.8,4.6,4,10.4,5.5,15h0.1c-0.4-6.8-0.6-12.4-0.6-19.8V96.9h4.4v43.2h-4.6
		l-8.2-20.8c-1.7-4.4-3.6-9.3-5.1-14.7h-0.1c0.4,5.8,0.5,11.3,0.5,20.5v15H282.8z"/>
	<path class="st0" d="M318.2,96.9v43.2h-4.9V96.9H318.2z"/>
	<path class="st0" d="M324.1,137.1l14.8-35.8v-0.1h-13.6v-4.3h19.1v3.4l-14.6,35.4v0.2h14.5v4.3h-20.3V137.1z"/>
	<path class="st0" d="M356.1,127.1l-2.9,13h-4.8l9.9-43.2h5.5l9.6,43.2h-4.9l-2.8-13H356.1z M365,123.2l-2.3-11
		c-0.6-3.1-1.2-6.6-1.7-9.9h-0.2c-0.5,3.3-1.1,7-1.7,9.9l-2.3,10.9H365z"/>
	<path class="st0" d="M380.8,101.3h-7.9v-4.4h20.7v4.4h-7.9v38.8h-4.9V101.3z"/>
	<path class="st0" d="M404,96.9v43.2h-4.9V96.9H404z"/>
	<path class="st0" d="M435.2,118.2c0,16.2-5.5,22.4-12.5,22.4c-7.2,0-12-7.6-12-22.1c0-14.3,5.2-22.1,12.7-22.1
		C430.8,96.4,435.2,104.4,435.2,118.2z M415.9,118.5c0,8.9,1.7,17.8,7.2,17.8c5.6,0,7-9.4,7-17.9c0-8.1-1.5-17.6-7.1-17.6
		C417.6,100.7,415.9,109.7,415.9,118.5z"/>
	<path class="st0" d="M441.9,140.1V96.9h4.6l7.9,20.3c1.8,4.6,4,10.4,5.5,15h0.1c-0.4-6.8-0.6-12.4-0.6-19.8V96.9h4.4v43.2h-4.6
		l-8.2-20.8c-1.7-4.4-3.6-9.3-5.1-14.7h-0.1c0.4,5.8,0.5,11.3,0.5,20.5v15H441.9z"/>
</g>
</svg>
