<svg xmlns="http://www.w3.org/2000/svg" viewBox="0 0 203.54 67.6"><defs><style>.cls-1{fill:#fff;}</style></defs><title>kraft</title><g id="Layer_2" data-name="Layer 2"><g id="Layer_1-2" data-name="Layer 1"><path class="cls-1" d="M26.38,66.08c.38.71.76.53,1,.15,4.82-7.33,3.34-14.52,1.91-17.45-.09-.19-.17-.38-.3-.38s-.18.24-.19.29c-.42,4.42-2.91,8.2-4.93,10.91a1.15,1.15,0,0,0-.21,1.26Z"/><path class="cls-1" d="M54.47,11c-.14-1.36-.85-1.33-1.5-.9C40.71,18.56,38.43,30.8,38.79,36.32c0,.35,0,.7.24.79s.44-.26.48-.35c3.5-6.66,9.83-11,14.74-14A2,2,0,0,0,55.39,21Z"/><path class="cls-1" d="M5.32,49.77c-.64,1-.14,1.38.55,1.44C19,52.11,27.24,44.9,30,40.89c.18-.25.37-.5.27-.67s-.45-.06-.52,0c-6.07,2.69-12.82,2.22-17.84,1.57a1.73,1.73,0,0,0-1.79.64Z"/><path class="cls-1" d="M14.25,29.77C11,26.85,4.51,22.3.88,27.9-1.64,32,1.58,37,6.46,38.69c8.39,2.7,16.84,1.88,20.17,1.43.44-.07.6-.15.65-.36s-.09-.32-.31-.44c-4.34-2.24-8.61-5.82-12.72-9.56"/><path class="cls-1" d="M19.75,53.14c-1.84.71-4,2.15-2.56,4.43,1,1.61,3.45,1.36,4.86-.15,2.53-2.72,2.88-5.55,2.27-6.07s-2.22.88-4.57,1.79"/><path class="cls-1" d="M30.75,35.31c.33-.2.16-1.08.08-1.91a20.77,20.77,0,0,1,2.1-12.33c3.3-6.14,4.34-11.2,3.78-14.46S32.14-1.6,24.93.51c-6.48,1.89-6.64,9.81-6.19,13.28,1.49,11.63,9.38,19.7,10.13,20.41s1.51,1.34,1.88,1.12"/><path class="cls-1" d="M17.09,23.69l-6.18-2.84c-.59-.3-.85,0-.55.48l4,5.57c.4.54.58.88,1.19,1.11l4.6,1.61c.61.21.73,0,.48-.48L18.43,25a2.57,2.57,0,0,0-1.33-1.31"/><path class="cls-1" d="M76.72,43.27a12.74,12.74,0,0,0-3.52-.62c-3.33,0-4.9,1.82-4.9,4,0,2.54,1.36,4.33,4,4.33a4.67,4.67,0,0,0,3.49-1.35,5.06,5.06,0,0,0,1-3.38Zm6,9.16a6.52,6.52,0,0,1-2.55.67c-1.49,0-2.74-.53-3.11-1.82-1,1.29-3.38,2.17-5.44,2.17-4.11,0-7-2.37-7-6.61,0-4.43,3.17-6.62,7.93-6.62a15,15,0,0,1,4.15.76v-.86a5,5,0,0,0-.85-3.34,4.79,4.79,0,0,0-3.71-1.57,11.43,11.43,0,0,0-5.61,1.17v-2.6s1.76-1,5.87-1A8.84,8.84,0,0,1,78.81,35a6.39,6.39,0,0,1,1.58,4.72v9.49a1.16,1.16,0,0,0,1.25,1.29,3.16,3.16,0,0,0,1.06-.29Z"/><path class="cls-1" d="M127.89,27.47a10,10,0,0,0-3-.49,2.46,2.46,0,0,0-2.22.93,4.58,4.58,0,0,0-.52,2.58v2.79h5.19l-.72,2.45h-4.47V53h-3.66V35.73h-3.1V33.27h3.1V30.79c0-2,.31-3.57,1.36-4.66s2.18-1.59,4.39-1.59a12.65,12.65,0,0,1,3.69.61Z"/><path class="cls-1" d="M95.41,27.47a10,10,0,0,0-3-.49,2.47,2.47,0,0,0-2.22.93,4.58,4.58,0,0,0-.52,2.58v2.79h5.19l-.72,2.45H89.62V53H86V35.73H82.87V33.27H86V30.79c0-2,.32-3.57,1.36-4.66s2.18-1.59,4.39-1.59a12.67,12.67,0,0,1,3.69.61Z"/><path class="cls-1" d="M201.94,33.58a13.77,13.77,0,0,0-4.87-.79c-3,0-7.26,1-7.26,5.13s4.72,5.36,6.36,6,4.07,1.43,3.7,4.2C199.64,49.84,198.62,51,196,51a14.31,14.31,0,0,1-5.8-1v2.6a22.63,22.63,0,0,0,5.91.85c3.14,0,7.42-1.25,7.42-5.86s-4.63-5.45-6.77-6.4-3.31-1.59-3.31-3.42c0-1.29.9-2.56,3.88-2.57a14.11,14.11,0,0,1,4.59.85Z"/><path class="cls-1" d="M136.71,35.22c-3.42,0-5.1,2.46-5.1,7.92s1.67,7.88,5.1,7.88,5.1-2.42,5.1-7.88-1.67-7.92-5.1-7.92m0,18.24c-5.39,0-8.76-3.7-8.76-10.32s3.37-10.36,8.76-10.36,8.76,3.74,8.76,10.36-3.37,10.32-8.76,10.32"/><path class="cls-1" d="M157.07,35.22c-3.42,0-5.1,2.46-5.1,7.92s1.67,7.88,5.1,7.88,5.1-2.42,5.1-7.88-1.67-7.92-5.1-7.92m0,18.24c-5.39,0-8.76-3.7-8.76-10.32s3.37-10.36,8.76-10.36,8.76,3.74,8.76,10.36-3.37,10.32-8.76,10.32"/><path class="cls-1" d="M103,46.89a4.82,4.82,0,0,0,.6,2.7,2.4,2.4,0,0,0,2.16.94,11.41,11.41,0,0,0,2-.33v2.25a12.46,12.46,0,0,1-3.07.67,5.47,5.47,0,0,1-4.24-1.63c-.78-1-1.06-2.17-1.06-4.34V35.73H95.79l.7-2.45h2.84V28.09L103,27v6.27h4.76v2.45H103Z"/><path class="cls-1" d="M63.91,36.12c-2.68-.28-4,.71-4.72,1.64S58.1,40.1,58.1,42.11V53H54.45V35.73H51.85V33.29h4.83l.73,2.82c1-2,3.39-3.33,6.49-3.06Z"/><path class="cls-1" d="M40,39.77l5-6.49h4l-5.76,7.67a.19.19,0,0,0,0,.22l4.57,7.89c.62,1.13,1.21,1.58,2.05,1.57A3.31,3.31,0,0,0,51,50.2l0,2.23a5.64,5.64,0,0,1-2.47.67,4.33,4.33,0,0,1-4.18-2.5l-4.75-8.38H36.82V53h-4V24.46h4V39.77Z"/><path class="cls-1" d="M182.3,36.42a5.36,5.36,0,0,0-3.33-1.2c-4.52,0-6.59,2.66-6.59,8.54,0,4.24,1.17,7.25,5,7.25a4.41,4.41,0,0,0,4.28-2.44,8.43,8.43,0,0,0,.7-3.78Zm.24,14.93a7.2,7.2,0,0,1-5.5,2.12c-5.72,0-8.35-4.15-8.35-9.54,0-3.46.95-6.42,2.84-8.43a9.71,9.71,0,0,1,7.2-2.71,6.74,6.74,0,0,1,3.58,1V25.49l3.71-.95V48.88c0,1.27.44,1.52,1.07,1.52a4.61,4.61,0,0,0,1.07-.21v2.12a4.27,4.27,0,0,1-3.05.82,2.82,2.82,0,0,1-2.55-1.78"/><path class="cls-1" d="M106.55,55.69c-.14-.06-.32,0-.83.25-3.37,1.7-13.1,6.94-35.29,6.94s-31.92-5.25-35.29-6.94c-.51-.25-.69-.31-.83-.25s.37.7.37.7c2.91,3,15.81,11.2,35.75,11.2s32.84-8.2,35.75-11.2c0,0,.57-.6.37-.7"/></g></g></svg>