<svg xmlns="http://www.w3.org/2000/svg" viewBox="0 0 165.37 45.34"><defs><style>.cls-1,.cls-2{fill:#fff;}.cls-2{fill-rule:evenodd;}</style></defs><title>lacare</title><g id="Layer_2" data-name="Layer 2"><g id="Layer_1-2" data-name="Layer 1"><path class="cls-1" d="M38,25.5c.77-.09,6.07-.54,6.77-.1V0H27.2a3.46,3.46,0,0,1,1.53,1.88c.17.94-1.69,6.23-1.87,7s-.71,1.06-1.05.9-.27-1.07-.27-1.07S26.26,1.21,26.62,0H0V16.16c.47-.31,7.15,2.68,7.66,3s.41.66,0,.83A33.87,33.87,0,0,1,.45,18.95a2.7,2.7,0,0,1-.44-.8V44.54H44.79v-18a6,6,0,0,1-1.16,1.94c-.66.28-5.84-1.78-6.14-2.14C36.86,25.66,38,25.5,38,25.5ZM8.43,5.77c.14-.48,3.22-1.68,3.43-1.56s.72,2,1,2.62S14.58,11,14.58,11.3s-.32.37-.43.32-3.28-3.06-3.74-3.5S8.3,6.26,8.43,5.77Zm1.94,25.5c-.69.92-6.33,4.65-7,4.54-.4-.06-2.79-1.28-2.22-1.87s8-4.29,9.08-4.06S10.61,31,10.37,31.27Zm8,10.07c-.5.35-2.59.95-3,.17s2.79-6,3.36-5.86c0,0,.53-.3.58.45S18.86,41,18.37,41.34ZM10.29,22.45a11.18,11.18,0,0,1,8.06-10.67,10.29,10.29,0,0,1,4.42-.19A7.26,7.26,0,0,1,25.83,13c.22.19.71.6.54.84s-.59,0-.81-.09a7.53,7.53,0,0,0-2.72-.38,9.45,9.45,0,0,0-5.07,1.76,9,9,0,0,0-3.31,4.58,11.71,11.71,0,0,0-.56,3.57,9,9,0,0,0,9.2,8.89,9.3,9.3,0,0,0,9.2-8.89c.22-2.92-1-5.64-2.86-6.54a7.07,7.07,0,0,0-3.51-1,8.46,8.46,0,0,0-2.65.18l-.88.18c-.28.07-.51,0-.36-.2a6.74,6.74,0,0,1,1.87-1.1,9.51,9.51,0,0,1,2.75-.71,8.81,8.81,0,0,1,3,.14,6.41,6.41,0,0,1,3.37,1.85l.54.67a9.62,9.62,0,0,1,1.66,5.72c-.05,6.3-5.59,11.41-12.5,11.41S10.29,28.75,10.29,22.45Zm14.87-1.93c.29-.21.9-.6.9-.6a3.62,3.62,0,0,1,2-.53,3,3,0,0,1,2,.8,2.28,2.28,0,0,1,.53,2.57,7.28,7.28,0,0,1-2.53,2.74A14.68,14.68,0,0,1,25.41,27a13.68,13.68,0,0,1-2.17.79c-.21.05-.45,0-.46-.1s.39-.3.53-.37c.54-.26,1.31-.67,1.84-1a11.42,11.42,0,0,0,1.37-1,5.89,5.89,0,0,0,1.78-2.44A1.39,1.39,0,0,0,28,21.2a2.31,2.31,0,0,0-1.75-.34,3.29,3.29,0,0,0-1.07.45c-.3.21-.63.45-.8.58s-.22.18-.31.14-.11-.11-.07-.28l0-.26a5,5,0,0,0-.1-2.24.75.75,0,0,0-.44-.41,1,1,0,0,0-.5-.06,1.7,1.7,0,0,0-1.41,1.09,4.48,4.48,0,0,0-.3,1.5,7.33,7.33,0,0,0,.31,2.74,10.54,10.54,0,0,0,1,2.31c.16.3.19.38,0,.42s-.26-.06-.63-.37a10.53,10.53,0,0,1-1.74-2.06,7,7,0,0,1-1-2.72,5,5,0,0,1,.44-3.1,3.44,3.44,0,0,1,1.45-1.52,4,4,0,0,1,2-.56,2,2,0,0,1,2.11,1.3,3.74,3.74,0,0,1,0,1.86l0,.19-.08.26-.11.3-.12.31Zm8.61,21.15c-.54-.23-3.41-6.26-3.46-6.77a.58.58,0,0,1,.71-.67c.46.1,5,4.61,5.06,5.15S34.3,41.91,33.77,41.67Zm.77-26c-.61-.38-.24-.87.38-1.55a41.65,41.65,0,0,1,4.8-3.75c.51-.19.53,2.83.4,3.14S35.09,16.06,34.54,15.71Z"/><path class="cls-1" d="M0,16.16v2H0v-2Z"/><polygon class="cls-1" points="54.06 11.37 58.66 11.37 58.66 27.75 66.75 27.75 66.75 31.58 54.06 31.58 54.06 11.37"/><path class="cls-1" d="M69.56,31.75a1.38,1.38,0,1,1,1.37-1.38,1.31,1.31,0,0,1-1.37,1.38Z"/><path class="cls-2" d="M78.1,26.39l-1.44,5.19H71.92l6.2-20.21h6l6.33,20.21H85.51l-1.57-5.19ZM83.27,23,82,18.69c-.35-1.19-.71-2.71-1-3.89h-.06c-.3,1.19-.61,2.72-.93,3.9L78.77,23Z"/><path class="cls-1" d="M92.66,31.75A1.38,1.38,0,1,1,94,30.36a1.31,1.31,0,0,1-1.37,1.38Z"/><path class="cls-1" d="M117.51,31a13.25,13.25,0,0,1-5.2.87c-7,0-10.67-4.37-10.67-10.13,0-6.89,5-10.71,11.1-10.71a11.66,11.66,0,0,1,5,.9l-.93,3.61a9.63,9.63,0,0,0-3.86-.76c-3.63,0-6.47,2.2-6.47,6.69,0,4.05,2.4,6.6,6.5,6.6a11.1,11.1,0,0,0,3.84-.66Z"/><path class="cls-2" d="M132.37,28a21.09,21.09,0,0,0,.24,3.55h-4.13l-.27-1.45h-.09a5.3,5.3,0,0,1-4.22,1.78,4.49,4.49,0,0,1-4.77-4.49c0-3.82,3.44-5.63,8.66-5.63V21.6c0-.78-.43-1.9-2.71-1.89a8.56,8.56,0,0,0-4.07,1.1l-.84-2.92a12,12,0,0,1,5.74-1.31c4.91,0,6.47,2.88,6.47,6.33Zm-4.45-3.39c-2.42,0-4.28.57-4.28,2.32a1.65,1.65,0,0,0,1.82,1.75A2.49,2.49,0,0,0,127.83,27a2.82,2.82,0,0,0,.09-.78Z"/><path class="cls-1" d="M135.43,21.75c0-2.16,0-3.58-.12-4.84h3.95l.17,2.72h.11a4.32,4.32,0,0,1,4-3,3.89,3.89,0,0,1,1,.08v4.29a6.55,6.55,0,0,0-1.27-.12,3,3,0,0,0-3.15,2.32,5.32,5.32,0,0,0-.08,1v7.42h-4.6Z"/><path class="cls-2" d="M149.78,25.69c.14,1.89,2,2.79,4.16,2.79a12.35,12.35,0,0,0,4.06-.63l.62,3.09a14.34,14.34,0,0,1-5.35.93c-5,0-7.87-2.89-7.87-7.47,0-3.73,2.34-7.86,7.44-7.86,4.78,0,6.59,3.7,6.59,7.32a9.12,9.12,0,0,1-.17,1.84Zm5.39-3.13c0-1.1-.49-3-2.58-3a3,3,0,0,0-2.85,3Z"/><path class="cls-1" d="M159.61,35H54.06a.3.3,0,1,1,0-.59H159.61a.3.3,0,1,1,0,.59Z"/><polygon class="cls-1" points="57.2 37.81 57.2 41.04 55.08 41.04 55.08 37.81 54.22 37.81 54.22 45.34 55.08 45.34 55.08 41.82 57.2 41.82 57.2 45.34 58.06 45.34 58.06 37.81 57.2 37.81"/><polygon class="cls-1" points="65.42 37.81 65.42 45.34 68.44 45.34 68.44 44.59 66.28 44.59 66.28 41.76 68.17 41.76 68.17 41.03 66.28 41.03 66.28 38.55 68.3 38.55 68.3 37.81 65.42 37.81"/><path class="cls-2" d="M76.3,43.08l-.5,2.26H75l1.73-7.52h1l1.68,7.52h-.86L78,43.08Zm1.56-.69-.4-1.91c-.11-.53-.21-1.15-.3-1.71h0c-.09.57-.2,1.21-.31,1.72l-.4,1.9Z"/><polygon class="cls-1" points="86.28 37.81 86.28 45.34 89.27 45.34 89.27 44.61 87.14 44.61 87.14 37.81 86.28 37.81"/><polygon class="cls-1" points="94.79 37.81 94.79 38.59 96.17 38.59 96.17 45.34 97.04 45.34 97.04 38.59 98.42 38.59 98.42 37.81 94.79 37.81"/><polygon class="cls-1" points="108.25 37.81 108.25 41.04 106.13 41.04 106.13 37.81 105.27 37.81 105.27 45.34 106.13 45.34 106.13 41.82 108.25 41.82 108.25 45.34 109.11 45.34 109.11 37.81 108.25 37.81"/><path class="cls-2" d="M124.23,37.92a5,5,0,0,1,1.25-.15,2.33,2.33,0,0,1,1.68.56,2.13,2.13,0,0,1,.56,1.56,2.39,2.39,0,0,1-.46,1.54,2.21,2.21,0,0,1-1.78.84h-.38v3.08h-.86Zm.86,3.61a1.93,1.93,0,0,0,.35,0c.84,0,1.41-.56,1.41-1.61,0-.78-.32-1.46-1.28-1.46a2,2,0,0,0-.48.05Z"/><polygon class="cls-1" points="134.7 37.81 134.7 45.34 137.69 45.34 137.69 44.61 135.56 44.61 135.56 37.81 134.7 37.81"/><path class="cls-2" d="M145.5,43.08l-.5,2.26h-.83l1.73-7.52h1l1.68,7.52h-.85l-.5-2.26Zm1.56-.69-.4-1.91c-.11-.53-.21-1.15-.3-1.71h0c-.08.57-.19,1.21-.3,1.72l-.4,1.9Z"/><path class="cls-1" d="M155.48,45.34V37.81h.81l1.39,3.53c.31.8.7,1.8,1,2.62h0c-.06-1.18-.11-2.16-.11-3.46V37.81h.78v7.52h-.82l-1.44-3.62a25.8,25.8,0,0,1-.9-2.55h0c.06,1,.08,2,.08,3.57v2.6Z"/><path class="cls-2" d="M163.43,41.4a2,2,0,1,1-2,2,1.94,1.94,0,0,1,2-2Zm0,.3a1.66,1.66,0,0,0,0,3.33,1.66,1.66,0,0,0,0-3.33Zm-.37,2.8h-.35V42.31a3.51,3.51,0,0,1,.62-.05,1.18,1.18,0,0,1,.69.17.52.52,0,0,1,.2.45.55.55,0,0,1-.43.53v0c.19,0,.32.21.37.53a2,2,0,0,0,.14.54h-.37a1.48,1.48,0,0,1-.15-.56.42.42,0,0,0-.48-.38h-.24Zm0-1.21h.25c.29,0,.54-.11.54-.37s-.14-.38-.54-.38l-.25,0Z"/></g></g></svg>