<?xml version="1.0" encoding="utf-8"?>
<!-- Generator: Adobe Illustrator 22.0.1, SVG Export Plug-In . SVG Version: 6.00 Build 0)  -->
<svg version="1.1" id="Layer_1" xmlns="http://www.w3.org/2000/svg" xmlns:xlink="http://www.w3.org/1999/xlink" x="0px" y="0px"
	 viewBox="0 0 299.3 412.7" style="enable-background:new 0 0 299.3 412.7;" xml:space="preserve">
<style type="text/css">
	.st0{fill-rule:evenodd;clip-rule:evenodd;fill:#FFFFFF;}
</style>
<g>
	<polygon class="st0" points="53.8,328.6 58.4,328.6 58.4,323.2 64.5,323.2 64.5,319.4 58.4,319.4 58.4,315.5 65.4,315.5 
		65.4,311.6 53.8,311.6 	"/>
	<path class="st0" d="M137.7,254.1h-55V115.3l-29-21.4V284h92.1C141.9,274.4,139,260.5,137.7,254.1z"/>
	<polygon class="st0" points="68.1,65.4 59.4,65.4 59.4,49.5 53.9,49.5 53.9,49.5 53.9,70.1 68.1,70.1 	"/>
	<path class="st0" d="M75.7,311.4c-4.9,0-9.1,3.6-9.1,8.7c0,5.1,4.2,8.7,9.1,8.7c4.9,0,9.1-3.6,9.1-8.7
		C84.8,315,80.6,311.4,75.7,311.4z M75.7,324.9c-2.8,0-4.5-2.1-4.5-4.8c0-2.7,1.6-4.7,4.5-4.7c2.8,0,4.5,2.1,4.5,4.7
		C80.1,322.8,78.5,324.9,75.7,324.9z"/>
	<path class="st0" d="M130.8,319.1c1.1-0.5,1.9-1.4,1.9-3.3c0-2.6-2.2-4.1-5.6-4.1h-6.9v17h7.2c4.2,0,6.7-1.8,6.7-5.1
		C134.2,320.9,132.6,319.6,130.8,319.1z M124.6,315.2h2.2c1,0,1.4,0.6,1.4,1.4c0,0.8-0.4,1.3-1.4,1.3l-2.2,0V315.2z M127.4,325h-2.7
		v-3.8h2.7c1.7,0,2.3,0.7,2.3,1.9C129.7,324.3,129.1,325,127.4,325z"/>
	<path class="st0" d="M80.3,70.3c5.9,0,11.1-4.4,11.1-10.6c0-6.2-5.1-10.5-11.1-10.5c-5.9,0-11.1,4.3-11.1,10.5
		C69.2,66,74.3,70.3,80.3,70.3z M80.3,54c3.5,0,5.4,2.5,5.4,5.8c0,3.2-2,5.8-5.4,5.8c-3.5,0-5.4-2.5-5.4-5.8
		C74.9,56.5,76.8,54,80.3,54z"/>
	<path class="st0" d="M95.2,311.4c-4.9,0-9.1,3.6-9.1,8.7c0,5.1,4.2,8.7,9.1,8.7c4.9,0,9.1-3.6,9.1-8.7
		C104.3,315,100.1,311.4,95.2,311.4z M95.2,324.9c-2.8,0-4.5-2.1-4.5-4.8c0-2.7,1.6-4.7,4.5-4.7s4.5,2.1,4.5,4.7
		C99.7,322.8,98,324.9,95.2,324.9z"/>
	<polygon class="st0" points="104.7,315.5 109.1,315.5 109.1,328.6 113.7,328.6 113.7,315.5 118.2,315.5 118.2,311.6 104.7,311.6 	
		"/>
	<path class="st0" d="M167.1,70.3c4.6,0,7.1-1.3,9-2.8v-8.6h-9v4.2h4.1v0v1.8c-0.9,0.4-2,0.8-4,0.8c-3.6,0-5.5-2.7-5.5-5.9
		c0-3.2,1.8-5.8,5.2-5.8c2.1,0,3.5,0.9,4.5,2.2l3.8-3.3c-1.8-2.3-4.6-3.7-8.3-3.7c-5.9,0-11,4.3-11,10.5S161.1,70.3,167.1,70.3z"/>
	<polygon class="st0" points="193.7,65.4 184.4,65.4 184.4,63.3 191.8,63.3 191.8,58.9 184.4,58.9 184.4,54.1 193.3,54.1 
		193.3,49.5 178.9,49.5 178.9,49.5 178.9,70.1 193.7,70.1 	"/>
	<polygon class="st0" points="210.7,65.4 201.9,65.4 201.9,49.5 196.4,49.5 196.4,49.5 196.4,70.1 210.7,70.1 	"/>
	<path class="st0" d="M118.8,68.3h7.8l0.8,1.8h5.7l-10-21c-0.1-0.2-0.3-0.2-0.4,0l-10,21h5.4L118.8,68.3z M122.6,59.4l2.1,4.8h-4.2
		L122.6,59.4z"/>
	<path class="st0" d="M140.1,59.8l12.9,10.6c0.3,0.3,0.4,0.2,0.4-0.1V49.5h-5.2v10.3l-12.9-10.7c-0.3-0.3-0.4-0.1-0.4,0.1v20.9
		l5.2,0V59.8z"/>
	<path class="st0" d="M100.3,70.4c5.5,0,7.8-2.7,7.8-6.5c0-2.9-1.4-4.9-5.5-6.2l-2.7-0.9c-1-0.3-1.5-0.7-1.5-1.5
		c0-0.8,0.7-1.4,2-1.4c1.6,0,2.5,0.6,3.4,1.5l3.2-3.3c-1.2-1.4-3.2-2.7-6.8-2.7c-3.7,0-7,2.1-7,6.1c0,3.4,2.1,5.2,5.1,6.2l2.4,0.8
		c1.4,0.5,2,0.9,2,1.8c0,1.2-1,1.6-2.6,1.6c-2.1,0-3.3-1-4.3-2.2l-4,3C93,68.3,95.6,70.4,100.3,70.4z"/>
	<polygon class="st0" points="91.7,66.6 91.7,66.6 91.7,66.6 	"/>
	<path class="st0" d="M172.2,136.6c-2.7,3.4-5.1,7-7.4,10.8l21,23.3c7-13.9,17.3-24.9,30.9-32.8v67l0,0l0,11.3L106.1,93.8v28.7
		c25.5,22.8,67.8,63.8,93.8,87.1v1.5L114.7,136v18.3h0c25.9,19.6,58.9,46.1,85.2,66v1.5l-76.5-57.2v17.1
		c25.4,15.3,52,33.1,76.5,47.8v1.7l-67.8-40.6v13.8c29.9,15.1,54.9,28.8,84.5,43.6v8.6l0,0v27.7l29,0V94.8
		C213.3,98.2,188.8,114.4,172.2,136.6z"/>
	<path class="st0" d="M242.1,319.1c1.1-0.5,1.9-1.4,1.9-3.3c0-2.6-2.2-4.1-5.6-4.1h-6.9v17h7.2c4.2,0,6.7-1.8,6.7-5.1
		C245.5,320.9,243.9,319.6,242.1,319.1z M235.9,315.2h2.2c1,0,1.4,0.6,1.4,1.4c0,0.8-0.4,1.3-1.4,1.3l-2.2,0V315.2z M238.6,325h-2.7
		v-3.8h2.7c1.7,0,2.3,0.7,2.3,1.9C240.9,324.3,240.4,325,238.6,325z"/>
	<polygon class="st0" points="228.1,65.4 218.7,65.4 218.7,63.3 226.2,63.3 226.2,58.9 218.7,58.9 218.7,54.1 227.7,54.1 
		227.7,49.5 213.2,49.5 213.2,49.5 213.2,70.1 228.1,70.1 	"/>
	<path class="st0" d="M237.6,70.4c5.5,0,7.8-2.7,7.8-6.5c0-2.9-1.4-4.9-5.5-6.2l-2.7-0.9c-1-0.3-1.5-0.7-1.5-1.5
		c0-0.8,0.7-1.4,2-1.4c1.6,0,2.5,0.6,3.4,1.5l3.2-3.3c-1.2-1.4-3.2-2.7-6.8-2.7c-3.7,0-7,2.1-7,6.1c0,3.4,2.1,5.2,5.1,6.2l2.4,0.8
		c1.4,0.5,2,0.9,2,1.8c0,1.2-1,1.6-2.6,1.6c-2.1,0-3.3-1-4.3-2.2l-4,3C230.4,68.3,233,70.4,237.6,70.4z"/>
	<polygon class="st0" points="205.5,311.6 200.9,311.6 200.9,328.6 212.7,328.6 212.7,324.8 205.5,324.8 	"/>
	<path class="st0" d="M191.7,324.9c-2.6,0-4.2-2.1-4.2-4.8c0-2.7,1.5-4.7,4-4.7c2.1,0,3.2,1,3.8,2l3.4-2.3c-1.4-2.1-3.7-3.6-7.3-3.6
		c-4.5,0-8.6,3.6-8.6,8.7c0,5.1,4.1,8.7,8.8,8.7c3.4,0,5.8-1.2,7.5-4l-3.5-2.2C195,323.9,193.9,324.9,191.7,324.9z"/>
	<polygon class="st0" points="229.1,66.6 229.1,66.6 229.1,66.6 	"/>
	<path class="st0" d="M0,0l0,300.4c0.1,48.4,7.4,70.6,75.7,82.1c3.2,0.5,6.2,1,9.1,1.5c20.5,3.2,39.8,6.3,56.5,21.3v0l8.3,7.5
		l8.3-7.5c16.7-15,36-18,56.5-21.3l1.2-0.2c2.6-0.4,5.2-0.8,7.9-1.3c37.4-6.3,47.3-12.5,59.1-23c15.2-13.4,16.5-40.7,16.6-59.1
		L299.2,0H0z M221.5,370.2c-3.1,0.5-6.1,1-9,1.5c-21.4,3.4-43.4,6.9-62.9,24.3c-19.4-17.4-41.5-20.9-62.9-24.3
		c-2.9-0.5-5.9-0.9-9-1.5c-65.4-11-65.3-30.2-65.3-69.8l0-287.9h274.2l0.1,288C286.6,340,286.9,359.2,221.5,370.2z"/>
	<path class="st0" d="M224.2,322c0,1.9-0.9,3-2.8,3c-1.9,0-2.8-1.1-2.8-3v-10.4H214v10.4h0c0,4.6,3.1,6.8,7.4,6.8
		c4.2,0,7.4-2.2,7.4-6.8v-10.4h-4.5V322z"/>
	<path class="st0" d="M145.9,222.3c0,12.2,1.1,23.1,2.4,31.8c1.2,6.4,4.1,20.4,8.1,29.9h29.1c0,0-7.8-21.7-10.1-47.6
		c-0.4-0.2-0.8-0.4-1.2-0.6h0C165.2,231.6,156,227.2,145.9,222.3z"/>
	<path class="st0" d="M142.8,311.3l-8.3,17.3h4.4l0.6-1.4h6.4l0.6,1.4h4.7l-8.2-17.3C143,311.2,142.9,311.2,142.8,311.3z
		 M141.1,323.8l1.7-3.9l1.7,3.9H141.1z"/>
	<polygon class="st0" points="157.5,311.6 152.9,311.6 152.9,328.6 164.7,328.6 164.7,324.8 157.5,324.8 	"/>
	<polygon class="st0" points="171.3,311.6 166.8,311.6 166.8,328.6 178.6,328.6 178.6,324.8 171.3,324.8 	"/>
</g>
</svg>
