<svg xmlns="http://www.w3.org/2000/svg" viewBox="0 0 173.46 21.99"><defs><style>.cls-1{fill:#fff;}</style></defs><title>lionsgate</title><g id="Layer_2" data-name="Layer 2"><g id="Layer_1-2" data-name="Layer 1"><g id="g4277"><g id="g4283"><path id="path4285" class="cls-1" d="M137.25,4.86h6.28V21.32h4.54V4.86h6.28V.67H137.25ZM67.13,13.38,57.46.67H53.27V21.32h4.48V8.19l10,13.13h3.86V.67H67.13ZM106,14h6c-.28,1.57-1.82,3.88-5.67,3.88A6.78,6.78,0,0,1,99.52,11a6.72,6.72,0,0,1,6.88-6.86,6.94,6.94,0,0,1,5.86,3.26l3.52-2.18A10.85,10.85,0,0,0,106.4,0,11.09,11.09,0,0,0,95.21,11a10.91,10.91,0,0,0,11,11c5.74,0,10.24-4.13,10.24-9.7V9.88H106ZM86.73,9.47C83.76,8.36,80.81,8,80.81,6c0-1.15,1.2-2,3.75-2a16.57,16.57,0,0,1,7.06,2.09V1.66A18.9,18.9,0,0,0,84.27,0c-5,0-8.36,2.52-8.36,6.19,0,4,3.41,5.42,5.79,6.31,3,1.11,5.83,1.52,5.83,3.51,0,1.15-1.37,2-3.91,2a17,17,0,0,1-7.1-2.09v4.42A18.32,18.32,0,0,0,83.9,22c5,0,8.53-2.53,8.53-6.19,0-4-3.32-5.43-5.69-6.33M38.17,17.66A6.52,6.52,0,0,1,31.68,11a6.55,6.55,0,1,1,13.1-.05,6.52,6.52,0,0,1-6.61,6.73M38.22,0A10.9,10.9,0,0,0,27.34,10.88,10.91,10.91,0,1,0,38.22,0M4.54.67H0V21.32H14.8V17.19H4.54ZM171.9,17.28h-9.65V12.94h8.84c-.07-.72-.1-1.45-.1-2.2s0-1.23.08-1.84h-8.82V4.71h9.55a22.92,22.92,0,0,1,1.51-4H157.74V21.32h15.71a23.72,23.72,0,0,1-1.56-4m-153.38,4h4.54V.67H18.52Zm106.71-7.87L128.29,6l3.09,7.46Zm1-12.77-8.79,20.65H122l1.65-4.06h9.21l1.65,4.06h4.75L130.5.68Z"/></g></g></g></g></svg>