<svg xmlns="http://www.w3.org/2000/svg" viewBox="0 0 138.37 46.85"><defs><style>.cls-1{fill:#fff;}</style></defs><title>logix</title><g id="Layer_2" data-name="Layer 2"><g id="Layer_1-2" data-name="Layer 1"><path class="cls-1" d="M85.48,29.8c-.67,2.76-2.34,4.42-5,4.77a34.09,34.09,0,0,1-13.17-.41C62.88,33,60.54,30,60.41,25.41c-.06-2,0-3.92,0-5.88,0-5.54,2.69-8.73,8.14-9.78a25.7,25.7,0,0,1,4.81-.45c6.58,0,13.15,0,19.73,0,.91,0,1.24.17,1.24,1.18,0,8.65,0,17.3,0,26A15.74,15.74,0,0,1,94,39.27c-.86,4.59-4,7.3-9.16,7.49s-10.61,0-15.92.08c-.58,0-.72-.21-.71-.74,0-1.23.07-2.46,0-3.69,0-.76.26-.88.93-.88,4,0,8.07,0,12.11,0,.65,0,1.31,0,2,0,3.88-.3,5.15-1.67,5.15-5.56,0-6.81,0-13.61,0-20.42,0-.88-.19-1.18-1.13-1.16-5.38.11-10.77-.16-16.14.16-3.5.21-4.89,1.72-4.94,5.2,0,1.81,0,3.62,0,5.42.12,2.72,1.33,4,4,4.51a18.58,18.58,0,0,0,3.34.16Z"/><path class="cls-1" d="M5.86,13.61q0,5.71,0,11.41A17.94,17.94,0,0,0,6,26.87a2.73,2.73,0,0,0,2.32,2.64,16,16,0,0,0,3.9.31c3.92,0,7.84,0,11.76,0,1.12,0,1.12.36.73,1.17a6.27,6.27,0,0,1-5,3.59,39.05,39.05,0,0,1-12.51-.08C2.44,33.66.19,31,.09,25.78-.07,17.44,0,9.1,0,.76,0,.11.28,0,.84,0,2.22,0,3.61.07,5,0c.75,0,.88.26.88.93C5.84,5.16,5.86,9.38,5.86,13.61Z"/><path class="cls-1" d="M57.9,18.9c-.18-4.89-2.59-8-7.4-8.93a47.78,47.78,0,0,0-18,0c-4.71.89-7,3.63-7.45,8.4a39.28,39.28,0,0,0,0,7.37c.47,5,2.83,7.58,7.75,8.67a40.22,40.22,0,0,0,8.61.53,40.36,40.36,0,0,0,8.84-.56c5-1.13,7.51-4.13,7.66-9.24C58,23.05,58,21,57.9,18.9Zm-6,7.05a3.85,3.85,0,0,1-3.47,3.6,12.5,12.5,0,0,1-1.75.22c-.44,0-.88,0-1.31,0h0c-1.31,0-2.63-.07-3.94,0-1.41-.08-2.82,0-4.24,0-.43,0-.85,0-1.28-.06a12.33,12.33,0,0,1-1.27-.16c-2.49-.46-3.7-1.79-3.79-4.32-.07-2.07-.07-4.15,0-6.22.08-2.7,1.43-4.25,4.14-4.48a74,74,0,0,1,12.88,0c2.55.22,3.82,1.47,4.09,4A30.26,30.26,0,0,1,51.94,25.95Z"/><rect class="cls-1" x="97.81" y="0.39" width="5.83" height="5.83"/><path class="cls-1" d="M137.66,33.6q-6-6-12.08-11.89c-.56-.54-.63-.86,0-1.43,2.45-2.34,4.85-4.72,7.25-7.11,1.24-1.23,2.43-2.5,3.76-3.87-2.6,0-5,0-7.49,0-.5,0-.75.34-1,.63-2.14,2.1-4.3,4.18-6.38,6.34-.69.72-1.05.64-1.69,0-1.39-1.48-2.88-2.89-4.33-4.31a7.33,7.33,0,0,0-2.39-1.77c-2.61-1-5.32-.81-8-.83,0,.5.35.63.55.84,3.45,3.4,6.89,6.81,10.37,10.17.6.57.56.87,0,1.42-2.58,2.47-5.11,5-7.66,7.51L103.61,34V32.83q0-8.94,0-17.89h0V9.11H97.81s0,16.69,0,24.46c0,.8.21,1,1,1q5.65-.06,11.3,0a2.18,2.18,0,0,0,1.7-.73c2.74-2.75,5.54-5.44,8.27-8.2.63-.63.94-.57,1.53,0,2.77,2.78,5.58,5.51,8.39,8.25.29.29.53.65,1,.64,2.44,0,4.88,0,7.36,0C138.3,34,137.92,33.85,137.66,33.6Z"/></g></g></svg>