<svg xmlns="http://www.w3.org/2000/svg" viewBox="0 0 138.83 62.51"><defs><style>.cls-1{fill:#fff;}</style></defs><title>metro</title><g id="Layer_2" data-name="Layer 2"><g id="Layer_1-2" data-name="Layer 1"><path class="cls-1" d="M25.71,0A25.71,25.71,0,1,0,51.42,25.71,25.71,25.71,0,0,0,25.71,0ZM23,41.26S17.2,24.73,16.87,23.84V41.26H10.41V10.41h7.94L28.74,41.26Zm18.32,0H34.79V23.84c-.25.68-3.78,10.85-4.94,14.28l-2.9-8.64,6.38-19.08h8Z"/><path class="cls-1" d="M97.8,57.62A9.89,9.89,0,0,1,95,59a5.51,5.51,0,0,1-1.73.24A3.72,3.72,0,0,1,90,57.54a4.2,4.2,0,0,1-.49-2.17h9.83v-1.7c0-4-2.6-6.81-6.33-6.81-4.31,0-7.56,3.53-7.56,8.22,0,4.52,2.87,7.44,7.3,7.44a11.87,11.87,0,0,0,4.93-1.05c.35-.15.88-.4,1.61-.79l.09,0L97.9,57.56Zm-5-7.72c1.7,0,2.41.82,2.52,2.9H89.76C90.09,51,91.19,49.9,92.79,49.9ZM72.33,56.47l-5.1-14.89h-5.4V62.2h3.92v-13l4.61,13h3.93c1.53-4.44,4.43-12.4,4.6-12.87,0,1.48,0,12.87,0,12.87h3.95V41.57H77.4Zm37.53,1.21-.11.07a4.09,4.09,0,0,1-2,.9c-.47,0-.65-.27-.65-2v-6.4h3.22v-3h-3.22V42.78a1.79,1.79,0,0,0-.12-.6l-3.72.6v4.5l-2.21.38v2.58h2.21v9c0,2.25,1,3.29,3,3.29a7,7,0,0,0,3.37-1l.48-.29,1-.62,0-.08ZM120.52,47c-1.12,0-2,.85-3.43,3.17,0-.57-.14-2.94-.14-2.94h-3.51V62.18h4V55.3a4,4,0,0,1,1-2.73,2.49,2.49,0,0,1,1.77-1.06,1.62,1.62,0,0,1,1.07.42l.13.09,1.28-3.85,0,0A2.78,2.78,0,0,0,120.52,47Zm10.73-.19a7.53,7.53,0,0,0-7.58,7.81,7.59,7.59,0,1,0,15.16,0A7.53,7.53,0,0,0,131.24,46.86Zm0,12.45c-1.87,0-3.4-2.08-3.4-4.64s1.57-4.6,3.4-4.6,3.41,2.1,3.41,4.6S133.12,59.3,131.24,59.3Zm4.89-12.51h.17V45.55h.54v-.16h-1.25v.17h.54Zm1.27-1.25.45,1.25h.23l.44-1.26s0,1.14,0,1.26h.16V45.38h-.29L138,46.64l-.43-1.26h-.29V46.8h.16Z"/></g></g></svg>