<svg xmlns="http://www.w3.org/2000/svg" viewBox="0 0 158.73 22.27"><defs><style>.cls-1{fill:#fff;}</style></defs><title>motiv</title><g id="Layer_2" data-name="Layer 2"><g id="Layer_1-2" data-name="Layer 1"><path class="cls-1" d="M96.23.26H77.09a1.28,1.28,0,0,0-1.31,1.31,1.28,1.28,0,0,0,1.31,1.31h8.27V20.71A1.28,1.28,0,0,0,86.66,22,1.31,1.31,0,0,0,88,20.71V2.87h8.27a1.28,1.28,0,0,0,1.31-1.31A1.28,1.28,0,0,0,96.23.26Z"/><path class="cls-1" d="M20.62.26a1.34,1.34,0,0,0-1.48.7L10.79,17.75,2.52,1A1.4,1.4,0,0,0,1,.22,1.31,1.31,0,0,0,0,1.48V20.62a1.28,1.28,0,0,0,1.31,1.31,1.28,1.28,0,0,0,1.31-1.31V7.09l7,14.14a1.36,1.36,0,0,0,1.17.74,1.27,1.27,0,0,0,1.17-.7L19,7V20.66a1.31,1.31,0,1,0,2.61,0V1.52A1.26,1.26,0,0,0,20.62.26Z"/><path class="cls-1" d="M158,.44a1.25,1.25,0,0,0-1.74.57l-8.35,16.79L139.65,1a1.3,1.3,0,0,0-2.35,1.13l9.44,19.14a1.36,1.36,0,0,0,1.17.74,1.23,1.23,0,0,0,1.13-.7l9.53-19.14A1.25,1.25,0,0,0,158,.44Z"/><path class="cls-1" d="M116.9.26a1.28,1.28,0,0,0-1.31,1.31V20.71A1.28,1.28,0,0,0,116.9,22a1.34,1.34,0,0,0,1.31-1.31V1.57A1.28,1.28,0,0,0,116.9.26Z"/><path class="cls-1" d="M49.77,0A11.14,11.14,0,1,0,60.91,11.14,11.16,11.16,0,0,0,49.77,0Zm0,19.66a8.53,8.53,0,1,1,8.53-8.53A8.54,8.54,0,0,1,49.77,19.66Z"/></g></g></svg>