<?xml version="1.0" encoding="utf-8"?>
<!-- Generator: Adobe Illustrator 20.1.0, SVG Export Plug-In . SVG Version: 6.00 Build 0)  -->
<svg version="1.1" id="Layer_1" xmlns="http://www.w3.org/2000/svg" xmlns:xlink="http://www.w3.org/1999/xlink" x="0px" y="0px"
	 viewBox="0 0 175.8 28.6" style="enable-background:new 0 0 175.8 28.6;" xml:space="preserve">
<style type="text/css">
	.st0{fill:#fff;}
</style>
<g>
	<polygon class="st0" points="44,0.5 50.6,0.5 57.9,12.2 65.1,0.5 71.7,0.5 71.7,28.1 65.7,28.1 65.7,10.1 57.9,21.9 57.7,21.9 
		50,10.2 50,28.1 44,28.1 	"/>
	<path class="st0" d="M73.5,24.1l3.6-4.3c2.5,2.1,5.1,3.4,8.3,3.4c2.5,0,4-1,4-2.6v-0.1c0-1.5-0.9-2.3-5.6-3.5
		c-5.6-1.4-9.2-3-9.2-8.5V8.4c0-5,4-8.3,9.7-8.3c4,0,7.5,1.3,10.3,3.5l-3.2,4.6c-2.5-1.7-4.9-2.7-7.2-2.7c-2.3,0-3.6,1.1-3.6,2.4
		v0.1c0,1.8,1.2,2.4,6,3.6c5.6,1.5,8.8,3.5,8.8,8.3V20c0,5.5-4.2,8.6-10.2,8.6C81,28.5,76.8,27.1,73.5,24.1"/>
	<polygon class="st0" points="97.7,0.5 103.3,0.5 116.3,17.5 116.3,0.5 122.3,0.5 122.3,28.1 117.1,28.1 103.7,10.6 103.7,28.1 
		97.7,28.1 	"/>
	<path class="st0" d="M126,0.5h12.8c3.2,0,5.7,0.9,7.2,2.5c1.3,1.3,1.9,2.8,1.9,4.7v0.1c0,3.1-1.7,4.9-3.6,6
		c3.2,1.2,5.2,3.1,5.2,6.8v0.1c0,5.1-4.1,7.6-10.4,7.6H126V0.5z M137.5,11.7c2.7,0,4.4-0.9,4.4-2.9V8.7c0-1.8-1.4-2.8-4-2.8h-6v5.8
		H137.5z M139.1,22.8c2.7,0,4.3-0.9,4.3-3v-0.1c0-1.9-1.4-3-4.5-3h-7v6.1H139.1z"/>
	<path class="st0" d="M150.3,14.4L150.3,14.4c0-7.9,5.9-14.4,14.4-14.4c5.2,0,8.3,1.7,10.9,4.3l-3.9,4.5c-2.1-1.9-4.3-3.1-7.1-3.1
		c-4.7,0-8,3.9-8,8.6v0.1c0,4.7,3.3,8.7,8,8.7c3.2,0,5.1-1.3,7.3-3.2l3.9,3.9c-2.8,3-6,4.9-11.3,4.9
		C156.3,28.6,150.3,22.3,150.3,14.4"/>
	<g>
		<path class="st0" d="M11.7,12.6L17.5,26L5.5,17.7c-3-2-2.4-5.4-0.7-6.9C7.1,8.8,10.5,9.5,11.7,12.6z"/>
		<path class="st0" d="M19.7,9.5l-2.1,15l-6-14.2c-1.3-3.6,1.6-5.9,3.6-5.9C17.4,4,20.2,5.7,19.7,9.5z"/>
		<path class="st0" d="M28.9,10.2l-6,14.3L21,11.5c-0.2-2,1.1-2,1.5-2.4c-0.1-0.3-0.7-0.3-0.7-0.3h-1.1c-0.1-3.4,2.5-4.8,4.6-4.7
			C27.5,4.3,30.1,7,28.9,10.2z"/>
		<path class="st0" d="M35,17.6L23,25.9l5.7-13.2c1.7-4.2,5.7-3.4,7.2-1.8C37.3,12.5,37.8,15.7,35,17.6z"/>
		<path class="st0" d="M36.3,27.4H22.3l11.3-7.9c2.8-1.8,5.7-0.2,6.5,2.2C41,24.5,39.1,27.4,36.3,27.4z"/>
		<path class="st0" d="M0.2,21.6c1.1-2.8,4-3.8,6.6-2.1l11.3,7.9H4.4C1.5,27.4-0.7,24.8,0.2,21.6z"/>
	</g>
</g>
</svg>
