<svg xmlns="http://www.w3.org/2000/svg" viewBox="0 0 131.38 33.15"><defs><style>.cls-1{fill:#fff;fill-rule:evenodd;}</style></defs><title>nestle</title><g id="Layer_2" data-name="Layer 2"><g id="Layer_1-2" data-name="Layer 1"><path class="cls-1" d="M51.73,20.62c0-6.88-4.93-12.46-11.5-12.46s-11.9,5.58-11.9,12.46,5.33,12.46,11.9,12.46c6.11,0,9.61-3.15,11.16-8.14h0l-5.45,0h0a6.26,6.26,0,0,1-5.71,3.48c-3,0-5.43-2.45-6.16-5.78h17.5a13.14,13.14,0,0,0,.15-2ZM34.18,18.17c.83-3.11,3.23-5.36,6.06-5.36s5.11,2.28,5.66,5.37H34.18Z"/><path class="cls-1" d="M128.47,24.94a2.91,2.91,0,1,0,2.91,2.91,2.91,2.91,0,0,0-2.91-2.91Zm0,5.57a2.61,2.61,0,0,1-2.63-2.66,2.62,2.62,0,1,1,2.63,2.66Z"/><path class="cls-1" d="M123,20.62c0-6.88-4.93-12.46-11.5-12.46S99.6,13.74,99.6,20.62s5.33,12.46,11.9,12.46c6.11,0,9.91-2.7,11.16-8.14h0l-5.45,0h0a6.26,6.26,0,0,1-5.71,3.48c-3,0-5.43-2.45-6.16-5.78h17.5a13.14,13.14,0,0,0,.15-2Zm-17.55-2.45c.83-3.11,3.23-5.36,6.06-5.36s5.11,2.28,5.66,5.37H105.44Z"/><polygon class="cls-1" points="73.54 0.38 19.61 0.38 19.61 22.81 19.52 22.81 6.06 0.38 0 0.38 0 32.41 6.17 32.41 6.17 11.36 6.26 11.36 19.17 32.41 25.78 32.41 25.78 4.98 73.57 4.98 73.54 0.38 73.54 0.38 73.54 0.38"/><path class="cls-1" d="M59.19,14.84c0-1,1.14-2.89,4.49-2.89a4.53,4.53,0,0,1,4.84,3.58h5.14c-.48-6-5.75-7.75-10.33-7.75-7.31,0-9.47,4.71-9.47,8.14,0,8.77,14.94,5.2,14.94,10,0,2.07-1.3,2.92-5.12,2.92s-5.11-2-5.11-3.94H53.62c.18,6.26,4.95,8.21,10.28,8.21,4.6,0,10.57-1.33,10.57-8.16,0-9.08-15.38-5.57-15.27-10.15Z"/><path class="cls-1" d="M82.86.33H77V9.27H75.22v4.41H77v10h0c0,3,2.37,8.57,7.7,8.57,1,0,3.7-.09,3.7-.09h0V28H87.11c-2.21-.1-4.26-1.3-4.26-5.1h0V13.68h5.54V9.27H82.86V.33Z"/><polygon class="cls-1" points="91.04 32.41 97.21 32.41 97.21 0.38 91.04 0.38 91.04 32.41 91.04 32.41 91.04 32.41"/><polygon class="cls-1" points="121.61 0 100.78 2.3 100.78 4.91 121.61 4.91 121.61 0 121.61 0 121.61 0"/><path class="cls-1" d="M128.94,28a.91.91,0,0,0,.89-.91c0-.62-.34-1-1.12-1h-1.29v3.44h.3V28h.9l1,1.59H130l-1-1.58Zm-.5-.27h-.73V26.39h1c.41,0,.87.16.87.69s-.57.65-1.09.65Z"/></g></g></svg>