<svg xmlns="http://www.w3.org/2000/svg" viewBox="0 0 136.12 81.13"><defs><style>.cls-1{fill:#fff;}</style></defs><title>pressbros</title><g id="Layer_2" data-name="Layer 2"><g id="Layer_1-2" data-name="Layer 1"><path class="cls-1" d="M47.42,11.79c1.77-.55,2.61-1.68,2.36-3.25-.07-.44-.59-1.19-.84-1.16a10.58,10.58,0,0,0-2.38.72s0,.22,0,.33c.29,1.12.59,2.23.88,3.36m6.83,2.09c1.92,2,3.88,4,5.85,6a.87.87,0,0,1-.41,1.54c-2.23.5-4.48.93-6.73,1.31-.8.14-1-.37-.85-1.11.09-.47.26-1.08.06-1.42a21.29,21.29,0,0,0-2.08-2.82c-.1-.12-.61.11-1.22.25l2,4.51c.33.73.26,1.29-.62,1.52-1.42.38-2.83.81-4.27,1.12-1.05.23-1.52-.35-1.38-1.41a4.69,4.69,0,0,0-.1-1.81q-2-7-4-14.06A3.84,3.84,0,0,0,40,6.34c-.8-1.12-.65-1.72.72-2.2,1.66-.59,3.34-1.14,5-1.57,1.54-.4,3.13-.63,4.7-.91,2.3-.41,5.19,2.81,5.24,5.05.08,2.94,0,3.6-1.47,7.17"/><path class="cls-1" d="M5.74,36.11v2.7l.92-.08a13.53,13.53,0,0,0,3-.42,2.11,2.11,0,0,0,1.12-1.51c.07-.86-.81-.92-1.48-.9-1.17,0-2.34.13-3.55.21m-.1,14.06c.88-.61,1.41-.94,1.9-1.32C9,47.71,10.4,46.54,11,44.67c.37-1.23,0-1.87-1.3-1.82a24.58,24.58,0,0,0-3.46.49.83.83,0,0,0-.53.6c0,2,0,4,0,6.23M14.2,40c2.89,2.08,2.44,4.26,1.08,6.77-2.91,5.36-7.57,8.35-13.51,9.46a3.29,3.29,0,0,1-.59,0H0c2.21-2.29,1.58-4.95,1.46-7.55-.1-2.19,0-4.39-.08-6.58-.06-2.67-.09-5.34-.27-8a8.7,8.7,0,0,0-.89-2.32c1.08-.1,2.14-.29,3.21-.29a84.17,84.17,0,0,1,8.69.25c2.43.27,4.49,3.69,2.86,6.94-.23.45-.51.88-.77,1.31"/><path class="cls-1" d="M74.61,0c0,2,0,4,0,5.95,0,.63-.53.92-.94.47-1.72-1.92-3.92-1.05-6.05-1.25V6.92c1.75,0,3.5,0,5.25,0,.68,0,1.14,0,1.1.89-.06,1.52,0,3,0,4.7-2,0-3.76,0-5.55,0-.76,0-1.05.16-1,1A19,19,0,0,1,67.3,16c2.5-.37,5.14,1.11,7.29-1.26a1,1,0,0,1,.83-.26c.19.07.35.5.34.77,0,1.84-.1,3.69-.27,5.52,0,.27-.7.66-1.09.67-2,.06-4,0-6,0s-3.77-.14-5.65-.21c-1.27,0-1.57-.56-1.15-1.75A6.93,6.93,0,0,0,62,17.34q.08-7,0-13.92a5.14,5.14,0,0,0-.53-2C61.16.58,61.37,0,62.3,0c4,0,8.06,0,12.3,0"/><path class="cls-1" d="M85.18,54.68l-6,.37c0-.24-.1-.47,0-.52,1.57-1.36,1.39-3.22,1.36-5,0-1.44-.2-2.88-.32-4.39H74.9c0,2.52-.09,5,.05,7.44,0,.75.7,1.46,1.15,2.34H68.92c.11-.2.15-.41.28-.49a2.41,2.41,0,0,0,1.15-2.26c.07-5.11.21-10.22.2-15.33a29.56,29.56,0,0,0-.65-4.33h5.92c-1.56,2.36-.88,5-.86,7.57h5.36c-.5-2.48,1.11-5.16-1.23-7.43H86c-1.69,2.2-1.16,4.71-1.2,7.12q-.11,5.77-.05,11.54a26.89,26.89,0,0,0,.46,3.35"/><path class="cls-1" d="M100.21,29.51c-3.29,0-5.71-1.78-7.43-4.73a7.93,7.93,0,0,0-1.2-1.56c-.61-.62-.68-1.12.12-1.59,1.58-.93,3.16-1.88,4.77-2.76.9-.49,1.47-.08,1.51,1,0,.47,0,.95,0,1.41.12.89.43,1.77,1.43,1.89a3.82,3.82,0,0,0,2.24-.26,1.72,1.72,0,0,0,.53-2.48,52.26,52.26,0,0,0-3-5.14c-2.13-2.94.81-8,4.18-8.48a7.33,7.33,0,0,1,7,2.76c1.31,1.51,1.32,1.54-.18,2.9-.84.76-1.72,1.49-2.63,2.17s-1.6.26-1.79-.75a2.93,2.93,0,0,0-.28-1.1c-.15-.21-.56-.24-.86-.35-.06.31-.25.67-.15.92a3.17,3.17,0,0,0,.79,1.15,9.56,9.56,0,0,1,3,6.18c.34,3.21-1.15,5.65-3.75,7.43a7,7,0,0,1-4.36,1.44"/><path class="cls-1" d="M87.65,6.38c-.27,1.1.56,1.59,1.1,2.2a27.74,27.74,0,0,1,2.88,3.2c3.12,4.86.32,10.38-4.26,12.09a7.09,7.09,0,0,1-7.48-1.64c-1-.93-2.1-1.85-3.17-2.75-.43-.37-.59-.74-.13-1.17,1.46-1.37,2.91-2.75,4.4-4.08.64-.57,1.16-.33,1.4.46A6.89,6.89,0,0,1,82.61,16a2.25,2.25,0,0,0,1.67,2.17,2.22,2.22,0,0,0,2.55-1,2,2,0,0,0-.48-2.65,40.62,40.62,0,0,1-3.65-4.12,5.91,5.91,0,0,1-.32-6.46,5.11,5.11,0,0,1,4.69-3,8.08,8.08,0,0,1,5.76,1.84A2,2,0,0,0,93.1,3l1.22.68a11.28,11.28,0,0,1-.91,1.48c-.88,1.05-1.8,2.08-2.76,3.06a1.48,1.48,0,0,1-1.09.45c-.23,0-.43-.57-.55-.91-.23-.67-.44-1.32-1.37-1.33"/><path class="cls-1" d="M39.2,43.84A10.3,10.3,0,0,0,39.92,48a3.7,3.7,0,0,0,3.2,2.74c1.8.26,3.41-.18,4.22-2a11.27,11.27,0,0,0-.1-9.82,3.67,3.67,0,0,0-3.89-2.07c-3.43.08-4.12,4.67-4.15,7M52,49c-1.06,4-4.24,6.14-8.45,6.16-2.47,0-7.39-1.3-8.54-10.77a14.36,14.36,0,0,1,.4-5c1.27-4.44,4.41-7.07,8-7.16a9,9,0,0,1,5.48,1.84c2.51,1.79,3.52,4.6,3.74,7.66,0,.67,0,1.34,0,2A27.13,27.13,0,0,1,52,49"/><path class="cls-1" d="M24.37,41.84l.24.23a19.26,19.26,0,0,0,2.17-2.51,3.35,3.35,0,0,0,.63-2.42c-.37-1-1.5-.33-2.33-.34s-1,.42-1,1.17c.11,1.29.18,2.58.27,3.88m1.46,4.7a1.53,1.53,0,0,0-1.32,1.88c.14,1.6.12,3.21.27,4.81a7.81,7.81,0,0,0,.67,1.8H19.2c1.21-1.5,1.08-3.11,1.06-4.69-.06-5-.11-10-.26-15a8.45,8.45,0,0,0-1-2.48c-.08.1,0,0,0,0,3-.1,6-.33,9.06-.26a4.33,4.33,0,0,1,4.05,6.05c-.65,1.37-1.4,2.69-2.06,4A2,2,0,0,0,29.81,44c.94,2.72,1.92,5.42,3,8.09a18.73,18.73,0,0,0,1.68,2.7l-7.15.34c2-2,.43-3.61-.12-5.28-.37-1.1-.9-2.15-1.38-3.28"/><path class="cls-1" d="M109,41.84l.24.23a19.26,19.26,0,0,0,2.17-2.51,3.35,3.35,0,0,0,.63-2.42c-.37-1-1.5-.33-2.33-.34s-1,.42-1,1.17c.11,1.29.18,2.58.27,3.88m1.46,4.7a1.53,1.53,0,0,0-1.32,1.88c.14,1.6.12,3.21.27,4.81a7.82,7.82,0,0,0,.67,1.8h-6.25c1.21-1.5,1.08-3.11,1.06-4.69-.06-5-.11-10-.26-15a8.45,8.45,0,0,0-1-2.48c-.08.1,0,0,0,0,3-.1,6-.33,9.06-.26a4.33,4.33,0,0,1,4.05,6.05c-.65,1.37-1.4,2.69-2.06,4a2,2,0,0,0-.29,1.26c.94,2.72,1.92,5.42,3,8.09a18.73,18.73,0,0,0,1.68,2.7l-7.15.34c2-2,.43-3.61-.12-5.28-.37-1.1-.9-2.15-1.38-3.28"/><path class="cls-1" d="M119.32,52.85l4.29-5.45c.18.13.29.18.29.22-.2,2.88,3,3.83,5,3.36a2.4,2.4,0,0,0,1.2-4,32.31,32.31,0,0,0-3.58-3A10.25,10.25,0,0,1,123,39.4c-1.5-4,.81-6.72,4.14-7.71a5.81,5.81,0,0,1,5.5,1.08,11.34,11.34,0,0,0,2.71,1.09L131.21,40c-.2-.83-.33-1.37-.45-1.9a6.37,6.37,0,0,0-.3-1.25,1.7,1.7,0,0,0-2.16-.62,1.14,1.14,0,0,0-.14,1.75,13.42,13.42,0,0,0,2,1.94c1.29,1.13,2.64,2.2,3.92,3.35,3.42,3.08,2.46,9.74-2.13,11.92a8.53,8.53,0,0,1-7.38.13c-1.76-.77-3.48-1.64-5.24-2.48"/><path class="cls-1" d="M87.08,32.49h13.67v5.7l-.22.22c-1.93-3-4.65-1.52-7.19-1.55v3.55h6.35c-.06,1.34-.12,2.61-.18,4l-6.17.31V50.6c2.82-.46,5.69.67,8.61-.68,0,.4.05.87.06,1.34,0,.86,0,1.73,0,2.59.07,1-.14,1.33-1.35,1.3-4.15-.1-8.31,0-12.46.07A9.12,9.12,0,0,1,86.87,55c1.88-1,1.65-2.61,1.68-4.12.05-3.93.11-7.86.23-11.79.07-2.31-.05-4.53-1.87-6.31l.18-.29"/><path class="cls-1" d="M32.38,17.12a2.71,2.71,0,0,0,1.76-2.76c0-1.45-1-2.05-2.19-1.35a15.62,15.62,0,0,0-1.34.94l1.77,3.17m3,5.06c.87,1.58,1.31,3.22,3,4.08.71.37.4,1.15-.23,1.52-1.34.79-2.72,1.5-4.08,2.26-.74.41-1.05.07-1.26-.62a14.29,14.29,0,0,0-1-2.83C29.62,22.7,27.36,18.85,25.1,15A5.65,5.65,0,0,0,24,14c-.49-.47-.9-1-.18-1.54s1.52-1.13,2.32-1.64c1.16-.76,2.31-1.55,3.54-2.18a21.38,21.38,0,0,1,3.57-1.47,4.54,4.54,0,0,1,4.81,2.19c2.15,3.71,2,10-2.25,12.56-.14.08-.26.18-.45.31"/><path class="cls-1" d="M64.27,55.08c-2.44-.41-4.77.63-7.47-.16,1.67-.86,1.77-2.1,1.78-3.43,0-3.41.09-6.83.13-10.25,0-1.29,0-2.57,0-4-1.79,0-3.48-.12-4.93,1.12l-.27-.16c.11-1.69.19-3.38.34-5.06,0-.19.43-.49.66-.49,4.52,0,9,0,13.73,0V38a5.87,5.87,0,0,0-5-.73c0,5.15,0,10.17,0,15.2a9.24,9.24,0,0,0,.94,2.59"/><path class="cls-1" d="M56.69,64l-.39,5.71c.5-1,.86-2,1.37-2.83,1.13-1.9,3-2.52,5.06-2.63.94,0,1.89,0,2.83,0,.74,0,1,.31,1,1,0,.9-.05,1.81-.17,2.7-.09.66-.41,1.12-1.19.63-1.58-1-2.84-1.06-3.72-.28-1.33,1.18-1.42,2.6-.69,4.21,1,3,4.38,3.57,4.82,3.74a2.61,2.61,0,0,1,1.6,1.08c.34.6.2.92.2,1.71v1.38c-3.69.84-9.14-3.67-10.93-9,.24,2.93-.77,6,.83,8.76H52c1.55-4.6.58-9.15.76-13.64a.83.83,0,0,0,0-.12q-.1-1.11-.2-2.22c.77-.05,1.54-.12,2.31-.15.51,0,1,0,1.76,0"/><path class="cls-1" d="M84.11,71.28c.54-.88,1.08-2.64,1.68-3.62-2.11-.79-2.28.16-1.68,3.62m8.14,9.28c-.53,0-1.06,0-1.59,0-1.38,0-2.81.06-4.36,0,1.15-2.27-.53-4-1-5.83-1.05-.46-1.44,1.83-1.25,3.54.08.71.47.92.53,1.59a.84.84,0,0,1-.77.94,16.33,16.33,0,0,1-3.41-.07c-.25,0-.66-.78-.58-1.1,1-4.18.37-8.43.57-12.64a3.69,3.69,0,0,0-.45-1.52c-.32-.73-.41-1.33.62-1.43,2.53-.25,5.06-.55,7.59-.67,1.41-.07,2.38,1.21,2.26,2.85A8.21,8.21,0,0,1,88.74,71a2.27,2.27,0,0,0-.26,2.93c.79,1.44,1.35,3,2.08,4.49.15.32.62.46.91.73s1.28,1,.78,1.41"/><path class="cls-1" d="M79.11,75.61c0,1.42.07,2.85-.07,4.26,0,.25-.92.6-1.4.59-2.43,0-4.86-.12-7.29-.2-.2,0-.39,0-.59,0-1.89.1-1.71.12-1.57-1.85.23-3.2.24-6.42.25-9.63,0-1.1-.31-2.2-.39-3.31,0-.27.29-.57.49-.83a.46.46,0,0,1,.33-.11H78c.1.87.27,1.94.31,3s-.86.69-1.38.68c-1.32,0-2.64-.16-4-.2-.32,0-1.12.32-.89.67s3.6.24,5.36.24a17.85,17.85,0,0,0,0,3.2c.15.88-.21.83-.78.79l-4.46-.29a18.07,18.07,0,0,0-.25,3c0,.31.76.82,1.16.81,1.83,0,3.79.55,5.41-.87.06-.06.23,0,.5,0"/><path class="cls-1" d="M47.55,74.16c0-2.52,0-4.9,0-7.26,0-.87-.44-1.72-.48-2.59,0-.32.55-1,.84-1a17.77,17.77,0,0,1,3.36.38c.21,0,.47.61.45.92-.06.91-.36,1.82-.38,2.73-.05,3,0,6,0,9,0,1,.17,1.94.23,2.91s-.24,1.43-1.22,1.11a10.53,10.53,0,0,1-2.68-1.07c-2.59-1.75-5.1-3.55-6.71-6.42-1.44-2.57-1.4-5.22-1.18-8a5.53,5.53,0,0,0,0-1.48c-.21-1.07,0-1.45,1.1-1.31a24.31,24.31,0,0,1,2.83.62c.68.17,1,.65.49,1.21C43,65.35,43.2,67,43.5,68.48a8.29,8.29,0,0,0,4,5.68"/><path class="cls-1" d="M96.08,65.69c.62-1.71,2-3,2-5,0-.34.5-.88.89-1a17.12,17.12,0,0,1,3-.85c1-.19,1.33.24.92,1.22-.6,1.4-1.29,2.76-1.95,4.13-.8,1.66-1.62,3.3-2.38,5a3.82,3.82,0,0,0-.3,1.47c0,2.4-.07,4.8,0,7.19a3.9,3.9,0,0,0,.48,1.63c.38.75.27,1.26-.57,1.38a22.17,22.17,0,0,1-3.5.31c-1,0-1.37-1-.86-1.92a3.09,3.09,0,0,0,.44-1.37c.07-2.4.15-4.79.08-7.19a5.11,5.11,0,0,0-.79-2.26c-.72-1.24-1.56-2.43-2.4-3.6a10.39,10.39,0,0,0-1.29-1.31c-.75-.72-.7-1.24.26-1.54a24.35,24.35,0,0,1,3.29-.74,1,1,0,0,1,.76.51c.64,2.45.62,2.45,2,4"/><path class="cls-1" d="M35.55,66.58a26.33,26.33,0,0,0-.82-5.38c-.13-.76.22-1.12.88-1a19.31,19.31,0,0,1,3.26.86c.22.08.34.76.3,1.15-.07.64-.44,1.26-.45,1.89-.06,2.63,0,5.27,0,7.91A8.23,8.23,0,0,1,33,79.52c-1,.28-2,.62-3,.86s-1.49-.23-1.44-1.21a25.14,25.14,0,0,1,.27-2.91.94.94,0,0,1,.75-.55c2.57.49,4.37-.37,5.07-2.92a25.67,25.67,0,0,0,.9-6.2"/></g></g></svg>