<svg xmlns="http://www.w3.org/2000/svg" viewBox="0 0 89.9 64.56"><defs><style>.cls-1{fill:#fff;}</style></defs><title>rams</title><g id="Layer_2" data-name="Layer 2"><g id="Layer_1-2" data-name="Layer 1"><path class="cls-1" d="M64.92,64.56,54,58.41l.18-.33s.48-.87.73-1.48l.09-.21a3.77,3.77,0,0,0,.38-1.83A2.9,2.9,0,0,0,55,53.22a9.26,9.26,0,0,0-1.42-1.35L53,51.39l-1-.88a7.93,7.93,0,0,1-1.74,2.15l-1.89,1.62-1.48-2c-.13-.17-12.74-17-41.3-19.34L0,32.48l4.36-3.62c.73-.6,18-14.8,39.78-18.18l.59-.11A18.8,18.8,0,0,1,45.81,9c4.41-5.73,11.55-9,19.61-9A24.8,24.8,0,0,1,77.67,3a24.42,24.42,0,0,1,11,13.19,20,20,0,0,1,0,13.76,14.07,14.07,0,0,1-7,7.89,24.46,24.46,0,0,1,.4,4.33c0,.63,0,1.27-.09,1.92l-.08.89-.11.1L79.68,47a49.72,49.72,0,0,1-5.26,14.23l-.36.6-.63.3A36.23,36.23,0,0,1,68,63.74l-2.27.58ZM55,58.12l10,5.62.56-.15L67.86,63a36.22,36.22,0,0,0,5.24-1.52l.42-.2.24-.4A48.9,48.9,0,0,0,79,46.76l0-.12.09-.08,2.12-1.93.06-.6c.06-.62.08-1.25.08-1.85a23.84,23.84,0,0,0-.44-4.47l-.06-.29.27-.13A13.17,13.17,0,0,0,88,29.67c3.16-7.81,0-19.67-10.69-26A24,24,0,0,0,65.42.76c-7.82,0-14.75,3.18-19,8.71A18.05,18.05,0,0,0,45.3,11.1l-.09.14-.16,0-.78.15c-21.55,3.36-38.7,17.42-39.42,18L1.92,31.87l3.8.31A65.93,65.93,0,0,1,37.37,42.79a43.69,43.69,0,0,1,10.19,9l1,1.34,1.27-1.09a7.33,7.33,0,0,0,1.78-2.35l.22-.45.37.34,1.34,1.2.56.46a9.87,9.87,0,0,1,1.55,1.48l0,.06a3.63,3.63,0,0,1,.42,1.74,4.49,4.49,0,0,1-.44,2.13l-.08.2C55.42,57.3,55.17,57.8,55,58.12Z"/><path class="cls-1" d="M53.64,48.83l.14.13v0Z"/><path class="cls-1" d="M74.32,28.7l-.2.2.12-.12Z"/><path class="cls-1" d="M85.62,15.25C79-.76,60.79,2.43,60.79,2.43h.14l-.66.09a20.64,20.64,0,0,0-11.84,6.3C55.1,3.6,65.1,3,71.72,5.7A20.32,20.32,0,0,1,84.41,22.11a17.73,17.73,0,0,1-1.65,7.43A11.39,11.39,0,0,1,80,33a3.52,3.52,0,0,1-2,.79,1.45,1.45,0,0,1-.28,0h0a1,1,0,0,1-.25-.07c-.5-.23-.67-.83-1.82-2.44a23.44,23.44,0,0,0-1.73-2.11l.27-.26.13-.14a4.52,4.52,0,0,0,.3-.37,5.52,5.52,0,0,0,.7-1.32l0-.06c.06-.16.11-.33.16-.49a11.75,11.75,0,0,0-4.27-11.8C66.79,11.1,62,10.81,58.1,12.37c-6.54,2.62-10.5,10.5-5.83,16.94a5.77,5.77,0,0,0,8.24,1.57c2.14-1.64,3.58-6.67-1.69-9.37,4.24-.36,9.38,4.7,6.85,11.22A9.5,9.5,0,0,1,65,34.07c-3.67,6.19-13.68,5.5-18.5-.25a19.78,19.78,0,0,1-3.23-19.37c.16-.45.35-.91.54-1.35A73.59,73.59,0,0,0,12,29C39,34.6,48.82,50.91,48.82,50.91a6.48,6.48,0,0,0,1.85-3,8,8,0,0,1-1.05-6,12.28,12.28,0,0,0,1.92,4.67,26.89,26.89,0,0,0,2.1,2.17l.14.08v0A26.92,26.92,0,0,1,57,52c1.46,2.62-.06,5.59-.06,5.59l8.19,4.49c1.83-.52,6.1-1.45,7.28-2a47.4,47.4,0,0,0,5.14-14.26l2.14-2c.79-2.25-.61-7.16-.61-7.16l.53-.16A7.66,7.66,0,0,0,80.91,36C85.55,33.42,89.81,25.38,85.62,15.25ZM71.06,40.63a6.41,6.41,0,0,0,.14-1.69,6.53,6.53,0,0,1,1.27,2.69h-.08a1.53,1.53,0,0,0,0,3.07h0a4.65,4.65,0,0,1-.19.57,2.46,2.46,0,0,1-1.15-4.64Zm1.54,2.71,0,0a1.35,1.35,0,0,1-.07.52l-.05.12a.83.83,0,0,1-1-.48A.91.91,0,0,0,72.6,43.34Zm3.28.9a50.77,50.77,0,0,1-4.73,14.51,9.05,9.05,0,0,1-2.08.3s1.69-1.88,1-3.67a1.09,1.09,0,0,0-1-.67,1.12,1.12,0,0,0-.85.38,1.83,1.83,0,0,0-.1,2.09,3,3,0,0,0,.58-.64,1.91,1.91,0,0,1,0,1.07,4.47,4.47,0,0,1-3.33,2.71,10,10,0,0,1-1.12-.6c.24-.59.64-1.44.92-2.27.92-2.79.48-4.74-.38-5.93a36.86,36.86,0,0,0-3.45,1.85C62,54.78,63.1,56,62.3,58.77c0,.08-2.86-1.54-2.86-1.54a8.94,8.94,0,0,0,.21-4.3,6.24,6.24,0,0,0-.7-1.68,22.2,22.2,0,0,1,5.3-3.78,14.55,14.55,0,0,1,7.82,6.12A21.91,21.91,0,0,0,74,44.07l1.29-1.21c.55-7-4.21-12.91-4.21-12.91s6.49,5.17,6.3,13Z"/></g></g></svg>