<svg xmlns="http://www.w3.org/2000/svg" viewBox="0 0 173.07 43.45"><defs><style>.cls-1{fill:#fff;}</style></defs><title>ronhami</title><g id="Layer_2" data-name="Layer 2"><g id="Layer_1-2" data-name="Layer 1"><path class="cls-1" d="M0,33.26H6.32c2.17,0,3.46,1,3.46,2.76a2.86,2.86,0,0,1-2.62,2.8l2.76,4.36H8.41L5.65,38.84H1.37v4.35H0Zm6.24,4.42c1.39,0,2.11-.57,2.11-1.62s-.72-1.66-2-1.66H1.37v3.28Z"/><path class="cls-1" d="M25.68,38.26c0-3,2.41-5.21,5.71-5.21s5.73,2.19,5.73,5.21-2.44,5.19-5.73,5.19S25.68,41.28,25.68,38.26Zm10,0a4,4,0,0,0-4.3-4.05,4.05,4.05,0,1,0,0,8.08A4,4,0,0,0,35.69,38.26Z"/><path class="cls-1" d="M53.82,33.26h.72l7.16,7.42V33.26h1.37v9.93h-.7l-7.18-7.42v7.42H53.82Z"/><path class="cls-1" d="M80.65,33.26H82v3.92h6.51V33.26h1.37v9.93H88.55V38.33H82v4.86H80.65Z"/><path class="cls-1" d="M111.28,33.26h1.15l5.46,9.93H116.4l-1.49-2.67h-6.1l-1.45,2.67h-1.47Zm3,6.1L111.85,35l-2.41,4.4Z"/><path class="cls-1" d="M133.79,33.26h1.27l4.46,6.08L144,33.26h1.25v9.93H143.9V35.44l-4.38,5.87-4.38-5.87v7.75h-1.35Z"/><path class="cls-1" d="M162.79,33.21h1.39v10h-1.39Z"/><path class="cls-1" d="M172.6,33.55a1.38,1.38,0,0,1,.47,1,1.34,1.34,0,0,1-.47,1,1.75,1.75,0,0,1-1.16.44,1.68,1.68,0,0,1-1.15-.43,1.38,1.38,0,0,1-.48-1,1.42,1.42,0,0,1,.49-1,1.66,1.66,0,0,1,1.14-.42A1.69,1.69,0,0,1,172.6,33.55Zm-.12.11a1.53,1.53,0,0,0-1-.38,1.48,1.48,0,0,0-1,.38,1.26,1.26,0,0,0-.44.93,1.23,1.23,0,0,0,.43.92,1.51,1.51,0,0,0,1,.38,1.56,1.56,0,0,0,1-.39,1.17,1.17,0,0,0,.41-.91A1.23,1.23,0,0,0,172.48,33.66Zm-.21.52a.45.45,0,0,1-.44.44l.42.78h-.32l-.4-.74h-.44v.74h-.28V33.72h.69C172,33.72,172.26,33.86,172.26,34.18Zm-1.18-.29v.61h.35c.37,0,.54-.07.54-.29s-.17-.31-.54-.31Z"/><path class="cls-1" d="M58.77,19H81.51V12.18H78.05l-.18,3.22H62.4V3.54H77.85l.24,3.27h3.37V0H58.77Zm48.66.05V0H84.79V6.84h3.37l.23-3.25h15.46V15.42H88.38l-.24-3.27H84.78V19Z"/><path class="cls-1" d="M58.77,19V0H81.45V6.81H78.09l-.24-3.27H62.4V15.4H77.87l.18-3.22h3.45V19Z"/><path class="cls-1" d="M107.43,19H84.78V12.14h3.36l.24,3.27h15.46V3.59H88.39l-.23,3.25H84.79V0h22.64Z"/></g></g></svg>