<svg xmlns="http://www.w3.org/2000/svg" viewBox="0 0 114.74 56.05"><defs><style>.cls-1{fill:#fff;}</style></defs><title>santamonicaplaza</title><g id="Layer_2" data-name="Layer 2"><g id="Layer_1-2" data-name="Layer 1"><path class="cls-1" d="M2.08,2.16h-2V.32H6.38V2.16h-2V10H2.08Z"/><path class="cls-1" d="M7,.32H9.3V3.93h1.81V.32h2.27V10H11.11V5.85H9.3V10H7Z"/><path class="cls-1" d="M14.65.32h5.58V2.16H16.92V4.09H20V5.93H16.92v2.2h3.46V10H14.65Z"/><path class="cls-1" d="M24.66.32h3.51A2.63,2.63,0,0,1,31,3.25C31,5,30.2,6.2,27.93,6.2h-1V10H24.66Zm2.27,4.2h.62c.91,0,1.12-.57,1.12-1.22S28.43,2,27.51,2h-.58Z"/><path class="cls-1" d="M32,.32h2.27V8.13h3.28V10H32Z"/><path class="cls-1" d="M39.94.32h2.84L45.19,10H42.84l-.35-1.84H40.17L39.84,10H37.48Zm1.38,1.76h0l-.8,4.3h1.65Z"/><path class="cls-1" d="M45.39,8.29l3.27-6.14h-3V.32h5.62V1.91L48,8.13h3.31V10H45.39Z"/><path class="cls-1" d="M53.93.32h2.84L59.18,10H56.83l-.35-1.84H54.16L53.83,10H51.47Zm1.38,1.76h0l-.8,4.3h1.65Z"/><path class="cls-1" d="M2.46,10.88H5.3L7.7,20.53H5.35L5,18.69H2.69l-.34,1.84H0Zm1.38,1.76h0L3,16.93H4.66Z"/><path class="cls-1" d="M9,12.71h-2V10.88h6.33v1.84h-2v7.81H9Z"/><path class="cls-1" d="M19.17,17.58v.34c0,.73.2,1.28,1,1.28s1-.59,1-1.15c0-2.08-4.15-.92-4.15-4.53,0-1.54.82-2.84,3.16-2.84s3.08,1.15,3.08,2.64v.23H21.09a2,2,0,0,0-.19-1,.72.72,0,0,0-.69-.34c-.57,0-.91.34-.91,1,0,2,4.15,1,4.15,4.41,0,2.19-1.22,3.07-3.3,3.07-1.65,0-3.18-.5-3.18-2.51v-.62Z"/><path class="cls-1" d="M26.2,10.88H29l2.41,9.65H29.09l-.35-1.84H26.43l-.34,1.84H23.74Zm1.38,1.76h0l-.8,4.3H28.4Z"/><path class="cls-1" d="M32,10.88h2.61l1.87,6.27h0V10.88h2.11v9.65H36.08l-2-6.65h0v6.65H32Z"/><path class="cls-1" d="M41.32,12.71h-2V10.88h6.33v1.84h-2v7.81H41.32Z"/><path class="cls-1" d="M47.31,10.88h2.84l2.41,9.65H50.2l-.35-1.84H47.54l-.34,1.84H44.85Zm1.38,1.76h0l-.8,4.3h1.65Z"/><path class="cls-1" d="M.74,21.43H4.07l1.19,6.34h0l1.15-6.34H9.72v9.65H7.61V23.57h0L6.11,31.08H4.35L2.8,23.57h0v7.51h-2Z"/><path class="cls-1" d="M14.23,31.27c-3,0-3.39-1.95-3.39-5s.41-5,3.39-5c3.22,0,3.39,2.34,3.39,5S17.45,31.27,14.23,31.27Zm0-1.51c.92,0,1.05-.85,1.05-3.5s-.14-3.5-1.05-3.5-1,.85-1,3.5S13.33,29.76,14.22,29.76Z"/><path class="cls-1" d="M18.68,21.43h2.61l1.87,6.27h0V21.43h2.11v9.65H22.72l-2-6.65h0v6.65h-2Z"/><path class="cls-1" d="M26.6,21.43h2.27v9.65H26.6Z"/><path class="cls-1" d="M34.23,24.78c0-1.41-.16-2-.92-2s-1,.87-1,3.39c0,2.87.09,3.61,1,3.61s.93-1,.95-2.46H36.5v.34c0,2.08-.58,3.64-3.39,3.64S30,29.1,30,26.19c0-2.47.14-4.95,3.35-4.95,2,0,3.1.87,3.1,3.14v.41Z"/><path class="cls-1" d="M39.09,21.43h2.84l2.41,9.65H42l-.35-1.84H39.32L39,31.08H36.63Zm1.38,1.76h0l-.8,4.3h1.65Z"/><polygon class="cls-1" points="50.3 22.23 47.01 31.14 72.62 38.23 65.78 26.82 50.3 22.23"/><polygon class="cls-1" points="47.01 33.48 75.21 56.05 94.85 45.24 90.96 44.38 78.85 48.09 74.44 41.09 47.01 33.48"/><polygon class="cls-1" points="66.3 23.44 79.71 44.76 94.85 41.17 89.14 32.52 66.3 23.44"/><polygon class="cls-1" points="60.85 18.16 101.25 34.86 102.46 33.04 75.91 12.2 68.9 9.97 60.85 18.16"/><polygon class="cls-1" points="71.49 5.36 104.45 31.83 114.74 25.34 81.66 0 71.49 5.36"/></g></g></svg>