<svg xmlns="http://www.w3.org/2000/svg" viewBox="0 0 167.56 49.68"><defs><style>.cls-1{fill:#fff;}</style></defs><title>sapphire</title><g id="Layer_2" data-name="Layer 2"><g id="Layer_1-2" data-name="Layer 1"><path class="cls-1" d="M.89,17.8a.74.74,0,0,1-.29-.57.76.76,0,0,1,.74-.74.83.83,0,0,1,.49.17,9.32,9.32,0,0,0,6.75,2.6c3,0,5.06-1.69,5.06-4v-.06c0-2.12-1.12-3.35-5.67-4.26-4.81-1-6.75-2.6-6.75-5.64V5.26C1.23,2.29,4,0,7.67,0a9.82,9.82,0,0,1,6.38,2.06.78.78,0,0,1,.31.6.76.76,0,0,1-.74.74.78.78,0,0,1-.49-.17A8.57,8.57,0,0,0,7.61,1.34C4.67,1.34,2.72,3,2.72,5.12v.06c0,2.12,1.09,3.4,5.84,4.38s6.58,2.6,6.58,5.52v.06c0,3.23-2.78,5.46-6.64,5.46A11.33,11.33,0,0,1,.89,17.8Z"/><path class="cls-1" d="M46.73,1a.76.76,0,0,1,.74-.74H54c4.41,0,7.44,2.26,7.44,6.12v.06c0,4.21-3.63,6.38-7.81,6.38H48.21v6.84a.74.74,0,0,1-1.49,0Zm7,10.44c3.72,0,6.24-1.95,6.24-4.92V6.49c0-3.18-2.46-4.84-6.07-4.84H48.21v9.81Z"/><path class="cls-1" d="M68.1,1a.76.76,0,0,1,.74-.74h6.52c4.41,0,7.44,2.26,7.44,6.12v.06c0,4.21-3.63,6.38-7.81,6.38H69.59v6.84a.74.74,0,0,1-1.49,0Zm7,10.44c3.72,0,6.24-1.95,6.24-4.92V6.49c0-3.18-2.46-4.84-6.07-4.84H69.59v9.81Z"/><path class="cls-1" d="M89.47.92A.74.74,0,0,1,91,.92V9.56h12.82V.92a.74.74,0,1,1,1.49,0V19.68a.74.74,0,1,1-1.49,0V10.93H91v8.76a.74.74,0,0,1-1.49,0Z"/><path class="cls-1" d="M116.94.92a.74.74,0,0,1,1.49,0V19.68a.74.74,0,0,1-1.49,0Z"/><path class="cls-1" d="M129.1,1a.76.76,0,0,1,.74-.74h7.67a7.89,7.89,0,0,1,5.64,2A5.28,5.28,0,0,1,144.66,6V6c0,3.35-2.49,5.26-5.87,5.72l5.69,7.38a.83.83,0,0,1,.23.51.81.81,0,0,1-.77.77.82.82,0,0,1-.66-.4l-6.15-8h-6.55v7.67a.74.74,0,0,1-1.49,0Zm8.24,9.64c3.35,0,5.84-1.69,5.84-4.58V6c0-2.69-2.12-4.38-5.75-4.38h-6.84v9Z"/><path class="cls-1" d="M152.29,19.57V1A.76.76,0,0,1,153,.29H166a.7.7,0,0,1,.69.69.7.7,0,0,1-.69.69H153.78V9.53h10.9a.69.69,0,1,1,0,1.37h-10.9v8h12.33a.69.69,0,1,1,0,1.37H153A.76.76,0,0,1,152.29,19.57Z"/><path class="cls-1" d="M24.69,48.62V30.08a.76.76,0,0,1,.74-.74H38.36a.69.69,0,1,1,0,1.37H26.17v7.87h10.9a.69.69,0,1,1,0,1.37H26.17v8H38.51a.69.69,0,0,1,0,1.37H25.43A.76.76,0,0,1,24.69,48.62Z"/><path class="cls-1" d="M44.86,30a.76.76,0,0,1,.74-.74h.23a.93.93,0,0,1,.74.43l13.5,17.14V29.93a.72.72,0,1,1,1.43,0V48.82a.61.61,0,0,1-.6.63H60.8a1,1,0,0,1-.74-.49L46.29,31.51V48.76a.72.72,0,1,1-1.43,0Z"/><path class="cls-1" d="M73.77,30.71H67.36a.69.69,0,1,1,0-1.37H81.67a.69.69,0,1,1,0,1.37H75.26v18a.74.74,0,0,1-1.49,0Z"/><path class="cls-1" d="M89,41V30a.74.74,0,1,1,1.49,0V40.89c0,4.72,2.55,7.44,6.78,7.44,4.06,0,6.67-2.46,6.67-7.3V30a.74.74,0,1,1,1.49,0v10.9c0,5.75-3.35,8.81-8.21,8.81S89,46.64,89,41Z"/><path class="cls-1" d="M112.52,30.08a.76.76,0,0,1,.74-.74h7.67a7.89,7.89,0,0,1,5.64,2A5.28,5.28,0,0,1,128.09,35v.06c0,3.35-2.49,5.26-5.87,5.72l5.69,7.38a.83.83,0,0,1,.23.51.81.81,0,0,1-.77.77.82.82,0,0,1-.66-.4l-6.15-8H114v7.67a.74.74,0,0,1-1.49,0Zm8.24,9.64c3.35,0,5.84-1.69,5.84-4.58v-.06c0-2.69-2.12-4.38-5.75-4.38H114v9Z"/><path class="cls-1" d="M134.46,48.62V30.08a.76.76,0,0,1,.74-.74h12.93a.69.69,0,1,1,0,1.37H136v7.87h10.9a.69.69,0,1,1,0,1.37H136v8h12.33a.69.69,0,0,1,0,1.37H135.21A.76.76,0,0,1,134.46,48.62Z"/><path class="cls-1" d="M153.31,46.84a.74.74,0,0,1-.29-.57.76.76,0,0,1,.74-.74.83.83,0,0,1,.49.17A9.32,9.32,0,0,0,161,48.3c3,0,5.06-1.69,5.06-4v-.06c0-2.12-1.12-3.35-5.67-4.26-4.81-1-6.75-2.6-6.75-5.64v-.06c0-3,2.72-5.26,6.44-5.26a9.82,9.82,0,0,1,6.38,2.06.78.78,0,0,1,.31.6.76.76,0,0,1-.74.74.78.78,0,0,1-.49-.17A8.57,8.57,0,0,0,160,30.39c-2.95,0-4.89,1.69-4.89,3.78v.06c0,2.12,1.09,3.4,5.84,4.38s6.58,2.6,6.58,5.52v.06c0,3.23-2.78,5.46-6.64,5.46A11.33,11.33,0,0,1,153.31,46.84Z"/><path class="cls-1" d="M19.32,25.39,9.75,47.76,2.11,29.82a.85.85,0,0,0-.77-.6.75.75,0,0,0-.74.72.57.57,0,0,0,.06.31L8.81,48.9a.92.92,0,0,0,.89.66h.06a.92.92,0,0,0,.89-.66L20.8,25.39Z"/><rect class="cls-1" y="24.64" width="19.57" height="0.25"/><rect class="cls-1" x="21.21" y="24.64" width="145.59" height="0.25"/><path class="cls-1" d="M41,19.28,32.47.8a1,1,0,0,0-1-.72h-.06a1,1,0,0,0-1,.72L22.62,17.69,19.9,24.05h1.48l2.46-5.7.67-1.47h0l1-2.18h0L27,11.48l4.43-9.7,3.9,8.58h0l2,4.35h0l2.35,5.15a.86.86,0,0,0,.74.57.7.7,0,0,0,.72-.69A1,1,0,0,0,41,19.28Z"/></g></g></svg>