<svg xmlns="http://www.w3.org/2000/svg" viewBox="0 0 75.46 59.07"><defs><style>.cls-1{fill:#fff;}</style></defs><title>smokeybones</title><g id="Layer_2" data-name="Layer 2"><g id="Layer_1-2" data-name="Layer 1"><path class="cls-1" d="M75.21,44.29l-.13.28a.57.57,0,0,0-.18.54l0,0c-.11,0-.16.06-.13.17-1.77,2.72-4.42,3.43-7.42,3A5.82,5.82,0,0,1,62,42.63a13.3,13.3,0,0,1-.12-2.42c0-.49.24-.71.76-.48a3.86,3.86,0,0,0,.92.31,2,2,0,0,1,1.86,2.29c0,1.86,1,2.95,2.29,3.13A3.88,3.88,0,0,0,71.61,43c.65-1.8.12-3.5-.54-5.17a43.83,43.83,0,0,0-3.92-7,22.65,22.65,0,0,1-3.68-10.17c-.28-3.41,1.74-5.85,5.14-6a7.81,7.81,0,0,1,5.74,1.53c.43.36.59.93,1.1,1.18v6.6a1.86,1.86,0,0,0-.67,0c-1.1.43-1.13-.15-1-1a6.8,6.8,0,0,0-.36-3A3.48,3.48,0,0,0,70,17.74,2.83,2.83,0,0,0,67.47,20a5.31,5.31,0,0,0,0,2.58,27.24,27.24,0,0,0,2.15,6.28c1.88,4.22,4.29,8.21,5.61,12.68Z"/><path class="cls-1" d="M14.52,21.57c3.07,2.33,3.86,5.58,4.18,9,.35,3.76.56,7.53,1.1,11.27a12.58,12.58,0,0,1-.64,5.92c-.87,2.51-4.14,4-7.34,3.67C9.54,51.19,7.33,50.53,5,50.4a16.78,16.78,0,0,0-2.13,0c-.44,0-.55-.13-.57-.54Q2,44.24,1.69,38.58C1.32,32.46.85,26.35.59,20.22.38,15.13,0,10,.17,4.92c0-.63-.42-1.41,0-1.85S1.38,2.79,2,2.59A25.4,25.4,0,0,1,7.69,1.28,10.39,10.39,0,0,1,19,9.75a12.46,12.46,0,0,1-1.82,9.43A8,8,0,0,1,14.52,21.57ZM15,37.37a27.27,27.27,0,0,0-.36-5.64C14,28.37,12.73,25.47,9,24.55c-.43-.1-.37-.31-.32-.63.18-1.15.34-2.3.47-3.45a.94.94,0,0,1,.92-1,5.82,5.82,0,0,0,4.43-2.92,9.36,9.36,0,0,0,.85-5.35,5.64,5.64,0,0,0-3.25-5A9.26,9.26,0,0,0,6,5.62c-1,.19-1.24.62-1.19,1.56.25,5,.46,9.93.67,14.9s.43,10.06.65,15.09q.16,3.87.33,7.74c0,.4,0,.79.58.8a11.06,11.06,0,0,0,5.73-1.06,3.69,3.69,0,0,0,2-2.88C15,40.17,14.95,38.56,15,37.37Z"/><path class="cls-1" d="M20.57,32.4a40.6,40.6,0,0,1,0-8.24c.36-3,1.05-5.92,3.37-8.14a7.23,7.23,0,0,1,7.48-1.42,6,6,0,0,1,3.26,4.21,25.1,25.1,0,0,1,.72,7.86c-.08,2.81,0,5.63-.07,8.44a25.87,25.87,0,0,1-1.23,8.68c-.73,2-1.86,3.68-4,4.24-3,.77-5.17,0-6.79-2.36s-2.12-5.25-2.39-8.08A32.83,32.83,0,0,1,20.57,32.4Zm6.63-11.93,0,.06c-.29.16-.22.44-.24.7l-.16.29a5,5,0,0,0,.11,4.07.11.11,0,0,0,0,.12,6.49,6.49,0,0,0,.41,2.09c.2,3.34.16,3.64-.6,4.62-.42-1.09-.47-2.37-1.84-3.18a12.35,12.35,0,0,1,.57,2.06A14.68,14.68,0,0,1,25,35.4a7.3,7.3,0,0,0,.47,4.82,2.9,2.9,0,0,0,3.08,1.53,2.1,2.1,0,0,0,2-2.22,11.7,11.7,0,0,1,1.14-5.17c-.84-.08-1.23.57-1.81.75,0-.1-.06-.13-.05-.16s.07-.24.11-.37a7.62,7.62,0,0,0-.21-6.1,21.55,21.55,0,0,1-2-4.71,3.18,3.18,0,0,0-.23-1.21V20.87a4.59,4.59,0,0,0,.38-1.5,1.11,1.11,0,0,0-.56.72.2.2,0,0,0-.06.15Z"/><path class="cls-1" d="M46.92,34.05a171,171,0,0,0-.56-18.4c-.09-1,.23-1.34,1.17-1.35a9.7,9.7,0,0,0,1.34-.21c1.57-.24,1.61-.22,1.66,1.39.11,3.58.14,7.17.31,10.75.13,2.72.14,5.43.08,8.14-.1,4.26-.28,8.52-.59,12.77-.06.8-.31,1.24-1.23,1.12a9.73,9.73,0,0,0-2,0c-.65.05-.9-.22-1-.83-1.37-5.6-2.81-11.18-4.54-16.69-.14-.46-.3-.92-.44-1.38-.38.14-.26.43-.26.67,0,3.36.05,6.73.11,10.09,0,2.74.1,5.49.22,8.23,0,.95-.35,1-1.06.79l-2.68-.8c-.29-.09-.5-.17-.48-.58.09-2.23.17-4.45.21-6.68a174.29,174.29,0,0,0-.65-22.27c-.13-1.19-.33-2.37-.54-3.54-.14-.75,0-1.15.89-1.17s1.93-.12,2.9-.23c.55-.06.71.21.86.68q2.61,8.59,5.26,17.18a.16.16,0,0,0,.09.24,1.74,1.74,0,0,0,.27.9l.09.21a3.45,3.45,0,0,0,.59,1.8A1,1,0,0,0,46.92,34.05Z"/><path class="cls-1" d="M57,22.37c0,1.74,0,3.48,0,5.23,0,.65.15.89.85.9,3,0,2.95,0,3,3,0,.9-.2,1.14-1.12,1.06-2.83-.23-2.82-.19-2.92,2.58-.1,2.94-.22,5.87-.23,8.81,0,.94.38,1.21,1.2,1.16H58c1,0,2.28-.4,2.89.08s.67,1.8,1.16,2.67c.3.53.07.66-.45.68-2.91.1-5.8-.28-8.71-.3-.59,0-.58-.35-.58-.77.06-3.42.1-6.85.17-10.27,0-1.52.09-3,.11-4.55.07-5.82.15-11.63.18-17.45,0-.88.22-1.18,1.13-1.15,2.61.06,5.23-.05,7.84.26.22,0,.45,0,.67.08,1,.19,1,.28.4,1.09A3.64,3.64,0,0,0,62.09,17c-.11.65-.4.68-.94.58a21.7,21.7,0,0,0-3.1-.12c-.56,0-.72.24-.79.73C57.09,19.59,57.26,21,57,22.37Z"/><path class="cls-1" d="M36.21,7c-.59.9-1,1.84-1.47,2.73-.3.53-.55.48-.85.08a18.1,18.1,0,0,0-1.63-2c.14,1.3.22,2.61.43,3.9s.24,1.19-1,1.17c-2,0-2,0-2.36-2a60.69,60.69,0,0,1-.54-8.59C28.8.93,29.77,1,30.55.76s1.17.14,1.46.9A11.09,11.09,0,0,0,33.5,4.24c.47.63.83.47,1.13-.1a6.91,6.91,0,0,0,.8-3c0-.51.22-.7.71-.67.32,0,.65,0,1,0,1.3,0,1.45.15,1.62,1.43.42,3.1.6,6.22.76,9.34.06,1.1-.1,1.26-1.23,1.29-1.8.05-1.77,0-1.81-1.76C36.41,9.5,36.29,8.25,36.21,7Z"/><path class="cls-1" d="M46.13,7.15c-.17,1.18.21,2.55-.31,3.93-.37,1-.82,1.68-1.91,1.86-2.41.41-4.11-.44-4-3.16.06-2.35,0-4.71-.07-7.06A3.09,3.09,0,0,1,41.65.11a3.26,3.26,0,0,1,3.53,1.37,5.41,5.41,0,0,1,.95,3.06C46.11,5.35,46.13,6.16,46.13,7.15ZM42.47,5.38h0a15.78,15.78,0,0,1,0,2.51,8.24,8.24,0,0,0,.1,2.2.53.53,0,0,0,.48.53c.42,0,.22-.37.27-.59s.06-.45.1-.67a12.87,12.87,0,0,0-.16-6.26c-.06-.2-.14-.5-.43-.43s-.27.34-.27.57C42.47,4,42.47,4.67,42.47,5.38Z"/><path class="cls-1" d="M52.63,12.83a2.54,2.54,0,0,0-1.13,0,.49.49,0,0,0-.51-.31L49.4,9.16h-.15a26.82,26.82,0,0,0,0,2.7c.05.5-.05.64-.51.66a7.64,7.64,0,0,0-1,.14c-1.11.21-1.18.19-1.11-.94a70,70,0,0,0-.22-10.14c-.07-.84.24-1.12,1-1.13,2.2,0,1.78-.36,1.82,1.69,0,.74,0,1.48,0,2.37a4,4,0,0,0,1.07-2.2,1.92,1.92,0,0,0,0-.29C50.56.48,50.56.48,52.14.47l1,0c.06,2.08-.89,3.84-1.83,5.59a1,1,0,0,0-.05,1c.63,1.47,1.11,3,1.73,4.46A.92.92,0,0,1,52.63,12.83Z"/><path class="cls-1" d="M25,13.46c-2.42.38-3.6-2.16-3.31-4,.05-.35.3-.49.54-.35.52.33,1.12.24,1.66.45s.84.35.71,1c-.05.25-.06.62.28.61s.36-.42.31-.69A9.71,9.71,0,0,0,23.4,6.91a8.36,8.36,0,0,1-1.74-4.09,2.26,2.26,0,0,1,.6-1.57A4.22,4.22,0,0,1,25.77.19a3.67,3.67,0,0,1,2.52,3.38c0,1.19-1,1-1.63,1.24s-.82-.42-.92-1c0-.13,0-.29-.07-.38-.23-.31-.35-.92-.88-.64s-.2.68,0,1c.84,1.63,2.1,3,2.93,4.64,1,1.94.78,3.41-.71,4.51A3,3,0,0,1,25,13.46Z"/><path class="cls-1" d="M59,1.81c.13.62-.1.9-.75.85-.35,0-.71,0-1.06,0s-.61.17-.63.62.24.62.64.64a2.88,2.88,0,0,1,.48,0c.39.1.93-.41,1.15.08a2.9,2.9,0,0,1,0,2c-.16.5-.86.41-1.29.32-1-.19-1.27.22-1.21,1.15a10.28,10.28,0,0,1-.14,1.92c-.08.64.16,1,.8,1,.26,0,.51.08.77.09,1.24,0,1.2,0,1.18,1.32,0,.75-.25,1-1,1s-1.61,0-2.42,0c-.26-.38-.52-.37-.79,0a1.09,1.09,0,0,0-.74,0c-.21-.29-.59-.44-.51-1a37.82,37.82,0,0,0,.2-5.5q0-2.95.08-5.9l4.2,0c.13.27.39.14.59.18A2.59,2.59,0,0,0,59,1.81Z"/><path class="cls-1" d="M59.95.73c1.73,0,2,.13,2.48,1.85.09.31.17.62.25.93s.13.32.3.35.21-.17.26-.31a3.17,3.17,0,0,0,.33-.79C63.66,1.09,64.87,1,66.11.86c.59,0,.7.25.51.7-.7,1.67-1.47,3.31-2.13,5A13.19,13.19,0,0,0,64,10a15.37,15.37,0,0,1-.14,1.92A1.69,1.69,0,0,1,61.75,13c-.41-.17-.28-.53-.32-.83a19.56,19.56,0,0,1,0-4.44C61.6,6.4,60.68,5.4,60.4,4.2a16,16,0,0,0-1-2.47C59.29,1.24,59.26.78,59.95.73Z"/><path class="cls-1" d="M6.18,53.45a4,4,0,0,1,2,.28,1.09,1.09,0,0,1,.35,1.77c-.35.39-.17.48.1.73A1.3,1.3,0,0,1,8.1,58.6a18.17,18.17,0,0,1-4.8.47c-.56,0-.73-.62-.36-1.25a2.69,2.69,0,0,0-.16-2.7,1.49,1.49,0,0,1-.26-1.06c.13-.47.57-.32.9-.35ZM6,56.73c-.27,0-.55,0-.55.36s.18.58.54.53.71-.06.68-.51S6.3,56.75,6,56.73Zm-.19-1.95c-.2,0-.42,0-.42.4s.16.44.47.44.61-.06.58-.44S6.17,54.79,5.82,54.78Z"/><path class="cls-1" d="M27.17,57.88a5,5,0,0,0-2.64.18,1.94,1.94,0,0,1-1.06,0,1.62,1.62,0,0,1-1.42-1.27,1.56,1.56,0,0,1,.8-1.73c.46-.27.82-.46.63-1.17s.37-1.19,1.08-1.33a4.39,4.39,0,0,1,1,0c.31,0,.69-.09.8.34a.71.71,0,0,1-.23.87c-.68.45,0,.7.18,1,.35.44.54.08.68-.22a.94.94,0,0,1,1-.54c.45,0,.76.18.81.65s.08.79-.49.86c-.37,0-.52.4-.59.7s.23.4.46.4c.69,0,.67.46.65.93,0,.64-.55.38-.88.45A4.69,4.69,0,0,1,27.17,57.88Zm-2-1.31c-.22-.33-.45-.76-.89-.89s-.43.22-.43.5a.71.71,0,0,0,.7.77C24.8,57,25.09,57,25.18,56.57Z"/><path class="cls-1" d="M57.11,55c.34.1.94-.24,1.16.26a1.73,1.73,0,0,1-.32,1.46C57.22,57.92,56,58,54.8,57.87A2.77,2.77,0,0,1,52,54.74a3,3,0,0,1,3.58-2.39,4.39,4.39,0,0,0,1.33.17c1.12-.1,1.56.52,1.17,1.59-.15.41-1.13.52-1.59.1a1.13,1.13,0,0,0-1.7-.11,2.52,2.52,0,0,0,.12,2.3.74.74,0,0,0,1,.05c.36-.28-.07-.38-.16-.58-.23-.5-.17-.89.52-.88Z"/><path class="cls-1" d="M36.8,52.71l0,.37c-.07.37.12.79-.22,1.1L35.26,54c-.52-.71-.73.18-1.18.2.67.14,1,.43.78,1.1-.13.36-.65,0-.75.44-.14.56.76.51.63,1.15s-.12.86-.76.82-1.29,0-1.93,0c-.26,0-.65.23-.77-.15a1.09,1.09,0,0,1,.1-1.11c.77-.84.46-1.74.19-2.65-.49-.35-.38-.86-.37-1.34h0c1-.06,2-.08,3-.13S36,51.95,36.8,52.71Z"/><path class="cls-1" d="M15.65,58.14a4.08,4.08,0,0,1-2,.32,5.76,5.76,0,0,0-2,.18,1.71,1.71,0,0,1-1.22-.15,1,1,0,0,1-.73-1c0-.62.44-.9.91-1.13a3.54,3.54,0,0,1,1.33-.16c.22,0,.61.17.58-.25s-.4-.38-.69-.33c-.5.08-.92.47-1.47.35-.26-.06-.66.17-.75-.2s.24-.51.5-.65a5.79,5.79,0,0,1,3.86-.32A1.07,1.07,0,0,1,14.75,56c-.08.63.35,1,.59,1.47.1.2.18-.15.31-.19Zm-2.92-1a.51.51,0,0,0-.57-.4c-.27,0-.54.13-.54.44s.32.49.62.46A.49.49,0,0,0,12.73,57.16Z"/><path class="cls-1" d="M50,55.93,48.88,56c-.45,0-.9,0-1.35-.05-.28,0-.66,0-.57.41s.36.67.7.45c.64-.42,1.32-.18,2-.24.29.34,0,.5-.21.69a3.52,3.52,0,0,1-3.81,0,1.78,1.78,0,0,1,.09-3.06,2.88,2.88,0,0,1,4.25,1.23ZM47.49,54.7c-.28,0-.5.14-.55.43s.1.42.37.43.54,0,.58-.32A.45.45,0,0,0,47.49,54.7Z"/><path class="cls-1" d="M60.4,58a9.85,9.85,0,0,1-1.06,0c-.28,0-.63-.07-.69-.42s-.18-.72.2-1c.57-.37.46-.8,0-1.16a.89.89,0,0,1-.18-1.06c.12-.41.54-.3.84-.28.61,0,1.28-.24,1.79.41.15.18.44-.16.69-.2s1-.3.95.36c0,.44.48,1.22-.57,1.31-.52,0-1.53,0-.56,1,.36.39-.1,1.07-.67,1.07H60.4Z"/><path class="cls-1" d="M41.89,57.69a5.05,5.05,0,0,1-.58,0c-.36,0-.84.18-1-.28a.91.91,0,0,1,.31-1.1.75.75,0,0,0-.08-1.18.76.76,0,0,1-.27-.93c.11-.48.56-.31.89-.37,1-.19,1.92.44,2.91,0,.38-.16.59.18.55.57s.27,1-.48,1.17a3.43,3.43,0,0,0-.75.16c-.19.09-.38.25-.24.54.68,1.39.67,1.41-.92,1.41Z"/><path class="cls-1" d="M70.08,57.2a3.32,3.32,0,0,0,.2-2.83c-.35-1.06-.2-1.38.85-1.28,1.79.17,1.77.17,1.53,1.92a4.16,4.16,0,0,0,.15,2.54c.25.51.06,1-.73,1-.61,0-1.23,0-1.84,0C69.88,58.09,70.05,57.63,70.08,57.2Z"/><path class="cls-1" d="M66.89,58.2l-.18-.08,0-1.16a3.05,3.05,0,0,0,.18-2.89c-.34-.84-.16-1.23.73-1.21,1.76,0,1.72,0,1.73,1.85,0,.82-.48,1.65.05,2.45v1.12h0C68.57,58.37,67.74,58,66.89,58.2Z"/><path class="cls-1" d="M15.65,58.14v-.82c.39-.57.61-1.06-.06-1.67-.47-.42-.14-1.09.52-1.15s1.23-.26,1.78.14.57-.13.84-.2.87-.32,1,.21.42,1.15-.41,1.35-1.24.43-.53,1.3c.33.4.19.89-.5.88C17.38,58.16,16.51,58.56,15.65,58.14Z"/><path class="cls-1" d="M37,56.75l.12-.31c.15,0,.28-.1.27-.29A1,1,0,0,0,37,55c0-.7.2-1,1-1,1.23,0,1.19-.07,1.39,1.2.07.44-.05,1,.39,1.31l0,0,0,1v0c-.6,0-1.2,0-1.8,0S37,57.37,37,56.75Z"/><path class="cls-1" d="M63.61,58.14c-.53-.13-.34-.5-.29-.83a.52.52,0,0,0,.28-.4h0c.68-.14.46-.54.26-.93l-.21-.45,0-1.08a1.35,1.35,0,0,1,.9-.05l.26,0h1.15a10.38,10.38,0,0,0-.11,2.16A3.67,3.67,0,0,1,66,58.13l-.8,0A4.69,4.69,0,0,0,63.61,58.14Z"/><path class="cls-1" d="M64.78,54.43l-.26,0a4.2,4.2,0,0,0-.31-.37c-.27-.26-.7-.48-.41-.95a1.09,1.09,0,0,1,1.08-.51,1.21,1.21,0,0,1,1.1.67c.19.48-.23.59-.53.76S64.72,53.83,64.78,54.43Z"/><path class="cls-1" d="M39.13,53.42l-1.13,0c-.62,0-.86-.28-.71-.89a1.42,1.42,0,0,1,1.33-.37C39.41,52.3,39.58,52.73,39.13,53.42Z"/><path class="cls-1" d="M63.84,56c.2.39.42.79-.26.93C63.77,56.64,63.55,56.24,63.84,56Z"/><path class="cls-1" d="M63.62,54.46l0,1.08C63.4,55.18,63.11,54.83,63.62,54.46Z"/><path class="cls-1" d="M63.59,56.91a.52.52,0,0,1-.28.4C63.25,57.06,63.34,56.93,63.59,56.91Z"/></g></g></svg>