<svg xmlns="http://www.w3.org/2000/svg" viewBox="0 0 124.72 42.98"><defs><style>.cls-1{fill:#fff;}</style></defs><title>sothebys</title><g id="Layer_2" data-name="Layer 2"><g id="Layer_1-2" data-name="Layer 1"><path class="cls-1" d="M124.47,21.09c-1,3.63-4.36,4.07-7.19,3.46a22.2,22.2,0,0,1-2.68-.92.76.76,0,0,1-.58-.86c0-.84,0-1.68,0-2.67.31.17.51.3.73.4a23.11,23.11,0,0,0,3.31,1.4,4.09,4.09,0,0,0,2.31-.19,1.33,1.33,0,0,0,.38-2.39c-.69-.57-1.5-1-2.24-1.49a23.61,23.61,0,0,1-3.07-2.16A3.83,3.83,0,0,1,117.08,9a8.24,8.24,0,0,1,6.32.8.73.73,0,0,1,.33.53c0,.82,0,1.64,0,2.62a6.78,6.78,0,0,0-.74-.39c-1.08-.39-2.15-.81-3.25-1.13a2,2,0,0,0-1.28.08,2.15,2.15,0,0,0-1.1,1,1.48,1.48,0,0,0,.52,1.22c.85.7,1.8,1.26,2.71,1.89a15.63,15.63,0,0,1,2.12,1.52,19.88,19.88,0,0,1,1.73,2.2Z"/><path class="cls-1" d="M80.08,1.11h3V9.83a20.49,20.49,0,0,1,3.47-1,6.31,6.31,0,0,1,6.91,4.55,9.66,9.66,0,0,1-.33,7.21c-1.25,2.78-3.62,3.94-6.52,4.17a14.32,14.32,0,0,1-6-.88.71.71,0,0,1-.56-.77Q80,12.3,80,1.52A3.67,3.67,0,0,1,80.08,1.11Zm3,16.1q0,1,0,2c0,2.48,0,2.48,2.55,2.64a4.49,4.49,0,0,0,5-3.58A8.14,8.14,0,0,0,90.58,15c-.8-3.54-4.26-4.65-7-2.31a1.47,1.47,0,0,0-.45,1C83,14.84,83.06,16,83.06,17.2Z"/><path class="cls-1" d="M.38,18.58c.9.74,1.68,1.49,2.57,2.07a6,6,0,0,0,4.93.9,2.91,2.91,0,0,0,1.61-5,13.89,13.89,0,0,0-2.48-2c-1.56-1.12-3.25-2.07-4.73-3.28A5.5,5.5,0,0,1,.51,5.08,5.83,5.83,0,0,1,5.4.93a8.93,8.93,0,0,1,6.66,1.18,1.18,1.18,0,0,1,.47.82c.06,1,0,2,0,3.23l-.9-.7A6.91,6.91,0,0,0,5.74,4,2.78,2.78,0,0,0,3.46,5.9a2.63,2.63,0,0,0,1,2.88c.89.72,1.9,1.3,2.85,2a35.6,35.6,0,0,1,4.14,2.9A6.25,6.25,0,0,1,13,20.85a6.18,6.18,0,0,1-6,3.92A10.09,10.09,0,0,1,.85,22.93a1.1,1.1,0,0,1-.45-.71C.35,21,.38,19.82.38,18.58Z"/><path class="cls-1" d="M47.48,1.1h3V11l.54-.5a5.81,5.81,0,0,1,3.59-1.76c3.06-.26,5.36,1.4,5.61,4.61.28,3.64.07,7.33.07,11H57.41c0-.29,0-.58,0-.87,0-3.06,0-6.11-.08-9.17a3,3,0,0,0-1.77-2.93A3.3,3.3,0,0,0,52,12a7.61,7.61,0,0,0-1.29,1.2,1.52,1.52,0,0,0-.25.91c0,3.42,0,6.83,0,10.31h-3Z"/><path class="cls-1" d="M24,8.75c3.92,0,7.11,2.24,8,5.67,1.44,5.83-2.56,11.14-9.4,10.23a7.66,7.66,0,0,1-6.68-6.75,7.79,7.79,0,0,1,4.18-8.27A8.39,8.39,0,0,1,24,8.75Zm5.1,8a5,5,0,0,0-5.17-5.27,4.94,4.94,0,0,0-5,5.1c0,3.14,2,5.4,5,5.41A4.89,4.89,0,0,0,29.1,16.76Z"/><path class="cls-1" d="M77,17.22H66.09a4.79,4.79,0,0,0,5.74,4.55,24.65,24.65,0,0,0,4-1.32,6.08,6.08,0,0,0,.77-.41c0,1,0,1.8,0,2.64a.91.91,0,0,1-.43.56,10,10,0,0,1-7.39,1.34,6.53,6.53,0,0,1-4-2.54c-2.41-3.11-2.37-8.15.15-11a6.88,6.88,0,0,1,7-2.08,5.71,5.71,0,0,1,4.47,4.58C76.68,14.69,76.78,15.91,77,17.22Zm-3.26-2.09a3.39,3.39,0,0,0-3.36-3.74,3.82,3.82,0,0,0-4.12,3.74Z"/><path class="cls-1" d="M94.82,9.06c1.12,0,2.13,0,3.14,0,.21,0,.47.34.59.58,1.26,2.61,2.51,5.22,3.82,8,.17-.32.29-.52.38-.73,1.11-2.42,2.24-4.84,3.33-7.27A.82.82,0,0,1,107,9c.89,0,1.79,0,2.8,0-.28.61-.51,1.11-.74,1.62q-4.91,10.49-9.8,21a1,1,0,0,1-1.09.69c-.84-.05-1.69,0-2.64,0l1.19-2.57c1.25-2.67,2.49-5.35,3.77-8a1.22,1.22,0,0,0,0-1.21q-2.66-5.34-5.28-10.69C95.06,9.63,95,9.4,94.82,9.06Z"/><path class="cls-1" d="M44.89,21c0,.77,0,1.53,0,2.3a.72.72,0,0,1-.31.53,7.16,7.16,0,0,1-5.21.66,4.33,4.33,0,0,1-3.2-4.38c0-2.46,0-4.93,0-7.39V11.8H33.55l-.15-.26,5.8-5.71V9H44v2.74H39.27c0,.3,0,.52,0,.74,0,2.36,0,4.72,0,7.09A2.19,2.19,0,0,0,42,21.95,26,26,0,0,0,44.89,21Z"/><path class="cls-1" d="M118.42,0c-.81,1.71-1.66,3.21-2.25,4.81a2.11,2.11,0,0,1-2.67,1.62,5.65,5.65,0,0,0-.95,0c.32-.71.6-1.33.89-1.95.61-1.32,1.25-2.64,1.84-4A.74.74,0,0,1,116.1,0C116.81,0,117.53,0,118.42,0Z"/><path class="cls-1" d="M0,36.45H.92v6.46H0Z"/><path class="cls-1" d="M8.44,36.45h.88v6.46h-.8l-4.32-5v5H3.33V36.45h.75l4.35,5Z"/><path class="cls-1" d="M11.09,36.44h5.4v.82H14.24v5.64h-.93V37.26H11.09Z"/><path class="cls-1" d="M18.31,36.45H22v.82H19.23v2h2.64v.83H19.23v2h2.82v.82H18.31Z"/><path class="cls-1" d="M24,42.91V36.45h1.62a2.34,2.34,0,0,1,1.56.49,1.63,1.63,0,0,1,.58,1.31,1.62,1.62,0,0,1-1.09,1.59,2.86,2.86,0,0,1,.61.55,11.2,11.2,0,0,1,.83,1.23q.34.55.54.83l.34.46H27.9l-.28-.43-.06-.08-.18-.25-.29-.47-.31-.5a5,5,0,0,0-.52-.63,2,2,0,0,0-.43-.34,1.45,1.45,0,0,0-.65-.1h-.24v2.81Zm1.2-5.67h-.28v2h.35a2.61,2.61,0,0,0,1-.12.9.9,0,0,0,.41-.36,1.05,1.05,0,0,0,.15-.55,1,1,0,0,0-.16-.55.87.87,0,0,0-.46-.35A3.29,3.29,0,0,0,25.22,37.23Z"/><path class="cls-1" d="M35.79,36.45h.88v6.46h-.8l-4.32-5v5h-.87V36.45h.75l4.35,5Z"/><path class="cls-1" d="M41.06,36.41h.65l2.9,6.5h-.95L42.79,41H40l-.81,1.91h-1Zm1.36,3.76-1-2.34-1,2.34Z"/><path class="cls-1" d="M44.76,36.44h5.4v.82H47.9v5.64H47V37.26H44.76Z"/><path class="cls-1" d="M52,36.45h.92v6.46H52Z"/><path class="cls-1" d="M58.46,36.36a3.47,3.47,0,0,1,2.49.95,3.14,3.14,0,0,1,1,2.38,3.09,3.09,0,0,1-1,2.36,3.57,3.57,0,0,1-2.53.94A3.37,3.37,0,0,1,56,42a3.12,3.12,0,0,1-1-2.35,3.19,3.19,0,0,1,1-2.39A3.42,3.42,0,0,1,58.46,36.36Zm0,.88a2.51,2.51,0,0,0-1.82.69A2.36,2.36,0,0,0,56,39.7a2.32,2.32,0,0,0,.72,1.74,2.66,2.66,0,0,0,3.6,0A2.37,2.37,0,0,0,61,39.66a2.31,2.31,0,0,0-.72-1.73A2.45,2.45,0,0,0,58.49,37.23Z"/><path class="cls-1" d="M69.16,36.45H70v6.46h-.8l-4.32-5v5h-.87V36.45h.75l4.35,5Z"/><path class="cls-1" d="M74.43,36.41h.65l2.9,6.5H77L76.17,41H73.41l-.81,1.91h-1Zm1.36,3.76-1-2.34-1,2.34Z"/><path class="cls-1" d="M79.63,36.45h.92v5.62h2.91v.84H79.63Z"/><path class="cls-1" d="M88.82,42.91V36.45h1.62a2.34,2.34,0,0,1,1.56.49,1.63,1.63,0,0,1,.58,1.31,1.62,1.62,0,0,1-1.09,1.59,2.86,2.86,0,0,1,.61.55,11.19,11.19,0,0,1,.83,1.23q.34.55.54.83l.34.46H92.7l-.28-.43-.06-.08-.18-.25-.29-.47-.31-.5a5,5,0,0,0-.52-.63,2,2,0,0,0-.43-.34,1.45,1.45,0,0,0-.65-.1h-.24v2.81ZM90,37.23h-.28v2h.35a2.61,2.61,0,0,0,1-.12.9.9,0,0,0,.41-.36,1.05,1.05,0,0,0,.15-.55,1,1,0,0,0-.16-.55.87.87,0,0,0-.46-.35A3.29,3.29,0,0,0,90,37.23Z"/><path class="cls-1" d="M95.46,36.45h3.66v.82H96.38v2H99v.83H96.38v2h2.82v.82H95.46Z"/><path class="cls-1" d="M103.2,36.41h.65l2.9,6.5h-.95L104.94,41h-2.76l-.81,1.91h-1Zm1.36,3.76-1-2.34-1,2.34Z"/><path class="cls-1" d="M108.4,36.45h.92v5.62h2.91v.84H108.4Z"/><path class="cls-1" d="M112.49,36.44h5.39v.82h-2.25v5.64h-.93V37.26h-2.21Z"/><path class="cls-1" d="M123.59,36.45h1.12l-2.39,3v3.42h-.95V39.49l-2.39-3h1.12l1.73,2.23Z"/></g></g></svg>