<svg xmlns="http://www.w3.org/2000/svg" viewBox="0 0 61.36 84.72"><defs><style>.cls-1{fill:#fff;}</style></defs><title>tennischannel</title><g id="Layer_2" data-name="Layer 2"><g id="Layer_1-2" data-name="Layer 1"><g id="layer1"><polygon class="cls-1" points="25.81 56.63 25.81 56.63 25.81 56.63 56.78 56.63 56.78 23.61 54.74 23.33 35.96 20.82 25.81 56.63"/><polygon class="cls-1" points="0.16 56.62 13.39 56.62 23.97 19.28 21.9 19.01 0.16 16.17 0.16 56.62"/><polygon class="cls-1" points="0.17 0 0.17 4.11 56.79 11.54 56.79 0 0.17 0"/><g id="g231689"><path id="path231691" class="cls-1" d="M9.09,62.77H6V74.7H3.11V62.77H0V60.41H9.12v2.36Z"/></g><g id="g231693"><path id="path231695" class="cls-1" d="M18.29,62.77H13.18v3.41H18v2.33h-4.8v3.87h5.29v2.36H10.28V60.44h8v2.33Z"/></g><g id="g231697"><path id="path231699" class="cls-1" d="M26.74,70.19h0V60.4H29.4V74.7H26.13l-3.5-10h0v10H20V60.4h3.32Z"/></g><g id="g231701"><path id="path231703" class="cls-1" d="M38.21,70.19h0V60.4h2.63V74.7H37.61l-3.5-10h0v10H31.44V60.4h3.29Z"/></g><path id="path231705" class="cls-1" d="M43,60.43h2.87V74.72H43Z"/><g id="g231707"><path id="path231709" class="cls-1" d="M50.36,70.67a4.19,4.19,0,0,0,.09.91,1.5,1.5,0,0,0,.3.66,1.34,1.34,0,0,0,.6.45,2,2,0,0,0,.91.15,1.67,1.67,0,0,0,1.18-.42A1.57,1.57,0,0,0,54,71.1a3.1,3.1,0,0,0-.12-.82,1.8,1.8,0,0,0-.42-.63,3.93,3.93,0,0,0-.79-.51,10.41,10.41,0,0,0-1.21-.45A12.53,12.53,0,0,1,49.79,68a6,6,0,0,1-1.18-.88,3.29,3.29,0,0,1-.69-1.18,5.93,5.93,0,0,1-.21-1.54,4.06,4.06,0,0,1,1.18-3.17,4.72,4.72,0,0,1,3.23-1,8.24,8.24,0,0,1,1.78.21,4,4,0,0,1,1.39.69,3.17,3.17,0,0,1,.94,1.21,4.32,4.32,0,0,1,.33,1.75v.39H53.8a2.88,2.88,0,0,0-.36-1.57,1.33,1.33,0,0,0-1.21-.54,2.07,2.07,0,0,0-.82.15,1.58,1.58,0,0,0-.51.36,1.53,1.53,0,0,0-.27.54,4.11,4.11,0,0,0-.06.63,2.19,2.19,0,0,0,.27,1.12,2.51,2.51,0,0,0,1.21.82l2.24,1a5.94,5.94,0,0,1,1.33.76,3.74,3.74,0,0,1,.85.85,2.92,2.92,0,0,1,.42,1A5,5,0,0,1,57,70.73,4,4,0,0,1,55.71,74a5.72,5.72,0,0,1-3.66,1A4.78,4.78,0,0,1,48.58,74a4.21,4.21,0,0,1-1.06-3.05v-.57h2.87v.3Z"/></g><g id="g231711"><path id="path231713" class="cls-1" d="M4.3,78.61a.71.71,0,0,0-.69-.36.74.74,0,0,0-.45.15.93.93,0,0,0-.27.48,4.79,4.79,0,0,0-.15.85c0,.36,0,.79,0,1.3s0,1,.06,1.33a2.14,2.14,0,0,0,.18.79,1,1,0,0,0,.3.39.93.93,0,0,0,.39.09A1.3,1.3,0,0,0,4,83.57a.48.48,0,0,0,.27-.27,1.86,1.86,0,0,0,.21-.54,7.27,7.27,0,0,0,.06-.94H6a6.7,6.7,0,0,1-.09,1.12,2.86,2.86,0,0,1-.33.94,1.76,1.76,0,0,1-.69.63,2.65,2.65,0,0,1-1.18.21,2.52,2.52,0,0,1-1.3-.27,1.89,1.89,0,0,1-.76-.79,2.69,2.69,0,0,1-.33-1.15A11.75,11.75,0,0,1,1.22,81a12.09,12.09,0,0,1,.09-1.54,3.37,3.37,0,0,1,.33-1.18,1.89,1.89,0,0,1,.76-.79,2.68,2.68,0,0,1,1.3-.27,2.24,2.24,0,0,1,1.21.27,2,2,0,0,1,.69.63,2.14,2.14,0,0,1,.27.85c0,.3.06.6.06.85H4.49a2.72,2.72,0,0,0-.18-1.18"/></g><g id="g231715"><path id="path231717" class="cls-1" d="M11.34,77.3v2.78H13V77.3h1.45v7.25H13V81.31H11.34v3.23H9.86V77.3Z"/></g><g id="g231719"><path id="path231721" class="cls-1" d="M21.56,81.83l-.69-3.26h0l-.69,3.26Zm.21-4.5,1.9,7.25H22.17l-.33-1.51H19.9l-.33,1.51H18L20,77.33Z"/></g><g id="g231723"><path id="path231725" class="cls-1" d="M30.69,82.28h0l0-5h1.33v7.25H30.39L28.61,79.5h0v5.08H27.25V77.32h1.69Z"/></g><g id="g231727"><path id="path231729" class="cls-1" d="M39.56,82.28h0v-5h1.33v7.25H39.23L37.45,79.5h0v5.08H36.09V77.32h1.69Z"/></g><g id="g231731"><path id="path231733" class="cls-1" d="M49,78.52h-2.6v1.69h2.45v1.21H46.41v1.93H49.1v1.21H45V77.31h4Z"/></g><g id="g231735"><path id="path231737" class="cls-1" d="M52.87,77.3h1.45v6h2.6v1.21h-4Z"/></g><g id="g231739"><path id="path231741" class="cls-1" d="M58.4.48h-.51V.18h1.39v.3h-.51v1.9H58.4Z"/></g><g id="g231743"><path id="path231745" class="cls-1" d="M59.46.19H60l.39,1.63h0L60.82.19h.54V2.4H61V.56L60.57,2.4h-.3L59.82.56h0V2.4h-.33V.19Z"/></g></g></g></g></svg>