<svg xmlns="http://www.w3.org/2000/svg" viewBox="0 0 92.65 37.37"><defs><style>.cls-1{fill:#fff;}</style></defs><title>tmz</title><g id="Layer_2" data-name="Layer 2"><g id="Layer_1-2" data-name="Layer 1"><circle class="cls-1" cx="70.24" cy="6.62" r="1.29"/><circle class="cls-1" cx="38.04" cy="1.29" r="1.29"/><path class="cls-1" d="M1.35,0H1.29a1.29,1.29,0,1,0,0,2.58h9.95s2.54,0,3,2.29V34.05c0,1.83,2.2,3.32,4.92,3.32s4.92-1.48,4.92-3.32V5c.41-2.44,3.06-2.44,3.06-2.44H38V0Z"/><path class="cls-1" d="M61.93,6.13s-2.81-.41-4.82,3.44l-9.2,17.11L38.38,9.4C36.53,6,34,6.13,34,6.13c-5.14,0-4.74,5.23-4.74,5.23h0V35.8h0a1.68,1.68,0,0,0,3.36,0h0V24.19c.06-1.13.37-2.77,1.59-2.77s1.5-.15,2.84,2h0l5.9,10.7S44.45,37,45.18,37c0,0,.78.43,2.38-2.54l2.2-4.09.15-.08-.05-.1,3.64-6.77h0c1.12-1.83,1.52-2.17,2.59-2,.88.1,1.19,1.16,1.29,2.13V34.68c0,1.49,1.79,2.69,4,2.69s4-1.21,4-2.69V9.78S65.41,6.18,61.93,6.13Z"/><path class="cls-1" d="M91.36,34.63H80.88c-.91-.05-3-.54-1.67-4.06l9.86-21.4h0s1.47-3.63-1.93-3.83H70.3V7.91h7.36c.73.1,1.77.64.81,3.14l-.6,1.31h0L68.32,33s-1.69,4.16,2.43,4.16H91.36a1.29,1.29,0,0,0,0-2.58Z"/></g></g></svg>