<svg xmlns="http://www.w3.org/2000/svg" viewBox="0 0 94.87 78.24"><defs><style>.cls-1{fill:#fff;}</style></defs><title>toyota</title><g id="Layer_2" data-name="Layer 2"><g id="Layer_1-2" data-name="Layer 1"><path class="cls-1" d="M55.77,61.36a8.44,8.44,0,1,0,0,16.89,8.44,8.44,0,0,0,0-16.89Zm0,13.77A5,5,0,0,1,51.1,69.8a4.91,4.91,0,0,1,4.67-5.33c2.54,0,4.64,2.37,4.66,5.33S58.31,75.09,55.77,75.13Z"/><polygon class="cls-1" points="78.65 62.02 65.1 62.02 65.1 64.91 70.21 64.91 70.21 77.8 73.76 77.8 73.76 64.91 78.65 64.91 78.65 62.02"/><path class="cls-1" d="M88.43,62H84L77.32,77.8h4.22l1.33-3.56h6.45l1.33,3.56h4.22Zm-2.22,9.55H84l2.22-5.78,2.22,5.78Z"/><polygon class="cls-1" points="0 64.91 4.89 64.91 4.89 77.8 8.44 77.8 8.44 64.91 13.33 64.91 13.33 62.02 0 62.02 0 64.91"/><path class="cls-1" d="M22.66,61.36a8.44,8.44,0,0,0,0,16.89,8.44,8.44,0,1,0,0-16.89Zm0,13.77A5,5,0,0,1,18,69.8c-.06-3,2-5.35,4.66-5.33s4.66,2.37,4.67,5.33S25.23,75.09,22.66,75.13Z"/><polygon class="cls-1" points="39.1 68.69 35.33 62.02 31.11 62.02 37.33 71.8 37.33 77.8 39.1 77.8 40.88 77.8 40.88 71.8 47.1 62.02 43.1 62.02 39.1 68.69"/><path class="cls-1" d="M46.49,54.6c24.06,0,43.63-12.25,43.63-27.3S70.54,0,46.49,0,2.86,12.24,2.86,27.3,22.43,54.6,46.49,54.6ZM76.33,15.7l.46.43.25.24.45.45.2.2.56.62.24.29.32.39.24.31.3.4.21.29a14.62,14.62,0,0,1,2.77,8.38c0,11-13.55,20.1-31.1,21.5C55,45.63,57.63,37.7,57.63,27.65c0-.63,0-1.25,0-1.86h0c10-1.8,16.89-6,17.94-10.79l.57.49ZM50.07,5.6l.22.2-.22-.2Zm-13.39,15-1.49-.23Zm.19,0q.06-.48.14-.94-.07.47-.14.94Zm16.43,6.22c0,8.54-2.33,15.27-5.43,16.82,3.1-1.55,5.43-8.28,5.43-16.82ZM44.9,21.26l1.59,0,1.59,0-1.59,0Zm8.39,5.57c0-.66,0-1.31,0-1.95h0Q53.29,25.83,53.29,26.83Zm-1.82-5.72,1.28-.1Zm-3.08.14,1.3,0Zm1.54-.05,1.35-.07Zm1.88-1c-1.69.13-3.47.2-5.33.2s-3.64-.07-5.33-.2h0c.93-5.19,3-8.44,5.31-8.44S50.87,15,51.8,20.19h0l1,.74Zm-7.23,1.05-1.3,0ZM43,21.19l-1.35-.07Zm-1.53-.09L40.23,21ZM40.06,21h0l1.09-.79Zm-.34,4c0,.16,0,.33,0,.49C39.72,25.27,39.72,25.11,39.73,24.95Zm.9,1.51,0,0c1.88.16,3.83.25,5.84.25s4-.09,5.87-.26h0c0,.12,0,.24,0,.36,0,8.61-2.63,15.14-5.87,15.14s-5.87-6.53-5.87-15.14C40.62,26.72,40.62,26.58,40.62,26.45Zm15.51-5.82h0l.23-.28Zm1.78-.28-1.68.27Zm-5,.64a24,24,0,0,0-2.22-7.79A24,24,0,0,1,52.92,21ZM49.1,11l.15.16Zm.28.29.15.18Zm.26.31.16.2Zm.24.31a10.07,10.07,0,0,1,.57.88A10.07,10.07,0,0,0,49.87,11.87Zm.61.94.18.33Zm-1.75-2.18.12.1Zm-1.92-.87h0Zm.32.05.11,0Zm.33.09.1,0Zm.4.16.07,0Zm.3.16.12.07Zm.29.19.13.09Zm-4,.08.09-.07Zm.31-.21.09-.06Zm.36-.2,0,0Zm.34-.14.09,0Zm.31-.09.11,0Zm.33-.06h0ZM43.85,11l0,0Zm-2.64,4.79.08-.25Zm.19-.56L41.5,15Zm.21-.56.08-.2Zm.29-.68.06-.13Zm.22-.48.09-.17Zm.24-.46.09-.16Zm.27-.46.07-.11Zm.32-.49L43,12Zm.26-.36.09-.11Zm.28-.34.09-.1Zm.65-.66.07-.06ZM40.08,20.86l.05-.36Zm.11-.72.06-.36Zm.12-.73.1-.54Zm.18-.92.07-.33Zm.15-.65.08-.32Zm.16-.64.08-.3Zm.19-.7.11-.36Zm-3.93,2.79.1-.57Zm.18-1,.1-.51Zm.19-1,.11-.5Zm.21-.93q.1-.42.2-.83Q37.73,16,37.64,16.38ZM38,15.13l.12-.44Zm.25-.88.12-.41Zm.26-.84.13-.4Zm.27-.81.18-.48Zm.4-1,.17-.42Zm.32-.77.17-.37Zm.32-.71L40,9.71ZM39.7,25.89q0,.44,0,.88Q39.69,26.32,39.7,25.89Zm0,1c0,8.54,2.33,15.27,5.43,16.82-3.1-1.55-5.43-8.28-5.43-16.82ZM56.55,26v0Zm-.06-1.5h0Zm13.72-9,.15-.15Zm-1.56,1.25.26-.17Zm.71-.49.18-.14Zm.45-.37.18-.16Zm-.22,4.71h0ZM58,20.34l.74-.14Zm1-.18.71-.14Zm.89-.18Q61,19.73,62,19.45,61,19.73,59.86,20Zm2.37-.58.61-.17Zm.83-.24.59-.18Zm.62-.19c.41-.13.81-.27,1.2-.42Zm1.4-.49.48-.19Zm.73-.29.44-.19Zm.69-.3.71-.34Zm1-.47.33-.18Zm.6-.34.3-.18ZM57,19.57v0c-1.08-6.53-3.44-11.54-6.43-14,9.42.58,17.12,3.11,18.31,6.45C70,15.23,65.15,18.18,57,19.57Zm-1.12-.48,0-.29Zm-.16-.92-.06-.31Zm-.18-.92L55.48,17ZM55,15l-.07-.24Zm-.23-.79-.08-.28Zm-.25-.81-.09-.26Zm-.27-.79,0-.08Zm-.46-1.19-.09-.21Zm-.28-.66-.12-.26ZM53.18,10,53,9.77Zm-.33-.66-.13-.24Zm-.51-.91-.15-.25ZM52,7.9l-.17-.26Zm-.37-.54-.19-.25Zm-.38-.51L51,6.59Zm-.39-.47L50.45,6ZM42.92,5.6l-.25.23.25-.23Zm-2.8,3.8L40.35,9Zm.4-.72.29-.49ZM41,8l.22-.34Zm.39-.57.23-.31Zm.39-.52L42,6.53Zm.4-.48.4-.43ZM36,19.58v0c-8.14-1.39-13-4.34-11.87-7.48C25.29,8.74,33,6.21,42.41,5.63,39.42,8,37.06,13.05,36,19.58Zm-1,.75-.67-.12Zm-1-.19L33.33,20ZM33,20q-1-.22-2-.48Q32,19.73,33,20Zm-2.32-.57-.51-.15Zm-.87-.25L29.35,19Zm-.89-.29-.68-.24Zm-1.09-.39-.37-.15Zm-.75-.3L26.76,18Zm-.76-.34-.26-.12Zm-.86-.43-.23-.13ZM24.86,17l-.23-.14Zm-.59-.37-.18-.12Zm-.66-.47-.1-.08Zm-.45-.37L23,15.71Zm-.41-.39-.12-.12ZM22.33,15l0,0ZM22,14.54l-.07-.11Zm-.23-.41L21.73,14Zm-.18-.44,0-.1Zm-.17-.93s0-.09,0-.13S21.43,12.72,21.44,12.77Zm0-.44s0-.08,0-.13S21.46,12.29,21.46,12.33Zm0,.85s0-.06,0-.09S21.47,13.16,21.47,13.18ZM17.31,13s0,.05,0,.08Zm0,.43v0Zm0-.71v0Zm0-.37v0Zm.19-.74a3,3,0,0,0-.1.31A2.67,2.67,0,0,1,17.57,11.62ZM36.48,24.48h0l-.77.92ZM36.43,26v0ZM75.67,13.1s0-.06,0-.1S75.67,13.07,75.67,13.1Zm0,.34h0v-.07S75.66,13.42,75.66,13.45Zm-.08-1.16v0Zm.05.36v0Zm-1.86,4.82,0,0Zm.35-.4,0-.06Zm.35-.46,0,0Zm.27-.41,0-.07Zm.47-.9,0-.06Zm-1.86,2.59,0,0Zm-.43.4.06,0Zm-2.11,1.55,0,0Zm1.12-.76L72,19ZM70.61,15l.08-.09Zm.34-.47.08-.14Zm.23-.41.07-.14Zm.18-.44,0-.11Zm.14-.52s0-.06,0-.09S71.51,13.15,71.5,13.19Zm0-.42s0-.09,0-.14S71.54,12.72,71.54,12.77Zm0-.57s0,.09,0,.13S71.51,12.24,71.51,12.2Zm-55.13.15,0,0h0l-.27.21.47-.37Zm.24-.19.48-.37Zm.54-.41.5-.36Zm-3.7,7.54.14-.2.37-.5.2-.25.38-.47.18-.21.59-.66.11-.11.54-.55.2-.19.51-.48.19-.17.58-.5c1,4.84,7.94,9,17.93,10.79h0c0,.62,0,1.24,0,1.87,0,10,2.6,18,6.42,21.54-17.55-1.4-31.1-10.49-31.1-21.5A14.63,14.63,0,0,1,13.46,19.29Zm68.93-.53.19.32Zm.31.53.18.32Zm.29.54.16.32Zm.27.54.25.55Zm.37.84.1.26Zm.22.56.09.26Zm.2.56.08.26Zm.18.57.07.26Zm.16.57.06.26Zm.13.58.05.26Zm.11.58,0,.26Zm.09.59,0,.25Zm.07.6c0,.08,0,.16,0,.23C84.79,26,84.79,25.89,84.78,25.81Zm0,.63c0,.07,0,.13,0,.2S84.83,26.51,84.82,26.44Zm-8.2-14.06h0l-.11-.08-.3-.23-.29-.22-.58-.42h0a27.49,27.49,0,0,1,5.21,4.78A26.46,26.46,0,0,0,76.63,12.38Zm3.94,3.82.32.4Zm.4.5.28.36Zm.38.5.25.35Zm.36.51.23.33Zm.35.52.21.33ZM15.54,13a25.4,25.4,0,0,0-3.47,3.58A25.39,25.39,0,0,1,15.54,13Zm.5-.41-.47.39Zm-5.34,6,.26-.41Zm.33-.51.27-.4Zm.34-.5.29-.41Zm.35-.49.32-.42Zm32.8,34.13c-20.27-.64-36.39-11.14-36.39-24,0-.35,0-.7,0-1,0,.35,0,.7,0,1C8.13,40.08,24.25,50.57,44.51,51.22ZM8.17,26.09c0-.14,0-.29,0-.43C8.2,25.8,8.18,25.94,8.17,26.09Zm.06-.58c0-.13,0-.27.05-.4C8.26,25.23,8.24,25.37,8.23,25.5Zm.08-.58c0-.13,0-.26.07-.39C8.35,24.66,8.33,24.79,8.31,24.92Zm.1-.57L8.48,24Zm.12-.57.09-.38Zm.14-.56.11-.39Zm.16-.55.13-.4ZM9,22.16l.16-.44Zm.17-.47a17.6,17.6,0,0,1,.93-2.05A17.59,17.59,0,0,0,9.16,21.69Zm.94-2.06.25-.45Zm.29-.53.25-.42Z"/></g></g></svg>