<?xml version="1.0" encoding="utf-8"?>
<!-- Generator: Adobe Illustrator 22.1.0, SVG Export Plug-In . SVG Version: 6.00 Build 0)  -->
<svg version="1.1" id="Layer_1" xmlns="http://www.w3.org/2000/svg" xmlns:xlink="http://www.w3.org/1999/xlink" x="0px" y="0px"
	 viewBox="0 0 154 73.3" style="enable-background:new 0 0 154 73.3;" xml:space="preserve">
<style type="text/css">
	.st0{clip-path:url(#SVGID_2_);fill:#FFFFFF;}
</style>
<g>
	<defs>
		<rect id="SVGID_1_" width="154" height="73.3"/>
	</defs>
	<clipPath id="SVGID_2_">
		<use xlink:href="#SVGID_1_"  style="overflow:visible;"/>
	</clipPath>
	<path class="st0" d="M108.7,37.7c0.3-0.1,0.9-0.4,1.1-0.5c0.3-0.2,0.3-0.3,0.2-0.5c-0.4-1.2-0.6-2.5-0.6-3.9
		c0-6.9,5.6-12.5,12.5-12.5c6.9,0,12.5,5.6,12.5,12.5c0,1.8-0.4,3.5-1,5c-0.1,0.1-0.1,0.3,0.1,0.4c0.2,0.1,1,0.4,1.2,0.5
		c0.2,0.1,0.4,0,0.5-0.2c0.8-1.8,1.2-3.7,1.2-5.7c0-8-6.5-14.4-14.4-14.4c-8,0-14.4,6.5-14.4,14.4c0,1.6,0.3,3.2,0.8,4.7
		C108.3,37.7,108.4,37.9,108.7,37.7"/>
	<path class="st0" d="M105,39.4c0.3-0.2,1.3-0.6,1.6-0.8c0.3-0.1,0.2-0.4,0.2-0.5c-0.6-1.7-0.9-3.5-0.9-5.4c0-8.8,7.2-16,16-16
		c8.8,0,16,7.2,16,16c0,2.3-0.5,4.4-1.3,6.4c0,0.1-0.1,0.3,0.2,0.4c0.2,0.1,1.4,0.6,1.6,0.7c0.2,0.1,0.4,0.1,0.5-0.2
		c1-2.2,1.5-4.7,1.5-7.3c0-10.2-8.3-18.5-18.4-18.5c-10.2,0-18.5,8.3-18.5,18.5c0,2.2,0.4,4.4,1.1,6.4
		C104.6,39.3,104.7,39.6,105,39.4"/>
	<path class="st0" d="M100.1,41.7c0.4-0.2,2.5-1.2,2.9-1.3c0.4-0.2,0.2-0.5,0.2-0.6c-0.8-2.2-1.2-4.5-1.2-6.9c0-11.1,9-20,20-20
		c11,0,20,9,20,20c0,2.8-0.6,5.4-1.6,7.9c-0.1,0.1-0.1,0.4,0.2,0.6c0.3,0.2,2.5,1.1,2.7,1.2c0.3,0.1,0.5,0.1,0.7-0.3
		c1.2-2.9,1.9-6.1,1.9-9.4c0-13.2-10.7-24-23.9-24c-13.2,0-24,10.8-24,24c0,3,0.6,5.9,1.6,8.6C99.6,41.6,99.7,41.9,100.1,41.7"/>
	<path class="st0" d="M121.9,27.6c1.4,0,2.6-1.1,2.6-2.6c0-1.4-1.2-2.6-2.6-2.6c-1.4,0-2.6,1.1-2.6,2.6
		C119.3,26.5,120.5,27.6,121.9,27.6"/>
	<path class="st0" d="M122.8,41.1c0.5,0,0.9-0.4,0.9-0.9v-5.6c0-0.7,0.5-1.6,1-2.2l5.3-5.3c0.4-0.4,0.4-0.9,0-1.3l-1-1
		c-0.3-0.4-0.9-0.4-1.3,0l-4.8,4.8c-0.3,0.3-0.6,0.5-1.1,0.5c-0.6,0-0.8-0.2-1.1-0.5l-4.8-4.8c-0.4-0.4-0.9-0.4-1.3,0l-1,1
		c-0.4,0.3-0.4,0.9,0,1.3l5.3,5.3c0.5,0.5,1,1.4,1,2.2v5.6c0,0.5,0.4,0.9,0.9,0.9H122.8z"/>
	<path class="st0" d="M139.6,43.1c-0.9,0.3-2.6,2-3.3,2.7l-0.2,0c0.3-0.3,1.4-1.8,1.7-2.3c0.9-1.5-0.8-2.9-2.7-1.9
		c-0.7,0.4-1.9,1.7-2.5,2.1l-0.2,0c0.3-0.3,1.3-1.7,1.6-2.1c0.8-1.2-0.9-2.4-2.4-1.5c-1.1,0.6-1.9,1.5-2.8,2.2l-0.2,0
		c0.2-0.2,0.8-0.9,1.1-1.2c0.9-1-0.4-2.1-1.7-1.4c-1.3,0.7-3.1,2.5-5.1,3.8c0.9,0.5,2.6,0.6,5.2,1.7c2.6,1.1,3.5,3.7,1.8,5.8
		c-1.6,1.9-4,1.3-6,0.6c-2.4-0.8-3.2-1.5-6.1-2.5c-1.9-0.7-2.7-0.6-2.6-1.2c0-0.6,1.7-0.2,3.2,0.3c4.2,1.5,9.9,5,11.2,1.3
		c1.1-3-3.8-4.2-5.7-4.6c-2.6-0.5-4.4-2.4-6.6-3.6c-3.4-1.8-6-1.9-8-1.5c-2.1,0.4-5.1,2.1-6.9,3.2c-1.3,0.7-1.2,1.9,0.1,3.6
		c4.3,6.2,11.5,10.2,19.6,10.2c8.6,0,16.1-4.6,20.4-11.4C143.2,43.9,141.7,42.3,139.6,43.1"/>
	<path class="st0" d="M70.9,59.6c0,0.7,2.5,1.4,3.8,1.4c1.3,0,3.1-0.5,4-2.8c1-2.4,5-16.3,5-16.3l0.5,0c0.9-0.2,1.2-0.7,1.2-2.1
		c0-0.5-0.1-0.5-0.5-0.5h-3.3c-0.3,0-0.4,0.1-0.5,0.4l-2.8,10.7l-2.9-10.7c-0.1-0.3-0.1-0.4-0.4-0.4h-3.3c-0.4,0-0.5,0-0.5,0.5
		c0,1.4,0.3,1.9,1.3,2.1l0.5,0c0,0,2.7,9.3,4.1,13.2l-0.2,0.8c-0.4,1.5-1.2,2.1-2.4,2.1c-0.3,0-1.9-0.2-1.9-0.2
		c-0.9-0.1-1.2,0.3-1.3,0.6C71,58.9,70.9,59.5,70.9,59.6"/>
	<path class="st0" d="M59.5,34.1h-4c-0.3,0-0.4,0-0.4,0.4l-2.2,13.9l-2.7-13.8c-0.1-0.4-0.1-0.5-0.5-0.5h-1.8
		c-0.7,0-0.7,0.1-0.8,0.5l-2.8,13.8l-2.1-13.9c-0.1-0.4-0.1-0.4-0.4-0.4h-4.1c-0.4,0-0.5,0-0.5,0.6c0,1.5,0.4,2.1,1.5,2.2l0.4,0
		l3.1,17.1c0.1,0.4,0.1,0.5,0.5,0.5h2.7c0.4,0,0.4,0,0.5-0.5l2.7-13.3L50.8,54c0.1,0.4,0.1,0.5,0.5,0.5h2.7c0.4,0,0.4-0.1,0.5-0.5
		l3.5-17.1l0.4,0c1.1-0.1,1.4-0.7,1.4-2.2C59.9,34.2,59.9,34.1,59.5,34.1"/>
	<path class="st0" d="M69.9,51.7c-0.2-0.6-0.3-1.3-0.3-2.7v-5.4c0-3.4-1.5-4.9-4.8-4.9c-2.3,0-4.8,1-4.8,1.6c0,0.1,0.1,0.6,0.3,1
		c0.1,0.2,0.2,0.7,1.2,0.6c0.4,0,2.1-0.4,2.8-0.4c1.9,0,2.1,1.1,2.1,2.4v1.1c-2.4,0-7.4,0-7.4,5.1c0,2.9,1.6,4.7,4.2,4.7
		c2,0,2.9-1.1,3.5-1.7l0.2-0.2l0.1,0.4c0.1,0.6,0.2,1.1,0.7,1.1H71c0.4,0,0.5,0,0.5-0.5C71.5,52.4,71.2,51.8,69.9,51.7 M66.3,51
		c-0.4,0.4-1.2,1.2-2.2,1.2c-1.1,0-2-1-2-2.2c0-2.8,3.3-2.6,4.2-2.6V51z"/>
	<path class="st0" d="M45.8,26.6l-0.4,0V14.5c0-0.3,0-0.3-0.3-0.3h-4.8c-0.4,0-0.5,0-0.5,0.5c0,1.6,0.4,2.1,1.9,2.1h0.3v9.7l-0.4,0
		c-1.4,0-1.9,0.5-1.9,2.2c0,0.5,0.1,0.5,0.5,0.5h6.8c0.4,0,0.5,0,0.5-0.5C47.7,27.1,47.2,26.6,45.8,26.6"/>
	<path class="st0" d="M43.8,8.4c-1.1,0-2,1-2,2.2c0,1.2,0.9,2.2,2,2.2c1.1,0,2-1,2-2.2C45.8,9.4,44.9,8.4,43.8,8.4"/>
	<path class="st0" d="M21.1,12.3L21.1,12.3c1.5,0,2-0.5,2-2.2c0-0.5-0.1-0.5-0.5-0.5h-6.6c-0.4,0-0.4,0.1-0.5,0.3l0,0.3
		c0,1.7,0.5,2.2,1.9,2.2h0.1v9.9c0,1.9,0,4.5-3.1,4.5c-2.8,0-3-2-3-4.5v-9.9h0.1c1.4,0,1.9-0.5,1.9-2.2l0-0.3c0-0.2-0.1-0.2-0.5-0.2
		H6.4C6,9.5,5.9,9.5,5.9,10c0,1.7,0.4,2.2,1.9,2.2h0.1v9.9c0,5.3,2,7.6,6.6,7.6c4.6,0,6.6-2.3,6.6-7.6V12.3z"/>
	<path class="st0" d="M36.4,26.6v-8.2c0-3.3-1.1-4.8-3.5-4.8c-2.2,0-3.4,1.3-4.3,2.2c-0.1-0.4-0.2-0.6-0.2-0.6
		c-0.1-0.7-0.3-1.1-0.7-1.1H24c-0.4,0-0.5,0-0.5,0.5c0,1.6,0.4,2.1,1.7,2.1c0.2,0.7,0.3,1.2,0.3,2.7v7c-1.4,0-1.8,0.5-1.8,2.2
		c0,0.5,0.1,0.5,0.5,0.5h4.4c0.3,0,0.3,0,0.3-0.3V18c0.4-0.4,1.3-1.3,2.5-1.3c1.7,0,1.7,1.9,1.7,2.7V29c0,0.3,0,0.3,0.3,0.3h4.4
		c0.4,0,0.5,0,0.5-0.5C38.2,27.1,37.8,26.6,36.4,26.6"/>
	<path class="st0" d="M54.1,29.8c1.9,0,3.5-0.5,3.5-0.9c0-0.1-0.1-0.6-0.2-0.9c-0.3-1.1-0.4-1.6-2.5-1.3c-0.3,0-0.5,0-0.7-0.2
		c-0.4-0.4-0.4-1.3-0.4-2v-7.6h1.9c1.4,0,1.9-0.5,1.9-2.1c0-0.5-0.1-0.5-0.5-0.5h-3.2V9.9c0-0.4,0-0.4-0.2-0.4
		c-0.1,0-0.8,0.1-1.2,0.1c-1,0.2-2,0.9-2,2.6v1.9h-1.9c-0.4,0-0.5,0-0.5,0.5c0,1.6,0.4,2.1,1.9,2.1h0.5v7.1
		C50.6,26.8,50.6,29.8,54.1,29.8"/>
	<path class="st0" d="M70.3,22c0-5.5-1.9-8.4-5.5-8.4c-3.6,0-6,3.3-6,8.2c0,6.6,3.3,7.9,6.2,7.9c2.3,0,4.9-1.1,4.9-1.7
		c0-0.1-0.1-0.6-0.3-1.1c-0.1-0.3-0.3-0.7-1.3-0.6c-0.7,0-1.9,0.4-3,0.4c-2.1,0-3.2-1.3-3.2-4.1h7.6C70.2,22.7,70.3,22.6,70.3,22
		 M62.3,20l0-0.3c0.1-1,0.3-3.4,2.4-3.4c2.1,0,2.1,2.4,2.1,3.7H62.3z"/>
	<path class="st0" d="M83.8,26.6c-0.2-0.6-0.3-1.2-0.3-2.7V8.8c0-0.3,0-0.3-0.3-0.3h-4.4c-0.4,0-0.5,0-0.5,0.5
		c0,1.6,0.4,2.1,1.8,2.2h0.1v3.5l-0.3-0.2c-0.5-0.4-1.2-0.8-2.7-0.8c-3.4,0-5.3,3-5.3,8.7c0,4.8,1.7,7.5,4.7,7.5c2.4,0,4-1.8,4-1.8
		l0.2,0.7c0.1,0.5,0.2,0.6,0.6,0.6h3.9c0.4,0,0.5,0,0.5-0.5C85.7,27.1,85.3,26.6,83.8,26.6 M77.8,26.9c-2,0-2.4-1.9-2.4-5.1
		c0-3.4,0.4-5.3,2.6-5.3c0.9,0,1.5,0.2,2.2,0.7v8.6C79.7,26.3,79.1,26.9,77.8,26.9"/>
	<path class="st0" d="M143.7,59.3c0-1,0.8-1.8,1.8-1.8c1,0,1.8,0.8,1.8,1.8c0,1-0.8,1.8-1.8,1.8C144.5,61.1,143.7,60.3,143.7,59.3
		 M147,59.3c0-0.8-0.6-1.5-1.5-1.5c-0.8,0-1.5,0.7-1.5,1.5c0,0.9,0.7,1.5,1.5,1.5C146.3,60.8,147,60.2,147,59.3 M145.1,60.4h-0.3
		v-2.1h0.8c0.5,0,0.7,0.2,0.7,0.6c0,0.4-0.2,0.5-0.5,0.6l0.6,0.9H146l-0.6-0.9h-0.3V60.4z M145.1,59.2h0.3c0.4,0,0.5-0.1,0.5-0.3
		c0-0.2-0.1-0.3-0.5-0.3h-0.4V59.2z"/>
	<path class="st0" d="M0,0l0,66.4h153.9L154,0H0z M1.3,1.3h89.1v63.7H1.3V1.3z M152.7,65.1H91.7l0-63.7h60.9V65.1z"/>
</g>
</svg>
