<svg xmlns="http://www.w3.org/2000/svg" viewBox="0 0 102.45 46.82"><defs><style>.cls-1{fill:#fff;}</style></defs><title>voskos</title><g id="Layer_2" data-name="Layer 2"><g id="Layer_1-2" data-name="Layer 1"><path class="cls-1" d="M100.67,9.1h.19c.21,0,.4-.07.4-.25s-.09-.25-.37-.25l-.22,0V9.1Zm0,.87h-.29V8.43a3,3,0,0,1,.54,0,.78.78,0,0,1,.49.12.4.4,0,0,1,.16.33.4.4,0,0,1-.31.37v0a.47.47,0,0,1,.26.37,1.17,1.17,0,0,0,.11.39h-.3a1.06,1.06,0,0,1-.12-.41c0-.17-.14-.24-.36-.24h-.19V10Zm.26-2a1.22,1.22,0,0,0,0,2.44,1.16,1.16,0,0,0,1.16-1.22,1.18,1.18,0,0,0-1.17-1.23Zm0-.26a1.49,1.49,0,1,1,0,3,1.49,1.49,0,1,1,0-3Z"/><path class="cls-1" d="M21.53,45.2l-.14.06c.13,0,.2-.05.14-.06Z"/><path class="cls-1" d="M19.64,45.66a10.25,10.25,0,0,0,1.75-.41c-.44.09-1.63.16-1.75.41Z"/><path class="cls-1" d="M21.53,44.84a4.63,4.63,0,0,1-.58.21c.36,0,.27-.11.58-.21Z"/><polygon class="cls-1" points="21.36 45.1 21.41 45.16 21.7 45 21.36 45.1 21.36 45.1"/><path class="cls-1" d="M20.43,23c.07,0,.12-.06.09-.11l-.09.11Z"/><path class="cls-1" d="M18.93,23.24l-.3,0a1.37,1.37,0,0,0,.3,0Z"/><polygon class="cls-1" points="21.79 23.36 21.54 23.27 21.79 23.36 21.79 23.36"/><path class="cls-1" d="M31.11,35.35a3.81,3.81,0,0,1,.07.67.63.63,0,0,0-.07-.67Z"/><path class="cls-1" d="M12.69,25.29l-.07,0c-.05.05-.07.09.07,0Z"/><path class="cls-1" d="M18.57,24.28a.08.08,0,0,0,0-.08l-.07,0,.1.07Z"/><path class="cls-1" d="M22.75,23.77h0l.22,0a.33.33,0,0,0-.23,0Z"/><path class="cls-1" d="M11,26.14a.94.94,0,0,0-.14.24c.14-.11.19-.21.14-.24Z"/><polygon class="cls-1" points="18.59 23.26 18.59 23.26 18.63 23.26 18.59 23.26 18.59 23.26"/><path class="cls-1" d="M20.52,24.33h-.29a.64.64,0,0,0,.29,0Z"/><path class="cls-1" d="M31.11,35.35l0-.21a.42.42,0,0,0,0,.21Z"/><path class="cls-1" d="M23.17,44.82c.19-.08.22-.14.23-.19a1.06,1.06,0,0,0-.23.19Z"/><polygon class="cls-1" points="19.18 46.03 19.26 46.02 19.18 46.03 19.18 46.03"/><path class="cls-1" d="M11.46,45.07h-.11c.06,0,.1,0,.11,0Z"/><path class="cls-1" d="M5.68,37.23l0,0-.14-.37v0l.14.37Zm5.08,6.12c-.3-.09-.29.16-.7-.15.36.14.36-.09.7.15ZM5.06,33.76c-.13.52-.14-.28-.24.06l.05-.28c-.19.43.08.34,0,.65L4.92,34c.13-.15,0,.33.12.37.06-.23.07-.8,0-.6ZM9.61,43a.83.83,0,0,0,.46.28A1.12,1.12,0,0,0,9.61,43ZM5,36.46l-.11-.37v.14s-.08.09-.13,0L4.73,36a.75.75,0,0,0,.05.18c.07.27.13.62.25.63-.07-.1-.18-.61-.08-.59l.08.2Zm.18-5,.06.33-.14.44c0-.26,0-.51.08-.76Zm5.86-6.15c.21-.09.27-.1.21-.18s.27-.1.36-.18c-.44.09-.35.23-.56.37a1,1,0,0,0-.19.1l.19-.1Zm-.37-.06c-.13.14-.92.44-.92.68-.37-.06.52-.5.92-.68ZM5.37,38.85c0,.15-.22-.11-.31-.43L5,38.65c.1,0,.32.59.4.63s0-.15,0-.43Zm10.12,6.78s0-.08.1-.11h.22c.28.11-.06.14-.32.11ZM12.64,45a.66.66,0,0,1-.18-.11l0,0a.27.27,0,0,0,.22.09l.3.14c0,.13-.42.07-.56.1a1.56,1.56,0,0,1,.69.13s0,.05-.19,0l.38.13c.49,0,.07-.19-.32-.36,0,0,0-.06-.1-.11a.38.38,0,0,0-.2,0Zm2.32.75c-.09.11-.11.28-.75,0,0-.14.18-.09,0-.3a1.93,1.93,0,0,1,.49.16c-.15,0-.31-.11-.38,0a1.46,1.46,0,0,0,.66.14.21.21,0,0,1,.17-.07s-.07.07-.17.07Zm.43.1-.3.12.29.07v-.19ZM11,44.8c.1,0,.57.16.47,0l-.47,0Zm.78,0L12,44.7l-.22,0-.06.16ZM7.81,42.57l-.55-.45c0,.23.43.47.68.69.15,0-.09-.12-.13-.24ZM4.5,37c-.09,0-.09.82.18.94A2.28,2.28,0,0,1,4.5,37Zm7.1-12.16-.53.26.57-.25Zm6-1.19a4.11,4.11,0,0,0-.47,0,2.83,2.83,0,0,1,.94-.11c-.5-.3-.18,0-1,0,1-.06.59-.21.54-.35-.19.17-1.45.19-1,.52.33-.1.8.19,1.05,0Zm7.76,1.75.89.46h0l.06,0H26l.17,0-.85-.47Zm1,.65.51.31-.29-.11.81.42a1.69,1.69,0,0,0-1-.62Zm.61.59c-.1,0,.05.16-.27,0,0-.08.13,0,.27,0a1.13,1.13,0,0,1,.25.15l-.25-.15ZM30.53,32s-.06,0-.1,0a.35.35,0,0,0-.1-.14.27.27,0,0,0,.1.14,1.47,1.47,0,0,1,.08.59c-.08-.06-.12-.34-.18-.44-.06.42.51,1.32,0,1.1.07.17.25.77.31.56-.06-.49-.13-1.41-.14-1.79,0,0,0-.07,0-.15a.62.62,0,0,0,0,.15Zm-.12,5,.05-.24.09-.09-.14.33ZM27.87,41l.29-.33-.24.07,0,.26Zm-1-13.9a6.06,6.06,0,0,1,.68.62c-.15-.11-.7-.49-.68-.62Zm-2.8-1.63a3.05,3.05,0,0,1,.6.29c-.16-.14-.52-.37-.6-.29ZM27.73,28l-.18-.1s0,0-.2-.11l.2.11c0-.07-.13-.3.18.1Zm-4.08-2.72-.2-.11c-.22-.18-.2-.4-.62-.36l.62.36a.71.71,0,0,0,.2.11Zm.78-.24a3.18,3.18,0,0,0-1.12-.1c.48.3.73.14.71,0,.41.08.28.16.47.27L24.43,25Zm-.14.32c.39.09,1,.39,1,.27-.07.17-.61,0-.76-.14a.64.64,0,0,0-.29-.13Zm-18,4.27a2.05,2.05,0,0,1,.6-1.09l-.21.38.07-.08V29c-.13-.25-.38.42-.48.64Zm14.6-5.31c.44.14.86.12.79,0-.38-.07-.95-.29-1.16-.17.22,0-.18.15.36.2Zm-2.18-.22h-.11L19,24l-.29.1ZM9.9,26.4c0,.08-.34.37-.4.53s0-.14,0-.24a1.09,1.09,0,0,0-.24.2c-.06-.23.33-.18.63-.49ZM5.3,32.82v0c0,.34-.21.43-.06.72a.77.77,0,0,0,.06-.72Zm1.3-4.68a2.6,2.6,0,0,1,.24-.39h0a3.15,3.15,0,0,0-.23.39Zm3.5-2.83H9.89l-.15.19.36-.18Zm20,11c.05.16.05-.2.08-.3,0,.16,0,.32-.06.48s0-.11,0-.18ZM10.61,26.26l.25-.16A.45.45,0,0,0,11,26l-.16.1c-.14.06-.27.05-.25.16ZM6.86,39.86c.18.44.66.7.9,1l-.14-.06.3.28-.09.07c.46.48,1,1.08,1.31,1.08l-.17.1.64.27-.39-.12a5.87,5.87,0,0,0,1.94.87l-.09,0a.87.87,0,0,0,.38.1l-.14.06a20.84,20.84,0,0,0,2.92,1c.37.12-.22,0-.24,0a1.7,1.7,0,0,0,.8.16c-.14.13-.72-.07-.3.16.34,0-.25.09.32.19l.26-.14c.3.1,0,.16.52.24s-.62-.33.25-.22a4.34,4.34,0,0,1,.6.24l.16,0h.45l.09.05a.76.76,0,0,0,.51.11c.74.16-.43.32.64.27a3.51,3.51,0,0,1-.71.11c.17.06.06.19.55.14a2.58,2.58,0,0,1,.7-.21c-1,.23.93.14,0,.42l.36,0s-.06,0,0,0l.49,0c-.3.07-1,.17-.67.28l.72,0c-.18.13.09.15.06.24a9.69,9.69,0,0,1-2.26.3c.11-.05.49-.06.35-.14-.69-.15-.52.14-1.32-.24l.38,0c-.07,0-.19,0,0,.05s.36.06.38,0a4.57,4.57,0,0,0-.6-.22l-.19-.06h0l.87,0h0l0,0-.09,0-.28.16c-1.13.16-.25-.15-.5-.15-.51.21-1.26-.14-1.68-.15l.29-.06a3.13,3.13,0,0,0-1.24-.28l.14-.07c-.69-.16-.93-.58-1.54-.39l.09,0a2.58,2.58,0,0,0-1-.29s0-.1-.13-.15-.45-.1-.85-.28c.28.07.26-.13.55-.07-.56-.39-.63,0-1.16-.24-.28-.22.32,0,.42,0-.88-.23-1.36-1.16-2-1.19l.24.31c-.34-.13-.47-.26-.42-.26a.2.2,0,0,0,.18.08c-.69-.78-1.4-.91-2-1.8.1,0,.21.13.26.1-.23-.42-.58-.15-.92-.88l.14.09c-.09-.25-.28-.36-.29-.32.24-.16-.88-1.44-.64-2.13a3,3,0,0,1-.69-1.67c.07-.5.28.37.41.16-.06-.36-.31-.51-.31-1.07-.2,0-.14,1.16-.42.1l.08-.16a1.13,1.13,0,0,0,0,.43c.16.29.06-.19.12-.28A7.31,7.31,0,0,1,4,34.65c-.18-.1-.15.6-.2.68,0-1,.45-2,.5-2.79l.05.09c.1-1.07.43-.51.42-1.39.19-.4.11.2.37-.41.07-.17,0-.1-.06-.07.29-.77.31-.25.52-1l.09.23a5.71,5.71,0,0,1,1.2-2.34c.06.12-.25.49-.28.71.43-1,1.73-1.82,2.45-2.48-.31.08.22-.52-.35-.22,0,.25-.33.33-.6.55.18-.72,2-1.14,2-1.49l.19.06c.12-.09.41-.38.16-.29.35-.14.7-.24,1.05-.36-.32.25-1,.78-1.23.79-.2.29.43-.13.28.16.53-.55.44-.09,1.09-.44-.39-.06.58-.55.51-.63a3.79,3.79,0,0,0,.93-.42c.41-.17,1.43-.24,2.11-.41-.25.11-.64.27-.59.4.32-.14.69-.2.78-.06-1.12.5-.45-.3-1.48.11a2.41,2.41,0,0,1-1,.58c.27,0,.18.1.31.18.53-.58,1.68-.47,2.51-.79.35-.17,0-.37.9-.48l-.76,0c.83,0,.18-.13.86-.23l-.26.14a1.68,1.68,0,0,0,.79-.15l-.34.22c.23,0,.64,0,.64-.11s.08.08.08.11A.8.8,0,0,1,18,23c-.15,0-.26,0-.26.06,1,0,.23.2.84.18-.1,0,.08.1.29.12,0-.31,1.19-.28,1.55-.39h0a4.35,4.35,0,0,1,.89.07c-.17,0,0,.1.21.2h0c.24.12-.38.22.39.36l.42,0c-.07,0,0,.05,0,.08l.43,0c.52.47,1.2.33,1.86.76-.2-.11-.52-.23-.42-.09a1,1,0,0,0,.47.16h-.05c.47.15.91.39,1.37.58-.16,0-.87-.4-.61-.11s.55.32.78.45c0-.08-.37-.39.08-.17,0,.06.39.37.17.3.45.24,1,.68,1.49.86.09.12-.11,0-.17,0v0c-.27-.16-.17.12-.58-.32-.2.18.64.58,1,1a6.53,6.53,0,0,0-.74-.42c.85,1.09,2.29,2.31,2.86,3.62-.11-.4-.32-.68-.13-.72a6.17,6.17,0,0,1,.74,1.48l0-.07c0,.46.39,1,.26,1.36-.13-.18,0-.66-.25-.61a10.87,10.87,0,0,1,.23,1.07c-.18-.32-.21-1.07-.37-1.46s.19.57.29.41a2.46,2.46,0,0,0-.92-1.53c-.27-.2.05.45.1.63a3.64,3.64,0,0,1,.79,2.42l-.11.55c.16.48.48.26.43,1.17l-.11-.27a2.09,2.09,0,0,0-.08.42A7.82,7.82,0,0,0,30.78,34c-.24.5.16,1.42.07,2.17,0,0,0-.3-.05-.38a10.6,10.6,0,0,1-.7,3.06c-.27.27.27-.68,0-.59-.13.44-.54.78-.49,1-.05-.28-.62.81-.28,0-1,1.2-2,2.67-3.19,3.82,0-.1,0-.15-.1-.13a4.16,4.16,0,0,0,1.05-1.28c-.31.19-.5.68-.62.71.1-.16.36-.4.29-.49-.42.22-.49.52-.72.76l.17-.08c-.67.78-.2.65-1.11,1.27-.42.09-.06-.09-.14-.24-.19.19-1,.43-1.13.72l.58-.31a8,8,0,0,1-1,.63.22.22,0,0,1,.11-.14,5.2,5.2,0,0,0-.9.52l-.16-.14a1.59,1.59,0,0,0,.91-.36c-.12-.13-.68.24-1,.3,1.16-.51,1.08-.72,2-1.14l-.13.14c.66-.18,1.07-.81,1.53-1.13-.15.07-.22,0-.18,0a15.88,15.88,0,0,0,2.84-2.78l.14-.45.12.06c.49-.52,0-.23.23-.59-.09.13-.06.13-.06.17.31-.73.36-.28.55-.69,0,.26-.43.74-.16.69.39-.72.88-1.87.59-2.08a8.19,8.19,0,0,0,0-4.46c0-.17.06.09.09,0-.22-.44-.31-1.6-.48-1.55a1.07,1.07,0,0,1,0-.45c-.2-.25-.41-.57-.64-.89l.19.23v0l-.27-.32v0a6.67,6.67,0,0,0-2.17-2.12c.48.25,0-.23.26-.13a13.14,13.14,0,0,1-2.15-1.23s0-.12.11-.1l-.5-.18.09,0c-.84-.45-1.86-.62-2.42-.89.38.08.4,0,.47,0a16.25,16.25,0,0,0-2-.49s.06,0,.07,0a1.86,1.86,0,0,0-.62,0l0-.14a7.6,7.6,0,0,0-1.42,0c-.19-.14-1.18.11-1.72.13-.21.05.45-.19-.14-.13-.05.29-.77.07-.77.4l-.53,0-.08.17c-.48-.19-.64.21-1.27.31,0,0,.09-.07.05-.08-.19.09-.65.24-.27.22-.33.09-1.41.5-1,.19,0,.09.43-.11.62-.2-.06-.12-.55.08-.72,0l-.11.1-.1,0c-.54.4-1.21.51-1.53.93,0,0-.15,0-.34.12l.07.15-.59.33.15-.36c-.71.3-.91.92-1.38,1.28-.32-.12-.77.87-1.31,1.08a3.14,3.14,0,0,1,.27-.39A7.35,7.35,0,0,0,6.57,30a5.89,5.89,0,0,1,1.37-1.39A11.89,11.89,0,0,0,6.27,31.1c0-.1.06-.34-.12-.14,0,.24-.36.89-.15.81-.15.29-.32.3-.39.49,0,.38,0,.76,0,1.15l0,0c-.77,1.91.12,3.37.74,5.11H6.19a2.44,2.44,0,0,0,.33.36c-.26-.28,0,.19-.07.25a11.74,11.74,0,0,0,.79.93c0,.06-.26.12-.37-.16Z"/><path class="cls-1" d="M10.19,44.52a1.37,1.37,0,0,0,.28.11l-.28-.11Z"/><path class="cls-1" d="M12,24s.07,0,.13,0,0,0-.13,0Z"/><polygon class="cls-1" points="13.02 23.61 13.06 23.6 13.09 23.58 13.02 23.61 13.02 23.61"/><path class="cls-1" d="M23.52,44.83c-.16.22.22-.06.39-.13-.17.07-.28,0-.39.13Z"/><path class="cls-1" d="M24.71,44a1.57,1.57,0,0,1-.35.3,1.17,1.17,0,0,0,.35-.3Z"/><path class="cls-1" d="M23.7,44.57a2.12,2.12,0,0,0,.66-.31l-.66.31Z"/><path class="cls-1" d="M27.7,41.51a1.91,1.91,0,0,1-.42.52c.7-.65,0,.26,0,.35.41-.44.31-.53.45-.87Z"/><path class="cls-1" d="M28.5,40.54a1.64,1.64,0,0,1-.18.19.82.82,0,0,0,.18-.19Z"/><path class="cls-1" d="M28.78,40.32a1.17,1.17,0,0,0,.22-.58c-.3.26-.34.56-.51.81.15-.18.28-.36.29-.22Z"/><path class="cls-1" d="M30.75,30.58c0,.07.11.25.16.24l-.21-.55c-.13-.2,0,.19,0,.31Z"/><path class="cls-1" d="M29.52,28.83c-.27-.36,0-.25-.18-.42l-.13.13.31.29Z"/><polygon class="cls-1" points="28.86 29.55 28.94 29.65 28.86 29.53 28.86 29.55 28.86 29.55"/><path class="cls-1" d="M28.25,27l.37.08c-.32-.24-.43-.13-.37-.08Z"/><path class="cls-1" d="M27,25.81l.25.12c-.24-.16-.46-.33-.7-.48.16.1.3.24.45.35Z"/><path class="cls-1" d="M25.2,24.75l0-.08a2.77,2.77,0,0,0-.53-.22,3.26,3.26,0,0,1,.57.29Z"/><path class="cls-1" d="M5.29,29.82c.13.16.46-.68.67-.85-.32,0-.3.65-.67.85Z"/><path class="cls-1" d="M9.5,44.12a7.62,7.62,0,0,1-.78-.41c.54.43.16.1.78.41Z"/><path class="cls-1" d="M30.72,32.82a9.31,9.31,0,0,0-3-5.62,14.77,14.77,0,0,0-6.9-3.53,11.29,11.29,0,0,0-1.74-.17,18.28,18.28,0,0,0-3.1.13A15.69,15.69,0,0,0,9.38,26,10.92,10.92,0,0,0,5.29,30.6a10.7,10.7,0,0,0-.77,2.72,9,9,0,0,0-.14,2.6,11.07,11.07,0,0,0,2.88,6,8.21,8.21,0,0,0,2.57,2,18.42,18.42,0,0,0,2.63.92,14,14,0,0,0,4,.85,1,1,0,0,0,.39-.14,5.25,5.25,0,0,0,2.76.09,12.78,12.78,0,0,0,5.43-1.86,18.1,18.1,0,0,0,4.34-4.36A8.47,8.47,0,0,0,30.72,32.82ZM14.45,43.4a.87.87,0,0,1-.86,0,.53.53,0,0,1-.24-.38c0-1.05,0-2,0-2.81s0-1.46-.05-1.92-.08-1.08-.13-1.57-.11-.93-.19-1.34a4.36,4.36,0,0,0-.71-2A1.36,1.36,0,0,0,11,32.93a.86.86,0,0,0-.63.4.94.94,0,0,0-.18.72,1.11,1.11,0,0,0,.17.48.31.31,0,0,0,.29.14s.08-.08.12-.21a1.8,1.8,0,0,0,.08-.45.4.4,0,0,1,.1-.28.4.4,0,0,1,.26-.12.36.36,0,0,1,.33.2,1.72,1.72,0,0,1,.21.64,1.13,1.13,0,0,1-.14.84.85.85,0,0,1-.64.37,1.09,1.09,0,0,1-.94-.44,2.24,2.24,0,0,1-.55-1.14,2.72,2.72,0,0,1,.17-1.7,1.28,1.28,0,0,1,1-.77,2.11,2.11,0,0,1,2,1A8.58,8.58,0,0,1,14,36.1c0,.24.09.63.14,1.19s.1,1,.11,1.39,0,.66.07,1.29.06,1.11.09,1.44v.19q.09,1.18.15,1.57A.25.25,0,0,1,14.45,43.4Zm2.68.57c0,.13-.12.2-.22.21a.31.31,0,0,1-.27-.16,1,1,0,0,1-.18-.46v0c-.12-1-.27-2-.43-3s-.32-2-.48-3a23.6,23.6,0,0,0-.65-3,5.37,5.37,0,0,0-.78-1.63,1,1,0,0,1-.14-.25,1.25,1.25,0,0,1-.09-.29,1,1,0,0,1,.1-.67.57.57,0,0,1,.44-.32,2.68,2.68,0,0,1,1,1.34,14,14,0,0,1,.72,2.85l.48,2.8q.14.81.33,2.45c.13,1.09.21,2,.25,2.6A1.55,1.55,0,0,1,17.13,44Zm2.76-.5a.22.22,0,0,1-.15.17.31.31,0,0,1-.24,0,.52.52,0,0,1-.24-.23,1.37,1.37,0,0,1-.12-.47c0-.18-.13-.82-.34-1.92s-.42-2.25-.65-3.43c0-.08-.05-.27-.12-.6q-.89-4.58-1.21-5.92a.42.42,0,0,1,.29-.32.55.55,0,0,1,.46,0,.35.35,0,0,1,.12.14,1,1,0,0,1,.08.3q.24,1.91,1,6.23t1.11,5.69a.85.85,0,0,1,0,.2A.52.52,0,0,1,19.89,43.48Zm2.4-.06c0,.13-.11.2-.21.21a.32.32,0,0,1-.28-.16,1.67,1.67,0,0,1-.24-.54c-.18-.63-.39-1.48-.63-2.55s-.41-1.89-.5-2.43L20,35.15a14.17,14.17,0,0,1-.26-2.89,2.33,2.33,0,0,1,.51-1.5.66.66,0,0,1,.53.22,1.15,1.15,0,0,1,.32.63,1.12,1.12,0,0,1,0,.57,4.7,4.7,0,0,0-.21,1.73,24.74,24.74,0,0,0,.37,3c.16.92.33,1.91.53,3s.4,2,.6,3v0A1.07,1.07,0,0,1,22.3,43.42Zm3.81-9.94a1,1,0,0,1-.76.63,1,1,0,0,1-.74-.22,1.24,1.24,0,0,1-.41-.78,1.73,1.73,0,0,1,0-.66c0-.16.13-.25.25-.26a.46.46,0,0,1,.3.05.53.53,0,0,1,.18.25,2.49,2.49,0,0,0,.22.43c.09.13.15.18.2.18a.26.26,0,0,0,.23-.2,1.07,1.07,0,0,0,0-.5,1,1,0,0,0-.41-.65,1,1,0,0,0-.74-.25,1.19,1.19,0,0,0-1.06.76,4.06,4.06,0,0,0,0,2.05c.07.41.16.85.28,1.34s.25,1,.4,1.54.32,1.07.59,1.86.58,1.69.95,2.71a.47.47,0,0,1-.09.42.67.67,0,0,1-.45.19.81.81,0,0,1-.39,0,.28.28,0,0,1-.18-.22c0-.26-.17-.77-.38-1.54l0-.19c-.08-.33-.21-.8-.4-1.41s-.3-1-.36-1.25-.22-.82-.35-1.36-.22-.94-.26-1.18a7.91,7.91,0,0,1,0-3.63,1.81,1.81,0,0,1,1.61-1.39,1.48,1.48,0,0,1,1.26.51,3,3,0,0,1,.74,1.61A2.11,2.11,0,0,1,26.1,33.48Zm.25-4.9a.19.19,0,0,1-.1.13.52.52,0,0,1-.23.07c-1,0-2.68.17-5,.42a42,42,0,0,0-4.3.61l-.16,0h-.23l-1.44.18-2.72.38-.47.07q-3.64.53-4.69.76a.64.64,0,0,1-.29-.4,1,1,0,0,1,0-.58.23.23,0,0,1,.1-.14A.68.68,0,0,1,7,30.07q1.53,0,5-.42a42.07,42.07,0,0,0,4.3-.61l.16,0h0a.38.38,0,0,1,.16,0h0l1.44-.18,2.71-.38.47-.07a42.51,42.51,0,0,0,5-1.12.65.65,0,0,1,.29.4C26.66,27.84,26.4,28.4,26.36,28.58Z"/><path class="cls-1" d="M2.76,5.89l-.89.74-.75.88C.73,8.1,0,8.61,0,9.13s.49.81.83,1.25c0,0,1.67,1,1.67,1L3.65,13l2.29,2.46,3.22,3.77,4.27,5.44.76,1,.42.6h0l.49,1.12.6.52.56.3.76.12c.68-.06,2.35-.32,2.73-.95,0,0,.49-2.33.49-2.33s.77-2.93.77-2.93l1.46-3.31,1.11-3.56,1.49-2.85.83-2.39c.32-1,1.78-3,1.75-3.31,0-.51-1.05-.83-1.5-1.22L25.35,5l-.05,0-.94-.41-.88-.16h-.1a1.5,1.5,0,0,0-1.16.71,2.64,2.64,0,0,0-.31,1.49,39,39,0,0,1-.94,4l-.73,3-1,3.05-1.07,3.29L17,22.16l-1-1-2.4-3.39-2.83-3.37L9.64,12.87a11.23,11.23,0,0,1-1-1.92L6.47,8.36A16,16,0,0,1,5.36,6.22c-.28-1-.81-.82-1.61-.75l-1,.42Z"/><path class="cls-1" d="M37.27,17a4.36,4.36,0,0,1,.5,2.24,5.81,5.81,0,0,1-.37,2.06A7.67,7.67,0,0,1,36,23.16c-.37.29-.82.84-1.23.95s-.8-.18-1.15-.18c-.83,0-1.32-.62-1.82-.94a4.34,4.34,0,0,1-1.28-1.22c-.31-.47-.88-.83-1-1.3a1.89,1.89,0,0,1,.16-1.18A5.46,5.46,0,0,1,30,17.53a4.1,4.1,0,0,1,.79-1.4,3.84,3.84,0,0,1,1.29-.95,4.11,4.11,0,0,1,1.75-.36c.49,0,.3-.22.63.14.5.54,1.46-.46,1.9-1.38s1-1.32.61-1.68a5.8,5.8,0,0,0-2.53-1,11.22,11.22,0,0,0-4.17,1,7.26,7.26,0,0,0-2.43,2.24,7.21,7.21,0,0,0-1.73,2.57,10.58,10.58,0,0,0-.86,3A7.55,7.55,0,0,0,26,23.06c.35.71,1.06,1,1.57,1.52.17.18.71.07.89.23s0,.57.16.7a7.65,7.65,0,0,0,2,1c.92.32,1.43.94,2.32.94A7.31,7.31,0,0,0,36,27.3a11.11,11.11,0,0,0,3-2,7.78,7.78,0,0,0,2-2.59,8.07,8.07,0,0,0,.76-3.56,11.45,11.45,0,0,0-.2-2.15c-.09-.49-.65-.92-.82-1.35s-.05-1.07-.4-1.52a3.11,3.11,0,0,0-1.18-1c-.44-.18-1.65.32-2,.51s-1.44.41-1.79.6-.67,1.13-.23,1.41c.22.14.76.38.76.38s.53-.14,1.05.69m-6.33-5Z"/><path class="cls-1" d="M79.92,16a3.22,3.22,0,0,1,.49,1.83,6.19,6.19,0,0,1-.29,2,7.35,7.35,0,0,1-1,1.84c-.32.29-.72.83-1.09.94s-.72-.16-1-.15c-.75,0-1.36-.61-1.81-.91s-.9-.2-1.18-.63a10.82,10.82,0,0,1-1.28-1.74A2,2,0,0,1,72.79,18a6.06,6.06,0,0,1,.59-1.7c.15-.52.66-.61,1-1a3.5,3.5,0,0,1,1.14-.94c.45-.24.71-.73,1.3-.75.43,0,.26-.22.57.12.46.51,1.3-.47,1.68-1.36s.88-1.29.52-1.63a4.94,4.94,0,0,0-2.3-.74,8.26,8.26,0,0,0-3.45,1.21,7.69,7.69,0,0,0-2.54,2,6,6,0,0,0-1.39,2.32c-.28,1-1.1,2-1.08,2.93a7.9,7.9,0,0,0,1.07,3.21,7.64,7.64,0,0,0,1.19,1.79c.16.17.64,0,.81.2s0,.54.16.67a6.7,6.7,0,0,0,1.78.94,7.64,7.64,0,0,0,2.5.54,6.24,6.24,0,0,0,2.84-.23,9.6,9.6,0,0,0,2.48-2.05,7.5,7.5,0,0,0,1.75-2.53,8.34,8.34,0,0,0,.79-3.46,11.33,11.33,0,0,0-.38-2.05c-.09-.47-.61-.87-.76-1.27s-.07-1-.38-1.45a2.81,2.81,0,0,0-1.08-.93c-.4-.17-1.48.34-1.79.53s-1.29.43-1.61.61-.58,1.1-.18,1.36a6.64,6.64,0,0,1,.69.66s.47-.14,1,.64m-5.12-3.95Z"/><path class="cls-1" d="M46.62,10.76Zm0,0a10.31,10.31,0,0,0-2,1.79,10.43,10.43,0,0,0-1.3,1.89,3.48,3.48,0,0,0-.51,1.63h0a3.19,3.19,0,0,0,.45,1.41l.89,1.4a13.31,13.31,0,0,1,1.67,1.7A7.12,7.12,0,0,0,47,21.68l.44.31L48,23a1.26,1.26,0,0,1,.21.69c0,.1-.47.51-.67.72a2.21,2.21,0,0,1-.78.29A7.41,7.41,0,0,1,45.4,25a5,5,0,0,0-1.74-.06l-.18,0-.88,0-.49.5c-.34.34.15.77.17,1.2,0,.05-.07.72-.07.72l.19-.1.17.86c.27.41.86.32,1.2.37.07,0,.9-.11.9-.11h.05l1.13,0,1-.14h.05a8.21,8.21,0,0,0,3.29-1.78c.6-.56,1.42-.86,1.77-1.43s0-.94.1-1.45c0,0,.16-1,.16-1v0a4.4,4.4,0,0,0-.64-2.21L49.52,18,48.2,15.84a1.94,1.94,0,0,1-.22-1.4c0-.45.25-.43.66-.77A4.86,4.86,0,0,1,51,12.95c1-.13,1.73.38,2.14.09s.57-1.51.55-2.14c0-.47-.4-.85-1-1l0,0-1-.19-1.12,0-.81,0a6.19,6.19,0,0,0-3,1.11Z"/><path class="cls-1" d="M91.06,28.1h0Zm.34-.42A7.72,7.72,0,0,0,93.2,26c.58-.74.27-1.21.58-1.84a3.83,3.83,0,0,0,.5-1.65h0a3.5,3.5,0,0,0-.39-1.45l-.79-1.45a13.21,13.21,0,0,1-1.51-1.78,7.25,7.25,0,0,0-1-1.16l-.4-.32-.57-1a1.39,1.39,0,0,1-.18-.71,7.11,7.11,0,0,1,.81-.93,3.68,3.68,0,0,1,.92-.5,12.15,12.15,0,0,1,1.64-.65,7.44,7.44,0,0,0,2.05-.41l.21-.09,1-.25.57-.63c.4-.42-.19-.72-.21-1.15,0-.05,0-1.14,0-1.14L96.22,9,96,8.24c-.32-.33-1-.09-1.42,0-.08,0-1.06.35-1.06.35h-.05l-1.34.32L91,9.69l-.06,0c-1.38.58-2.44.74-3.31,1.63a11.57,11.57,0,0,0-1.43,1.48c-.38.55-.21,1.3-.33,1.82,0,0-.16,1-.16,1v0A4.83,4.83,0,0,0,86.3,18l1.86,2.43,1.18,2.29a1.69,1.69,0,0,1,.35,1.05c0,.53-.28.5-.71.89a4.76,4.76,0,0,1-2.49.8c-1.06.13-1.83-.5-2.28-.16s-.64,1.77-.63,2.52c0,.56,0,1.09.64,1.34l.05,0,1.55.18,1.37-.34.87,0a6.67,6.67,0,0,0,3.34-1.24Z"/><path class="cls-1" d="M57.44.07l-1,.62-.91.63-.85.78-.33.8.48.29a2.89,2.89,0,0,1,.75,1.73c-.06,3.1-.21,11.3-.21,11.3l-.06,3.32s-.12,2.17-.12,2.17l-.13,2s-.1,1.53-.1,1.53l-.07,1a3.92,3.92,0,0,0,.11,1.5,1.33,1.33,0,0,0,1.19.93h.09l.81-.25.72-.51.55-.57a1.92,1.92,0,0,0,.49-1.14l0-1.43s.07-2.31.11-3.44c0-.37.42-.29.42-.29l1.24,1L64.3,25.2l3.15,3.24s.43,1.75.43,1.75a2.16,2.16,0,0,0,1,.55c.37.07,1-.35,1.51-.52h0a10.49,10.49,0,0,1,1.43-1l0,0,.6-.57c1-1.14-2.23-3.37-2.23-3.37l-3.37-3L65.45,21a14.73,14.73,0,0,1-2.93-2.2h0s-.42-.41-.87-.8l1.1-.73,1.7-1.53,1.43-.89L67,14.23s.82-.74.82-.74A7.71,7.71,0,0,0,69,13.12V13a4.1,4.1,0,0,0-1-2.06l-.15-.12,0,0a6.21,6.21,0,0,0-.58-.34l0,0-.76-.25-.92.28-1,1-.85.64c-.67.55-1.28,1.65-2,2.27-.91.75-2,1-2.57,1.51a.92.92,0,0,0,0-.1s.35-6.51.35-6.52A10,10,0,0,1,59.44,7,23.26,23.26,0,0,0,60,3.51s.2-1.56.2-1.56c0-.33-.12-.31-.47-.75L59.22.71l0,0A12.19,12.19,0,0,0,58.06,0l-.12,0-.51.07Z"/><path class="cls-1" d="M41,32.87a1.74,1.74,0,0,0-.36-.32l-.18-.25h-.22l-.42-.06h-.36l-.14.06,0,.08-.1,0h0l-.24.17a.64.64,0,0,0-.26.08h-.09l-.2.07-.12,0h0l-.25.17-.14.07-.1,0a.58.58,0,0,0-.42.24.3.3,0,0,0-.2.21l-.09,0h0l-.21.12h0l-.11.12-.23,0h0l-.25.25L36,34h0l-.07.14-.12,0h0l-.09.08-.13,0h0l-.05.13s-.28.2-.43.3l-.29.16h0l-.09.09h0l-.22.36h0l-.17.15h0l-.06.11,0,0h0a.52.52,0,0,1-.13.1.21.21,0,0,0-.09.08l-.13.09h0c-.05.2-.08.21-.14.21h0l-.1.1,0,0-.07,0h0l-.1.21-.3.66-.05,0h0l-.26.41h0s0,.48-.05.5l-.06.2h0l.09.32,0,.49h0l.35.75h0l.23.15.12.22h.33l.17.13h0l.87.19h0l.11,0h0s.15,0,.31-.08l.2-.07a1.51,1.51,0,0,0,.42-.14l.1,0h0l.21-.14h.25l.22-.14h.27l.26-.16.47-.11h0l.22-.23.09,0H38a1.88,1.88,0,0,0,.65-.16l-.08.17h0l-.08.56a.69.69,0,0,0,0,.12.79.79,0,0,1,0,.12,3.81,3.81,0,0,1-.18.44V41a2,2,0,0,0-.08.25l0,.15a1.52,1.52,0,0,0-.14.39l0,0h0V42l0,.07v.21l0,.09h0L38,42.8v.11a.85.85,0,0,0,0,.47l.11.26h0c.1.29.2.44.31.44s.4-.21.51-.63h0l-.06-.35V43a2.27,2.27,0,0,0,0-.55l.14-.27h0l0-.32.09-.22v-.12l0-.1.06-.13h0l0-.36.16-.41h0v-.19a1.93,1.93,0,0,0,.07-.42l.13-.25h0l.14-.44.22-.17h0l.11-.5.39-.76h0l-.19-.49A.68.68,0,0,0,40.1,37L40,36.83h0a.56.56,0,0,0-.37-.12.81.81,0,0,0-.46.18h0a2.28,2.28,0,0,1,0,.61l0,.11a1.18,1.18,0,0,0-.06.18h0a.76.76,0,0,0,0,.18l-.19.26-.12,0h0c0,.06-.4.19-.4.19h0a1,1,0,0,0-.52.22l-.82.25-.5.05h0l-.22.1a3.38,3.38,0,0,0-.5.14l0,0-.65.07-.09,0h0l-.08,0-.43-.13h-.37l-.25-.1-.22-.18,0,0a1.16,1.16,0,0,0-.09-.61l0-.21.33-.63.19-.44.38-.35h0l.28-.35.21-.19.4-.41.1-.06.14-.08a2.67,2.67,0,0,0,.49-.39l.19,0h0l.28-.2h0l.08-.16a4.05,4.05,0,0,0,.92-.54h.08a.77.77,0,0,0,.5-.26h0a.36.36,0,0,1,.17-.12l.19-.08h.22l.35-.15.19.08h0l.13-.1.16.1h0l.1,0,.24.22h0a1.16,1.16,0,0,0,1-1h0Z"/><path class="cls-1" d="M44.39,35.18l0,0,0,0h0v0Zm.65.69h.05l.18-.09.42-.09h0v0l.18-.46h0a.37.37,0,0,0-.08-.29.34.34,0,0,0-.24-.09h0l-.17,0a.34.34,0,0,0-.2.07h0l0,0h-.11v0l-.13,0h0l-.3.12h0l-.23.16h0l-.15.08h0l-.05.07-.07,0H44v0h0l-.08.09-.13.08h0l-.06.09,0,0-.1,0h0l-.14.2h0a1.09,1.09,0,0,0-.33.26h0l-.12.2-.16.17h0l0,.15-.16.1h0l-.08.2a.42.42,0,0,0-.12.12l0-.16h0l0-.26a.47.47,0,0,0,.09-.19.74.74,0,0,0,0-.16h0v-.22c0-.2,0-.4,0-.59l.1-.37h0l-.08-.16v-.3h-.05l-.28-.05h0c-.39.16-.6.33-.64.54a.37.37,0,0,0,0,.22l0,.1h0l0,.33h0l0,.05-.09.2h0l.07.16v.21l-.05.07v.07a.49.49,0,0,1,0,.23,1.77,1.77,0,0,1-.05.22h0v.16l-.07.14h0l0,.12-.09.3h0v.08l-.05.16h0v.15l0,0h0c0,.22,0,.35-.05.4a.69.69,0,0,0-.13.26.34.34,0,0,0,0,.24l0,.12h0a.47.47,0,0,0,0,.09.54.54,0,0,0,0,.11,2.72,2.72,0,0,0,0,.33l-.07.2h0l0,.11-.06.31v.05h0l.39.19h.06l.36-.21h0l.16-.13h0l.21-.32v-.07L41.9,40v-.1l0-.05h0v0h0l0,0h0v0h0l0,0h0a1.58,1.58,0,0,0,0-.18,4.62,4.62,0,0,0,.17-.44l.14-.22h0l0-.15.22-.49s.16-.25.16-.27l.11-.13h0l.09-.15a5.23,5.23,0,0,0,.32-.41l0,0h0l.22-.32a2.23,2.23,0,0,0,.3-.28h.1l.2-.25.25-.14h0l-.05,0,.07,0v0l.11-.08.18-.09h0l.15-.1.17,0Z"/><path class="cls-1" d="M48.54,35.57l-.21.25h0l0,.11V36l-.14,0h0v0l0,.1H48v0l-.09.14-.15.06h-.05l-.1.06-.15,0a.43.43,0,0,0-.09.08l-.07,0h0l-.45,0a3.4,3.4,0,0,0,.33-.52l.11-.07h0l.27-.38.14-.1h0l.26-.29,0,0h.13l.07-.08,0,0s.08-.05.09-.05l.14,0,.06.06h0a.45.45,0,0,0,0,.12,1.79,1.79,0,0,1,0,.24Zm.61.36h0l.07-.44.06-.13h0a.84.84,0,0,0-.09-.72v-.06h0l-.15-.18h0a1.21,1.21,0,0,1-.21-.19h0L48.76,34h-.1A.3.3,0,0,0,48.5,34a1.66,1.66,0,0,0-.44.13h0L48,34.2l-.12,0h0a.86.86,0,0,0-.18.18l-.3.18h0l-.1.12-.08,0h0l0,0H47v0a3.11,3.11,0,0,0-.14.31l0,0a2.62,2.62,0,0,0-.4.58l-.1.1h0c-.09,0-.47.68-.47.69a.18.18,0,0,1,0,.06h0a.84.84,0,0,0-.29.44l0,.2,0,.13,0,.06h0a.88.88,0,0,0-.12.27h0l-.08.11h0V38l-.1.21h0l-.07.28-.12.21h0l-.12.49h0v.59l0,.2v0h0l.09.09v.24h0l.08.05h0c0,.23.2.38.49.45l.07.06h.24a.5.5,0,0,0,.24.06h.1l.5-.06h.15l.09-.1.19-.06h.17l.17-.24.23-.15.2,0h0l.17-.24h.08a1.35,1.35,0,0,0,.27-.36,1,1,0,0,0,.32-.43.82.82,0,0,0-.11-.54v0h-.09a.72.72,0,0,0-.5.21h0a.37.37,0,0,1-.28.24h0l0,.06a.66.66,0,0,0-.17.14l-.3.1h-.1l-.15.19-.06,0h0l-.13.09-.22,0h-.39v0h-.06l-.21-.08,0-.06h0s0-.05,0-.15v0h0a.11.11,0,0,1,0-.11v-.07h0c0-.05,0-.14.07-.24l0,0h0c0-.06,0-.19.08-.42l.13-.22h0l0-.14.09-.07h0l.1-.26.13.09h.06l.3-.13H47l.24-.15h0a.51.51,0,0,0,.4-.2,8.52,8.52,0,0,0,.8-.51h0l.06-.2.28-.27h0L49,36l.11-.07Z"/><path class="cls-1" d="M52.78,35.57l-.21.25h0l0,.11V36l-.14,0h0v0l0,.1h-.07v0l-.09.14-.15.06h-.05l-.1.06-.16,0a.47.47,0,0,0-.08.08l-.07,0h0l-.45,0a3.65,3.65,0,0,0,.34-.52l.11-.07h0l.27-.38.14-.1h0l.26-.29,0,0h.13l.06-.08,0,0s.08-.05.1-.05l.14,0,.06.06h0a.47.47,0,0,0,0,.12,1.8,1.8,0,0,1,0,.24Zm.61.36h0s.07-.42.07-.44l.06-.13h0a.84.84,0,0,0-.09-.72v-.06h0l-.15-.18h0a1.24,1.24,0,0,1-.21-.19h0L53,34h-.1a.3.3,0,0,0-.16-.06,1.69,1.69,0,0,0-.44.13h0l-.05.07-.12,0h0a.87.87,0,0,0-.18.18,1.8,1.8,0,0,0-.3.18h0l-.1.12-.08,0h0l0,0h-.1v0a3,3,0,0,0-.14.31l0,0a2.45,2.45,0,0,0-.4.58l-.1.1h0c-.09,0-.47.68-.47.69a.2.2,0,0,1,0,.06h0a.83.83,0,0,0-.29.44l0,.2,0,.13,0,.06h0a.9.9,0,0,0-.12.27h0l-.08.11h0V38l-.1.21h0l-.07.28-.12.21h0l-.12.49h0v.59l0,.2v0h0l.1.09v.24h0l.08.05h0c0,.23.2.38.49.45l.07.06h.24a.48.48,0,0,0,.24.06h.1l.5-.06h.15l.09-.1.19-.06h.17l.17-.24.23-.15.2,0h0l.17-.24h.08a1.37,1.37,0,0,0,.27-.36,1,1,0,0,0,.32-.43.82.82,0,0,0-.11-.54v0h-.09a.73.73,0,0,0-.5.21h0a.38.38,0,0,1-.29.24h0l0,.06a.62.62,0,0,0-.17.14l-.3.1h-.1l-.15.19-.06,0h0l-.13.09-.22,0h-.39v0h-.06l-.21-.08,0-.06h0s0-.05,0-.15v0h0a.1.1,0,0,1,0-.11v0l0,0h0c0-.05,0-.14.06-.24l0,0h0c0-.06,0-.19.08-.42l.13-.22h0l0-.14.1-.07h0l.1-.26.13.09h.06l.3-.13h.21l.24-.15h0a.51.51,0,0,0,.4-.2,8.11,8.11,0,0,0,.8-.51h0l.06-.2.28-.27h0l.19-.34.11-.07Z"/><rect class="cls-1" x="55.15" y="37.63"/><path class="cls-1" d="M56.31,36.1l0,0,0,0h0v0Zm3.49-1.32h0ZM60,39a.3.3,0,0,0-.22-.08,1,1,0,0,0-.32.07h0l-.12.24-.15.16h0l-.29.41a1.13,1.13,0,0,1-.46.2h0l-.08,0h-.13L58,40l-.31-.17-.2-.24-.1-.2h0l-.07,0v0h0l-.24-.2-.1-.42h0l-.11-.09,0-.21.14,0,.14,0a5.24,5.24,0,0,0,1-.37h0c.07-.09.1-.1.1-.1h0l.24-.07h0l.1-.14.1-.06h0l0-.13a.3.3,0,0,0,.13,0h0l.18-.2h.09l.34-.4h0l.28-.51h0l0-.07a.91.91,0,0,0,.22-.39.57.57,0,0,0,0-.25l0-.06h0l-.1-.59h0a.11.11,0,0,0-.07,0v0h-.07a.4.4,0,0,0-.16-.24l0,0,0,0v0l-.07-.12h0v0H59.4l-.14-.11h0l-.88-.08h0a2.32,2.32,0,0,0-1.14.33l-.15,0h0l-.21.11h0l-.08.07a1.4,1.4,0,0,0-.43.27l-.3.15h0l-.13.2H55.7a.6.6,0,0,0-.15.26l-.23.31h0l-.14.3h0l0-.11a.43.43,0,0,1,.06-.17h0v-.29l0-.08h0l.15-.37h0v-.13l0-.06h0l0-.28.09-.26h0l0-.32.08-.22h0v-.24l.08-.43.16-.38h0l.06-.38h0l.19-.66,0-.08,0,0L56,31.56l-.28.16a1.13,1.13,0,0,0-.59.61l0,0v.12h0s0,.1,0,.26h0L55,33h0s0,.14,0,.16l-.2.45h0l0,.13h0l0,.45-.13.73h0v0l-.06.09h0l0,.27-.11.48h0v0l0,0h0l0,.05,0,.15-.08.22h0s0,.12,0,.14l-.06.09h0l-.09.38h0v0l0,0,0,.11-.06.24-.1.29c-.06.19-.11.38-.16.56l0,.15-.08.17h0l-.11.44,0,.14-.13.53-.06.25h0l0,.43h0c.08.18.19.27.32.27a.53.53,0,0,0,.34-.18.72.72,0,0,0,.23-.35l0-.15a1.72,1.72,0,0,1,.15-.38h0l.05-.22.07-.27,0-.19.08-.08h0a1,1,0,0,0,.19-.41v-.07a.35.35,0,0,1,0-.09h0a.67.67,0,0,0,.21-.39h0a.09.09,0,0,1,0-.07l0,0h0l0,0,0,0v0l0,0,0,0v0h0v0h0l0,0h0l.09-.15h0v0h.05l.13-.25.32-.45h0v0l.42-.39h0l.42-.33.27-.09h0a1.77,1.77,0,0,1,.52-.24h.18a1.1,1.1,0,0,1,.45-.18h.2l.43,0v0h0l.07,0v.16l0,0h0l.12,0,0,0-.09.2v0l0,0h0l0,0h0c-.06.14-.12.25-.16.34h-.1l-.25.34-.11.1-.24.12h0L58,37a.65.65,0,0,0-.3.13h-.3v0l-.1.15-.08,0a2.52,2.52,0,0,0-.43.15h-.1l0,0h-.21l-.13-.13-.13-.21h0L56,37h0c-.23,0-.41.22-.54.53v0l-.07.17h0l.09.52v0h0l.16.07a4.9,4.9,0,0,1,.23.44l.06.14v.08h0l.15.2.15.4h0c.18.22.32.41.42.54h0l.32.41h0l.39.29h.12l.1.1h.18l.15.08h0l.34,0h0l.24-.07h0l.53-.29h0l.1-.14.17-.12h0l.09-.14h0a.46.46,0,0,0,.13-.21,1.14,1.14,0,0,0,.39-.63l.1-.14h0A.45.45,0,0,0,60,39Z"/><path class="cls-1" d="M64.13,39.53l-.07.21,0-.11h0a.78.78,0,0,1,0-.08Z"/><path class="cls-1" d="M64.62,41.23v-.12l.16-.34h0v-.06h0l0-.38,0,0h0v-.07l.05-.09h0l.06-.34.23-.6h0a1.8,1.8,0,0,0,0-.28,1.89,1.89,0,0,1,0-.28,1,1,0,0,1,.27-.44h0v-.38s0-.16,0-.18l.16-.31h0V37l.15-.24h0l0-.12.08-.13.2-.24h0l.56-.56h0l.19-.34.16-.15.29-.18h0l.15-.21.1,0h0l.39-.27h0l.31-.31.22-.11h0a1.92,1.92,0,0,0,.26-.25H69l.22-.32.25-.19a.39.39,0,0,0,.29-.22h0a1,1,0,0,0,.22-.22h0a.54.54,0,0,1,.19-.26.48.48,0,0,0,.19-.22A2.69,2.69,0,0,0,70.4,32h0l0-.29v0h0l-.39,0-.17.1h0L69.5,32l-.38.18h0c-.13.28-.21.31-.23.31a2.77,2.77,0,0,0-.24.24l-.13.1h0l-.11.11h0l0,.15a1.06,1.06,0,0,0-.58.36h0l-.12.18-.23.24-.11,0h0l-.11.16h0a.6.6,0,0,0-.53.37h0l0,0-.11.05h0a1.29,1.29,0,0,0-.29.3.73.73,0,0,0-.24.31,1.54,1.54,0,0,0-.24.29h0a.82.82,0,0,0-.21.32c-.11-.21-.24-.45-.41-.75l-.13-.31-.38-1h0l-.13-.14-.13-.44,0-.12v0h0l-.23-.26-.11-.37v0h0l-.15-.06,0-.2v0h0a1.27,1.27,0,0,0-.47-.12A.47.47,0,0,0,63,32h-.15v0l-.14.35h0a.92.92,0,0,0,.27,1h0a.12.12,0,0,1,.09,0,.38.38,0,0,1,0,.27v0h0l.13.12,0,.12v0h0l.26.32.11.27,0,.19h0l.34.49.07.35h0l.15.13a1.62,1.62,0,0,0,.37.6l0,.12h0l.08.1V37h0a.24.24,0,0,1,0,.11,1.52,1.52,0,0,1-.18.37h0l0,.24,0,.25-.13.32h0l0,.21-.19.54h0l0,.32-.08.18a.54.54,0,0,0,0,.09.82.82,0,0,0,0,.11.52.52,0,0,0,0,.1h0l-.11.34h0l0,.43-.14.4h0v.09l0,.13,0,.14,0,.24h0v.39l-.05.65v0h0a.69.69,0,0,0,.56-.24,1.93,1.93,0,0,0,.32-.78l0-.09h0l.08-.16v-.21l0-.06Z"/><path class="cls-1" d="M70.74,36.88h0l0,.23,0,0h0a.39.39,0,0,0,0,.22v0l0,0h0a.82.82,0,0,0-.14.28.94.94,0,0,0,0,.22l-.05.06h0l-.06.09-.16.13h0l0,.17-.09.14h0l0,0-.19.1h0l-.17.21-.27.18h0l0,.05a1.23,1.23,0,0,0-.43.29l-.1,0h0l0,0-.14.1,0,0h-.05l-.08,0a.12.12,0,0,0-.08,0h-.08v0l-.06.1h-.33l0,0-.12-.06,0-.13,0-.16.09-.18h0l.09-.38h0v0l.2-.35h0l0-.16v-.05l0-.1.16-.26a.6.6,0,0,0,.2-.31v0h0l.17-.15h0a1.46,1.46,0,0,1,.12-.32l.13-.07h0l.12-.33.11-.06h0l.06-.13.26-.14h0l.24-.37.25-.25.06,0h0l.08,0,.2.1.06.07.07.26v0h.05a.28.28,0,0,0,0,.24.39.39,0,0,0,.11.23l0,0-.08.24h0ZM71.43,38h0a4.16,4.16,0,0,0,.17-.56l.12-.24h0s0-.44,0-.47l0-.13h0l-.06-.64h0l-.15-.37h0l0,0v0h0a3.13,3.13,0,0,0-.24-.46v0h-.12L71,34.8h-.11l-.07-.07-.51-.07h-.1a.4.4,0,0,0-.19-.06.59.59,0,0,0-.26.08h-.18v0c-.07.17-.58.49-.58.49h0v0l-.08.3-.2.2h-.08v.09l-.07.06h0l-.34.4h0a1.15,1.15,0,0,1-.17.38h0l0,.05h0V37l-.13.14h0l0,.21h0l-.07.18h0a.13.13,0,0,1,0,0h0v0h0a2.17,2.17,0,0,0-.27.45.76.76,0,0,0-.22.4v0l-.05.22-.08.2h0l0,.32-.09.16h0l.06.45-.1.2v0h0v0l.17.31.09.31v0h0l.47,0,.16.09h.05l.16,0h.18l.17-.13.11,0h0l.13-.09a.61.61,0,0,0,.29-.09h0a.71.71,0,0,0,.49-.28h0a1,1,0,0,0,.46-.32l.23-.09h0v0l0-.14.13-.07h0l.14-.22.15-.09h0l.07-.13.08,0h0l.15-.33.16-.14h0l.07-.18.08-.09h0l0-.14.09-.13Z"/><circle class="cls-1" cx="74.74" cy="44.5" transform="translate(-9.58 65.88) rotate(-45)"/><polygon class="cls-1" points="71.36 43.35 71.37 43.35 71.38 43.35 71.36 43.35 71.36 43.35"/><circle class="cls-1" cx="72.94" cy="36.31"/><path class="cls-1" d="M77.5,35l-.1-.12,0-.16h0a.42.42,0,0,0-.27-.14.72.72,0,0,0-.3.11h0l-.16.24h0v.13l0,.18h0l0,.12-.1.17h0l0,.18V36a3.39,3.39,0,0,1-.48.81h0L76,37l-.34.36-.28.31h0l0,0,0,0,0,0,0,0-.37.45h0l-.11.1-.17,0h0v0h0a.28.28,0,0,1-.11.14l-.21.1h0a.49.49,0,0,0-.09.16h0l-.55.32a.85.85,0,0,0-.25.27,2,2,0,0,0-.53.18.37.37,0,0,0-.16,0v-.07h-.06a.61.61,0,0,0,0-.23l0-.15h0s0-.12,0-.14l.24-.49h0l0-.12.1-.09h0l.25-.56.16-.15h0l.08-.25.22-.27h0l.08-.17.12-.08h0l.19-.25h.16v0l0-.08h.08v0l.14-.24.13-.09h0a.53.53,0,0,0,.27-.2h.26l0,0,0-.08.22-.11h.05l0,.06h0l.11.05.08.29v.06h.06l.31-.05h0l.2-.26h0s0-.12,0-.13l.08-.2h0v-.07h0l0-.18h0v-.07h0l0,0-.1-.17h0a.24.24,0,0,0-.16-.14h0l-.1-.08h-.22l-.13-.06h-.05l-.29.12h-.06a.71.71,0,0,0-.44.2h0l-.09.07-.09,0h0v0l0,0-.2.25,0,0h0a.7.7,0,0,0-.41.26.37.37,0,0,1-.14.17h0a.93.93,0,0,0-.25.31l-.17.17h0l-.16.22a.82.82,0,0,0-.22.24h0l0,0v0l-.05.08-.12.19-.18.27h0a2,2,0,0,1-.13.39l-.15.23h0l-.19.41h0s0,.12,0,.14l-.21.44h0l-.14.38h0l-.05.53h0l0,.28h0l.12.33h0l.19.33v0h.61a1,1,0,0,0,.6-.21.68.68,0,0,0,.28-.15h0l.19-.11h0l.17-.16.16-.09.19-.12h0l.14-.15a4.34,4.34,0,0,0,.73-.59l.38-.38.33-.23h0l.27-.38.2-.17h0l0,0-.06.27h0s0,.25,0,.26l-.09.36h0s0,.2,0,.22l-.16.64h0v.2a3.72,3.72,0,0,0-.2.58l0,.16,0,.08-.16.32-.14.36-.09.15h0l0,.16-.15.18h0l0,.16-.21.29-.41.36-.06,0v-.07l-.06,0-.06.09c-.08.12-.11.13-.11.13h-.05l-.06,0h0l-.11.09a1.21,1.21,0,0,0-.53.09l0,0h-.08l-.11,0h0v-.09H73.2l-.24.06-.34-.14.06-.06h0l0-.16v0h0l-.07-.08.06-.16V42.1h-.09a4,4,0,0,1-.57-.09h0a.4.4,0,0,0-.2.07c-.09,0-.2.11-.34.29h0s0,.18,0,.2l0,0h0a.7.7,0,0,0,.34.77h0l.12.1.16.25h0l.28,0,.06.09,0,0h0l.22-.06.22.06h.43a1.32,1.32,0,0,0,.34-.06h0v0h0l.06,0h.06a1.32,1.32,0,0,0,.53-.18l.09,0h0l.14-.11.18-.09h0l.25-.21h0l0,0,0,0v0l.11-.08.11-.09h0a4.65,4.65,0,0,0,.38-.47h0a1.23,1.23,0,0,0,.17-.27l0,0v0h0v0l.1-.21h0a.58.58,0,0,0,.1-.19h0l0-.08h0v0h0l0-.07,0,0h0v-.07l0,0h0l0,0h0v-.05h0v0l0,0,0-.12,0-.13c.24-.74.38-1.19.41-1.3v0a.49.49,0,0,0,.07-.16.49.49,0,0,0,0-.22l0,0h0v-.18l.22-.48h0l0-.48h0l0,0a1.24,1.24,0,0,0,.1-.24.82.82,0,0,0,0-.25h0l0-.24.08-.21,0-.06.08-.15,0,0,0-.09a.58.58,0,0,0,0-.22h0l0-.08.08-.22h0l-.06-.2V36l0-.09a.65.65,0,0,0,0-.29h0c0-.15,0-.27,0-.35l0-.29h0v0h0Z"/><rect class="cls-1" x="83.57" y="39.21"/><path class="cls-1" d="M78.65,41.55v0h0l0,0Zm-.25-4.2,0,0h0v0ZM78,39.1h0v0h0l0,0Zm5.92,0a.58.58,0,0,0-.26.07h0l0,0h0v0l0,0-.12.06-.17.09-.16.05-.26,0-.12,0v-.06h0l-.11-.08-.1-.19.07-.34v-.08h-.06l.1-.54h0l0-.35v-.07l.09-.08h0v0l0-.23.09-.14h0l0-.18.11-.07h0l.25-.53.22-.27h0l.25-.59h0l-.07-.22h0l-.21-.25h-.43v0a3.07,3.07,0,0,1-.3.52l0,0,0,0h0v0l0,.05h0l-.1.25-.27.46a.71.71,0,0,0-.25.32l-.05,0h0v0l0,.1-.08.07h0l-.27.13h0l-.09.18-.1,0-.05,0h0v.06l-.18.22a1.67,1.67,0,0,0-.21.18.77.77,0,0,0-.36.35l-.25.19h0v0a1,1,0,0,0-.29.18l0,0-.2.1h0l0,.09-.18,0h-.05v.05l0,.11a.41.41,0,0,0-.19.17l-.14.1,0,0a1.9,1.9,0,0,0,0-.27v0c.08-.08,0-.12,0-.2s.1-.19,0-.26l0-.17h0v-.17l.06-.2h0V37.8a3.14,3.14,0,0,0,.1-.37v0l0-.08h0v0h0v0l0,0v-.11l.13-.21h0s0-.07,0-.08l.09-.15h0l.06-.45h0v0l0,0s0,0,0-.1l.05-.24,0-.23.16-.35v0h0l-.15-.27v0h0l-.14,0-.08,0h0a.7.7,0,0,0-.64.54h0a2.82,2.82,0,0,1,0,.63l-.31.88h0l-.1.41v0l0,.13-.06.12,0,0,0,0v0a.27.27,0,0,1,0,.14.7.7,0,0,1-.07.18h0l0,.29-.08.36h0a2.11,2.11,0,0,0-.09.29A.16.16,0,0,0,78,39a.46.46,0,0,0,0,.08h0l0,0h0v.28l0,.17,0,0,0,0,0,0,0,0a.91.91,0,0,0,.06.18s0,.05,0,.07,0,.06,0,.1v0h0l.08.06a.3.3,0,0,0,.28.25h0l.2.13h.07l.41-.19h0l.28-.11h0l.15-.18.22-.13h0l.26-.3h.06l.51-.51,0,0h0a.52.52,0,0,0,.2-.15L81,38.7h0l.18-.3a.55.55,0,0,0,.22-.06h0l.07-.25.13,0a1.35,1.35,0,0,1,0,.4l-.11.38h0a.58.58,0,0,1,0,.24c0,.07,0,.15,0,.18l0,0,0,0,0,0,0,0v.17l.08.3h0l.35.43h0l.17.11h0l.27.06h.11a1.4,1.4,0,0,0,.65-.17h0a.24.24,0,0,0,.17-.11l.21-.07h0l.1-.11.09,0h0a.91.91,0,0,0,.31-.44.38.38,0,0,0,0-.33.35.35,0,0,0-.29-.1Z"/><circle class="cls-1" cx="79.68" cy="36.13"/><rect class="cls-1" x="79.32" y="37.21" transform="translate(-4.53 62.61) rotate(-41.99)"/><path class="cls-1" d="M89.21,34.49h0l-.16,0a.33.33,0,0,0-.2.07h0l0,0h-.07l0,0v0h0v0h0l-.15,0h0l-.3.12h0l-.22.16-.15.08h0l-.05.07-.07,0H87.6v0l-.08.09-.14.08h0l-.06.08,0,0-.1,0h0l-.14.2,0,0a1.15,1.15,0,0,0-.34.26h0l-.13.21-.16.17h0l0,.15-.16.1h0l-.08.2a.43.43,0,0,0-.12.12l0-.15h0s0-.25,0-.26a.46.46,0,0,0,.09-.18,1.14,1.14,0,0,0,0-.16h0V36h0v-.09c0-.16,0-.48,0-.5l.1-.37h0l-.07-.17v-.3h-.05l-.27-.06h0c-.39.15-.6.33-.64.54a.39.39,0,0,0,0,.22l0,.1h0l0,.33h0l0,.05,0,.17,0,.05v0h0V36l0,.09v.21l-.05.07v.07a.52.52,0,0,1,0,.23,1.35,1.35,0,0,1-.05.21h0s0,.13,0,.16l-.07.14h0l0,.12-.09.3h0s0,.07,0,.08l-.05.16h0v.15l0,0h0l-.05.4a.84.84,0,0,0-.1.5l0,.12h0a.23.23,0,0,0,0,.08,1,1,0,0,0,0,.12c0,.08,0,.2,0,.33l-.07.2h0l0,.11-.06.3v.05h0l.38.19h.06l.36-.21h0l.16-.13h0L85.6,40v-.07l-.14-.23v-.09l0-.05h0a0,0,0,0,1,0,0h0a.88.88,0,0,0,0-.18,4.18,4.18,0,0,0,.17-.44l.14-.21h0l0-.16s.17-.23.16-.27h0l0-.17.07,0h0l.06-.2.11-.13h0l.09-.15.16-.07h0c.06-.14.1-.24.13-.31l0,0h0l.22-.32a2.17,2.17,0,0,0,.3-.28h.11l.2-.24L88,36h0v-.06l.11-.08.18-.09h0l.15-.1.1.06h.07l.26-.18.42-.08h0v0l.18-.46h0a.38.38,0,0,0-.08-.3.34.34,0,0,0-.25-.09Z"/><circle class="cls-1" cx="86.05" cy="35.97"/><path class="cls-1" d="M94.27,35a.36.36,0,0,0-.31-.11h-.69l-.52.1-.61-.07h0l-.22,0,.07-.12v0h0v0l0-.1.11-.3h0s0-.21,0-.25l.13-.15h0l0-.19,0-.06h0s0-.15,0-.17l0-.08h0l0-.08,0-.08a.49.49,0,0,0,0-.23l0-.05h0a.44.44,0,0,0-.07-.36.38.38,0,0,0-.31-.11,2.87,2.87,0,0,0-.44.07h0l-.12.11h0l-.08.19h0a.64.64,0,0,0-.12.25.63.63,0,0,0,0,.31l0,.16-.11.4h0s0,.12,0,.16l-.14.08h0v0s.05.35.06.37L91,34.9h-.17l-.19-.06h0l-.14,0-.26-.05h-.06l-.28.25h0l0,0v0l.07.25v0a.48.48,0,0,0,0,.42.31.31,0,0,0,.26.11h0l.18,0h.06l.17.06h0l0,.15-.05.05h0v.22l-.09.24h0s0,.14,0,.15l-.05.15-.09.09h0l0,.29,0,.15h0v0h0v.16l-.06.14h0l-.06.64h0l.09.68h0l.09.17h0l.15.38h0v0h0l.08,0,.33.26H91a.46.46,0,0,0,.19,0,1.26,1.26,0,0,0,.29,0h0l.25-.07H92l.17-.15a2.09,2.09,0,0,0,1-1l0-.1v0h0a.46.46,0,0,0-.42-.21h0a.82.82,0,0,0-.46.33h0a.44.44,0,0,0-.27.12l-.21.17a.61.61,0,0,0-.19,0l-.14,0,0-.05-.12-.11h0l0,0V39s-.2-.18-.18-.2h0v0l-.06-.4,0-.18h0s0-.23,0-.23l.12-.52.11-.48.09-.38h0l.14-.45.07,0h0l.17-.05a.45.45,0,0,1,.19,0H92l.22-.14h.33l.1-.08.09,0h0a.91.91,0,0,0,.51-.16l.19.08h.06l.26-.13a.61.61,0,0,0,.22-.13h0c.18-.08.27-.17.3-.28a.3.3,0,0,0,0-.27Z"/></g></g></svg>