<svg xmlns="http://www.w3.org/2000/svg" viewBox="0 0 166.06 53.51"><defs><style>.cls-1{fill:#fff;}</style></defs><title>westfield</title><g id="Layer_2" data-name="Layer 2"><g id="Layer_1-2" data-name="Layer 1"><path class="cls-1" d="M120.32,38.59a15.58,15.58,0,0,0,1.36-4.34c.45-2.69-3-3.38-4.21-.31-1,2.66-.91,1.4-1,4.2-.08,2.24,3.28,1.77,3.85.44m-64.8.52a15.65,15.65,0,0,0,1.36-4.34c.45-2.69-3-3.39-4.21-.31-1,2.66-.91,1.41-1,4.21-.08,2.24,3.29,1.76,3.86.44m86.1,5.59c-.83,4.11,5,4.54,6.27.94s1.84-6.79,2.79-10.49a3.32,3.32,0,0,0-2.26-3.31A3,3,0,0,0,144.64,34c-.47,1.65-.68,1.9-1,3.53-.64,2.92-1.32,3.9-2,7.16M49.5,32.36C52.53,31,55.65,29.64,59,30c2,.21,2.7,1.34,3,3.39a9.52,9.52,0,0,1-1.28,5.51c-2.58,5-10,3.45-10,3.45a5.67,5.67,0,0,0-.8,3.39c.19,1.15,1.38,2.62,2.43,2.68,2.05.11,5.35-2.46,5.35-2.46l1.09,1.58a84,84,0,0,1-7.3,4.4c-2.9,1.41-5.68-1.7-7.06-3.4s.42-6.59,1.35-9.64c.72-2.35,1.34-5.47,3.78-6.52m64.68.1c3-1.31,6-3.31,9.42-3,2.05.21,2.7,1.74,3,3.79a9.51,9.51,0,0,1-1.28,5.5c-2.84,5.54-10.13,2.66-10.13,2.66s-1.17,2.71-.9,4.38c.19,1.16,1.88,2.92,2.93,3,2.06.11,5.64-2.46,5.64-2.46l1.1,1.58s-4.66,2.93-7.31,4.4c-2.11,1.17-6.08-2.4-7.46-4.1s.22-6.39,1.16-9.45c.71-2.34,1.44-5.26,3.87-6.32m20.31-14c1.79-4.81,10.78-4.24,10.78-4.24l.13,1.53s-4.84.23-6,3.51c-3,8.72-4.93,17.66-7.64,26.66a1.69,1.69,0,0,0,.2,1.67c1.54,1.38,4.3-1.79,4.3-1.79s1.63-8.77,3.86-12.66c1.41-2.45,4.53-3.51,7.24-4.17,1.75-.42,4.66,1.3,4.66,1.3s1.2-4.48,2.68-9.24c.33-1,.62-3.32,2-4.21a16.16,16.16,0,0,1,9.16-2.68l.19,1.43s-4.86.76-5.84,3.71a258,258,0,0,0-7.39,26.13c-.11.87-.33,2.6.58,2.86,1.39.4,4.64-2.17,4.64-2.17L159,48s-3.75,2.46-5.63,3.55c-2.42,1.41-5.51-2.27-5.51-2.27s-4.92,2.77-6.36,2.46c-2.38-.51-4.5-3.55-4.5-3.55a37.12,37.12,0,0,1-6.18,3.37c-1.68.77-4.34-1.14-4.7-3a8.4,8.4,0,0,1,.58-3.89c1.54-5.46,2.91-10.67,4.55-16.1,1-3.15,2-6.79,3.24-10.12m-51.8,7.7c.4-1-.44-3-.44-3l4.24-2a3.66,3.66,0,0,1,1.41,3.36c-.17,1.89-1,5.75-1,5.75h6s1.29-4.75,2.25-8.15a5,5,0,0,1,2.3-3.21c1.71-1.11,7.75-6.3,11.54-3.76,1.16.78,2.35,2.11,2.12,3.51a35.16,35.16,0,0,1-1.89,7.62c-1.49.1-4.51,0-4.51,0s2.09-5.32.6-7.13c-1.76-2.14-3.77.53-3.78.54-1.47.95-3.46,10.58-3.46,10.58h10.45S105.34,42.39,104,46.51c-.38,1.2-.28,1.5.25,2,.86.82,2.74-.81,2.74-.81l.94,1.54a39.17,39.17,0,0,1-4.35,3c-2.62,1.39-5.43-3.9-5.2-4.72,1.25-4.34,2.23-7.94,3.28-12.35a2.66,2.66,0,0,0-.21-1.9c-.5-1-4.11-.71-4.11-.71L91.69,52H86.81l5.57-19.44H85.82s-2.69,9.39-3.65,14a1.64,1.64,0,0,0,.6,1.73c.89.66,3.47-1.28,3.47-1.28L87,48.51s-5.24,4.08-6.71,3.86C79.15,52.2,77,50,76.71,49c-.35-1.19,4-16.45,4-16.45h-2.6l.29-2.29h3.11a35.67,35.67,0,0,1,1.14-4.07M63.31,39.93a10.09,10.09,0,0,1,1-5.9c1.41-3.17,5.83-3.89,9-4.18,2.29-.2,4.39,4.3,4.39,4.3L74,36.34a12.75,12.75,0,0,0-1.72-3.1,1.71,1.71,0,0,0-2.47,0,6.51,6.51,0,0,0-1.64,4.35c.11,1.09,1.85,1.58,1.82,1.56,1.8,1.12,4.06,1.62,5,3.49.52,1-.36,4-1.2,5.2-1.06,1.46-5.2,4.7-8.8,4.22-4.36-.57-5.39-5.47-5.39-5.47l4.5-2.6s1.69,5.83,3.73,4.62a3.84,3.84,0,0,0,1.47-4c-.3-1-2-1.35-3.47-2.3-1-.62-2.31-1.09-2.55-2.32M54.45,22.82,43.89,33.37s.1,5.48-1.12,7.9C40.19,46.37,31,53.51,31,53.51l-1.56-1.72s4.76-5.31,4.2-8.85L31,25.21c-2.75,2.85-5.58,6-8.57,9.36a11.69,11.69,0,0,1-.91,6.31C19,45.81,10.05,53.08,10.05,53.08L8.52,51.43s2.86-2.84,3.6-4.72a8.7,8.7,0,0,0,.47-2.57c.24-3.5-3-19.91-5.36-32.15C6.45,8,4.77,7.86,3.55,8.21S.31,9.29.31,9.29L0,7.73l17.21-7,4.58,28.88,8.53-8.42-1.38-8.61c-.19-1.43-.74-3-2.58-3.24-1.64-.23-4.56,1.14-4.56,1.14l-.74-1.87,17.59-8L43.3,28.79s5.95-6.11,6.37-6.57c1.1-1.2.9-3.59-.1-8.66-.3-2.4-.7-5-2.29-5.48-1.77-.56-4.77.8-4.77.8l-.65-1.8L57.87,0S60.27,10,60,10c.7,5.13-.13,6.27-1.3,8a41.9,41.9,0,0,1-4.28,4.78"/></g></g></svg>