<svg xmlns="http://www.w3.org/2000/svg" viewBox="0 0 88.92 68.52"><defs><style>.cls-1,.cls-2{fill:#fff;}.cls-1{fill-rule:evenodd;}</style></defs><title>whotels</title><g id="Layer_2" data-name="Layer 2"><g id="Layer_1-2" data-name="Layer 1"><polygon class="cls-1" points="23.81 1.13 29.48 1.13 36.46 17.78 44.81 0 53.22 17.78 60.38 1.13 65.98 1.13 53.16 30.24 44.87 11.87 36.4 30.18 23.81 1.13 23.81 1.13"/><path class="cls-2" d="M1.66,46.34h1.1v3.32H6.89V46.34H8v8H6.89V50.62H2.76v3.76H1.66Z"/><path class="cls-2" d="M18.14,47.49a4.43,4.43,0,0,1,.8,2.73,4.78,4.78,0,0,1-.91,3A3.62,3.62,0,0,1,15,54.61a3.65,3.65,0,0,1-2.92-1.23,4.63,4.63,0,0,1-.95-3,4.75,4.75,0,0,1,.81-2.79A3.51,3.51,0,0,1,15,46.12,3.68,3.68,0,0,1,18.14,47.49Zm-1,5.12a4.4,4.4,0,0,0,.64-2.37A3.39,3.39,0,0,0,17.09,48a2.53,2.53,0,0,0-2-.87,2.64,2.64,0,0,0-2,.86,3.61,3.61,0,0,0-.79,2.53,3.69,3.69,0,0,0,.68,2.25,2.54,2.54,0,0,0,2.19.92A2.27,2.27,0,0,0,17.19,52.61Z"/><path class="cls-2" d="M22,46.34h1.09v7.08h4v1H22Z"/><path class="cls-2" d="M30.08,46.34h1.09v7.08h4v1H30.08Z"/><path class="cls-2" d="M36.67,46.34h1.27l2.31,3.86,2.31-3.86h1.28l-3,4.8v3.24H39.7V51.14Z"/><path class="cls-2" d="M47.1,46.34l1.51,6.53,1.82-6.53H51.6l1.82,6.54,1.52-6.54h1.19l-2.11,8H52.88L51,47.71l-1.86,6.66H48l-2.1-8Z"/><path class="cls-2" d="M65.56,47.49a4.43,4.43,0,0,1,.8,2.73,4.78,4.78,0,0,1-.91,3,4.06,4.06,0,0,1-6,.18,4.63,4.63,0,0,1-.95-3,4.75,4.75,0,0,1,.81-2.79,3.51,3.51,0,0,1,3.07-1.49A3.68,3.68,0,0,1,65.56,47.49Zm-1,5.12a4.4,4.4,0,0,0,.64-2.37A3.39,3.39,0,0,0,64.5,48a2.53,2.53,0,0,0-2-.87,2.64,2.64,0,0,0-2,.86,3.61,3.61,0,0,0-.79,2.53,3.69,3.69,0,0,0,.68,2.25,2.54,2.54,0,0,0,2.19.92A2.27,2.27,0,0,0,64.6,52.61Z"/><path class="cls-2" d="M76.08,47.49a4.43,4.43,0,0,1,.8,2.73,4.78,4.78,0,0,1-.91,3,4.06,4.06,0,0,1-6,.18,4.63,4.63,0,0,1-.95-3,4.75,4.75,0,0,1,.81-2.79,3.51,3.51,0,0,1,3.07-1.49A3.68,3.68,0,0,1,76.08,47.49Zm-1,5.12a4.4,4.4,0,0,0,.64-2.37A3.39,3.39,0,0,0,75,48a2.53,2.53,0,0,0-2-.87,2.64,2.64,0,0,0-2,.86,3.61,3.61,0,0,0-.79,2.53,3.69,3.69,0,0,0,.68,2.25,2.54,2.54,0,0,0,2.19.92A2.27,2.27,0,0,0,75.12,52.61Z"/><path class="cls-2" d="M80,46.34h3.21a3,3,0,0,1,2.54,1.18,4.38,4.38,0,0,1,.8,2.72,5.48,5.48,0,0,1-.47,2.31,2.93,2.93,0,0,1-2.88,1.83H80Zm3,7.11a2.88,2.88,0,0,0,.89-.11,2,2,0,0,0,1-.82,3.42,3.42,0,0,0,.46-1.25,4.89,4.89,0,0,0,.08-.84,4,4,0,0,0-.58-2.32A2.12,2.12,0,0,0,83,47.28H81.12v6.17Z"/><path class="cls-2" d="M0,63.63H.65v2H3.09v-2h.65v4.75H3.09V66.16H.65v2.22H0Z"/><path class="cls-2" d="M9.67,64.31a2.62,2.62,0,0,1,.47,1.61,2.82,2.82,0,0,1-.54,1.77,2.14,2.14,0,0,1-1.81.83,2.16,2.16,0,0,1-1.72-.72A2.74,2.74,0,0,1,5.51,66,2.81,2.81,0,0,1,6,64.38a2.07,2.07,0,0,1,1.82-.88A2.17,2.17,0,0,1,9.67,64.31Zm-.57,3a2.6,2.6,0,0,0,.38-1.4A2,2,0,0,0,9,64.58a1.49,1.49,0,0,0-1.2-.51,1.56,1.56,0,0,0-1.2.51,2.14,2.14,0,0,0-.47,1.49,2.18,2.18,0,0,0,.4,1.33,1.5,1.5,0,0,0,1.29.54A1.34,1.34,0,0,0,9.1,67.34Z"/><path class="cls-2" d="M15.35,63.63v.57h-1.6v4.18H13.1V64.2H11.5v-.57Z"/><path class="cls-2" d="M17,63.63h3.45v.58H17.62v1.44h2.61v.55H17.62v1.61h2.87v.57H17Z"/><path class="cls-2" d="M22.34,63.63H23v4.18h2.38v.57h-3Z"/><path class="cls-2" d="M30.06,65.16a1.15,1.15,0,0,1-.1-.46,1,1,0,0,1,.31-.76,1.14,1.14,0,0,1,.83-.3,1,1,0,0,1,.77.28.92.92,0,0,1,.28.67,1.21,1.21,0,0,1-.29.8,2.71,2.71,0,0,1-.56.46l.86,1q.09-.26.12-.39t.07-.36h.55a3.53,3.53,0,0,1-.22.87q-.16.42-.16.34l.84,1h-.75l-.44-.54a2.32,2.32,0,0,1-.48.42,1.66,1.66,0,0,1-.88.23,1.32,1.32,0,0,1-1.07-.4,1.36,1.36,0,0,1-.34-.9,1.3,1.3,0,0,1,.33-.9,3.59,3.59,0,0,1,.74-.55A2.44,2.44,0,0,1,30.06,65.16Zm1.4,2.66a1.34,1.34,0,0,0,.4-.37l-1.07-1.31a3.24,3.24,0,0,0-.59.47.87.87,0,0,0-.21.59.68.68,0,0,0,.27.58,1,1,0,0,0,.59.2A1.11,1.11,0,0,0,31.46,67.81Zm0-2.69a.73.73,0,0,0,.19-.49.52.52,0,0,0-.14-.36.48.48,0,0,0-.37-.15.5.5,0,0,0-.57.51.72.72,0,0,0,.11.38,3.47,3.47,0,0,0,.36.47A2.45,2.45,0,0,0,31.41,65.12Z"/><path class="cls-2" d="M37.93,63.63h2.16a2.12,2.12,0,0,1,.88.16,1.12,1.12,0,0,1,.66,1.12A1.17,1.17,0,0,1,41,66a1,1,0,0,1,.42.3,1.07,1.07,0,0,1,.16.6l0,.64a2,2,0,0,0,0,.4.4.4,0,0,0,.21.29v.11H41a.58.58,0,0,1-.05-.16,3.08,3.08,0,0,1,0-.37l0-.79a.67.67,0,0,0-.34-.62,1.36,1.36,0,0,0-.56-.09H38.57v2h-.64ZM40,65.81a1.18,1.18,0,0,0,.7-.18A.75.75,0,0,0,41,65a.71.71,0,0,0-.36-.69,1.14,1.14,0,0,0-.51-.1H38.57v1.62Z"/><path class="cls-2" d="M43.68,63.63h3.45v.58H44.31v1.44h2.61v.55H44.31v1.61h2.87v.57H43.68Z"/><path class="cls-2" d="M49.45,66.85a1.33,1.33,0,0,0,.18.66,1.2,1.2,0,0,0,1.09.47,1.87,1.87,0,0,0,.64-.1.73.73,0,0,0,.55-.72.63.63,0,0,0-.24-.55,2.32,2.32,0,0,0-.74-.28l-.62-.15a2.76,2.76,0,0,1-.86-.31A1,1,0,0,1,49,65a1.39,1.39,0,0,1,.43-1.05,1.7,1.7,0,0,1,1.22-.41,2.08,2.08,0,0,1,1.23.36A1.31,1.31,0,0,1,52.4,65h-.6a1.23,1.23,0,0,0-.2-.59,1.13,1.13,0,0,0-1-.37,1.08,1.08,0,0,0-.78.24.76.76,0,0,0-.24.56.55.55,0,0,0,.28.51,4,4,0,0,0,.84.26l.64.15a2,2,0,0,1,.72.3,1.14,1.14,0,0,1,.44,1A1.22,1.22,0,0,1,52,68.18a2.46,2.46,0,0,1-1.3.34,1.91,1.91,0,0,1-1.35-.45,1.55,1.55,0,0,1-.48-1.22Z"/><path class="cls-2" d="M54.59,63.63h.65v4.75h-.65Z"/><path class="cls-2" d="M57.3,63.63h1.9a1.78,1.78,0,0,1,1.5.69,2.59,2.59,0,0,1,.48,1.61,3.24,3.24,0,0,1-.28,1.37,1.73,1.73,0,0,1-1.7,1.08H57.3Zm1.77,4.2a1.69,1.69,0,0,0,.52-.07,1.16,1.16,0,0,0,.6-.48,2,2,0,0,0,.27-.74,2.86,2.86,0,0,0,0-.5,2.36,2.36,0,0,0-.34-1.37,1.26,1.26,0,0,0-1.1-.49H58v3.65Z"/><path class="cls-2" d="M63.11,63.63h3.45v.58H63.73v1.44h2.61v.55H63.73v1.61H66.6v.57H63.11Z"/><path class="cls-2" d="M68.45,63.63h.76l2.37,3.84V63.63h.61v4.75h-.72l-2.4-3.83v3.83h-.61Z"/><path class="cls-2" d="M77.59,64a1.69,1.69,0,0,1,.55,1.08h-.63a1.19,1.19,0,0,0-1.29-1,1.4,1.4,0,0,0-1.11.49,2.28,2.28,0,0,0-.42,1.51,2.23,2.23,0,0,0,.38,1.35,1.33,1.33,0,0,0,1.14.52,1.2,1.2,0,0,0,1.06-.55,2.1,2.1,0,0,0,.29-.76h.63a2.15,2.15,0,0,1-.55,1.26,1.94,1.94,0,0,1-1.51.61,2,2,0,0,1-1.37-.5,3.11,3.11,0,0,1-.18-3.77,2,2,0,0,1,1.64-.73A1.91,1.91,0,0,1,77.59,64Z"/><path class="cls-2" d="M80.06,63.63h3.45v.58H80.69v1.44H83.3v.55H80.69v1.61h2.87v.57H80.06Z"/><path class="cls-2" d="M85.83,66.85a1.33,1.33,0,0,0,.18.66A1.2,1.2,0,0,0,87.1,68a1.87,1.87,0,0,0,.64-.1.73.73,0,0,0,.55-.72.63.63,0,0,0-.24-.55,2.32,2.32,0,0,0-.74-.28l-.62-.15a2.76,2.76,0,0,1-.86-.31,1,1,0,0,1-.44-.89,1.39,1.39,0,0,1,.43-1.05A1.7,1.7,0,0,1,87,63.51a2.08,2.08,0,0,1,1.23.36A1.31,1.31,0,0,1,88.78,65h-.6a1.23,1.23,0,0,0-.2-.59,1.13,1.13,0,0,0-1-.37,1.08,1.08,0,0,0-.78.24.76.76,0,0,0-.24.56.55.55,0,0,0,.28.51,4,4,0,0,0,.84.26l.64.15a2,2,0,0,1,.72.3,1.14,1.14,0,0,1,.44,1,1.22,1.22,0,0,1-.56,1.13,2.46,2.46,0,0,1-1.3.34,1.91,1.91,0,0,1-1.35-.45,1.55,1.55,0,0,1-.48-1.22Z"/></g></g></svg>