<svg xmlns="http://www.w3.org/2000/svg" width="188.354" height="94.432" viewBox="0 0 188.354 94.432">
  <path id="aigala" d="M83.713,40.836v6.891c0,.51-.255.766-1.021.766H77.077c-.766,0-.766-.51-.51-.766s6.125-6.636,6.381-6.891C83.2,40.07,83.713,40.325,83.713,40.836ZM19.907,40.58c-.255.255-6.125,6.636-6.381,6.891-.255.51-.255,1.021.51,1.021h5.615c.766,0,1.021-.255,1.021-.766V40.836C20.673,40.325,20.418,40.07,19.907,40.58ZM94.432,94.432H0V0H94.432ZM27.054,59.212a24.869,24.869,0,0,1-2.807-1.276c-.51-.255-.51-.766-.766-1.021,0-.255.255-21.439.255-21.694H23.48c-.255.255-20.928,22.715-21.183,22.97A12.588,12.588,0,0,1,0,59.212H0v.255H10.975c.255,0,.255-.255,0-.255-.766-.255-4.339-.766-4.849-1.021s-.766-.51-.51-.766,5.615-7.146,6.125-7.4c.51-.51.766-.51,1.531-.51h3.573c1.276,0,2.552.255,3.063.255.766,0,.766.766.766,1.021s-.255,5.36-.255,6.125a1.179,1.179,0,0,1-.766,1.276c-.255,0-4.084,1.276-4.084,1.276h0l11.485-.255ZM41.346,36.5c.255,0,2.042-.51,2.3-.51s0-.255,0-.255H32.413c-.255,0-.255,0,0,.255,0,0,2.807,1.021,3.063,1.021.51.255.51.51.51,1.021,0,.255-4.594,18.631-4.594,19.142a1.368,1.368,0,0,1-1.021.766c-.255,0-2.552,1.021-2.807,1.021s0,.255,0,.255H38.283c.255,0,.255-.255,0-.255a26.574,26.574,0,0,1-3.063-1.276c-.51-.255-.51-.51-.255-1.021,0-.255,4.339-18.631,4.594-18.886.255-.51.255-.766,1.021-1.021A1.26,1.26,0,0,0,41.346,36.5ZM62.274,57.17a43.378,43.378,0,0,1,1.787-5.36c.255-.766-.766-.766-1.021-.766H54.362c-.255,0-.255,0,0,.255.255,0,4.849,1.276,5.36,1.531a.559.559,0,0,1,.255.766,31.742,31.742,0,0,1-1.021,4.084c0,.255-.255.51-.766.51a26.871,26.871,0,0,1-3.063.255c-5.1-.255-8.167-3.318-8.678-7.4C45.685,46.2,49,40.07,54.618,37.518c3.318-1.531,7.912-1.276,8.933-.766.766.255.766.51.766,1.276,0,.255-.255,6.125-.255,6.125,0,.255.255.255.255,0s2.3-6.636,2.3-6.891c0-.51.255-1.021-.766-1.276a30.715,30.715,0,0,0-5.87-.766,20.209,20.209,0,0,0-11.485,3.828,15.22,15.22,0,0,0-5.36,7.912c-1.531,5.87,1.787,12.251,10.975,12a28.331,28.331,0,0,0,7.657-1.531C62.019,57.68,62.274,57.425,62.274,57.17Zm27.819,2.042a24.868,24.868,0,0,1-2.807-1.276c-.51-.255-.51-.766-.766-1.021,0-.255.255-21.439.255-21.694H86.52c-.255.255-20.928,22.715-21.183,22.97a7.852,7.852,0,0,1-2.3,1.021v.255H73.759c.255,0,.255-.255,0-.255-.766-.255-4.339-.766-4.849-1.021s-.766-.51-.51-.766,5.615-7.146,6.125-7.4c.51-.51.766-.51,1.531-.51h3.573c1.276,0,2.552.255,3.063.255.766,0,.766.766.766,1.021s-.255,5.36-.255,6.125a1.179,1.179,0,0,1-.766,1.276c-.255,0-4.084,1.276-4.084,1.276h0l11.74-.255Zm98.261,11.23H177.89l-3.318-7.4H149.815l-3.318,7.4H111.277V23.48h9.443V61.253h19.652l17.355-37.518H166.4ZM170.233,53.852,162.321,36.5l-7.912,17.355Z" fill="#6d6f70"/>
</svg>
