<svg xmlns="http://www.w3.org/2000/svg" width="168.065" height="37.307" viewBox="0 0 168.065 37.307">
  <g id="designed-mentors1" transform="translate(-16.3 -39.2)">
    <path id="Path_136" data-name="Path 136" d="M194.532,156.234a5.4,5.4,0,0,0,5.358,4.954,5.581,5.581,0,0,0,5.072-3.2h4.566c-.893,3.471-3.673,7.027-9.6,7.027-6.673,0-9.234-4.55-9.824-8.813" transform="translate(-144.514 -97.285)" fill="#6d6f70"/>
    <path id="Path_137" data-name="Path 137" d="M189.435,94.337A16.581,16.581,0,0,1,189.3,92.3c0-4.5,1.955-10.5,9.841-10.5,6.4,0,9.723,3.977,9.723,9.537v3.05Z" transform="translate(-143.849 -35.422)" fill="#6d6f70"/>
    <path id="Path_138" data-name="Path 138" d="M16.3,39.3H29.056c10.144,0,13.9,6.083,13.9,13.935,0,8-3.909,14.019-13.9,13.986H16.3ZM29.056,63.211c6.993,0,9.756-4.533,9.756-10.279,0-4.836-1.988-9.6-9.756-9.6H20.513V63.211Z" transform="translate(0 -0.083)" fill="#6d6f70"/>
    <path id="Path_139" data-name="Path 139" d="M317.1,95.686h4.3c.388,3.05,3.825,3.555,6.167,3.555,3.4,0,5-1.062,5-2.46,0-2.073-3.522-2.426-5.122-2.662-5.156-.741-9.453-1.365-9.453-6.134,0-4.482,3.859-6.285,8.83-6.285,5.7,0,9.453,2.376,9.841,7.616h-4.3c-.32-2.848-3.05-3.791-5.662-3.791-2.073,0-4.263.59-4.263,2.258,0,1.988,3,2.308,5.7,2.612,3.4.388,8.863.708,8.863,6.2,0,4.331-3.353,6.437-9.6,6.437C322.088,103.066,317.1,101.55,317.1,95.686Z" transform="translate(-250.114 -35.339)" fill="#6d6f70"/>
    <path id="Path_140" data-name="Path 140" d="M450.7,41.795a2.595,2.595,0,1,1,2.595,2.595A2.6,2.6,0,0,1,450.7,41.795Zm.472,5.122h4.3v20.22h-4.3Z" transform="translate(-361.202)" fill="#6d6f70"/>
    <path id="Path_141" data-name="Path 141" d="M520.719,88.117V85h4.3v20.692c0,6.319-4.651,8.9-9.335,8.9-4.381,0-8.981-2.224-8.981-6.909h4.533c0,1.988,2.7,2.78,4.651,2.78,2.814,0,4.836-1.6,4.836-4.836" transform="translate(-407.766 -38.083)" fill="#6d6f70"/>
    <path id="Path_142" data-name="Path 142" d="M637,82.339h4.3v3.909c.674-2.106,1.921-4.448,6.673-4.448,5.274,0,8.038,2.9,8.038,10.279V102.56h-4.3V92.837c0-4.415-1.213-7.229-4.887-7.229a5.41,5.41,0,0,0-5.544,5.662v11.29H637Z" transform="translate(-516.11 -35.422)" fill="#6d6f70"/>
    <path id="Path_143" data-name="Path 143" d="M765.6,92.3c0-4.5,1.955-10.5,9.841-10.5,6.4,0,9.723,3.977,9.723,9.537v3.05h-15a5.392,5.392,0,0,0,5.342,4.954,5.581,5.581,0,0,0,5.072-3.2h4.566c-.893,3.471-3.673,7.027-9.6,7.027C767.791,103.149,765.6,97.016,765.6,92.3Zm15.081-1.752a5.052,5.052,0,0,0-5.224-4.92,5.251,5.251,0,0,0-5.19,4.92Z" transform="translate(-623.041 -35.422)" fill="#6d6f70"/>
    <path id="Path_144" data-name="Path 144" d="M988.2,39.3h4.3V67.221h-4.3" transform="translate(-808.132 -0.083)" fill="#6d6f70"/>
    <path id="Path_145" data-name="Path 145" d="M512.3,85.373c-1.1-2.426-3.168-3.673-6.487-3.673-6.605,0-9.217,5-9.217,10.734,0,5.864,2.7,10.616,9.251,10.616,3.4,0,5.51-1.281,6.437-3.522Z" transform="translate(-399.368 -35.339)" fill="#6d6f70"/>
    <path id="Path_146" data-name="Path 146" d="M904.185,102.75a8.43,8.43,0,0,1-7.111-3.134,12.12,12.12,0,0,1-2.174-7.532,12.455,12.455,0,0,1,2.14-7.549,8.407,8.407,0,0,1,7.111-3.235c3.269,0,5.392,1.213,6.521,3.69l-.067.034c-1.112-2.443-3.218-3.64-6.454-3.64a8.278,8.278,0,0,0-7.043,3.2,12.475,12.475,0,0,0-2.123,7.5,12.136,12.136,0,0,0,2.157,7.482,8.443,8.443,0,0,0,7.06,3.1c3.286,0,5.426-1.18,6.4-3.488l.067.034C909.678,101.571,907.5,102.75,904.185,102.75Z" transform="translate(-730.553 -35.006)" fill="#51be93"/>
    <path id="Path_147" data-name="Path 147" d="M910.7,85.273c-1.1-2.426-3.168-3.673-6.487-3.673-6.605,0-9.217,5-9.217,10.734,0,5.864,2.7,10.616,9.251,10.616,3.4,0,5.51-1.281,6.437-3.522V85.273Z" transform="translate(-730.637 -35.255)" fill="#6d6f70"/>
  </g>
</svg>
