<?xml version="1.0" encoding="utf-8"?>
<!-- Generator: Adobe Illustrator 20.1.0, SVG Export Plug-In . SVG Version: 6.00 Build 0)  -->
<svg version="1.1" id="Layer_1" xmlns="http://www.w3.org/2000/svg" xmlns:xlink="http://www.w3.org/1999/xlink" x="0px" y="0px"
	 viewBox="0 0 136.6 79.1" style="enable-background:new 0 0 136.6 79.1;" xml:space="preserve">
<style type="text/css">
	.st0{fill:#6D6F70;}
</style>
<path class="st0" d="M8.5,20.6v18.8c0,0,11.3,4.4,8.3,11.1c0,0,7.7-3,7.3-11.1S8.5,20.6,8.5,20.6z"/>
<path class="st0" d="M0.4,59.7v19.4c0,0,22.6-7.1,23.8-34.3C24.2,44.8,20,56.5,0.4,59.7z"/>
<circle class="st0" cx="8.6" cy="8.6" r="8.6"/>
<g>
	<path class="st0" d="M36.7,37.6v-9.4h2.1v9.4H36.7z"/>
	<path class="st0" d="M48.4,37.6l-4.6-6v6h-2v-9.4h1.9l4.4,5.8v-5.8h2v9.4H48.4z"/>
	<path class="st0" d="M57.4,30.1v7.5h-2.1v-7.5h-2.9v-1.9h7.8v1.9H57.4z"/>
	<path class="st0" d="M62.6,37.6v-9.4h7.1V30h-5.1v1.9h4.4v1.8h-4.4v2h5.1v1.8H62.6z"/>
	<path class="st0" d="M78,37.6l-2-3h-1.6v3h-2.1v-9.4h4.3c2.2,0,3.6,1.2,3.6,3.1v0c0,1.5-0.8,2.5-2,2.9l2.3,3.4H78z M78,31.4
		c0-0.9-0.6-1.3-1.6-1.3h-2.1v2.7h2.1C77.5,32.7,78,32.2,78,31.4L78,31.4z"/>
	<path class="st0" d="M89.7,37.6l-0.9-2.1h-4L84,37.6h-2.1l4-9.5h1.9l4,9.5H89.7z M86.9,30.6l-1.3,3.1h2.5L86.9,30.6z"/>
	<path class="st0" d="M97.8,37.8c-2.8,0-4.8-2.1-4.8-4.9v0c0-2.7,2-4.9,4.9-4.9c1.8,0,2.8,0.6,3.7,1.5l-1.3,1.5
		c-0.7-0.7-1.5-1.1-2.4-1.1c-1.6,0-2.7,1.3-2.7,2.9v0c0,1.6,1.1,3,2.7,3c1.1,0,1.7-0.4,2.5-1.1l1.3,1.3
		C100.7,37.1,99.6,37.8,97.8,37.8z"/>
	<path class="st0" d="M108.3,30.1v7.5h-2.1v-7.5h-2.9v-1.9h7.8v1.9H108.3z"/>
	<path class="st0" d="M113.5,37.6v-9.4h2.1v9.4H113.5z"/>
	<path class="st0" d="M123.5,37.7h-1.8l-3.8-9.5h2.3l2.5,6.6l2.5-6.6h2.2L123.5,37.7z"/>
	<path class="st0" d="M129.4,37.6v-9.4h7.1V30h-5.1v1.9h4.4v1.8h-4.4v2h5.1v1.8H129.4z"/>
	<path class="st0" d="M44,53.5v-6.2l-2.7,4h-0.1l-2.6-4v6.1h-2V44h2.2l2.5,4l2.5-4h2.2v9.4H44z"/>
	<path class="st0" d="M49,53.5V44h7.1v1.8h-5.1v1.9h4.4v1.8h-4.4v2h5.1v1.8H49z"/>
	<path class="st0" d="M62.4,53.5h-3.7V44h3.7c3,0,5,2,5,4.7v0C67.4,51.4,65.4,53.5,62.4,53.5z M65.2,48.7c0-1.7-1.1-2.8-2.8-2.8
		h-1.6v5.7h1.6C64.1,51.6,65.2,50.4,65.2,48.7L65.2,48.7z"/>
	<path class="st0" d="M70,53.5V44h2.1v9.4H70z"/>
	<path class="st0" d="M82.2,53.5l-0.9-2.1h-4l-0.9,2.1h-2.1l4-9.5h1.9l4,9.5H82.2z M79.3,46.5L78,49.5h2.5L79.3,46.5z"/>
	<path class="st0" d="M41,69.5c-2.8,0-4.8-2.1-4.8-4.9v0c0-2.7,2-4.9,4.9-4.9c1.8,0,2.8,0.6,3.7,1.5l-1.3,1.5
		c-0.7-0.7-1.5-1.1-2.4-1.1c-1.6,0-2.7,1.3-2.7,2.9v0c0,1.6,1.1,3,2.7,3c1.1,0,1.7-0.4,2.5-1.1l1.3,1.3C43.9,68.8,42.9,69.5,41,69.5
		z"/>
	<path class="st0" d="M51.6,69.5c-2.9,0-5-2.2-5-4.9v0c0-2.7,2.1-4.9,5-4.9c2.9,0,5,2.2,5,4.9v0C56.6,67.3,54.5,69.5,51.6,69.5z
		 M54.4,64.6c0-1.6-1.2-3-2.9-3c-1.7,0-2.8,1.3-2.8,2.9v0c0,1.6,1.2,3,2.9,3S54.4,66.3,54.4,64.6L54.4,64.6z"/>
	<path class="st0" d="M63,69.5c-2.5,0-4.1-1.4-4.1-4.2v-5.4H61v5.3c0,1.5,0.8,2.3,2,2.3s2-0.8,2-2.3v-5.4h2.1v5.3
		C67.2,68.1,65.6,69.5,63,69.5z"/>
	<path class="st0" d="M76.6,69.3l-4.6-6v6h-2v-9.4h1.9l4.4,5.8v-5.8h2v9.4H76.6z"/>
	<path class="st0" d="M85.7,69.5c-2.8,0-4.8-2.1-4.8-4.9v0c0-2.7,2-4.9,4.9-4.9c1.8,0,2.8,0.6,3.7,1.5l-1.3,1.5
		c-0.7-0.7-1.5-1.1-2.4-1.1c-1.6,0-2.7,1.3-2.7,2.9v0c0,1.6,1.1,3,2.7,3c1.1,0,1.7-0.4,2.5-1.1l1.3,1.3
		C88.6,68.8,87.5,69.5,85.7,69.5z"/>
	<path class="st0" d="M92,69.3v-9.4h2.1v9.4H92z"/>
	<path class="st0" d="M97.1,69.3v-9.4h2.1v7.5h4.7v1.9H97.1z"/>
</g>
</svg>
