<?xml version="1.0" encoding="utf-8"?>
<!-- Generator: Adobe Illustrator 20.1.0, SVG Export Plug-In . SVG Version: 6.00 Build 0)  -->
<svg version="1.1" id="Layer_1" xmlns="http://www.w3.org/2000/svg" xmlns:xlink="http://www.w3.org/1999/xlink" x="0px" y="0px"
	 viewBox="0 0 151.3 108.4" style="enable-background:new 0 0 151.3 108.4;" xml:space="preserve">
<style type="text/css">
	.st0{fill:#6D6F70;}
</style>
<g>
	<path class="st0" d="M8.9,45.6c0,0.8-0.5,1.2-1.4,1.2c-0.9,0-1.4-0.4-1.4-1.2V34.9c0-0.8,0.5-1.2,1.4-1.2c0.9,0,1.4,0.4,1.4,1.2
		V45.6z M13.7,29.2c-0.9-0.9-2-1.4-3.4-1.4H4.7c-1.3,0-2.4,0.5-3.3,1.4c-0.9,0.9-1.4,2-1.4,3.4V48c0,1.3,0.5,2.4,1.4,3.4
		c0.9,0.9,2,1.4,3.4,1.4h5.6c1.3,0,2.4-0.5,3.4-1.4c0.9-0.9,1.4-2,1.4-3.4V32.6C15,31.3,14.6,30.1,13.7,29.2"/>
	<path class="st0" d="M18,52.5c0.2,0.2,0.4,0.2,0.6,0.2h4.4c0.3,0,0.4-0.1,0.6-0.2c0.2-0.2,0.2-0.4,0.2-0.6V41l2.9,10.8
		c0.2,0.6,0.5,0.8,1.1,0.8h4.3c0.3,0,0.4-0.1,0.6-0.2c0.2-0.2,0.2-0.4,0.2-0.6V28.6c0-0.2-0.1-0.4-0.3-0.6c-0.2-0.2-0.4-0.3-0.6-0.3
		h-4.4c-0.3,0-0.4,0.1-0.6,0.3c-0.2,0.2-0.2,0.4-0.2,0.6v10.6l-2.5-10.6c-0.1-0.6-0.5-0.8-1.1-0.8h-4.6c-0.2,0-0.4,0.1-0.6,0.3
		c-0.2,0.2-0.3,0.4-0.3,0.6v23.2C17.8,52.1,17.8,52.3,18,52.5"/>
	<path class="st0" d="M36,52.5c0.2,0.2,0.4,0.2,0.6,0.2h12.3c0.2,0,0.4-0.1,0.6-0.2c0.2-0.2,0.2-0.4,0.2-0.6v-4.3
		c0-0.2-0.1-0.4-0.2-0.5c-0.2-0.2-0.4-0.2-0.6-0.2h-7v-3.7h4.9c0.3,0,0.4-0.1,0.6-0.2c0.2-0.2,0.2-0.3,0.2-0.5v-4.3
		c0-0.2-0.1-0.4-0.2-0.6c-0.2-0.2-0.4-0.2-0.6-0.2h-4.9v-3.6h7c0.2,0,0.4-0.1,0.6-0.2c0.2-0.2,0.2-0.4,0.2-0.6v-4.3
		c0-0.2-0.1-0.4-0.2-0.5c-0.2-0.2-0.4-0.2-0.6-0.2H36.6c-0.2,0-0.4,0.1-0.6,0.2c-0.2,0.2-0.3,0.3-0.3,0.5V52
		C35.7,52.1,35.8,52.3,36,52.5"/>
	<path class="st0" d="M60.9,51.3c0.9,0.9,2,1.4,3.4,1.4h5.6c1.3,0,2.4-0.5,3.4-1.4c0.9-0.9,1.4-2,1.4-3.4v-4.7
		c0-0.2-0.1-0.4-0.2-0.6c-0.2-0.2-0.4-0.2-0.6-0.2h-4.5c-0.2,0-0.4,0.1-0.6,0.2c-0.2,0.2-0.3,0.4-0.3,0.6v2.4c0,0.8-0.5,1.2-1.4,1.2
		c-0.9,0-1.4-0.4-1.4-1.2V34.9c0-0.8,0.5-1.2,1.4-1.2c0.9,0,1.4,0.4,1.4,1.2v2.4c0,0.3,0.1,0.4,0.3,0.6s0.4,0.2,0.6,0.2h4.5
		c0.3,0,0.4-0.1,0.6-0.2c0.2-0.2,0.2-0.4,0.2-0.6v-4.7c0-1.3-0.5-2.4-1.4-3.4c-0.9-0.9-2-1.4-3.4-1.4h-5.6c-1.3,0-2.4,0.5-3.3,1.4
		c-0.9,0.9-1.4,2-1.4,3.4V48C59.6,49.3,60,50.4,60.9,51.3"/>
	<path class="st0" d="M77.5,52.5c0.2,0.2,0.4,0.2,0.6,0.2h11.8c0.3,0,0.4-0.1,0.6-0.2c0.2-0.2,0.2-0.3,0.2-0.5v-4.3
		c0-0.2-0.1-0.4-0.2-0.6c-0.2-0.2-0.4-0.2-0.6-0.2h-6.5V28.6c0-0.3-0.1-0.4-0.3-0.6c-0.2-0.2-0.4-0.2-0.6-0.2h-4.5
		c-0.2,0-0.4,0.1-0.6,0.3c-0.2,0.2-0.2,0.4-0.2,0.6v23.3C77.3,52.1,77.3,52.3,77.5,52.5"/>
	<path class="st0" d="M93.8,51.3c0.9,0.9,2,1.4,3.4,1.4h5.4c1.3,0,2.4-0.5,3.4-1.4c0.9-0.9,1.4-2,1.4-3.4V28.6
		c0-0.3-0.1-0.4-0.2-0.6c-0.2-0.2-0.4-0.2-0.6-0.2h-4.4c-0.2,0-0.4,0.1-0.6,0.3c-0.2,0.2-0.2,0.4-0.2,0.6v16.8
		c0,0.9-0.5,1.4-1.4,1.4c-0.9,0-1.4-0.5-1.4-1.4V28.7c0-0.3-0.1-0.4-0.2-0.6c-0.2-0.2-0.4-0.2-0.6-0.2h-4.5c-0.2,0-0.4,0.1-0.6,0.3
		c-0.2,0.2-0.2,0.4-0.2,0.6v19.3C92.3,49.3,92.8,50.4,93.8,51.3"/>
	<path class="st0" d="M110.7,52.5c0.2,0.2,0.4,0.2,0.6,0.2h9.5c1.3,0,2.4-0.5,3.4-1.4c0.9-0.9,1.4-2,1.4-3.3v-3.8
		c0-2-0.9-3.3-2.8-3.9c1.8-0.6,2.7-1.9,2.7-3.9v-3.8c0-1.3-0.5-2.4-1.4-3.4c-0.9-0.9-2-1.4-3.4-1.4h-9.4c-0.2,0-0.4,0.1-0.6,0.2
		s-0.3,0.3-0.3,0.5v23.2C110.4,52.1,110.5,52.3,110.7,52.5 M116.6,43.2h1.4c0.9,0,1.4,0.5,1.4,1.6v1.3c0,1.1-0.5,1.6-1.4,1.6h-1.4
		V43.2z M116.6,33h1.3c0.9,0,1.4,0.5,1.4,1.6v1.2c0,1.1-0.5,1.6-1.4,1.6h-1.3V33z"/>
	<path class="st0" d="M1.4,80.3c0.2,0.2,0.4,0.2,0.6,0.2h4.5c0.2,0,0.4-0.1,0.6-0.2c0.2-0.2,0.3-0.4,0.3-0.6v-8h5.3
		c0.2,0,0.4-0.1,0.6-0.2c0.2-0.2,0.2-0.3,0.2-0.5v-4.3c0-0.2-0.1-0.4-0.2-0.6C13,66,12.8,66,12.6,66H7.4v-4.4h6.6
		c0.3,0,0.4-0.1,0.6-0.2c0.2-0.2,0.2-0.4,0.2-0.6v-4.3c0-0.2-0.1-0.4-0.2-0.5c-0.2-0.2-0.4-0.2-0.6-0.2H2c-0.2,0-0.4,0.1-0.6,0.2
		c-0.2,0.2-0.3,0.3-0.3,0.5v23.3C1.2,79.9,1.3,80.1,1.4,80.3"/>
	<path class="st0" d="M26.7,73.5c0,0.8-0.5,1.2-1.4,1.2c-0.9,0-1.4-0.4-1.4-1.2V62.8c0-0.8,0.5-1.2,1.4-1.2c0.9,0,1.4,0.4,1.4,1.2
		V73.5z M31.4,57c-0.9-0.9-2-1.4-3.4-1.4h-5.6c-1.3,0-2.4,0.5-3.3,1.4c-0.9,0.9-1.4,2-1.4,3.4v15.4c0,1.3,0.5,2.4,1.4,3.4
		c0.9,0.9,2,1.4,3.4,1.4h5.6c1.3,0,2.4-0.5,3.4-1.4c0.9-0.9,1.4-2,1.4-3.4V60.4C32.8,59.1,32.4,58,31.4,57"/>
	<path class="st0" d="M36,80.3c0.2,0.2,0.4,0.2,0.6,0.2h4.5c0.3,0,0.4-0.1,0.6-0.2c0.2-0.2,0.2-0.4,0.2-0.6V72h1.2
		c1.1,0,1.6,0.5,1.6,1.6v4.9c0,1.4,0.5,2,1.5,2h4c0.5,0,0.7-0.2,0.7-0.6c0-0.1-0.1-0.3-0.1-0.7c-0.1-0.4-0.1-0.7-0.1-0.9v-5.7
		c0-2-0.9-3.3-2.8-3.9c1.9-0.6,2.8-1.9,2.8-3.9v-4.4c0-1.3-0.5-2.4-1.4-3.4c-0.9-0.9-2-1.4-3.4-1.4h-9.5c-0.2,0-0.4,0.1-0.6,0.2
		c-0.2,0.2-0.3,0.3-0.3,0.5v23.3C35.7,79.9,35.8,80.1,36,80.3 M41.9,61.5h1.4c0.9,0,1.4,0.5,1.4,1.6v1.5c0,1.1-0.5,1.6-1.4,1.6h-1.4
		V61.5z"/>
	<path class="st0" d="M1.3,107c0.9,0.9,2,1.4,3.4,1.4h5.6c1.3,0,2.4-0.5,3.4-1.4c0.9-0.9,1.4-2,1.4-3.4v-4.7c0-0.2-0.1-0.4-0.2-0.6
		c-0.2-0.2-0.4-0.2-0.6-0.2H9.7c-0.2,0-0.4,0.1-0.6,0.2c-0.2,0.2-0.3,0.4-0.3,0.6v2.4c0,0.8-0.5,1.2-1.4,1.2c-0.9,0-1.4-0.4-1.4-1.2
		V90.5c0-0.8,0.5-1.2,1.4-1.2c0.9,0,1.4,0.4,1.4,1.2v2.4c0,0.3,0.1,0.4,0.3,0.6c0.2,0.2,0.4,0.2,0.6,0.2h4.5c0.3,0,0.4-0.1,0.6-0.2
		c0.2-0.2,0.2-0.4,0.2-0.6v-4.7c0-1.3-0.5-2.4-1.4-3.4c-0.9-0.9-2-1.4-3.4-1.4H4.7c-1.3,0-2.4,0.5-3.3,1.4c-0.9,0.9-1.4,2-1.4,3.4
		v15.4C0,104.9,0.4,106,1.3,107"/>
	<path class="st0" d="M26.6,92.3c0,1.1-0.5,1.6-1.4,1.6h-1.4v-4.6h1.4c0.9,0,1.4,0.5,1.4,1.6V92.3z M32.8,107.1
		c-0.1-0.4-0.1-0.7-0.1-0.9v-5.7c0-2-0.9-3.3-2.8-3.9c1.9-0.6,2.8-1.9,2.8-3.9v-4.4c0-1.3-0.5-2.4-1.4-3.4c-0.9-0.9-2-1.4-3.4-1.4
		h-9.5c-0.2,0-0.4,0.1-0.6,0.2c-0.2,0.2-0.3,0.3-0.3,0.5v23.3c0,0.2,0.1,0.4,0.3,0.6c0.2,0.2,0.4,0.2,0.6,0.2H23
		c0.3,0,0.4-0.1,0.6-0.2c0.2-0.2,0.2-0.4,0.2-0.6v-7.8H25c1.1,0,1.6,0.5,1.6,1.6v4.9c0,1.4,0.5,2,1.5,2h4c0.5,0,0.7-0.2,0.7-0.6
		C32.9,107.7,32.9,107.5,32.8,107.1"/>
	<path class="st0" d="M36,108.1c0.2,0.2,0.4,0.2,0.6,0.2h12.3c0.2,0,0.4-0.1,0.6-0.2c0.2-0.2,0.2-0.4,0.2-0.6v-4.3
		c0-0.2-0.1-0.4-0.2-0.5c-0.2-0.2-0.4-0.2-0.6-0.2h-7v-3.7h4.9c0.3,0,0.4-0.1,0.6-0.2c0.2-0.2,0.2-0.3,0.2-0.5v-4.4
		c0-0.2-0.1-0.4-0.2-0.6C47.2,93,47,93,46.8,93h-4.9v-3.6h7c0.2,0,0.4-0.1,0.6-0.2c0.2-0.2,0.2-0.4,0.2-0.6v-4.3
		c0-0.2-0.1-0.4-0.2-0.5c-0.2-0.2-0.4-0.2-0.6-0.2H36.6c-0.2,0-0.4,0.1-0.6,0.2c-0.2,0.2-0.3,0.3-0.3,0.5v23.3
		C35.7,107.8,35.8,107.9,36,108.1"/>
	<path class="st0" d="M58,98.2l0.5-7c0-0.3,0.1-0.4,0.3-0.4c0.2,0,0.3,0.2,0.3,0.4l0.5,7H58z M67,106.8l-2.1-22.6
		c-0.1-0.5-0.4-0.7-0.9-0.7h-9.7c-0.5,0-0.8,0.3-0.8,0.7l-2.1,22.6c-0.1,0.5-0.1,0.7-0.1,0.8c0,0.2,0.1,0.4,0.2,0.5
		c0.2,0.2,0.3,0.2,0.5,0.2h4.6c0.5,0,0.8-0.3,0.8-0.8l0.3-5h2.3l0.3,5c0.1,0.5,0.4,0.8,0.9,0.8h5c0.2,0,0.4-0.1,0.6-0.2
		c0.2-0.2,0.2-0.3,0.2-0.5C67.1,107.6,67.1,107.3,67,106.8"/>
	<path class="st0" d="M67.5,89.4c0.2,0.2,0.4,0.2,0.6,0.2h3.5v17.9c0,0.2,0.1,0.4,0.3,0.6c0.2,0.2,0.4,0.2,0.6,0.2h4.5
		c0.2,0,0.4-0.1,0.6-0.2c0.2-0.2,0.3-0.4,0.3-0.6V89.6h3.5c0.2,0,0.4-0.1,0.6-0.2c0.2-0.2,0.3-0.4,0.3-0.6v-4.5
		c0-0.3-0.1-0.4-0.3-0.6c-0.2-0.2-0.4-0.2-0.6-0.2H68.1c-0.2,0-0.4,0.1-0.6,0.3c-0.2,0.2-0.3,0.4-0.3,0.6v4.5
		C67.2,89,67.3,89.2,67.5,89.4"/>
	<path class="st0" d="M84.4,108.1c0.2,0.2,0.4,0.2,0.6,0.2h4.5c0.3,0,0.4-0.1,0.6-0.2c0.2-0.2,0.2-0.4,0.2-0.6V84.3
		c0-0.3-0.1-0.4-0.3-0.6c-0.2-0.2-0.4-0.2-0.6-0.2h-4.5c-0.2,0-0.4,0.1-0.6,0.3c-0.2,0.2-0.2,0.4-0.2,0.6v23.2
		C84.1,107.8,84.2,107.9,84.4,108.1"/>
	<path class="st0" d="M93,85l2.5,22.6c0.1,0.5,0.3,0.7,0.8,0.7h8.6c0.5,0,0.8-0.3,0.9-0.7l2.5-22.6c0.1-0.5,0.1-0.7,0.1-0.8
		c0-0.2-0.1-0.4-0.2-0.5c-0.2-0.2-0.3-0.2-0.5-0.2H103c-0.5,0-0.8,0.3-0.8,0.8L101,99.6c0,0.3-0.1,0.4-0.3,0.4s-0.3-0.1-0.3-0.4
		l-1.1-15.3c-0.1-0.6-0.3-0.8-0.8-0.8h-4.8c-0.2,0-0.4,0.1-0.5,0.2c-0.2,0.2-0.2,0.3-0.2,0.5C92.9,84.2,93,84.5,93,85"/>
	<path class="st0" d="M111,108.1c0.2,0.2,0.4,0.2,0.6,0.2h4.5c0.3,0,0.4-0.1,0.6-0.2c0.2-0.2,0.2-0.4,0.2-0.6V84.3
		c0-0.3-0.1-0.4-0.3-0.6s-0.4-0.2-0.6-0.2h-4.5c-0.2,0-0.4,0.1-0.6,0.3c-0.2,0.2-0.2,0.4-0.2,0.6v23.2
		C110.8,107.8,110.9,107.9,111,108.1"/>
	<path class="st0" d="M119.4,89.4c0.2,0.2,0.4,0.2,0.6,0.2h3.5v17.9c0,0.2,0.1,0.4,0.3,0.6c0.2,0.2,0.4,0.2,0.6,0.2h4.5
		c0.2,0,0.4-0.1,0.6-0.2c0.2-0.2,0.3-0.4,0.3-0.6V89.6h3.5c0.2,0,0.4-0.1,0.6-0.2c0.2-0.2,0.3-0.4,0.3-0.6v-4.5
		c0-0.3-0.1-0.4-0.3-0.6c-0.2-0.2-0.4-0.2-0.6-0.2H120c-0.2,0-0.4,0.1-0.6,0.3c-0.2,0.2-0.3,0.4-0.3,0.6v4.5
		C119.2,89,119.3,89.2,119.4,89.4"/>
	<path class="st0" d="M135.8,85.4l4.6,15.7v6.5c0,0.2,0.1,0.4,0.3,0.6c0.2,0.2,0.4,0.2,0.6,0.2h4.5c0.2,0,0.4-0.1,0.6-0.2
		c0.2-0.2,0.3-0.4,0.3-0.6v-6.5l4.4-15.7c0.2-0.6,0.3-1.1,0.3-1.3c0-0.4-0.2-0.6-0.6-0.6h-4.5c-0.5,0-0.7,0.3-0.8,0.7l-1.3,6.3
		c-0.1,0.2-0.2,0.2-0.3,0.2c-0.2,0-0.2-0.1-0.3-0.2l-1.5-6.3c-0.1-0.5-0.4-0.7-0.8-0.7h-4.8c-0.5,0-0.7,0.2-0.7,0.6
		C135.6,84.4,135.6,84.8,135.8,85.4"/>
	<path class="st0" d="M36,24.6c0.2,0.2,0.4,0.2,0.6,0.2h12.3c0.2,0,0.4-0.1,0.6-0.2c0.2-0.2,0.2-0.4,0.2-0.6v-4.3
		c0-0.2-0.1-0.4-0.2-0.5c-0.2-0.2-0.4-0.2-0.6-0.2h-7v-3.7h4.9c0.3,0,0.4-0.1,0.6-0.2c0.2-0.2,0.2-0.3,0.2-0.5v-4.3
		c0-0.2-0.1-0.4-0.2-0.6c-0.2-0.2-0.4-0.2-0.6-0.2h-4.9V6h7c0.2,0,0.4-0.1,0.6-0.2c0.2-0.2,0.2-0.4,0.2-0.6V0.9
		c0-0.2-0.1-0.4-0.2-0.5c-0.2-0.2-0.4-0.2-0.6-0.2H36.6c-0.2,0-0.4,0.1-0.6,0.2c-0.2,0.2-0.3,0.3-0.3,0.5v23.3
		C35.7,24.3,35.8,24.5,36,24.6"/>
	<path class="st0" d="M18,24.6c0.2,0.2,0.4,0.2,0.6,0.2h4.5c0.3,0,0.4-0.1,0.6-0.2c0.2-0.2,0.2-0.4,0.2-0.6v-8.7h2.8v8.7
		c0,0.2,0.1,0.4,0.2,0.6c0.2,0.2,0.4,0.2,0.6,0.2H32c0.3,0,0.4-0.1,0.6-0.2s0.2-0.4,0.2-0.6V0.8c0-0.3-0.1-0.4-0.3-0.6
		C32.4,0.1,32.1,0,31.9,0h-4.5c-0.2,0-0.4,0.1-0.6,0.3c-0.1,0.1-0.2,0.3-0.2,0.5v8.7h-2.8V0.8c0-0.3-0.1-0.4-0.3-0.6
		C23.5,0.1,23.3,0,23.1,0h-4.5c-0.2,0-0.4,0.1-0.6,0.3c-0.2,0.1-0.2,0.3-0.2,0.5V24C17.8,24.3,17.8,24.5,18,24.6"/>
	<path class="st0" d="M0.4,5.9c0.2,0.2,0.4,0.2,0.6,0.2h3.7v17.9c0,0.2,0.1,0.4,0.3,0.6c0.2,0.2,0.4,0.2,0.6,0.2H10
		c0.2,0,0.4-0.1,0.6-0.2c0.2-0.2,0.3-0.4,0.3-0.6V6.1h3.5c0.2,0,0.4-0.1,0.6-0.2c0.2-0.2,0.3-0.4,0.3-0.6V0.8c0-0.3-0.1-0.4-0.3-0.6
		s-0.4-0.2-0.6-0.2H0.9c-0.2,0-0.4,0.1-0.6,0.3C0.2,0.5,0.1,0.7,0.1,0.9v4.5C0.1,5.6,0.2,5.8,0.4,5.9"/>
</g>
</svg>
