<?xml version="1.0" encoding="utf-8"?>
<!-- Generator: Adobe Illustrator 20.1.0, SVG Export Plug-In . SVG Version: 6.00 Build 0)  -->
<svg version="1.1" id="Layer_1" xmlns="http://www.w3.org/2000/svg" xmlns:xlink="http://www.w3.org/1999/xlink" x="0px" y="0px"
	 viewBox="0 0 197.5 55.3" style="enable-background:new 0 0 197.5 55.3;" xml:space="preserve">
<style type="text/css">
	.st0{fill:#6D6F70;}
</style>
<path class="st0" d="M77.1,14c-0.3-1-2.9-9.2-3.1-9.7c-0.1-0.2-0.2-0.5-0.3-0.5c-0.1,0-0.3,0.2-0.4,0.5c-0.2,0.4-3.3,8.8-3.5,9.6
	L77.1,14z M69.4,15.2c-0.3,0.8-2.1,5.8-2.3,6.5c0,0.2-0.1,0.6-0.1,0.7c0,0.5,0.4,0.7,1.1,0.7h1.5c0.2,0,0.3,0.1,0.3,0.2v0.8
	c0,0.2-0.1,0.3-0.3,0.3c-0.5,0-1.8-0.1-3.7-0.1c-2.4,0-3.1,0.1-3.6,0.1c-0.2,0-0.2-0.1-0.2-0.3v-0.8c0-0.2,0.1-0.2,0.3-0.2h1.1
	c1,0,1.4-0.5,1.9-1.5c0.2-0.5,2.6-6.6,3.6-9.3c0.2-0.7,2.9-7.7,3.2-8.6c0.1-0.3,0.3-0.8,0-1.1c-0.1-0.1-0.2-0.3-0.2-0.4
	c0-0.1,0.1-0.2,0.3-0.3c0.9-0.2,2.4-1.2,2.7-1.6C75.3,0.1,75.4,0,75.5,0c0.2,0,0.3,0.2,0.4,0.6c0.6,2.1,3.2,9.4,3.8,11.5
	c0.8,2.6,2.9,8.6,3.3,9.6c0.6,1.1,1.4,1.5,2.2,1.5h1.1c0.2,0,0.3,0.1,0.3,0.2l0,0.8c0,0.2-0.1,0.2-0.3,0.2c-0.6,0-1.3-0.1-3.9-0.1
	c-2.7,0-3.9,0.1-4.6,0.1c-0.2,0-0.3-0.1-0.3-0.3v-0.8c0-0.2,0.1-0.2,0.3-0.2h0.8c0.9,0,1.2-0.3,1-1.2c-0.3-1.2-1.6-5.4-2.1-6.7H69.4
	z"/>
<path class="st0" d="M99.8,22.5c0,0.5,0.3,0.7,0.7,0.7h1c0.3,0,0.4,0.1,0.4,0.3V24c0,0.2-0.1,0.4-0.3,0.4c-0.2,0-1.2-0.1-3.1-0.1
	c-1.7,0-2.7,0.1-2.9,0.1c-0.2,0-0.3-0.1-0.3-0.4v-0.5c0-0.2,0.1-0.3,0.4-0.3h1c0.4,0,0.6-0.2,0.7-0.8c0-0.9,0.1-1.9,0.1-2.7v-4.3
	c0-1.3,0-2.3-0.9-2.9c-0.8-0.6-1.6-0.6-2.4-0.6c-0.5,0-1.7,0.2-2.6,1.3c-0.7,0.7-0.8,1.6-0.8,2.2v6.8c0,0.9,0.1,1.1,0.8,1.1h0.8
	c0.3,0,0.3,0.1,0.3,0.3v0.6c0,0.2-0.1,0.3-0.2,0.3c-0.2,0-1.1-0.1-2.8-0.1c-1.7,0-2.7,0.1-2.9,0.1c-0.2,0-0.2-0.1-0.2-0.3v-0.6
	c0-0.2,0.1-0.3,0.3-0.3h0.9c0.4,0,0.7-0.1,0.7-0.7v-7.7c0-1-0.5-1.5-1.3-1.9l-0.3-0.1c-0.2-0.1-0.3-0.2-0.3-0.3v-0.2
	c0-0.2,0.1-0.3,0.3-0.3l2.8-1.6c0.3-0.1,0.5-0.2,0.6-0.2c0.2,0,0.2,0.1,0.3,0.4l0.2,2h0.1c0.9-1.2,2.8-2.4,4.5-2.4
	c1,0,2,0.2,2.8,0.7c1,0.7,1.8,2.3,1.8,3.1V22.5z"/>
<path class="st0" d="M115.2,22.5c0,0.5,0.3,0.7,0.7,0.7h1c0.3,0,0.4,0.1,0.4,0.3V24c0,0.2-0.1,0.4-0.3,0.4c-0.2,0-1.2-0.1-3.1-0.1
	c-1.7,0-2.7,0.1-2.9,0.1c-0.2,0-0.3-0.1-0.3-0.4v-0.5c0-0.2,0.1-0.3,0.4-0.3h0.9c0.4,0,0.6-0.2,0.7-0.8c0-0.8,0.1-1.9,0.1-2.7v-4.3
	c0-1.3,0-2.3-0.9-2.9c-0.8-0.6-1.6-0.6-2.4-0.6c-0.5,0-1.7,0.2-2.6,1.3c-0.7,0.7-0.8,1.6-0.8,2.2v6.8c0,0.9,0.1,1.1,0.8,1.1h0.8
	c0.3,0,0.3,0.1,0.3,0.3v0.6c0,0.2-0.1,0.3-0.2,0.3c-0.2,0-1.1-0.1-2.8-0.1c-1.7,0-2.7,0.1-2.9,0.1c-0.2,0-0.2-0.1-0.2-0.3v-0.6
	c0-0.2,0.1-0.3,0.3-0.3h0.9c0.4,0,0.7-0.1,0.7-0.7v-7.7c0-1-0.5-1.5-1.3-1.9l-0.3-0.1c-0.2-0.1-0.3-0.2-0.3-0.3v-0.2
	c0-0.2,0.1-0.3,0.3-0.3l2.8-1.6c0.3-0.1,0.5-0.2,0.6-0.2c0.2,0,0.2,0.1,0.3,0.4l0.2,2h0.1c0.9-1.2,2.8-2.4,4.5-2.4
	c1,0,2,0.2,2.8,0.7c1,0.7,1.8,2.3,1.8,3.1V22.5z"/>
<path class="st0" d="M125,14.6c0.6,0,0.9-0.2,0.9-0.5c0-0.8-0.4-2.9-2.5-2.9c-1.4,0-2.8,0.9-3.4,3.4H125z M119.8,15.6
	c-0.1,0.3-0.1,0.8-0.1,1.6c0,3.2,2,5.6,4.6,5.6c2,0,3.4-1.1,4-2.2c0.1-0.1,0.2-0.2,0.3-0.2l0.4,0.2c0.1,0,0.2,0.1,0,0.5
	c-0.6,1.3-2.3,3.6-5.2,3.6c-1.9,0-3.9-0.6-5.1-2.3c-1.1-1.7-1.4-2.9-1.4-5.2c0-1.3,0.3-3.5,2.1-5.2c1.4-1.4,3-1.7,4.7-1.7
	c3.8,0,4.8,3.5,4.8,4.8c0,0.5-0.4,0.5-0.9,0.5L119.8,15.6z"/>
<path class="st0" d="M143.3,22.5c0,0.5,0.3,0.7,0.7,0.7h1c0.3,0,0.4,0.1,0.4,0.3V24c0,0.2-0.1,0.4-0.3,0.4c-0.2,0-1.2-0.1-3.1-0.1
	c-1.7,0-2.7,0.1-2.9,0.1c-0.2,0-0.3-0.1-0.3-0.4v-0.5c0-0.2,0.1-0.3,0.4-0.3h1c0.4,0,0.6-0.2,0.7-0.8c0-0.8,0.1-1.9,0.1-2.7v-4.3
	c0-1.3,0-2.3-0.9-2.9c-0.8-0.6-1.6-0.6-2.4-0.6c-0.5,0-1.7,0.2-2.6,1.3c-0.7,0.7-0.8,1.6-0.8,2.2v6.8c0,0.9,0.1,1.1,0.8,1.1h0.8
	c0.3,0,0.3,0.1,0.3,0.3v0.6c0,0.2-0.1,0.3-0.2,0.3c-0.2,0-1.1-0.1-2.8-0.1c-1.7,0-2.7,0.1-2.9,0.1c-0.2,0-0.2-0.1-0.2-0.3v-0.6
	c0-0.2,0.1-0.3,0.3-0.3h1c0.4,0,0.7-0.1,0.7-0.7v-7.7c0-1-0.5-1.5-1.3-1.9l-0.3-0.1c-0.2-0.1-0.3-0.2-0.3-0.3v-0.2
	c0-0.2,0.1-0.3,0.3-0.3l2.8-1.6c0.3-0.1,0.5-0.2,0.6-0.2c0.2,0,0.2,0.1,0.3,0.4l0.2,2h0.1c0.9-1.2,2.8-2.4,4.5-2.4
	c1,0,2,0.2,2.8,0.7c1,0.7,1.8,2.3,1.8,3.1V22.5z"/>
<path class="st0" d="M148.8,17.2c0,2.7,0.1,3.7,0.5,4.7c0.3,0.8,1.7,1.6,3.1,1.6c2,0,4.4-1.3,4.4-5.6c0-3.2-1.7-6.2-4.9-6.2
	c-1.2,0-2.4,0.4-3.1,1.2V17.2z M146.4,6.6c0-2.2-0.4-2.7-1.5-3l-0.3-0.1c-0.4-0.1-0.4-0.2-0.4-0.3V3c0-0.1,0.1-0.2,0.3-0.3
	c0.9-0.4,2.7-1.3,3.5-1.8c0.2-0.2,0.5-0.3,0.7-0.3c0.2,0,0.3,0.2,0.3,0.6c0,0.3,0,4,0,6.9v3.8c1-1,2.9-1.6,4.5-1.6c2.9,0,6,2.3,6,7
	c0,3.8-3.1,7.4-6.8,7.4c-1.8,0-3.1-0.4-3.9-0.8l-1.3,0.7c-0.1,0.1-0.2,0.1-0.4,0.1l-0.4-0.1c-0.1,0-0.2-0.1-0.1-0.3
	c0.1-0.5,0.1-3.2,0.1-5.6V6.6z"/>
<path class="st0" d="M168.2,14.6c0.6,0,0.9-0.2,0.9-0.5c0-0.8-0.4-2.9-2.5-2.9c-1.4,0-2.8,0.9-3.4,3.4H168.2z M163,15.6
	c-0.1,0.3-0.1,0.8-0.1,1.6c0,3.2,2,5.6,4.6,5.6c2,0,3.4-1.1,4-2.2c0.1-0.1,0.2-0.2,0.3-0.2l0.4,0.2c0.1,0,0.2,0.1,0,0.5
	c-0.6,1.3-2.3,3.6-5.2,3.6c-1.9,0-3.9-0.6-5.1-2.3c-1.1-1.7-1.4-2.9-1.4-5.2c0-1.3,0.3-3.5,2.1-5.2c1.4-1.4,3-1.7,4.7-1.7
	c3.8,0,4.8,3.5,4.8,4.8c0,0.5-0.4,0.5-0.9,0.5L163,15.6z"/>
<path class="st0" d="M175,15.6c0-1.7-0.3-2-1.2-2.5l-0.6-0.3c-0.2-0.1-0.3-0.1-0.3-0.2v-0.2c0-0.1,0.1-0.2,0.3-0.3l3.2-1.7
	c0.2-0.1,0.3-0.1,0.5-0.1c0.2,0,0.2,0.2,0.2,0.4l0.2,2.3h0.1c1-1.5,2.5-2.8,3.9-2.8c1.1,0,1.7,0.7,1.7,1.4c0,0.9-0.8,1.6-1.4,1.6
	c-0.4,0-0.7-0.1-0.9-0.3c-0.3-0.2-0.7-0.3-1.1-0.3c-0.5,0-1.4,0.3-1.9,1.4c-0.2,0.4-0.3,0.9-0.3,1v6.9c0,1,0.2,1.3,0.9,1.3h1.5
	c0.2,0,0.2,0.1,0.2,0.3v0.6c0,0.2,0,0.3-0.2,0.3c-0.2,0-1.7-0.1-3.5-0.1c-2,0-3.4,0.1-3.6,0.1c-0.1,0-0.2-0.1-0.2-0.3v-0.6
	c0-0.2,0.1-0.3,0.4-0.3h1.3c0.5,0,0.7-0.2,0.7-0.6c0-1.1,0-2.2,0-3.9V15.6z"/>
<path class="st0" d="M191.5,14.8c0-1.4-0.3-2.3-0.9-2.9c-0.4-0.4-1.1-0.7-1.6-0.7c-0.8,0-1.5,0.1-2.3,0.9c-1,1.1-1.2,2.6-1.2,3.9
	c0,1.1,0.4,2.1,1,2.8c0.6,0.6,1.2,0.8,2,0.8C190.7,19.6,191.5,16.9,191.5,14.8 M194.5,28.8c0-1.9-1.5-3.4-4.7-3.2l-3.1,0.2
	c-1,0.3-2.6,1.4-2.6,3.1c0,0.8,0.6,1.8,1.3,2.3c1.1,0.8,2.3,0.9,4.6,0.9C191.1,32.1,194.7,31.3,194.5,28.8 M183.7,32.1
	c-1.2-0.7-1.7-1.6-1.7-2.6c0-1.8,1.9-3.2,3.4-3.9v-0.1c-1.4-0.3-2.2-1.3-2.2-2.3c0-1.6,1.8-2.7,2.9-3.1V20c-1.3-0.6-3-2.1-3-5
	c0-2.1,1.9-4.7,5.6-4.7c2.5,0,3.8,1.5,4.1,1.9c0.9-0.6,2-1.3,3.1-1.3c1.1,0,1.6,0.7,1.5,1.4c0,0.6-0.5,1.2-1.3,1.2
	c-0.6,0-0.9-0.3-1.1-0.5c-0.2-0.1-0.4-0.3-0.7-0.3c-0.2,0-0.6,0-1,0.2c0.3,0.7,0.5,1.4,0.5,2.5c0,1.3-0.4,2.5-1.2,3.5
	c-0.9,0.9-2.7,1.6-3.8,1.6c-0.7,0-1.2,0-1.7-0.2c-0.7,0.3-1.7,0.9-1.7,1.8c0,1.3,1.6,1.2,3.8,1.1c2.7-0.1,4.3,0.2,5.6,1.2
	c1.4,1,1.6,2.4,1.6,3.1c0,1.5-0.6,2.8-2.2,4c-0.9,0.6-2.8,1.5-5.6,1.5C187.2,33.2,185.3,33,183.7,32.1"/>
<path class="st0" d="M2.9,3.7C2.9,2.6,2.7,2,1.8,2H0.3C0.1,2,0,2,0,1.7V1c0-0.2,0.1-0.3,0.3-0.3c0.3,0,1.9,0.1,5.1,0.1
	c2.8,0,4.4-0.1,4.8-0.1c0.2,0,0.3,0.1,0.3,0.2v0.8C10.5,2,10.4,2,10.2,2H8.8c-1,0-1.6,0.6-1.6,1.3c0,0.4-0.1,2.4-0.1,4.3v4.1
	c0,1.7,0,4,0.1,5.1c0.1,1.5,0.4,3,1.2,4.1c1.1,1.5,2.9,2.1,4.5,2.1c1.5,0,3.4-0.6,4.4-1.6c1.3-1.3,1.9-3.2,1.9-5.6v-6
	c0-2.6-0.3-5.6-0.4-6.3C18.7,2.6,18.2,2,17.5,2h-1.2C16.1,2,16,1.9,16,1.8V1c0-0.2,0.1-0.3,0.3-0.3c0.3,0,1.9,0.1,4,0.1
	c2.1,0,3.1-0.1,3.4-0.1C24,0.7,24,0.8,24,1v0.8C24,1.9,24,2,23.8,2h-1.2c-1.2,0-1.3,0.9-1.4,1.3c-0.1,0.4-0.1,5-0.1,5.5
	c0,0.5-0.1,6.2-0.2,7.6c-0.2,2.7-1,4.8-2.8,6.4c-1.4,1.3-3.5,2.1-6,2.1c-1.6,0-3.5-0.3-4.8-0.8c-1.9-0.8-3.2-2.3-3.9-4.4
	c-0.5-1.5-0.6-3.6-0.6-8V3.7z"/>
<path class="st0" d="M25,16.9c0.1,0,0.2,0.1,0.2,0.3c0.1,1.1,0.3,2.3,1.3,3.8c1,1.6,2.7,2.4,4.4,2.4c1.8,0,4.3-1.1,4.3-3.9
	c0-3-1.4-4-4.9-5.4c-1.1-0.4-3.2-1.3-4.8-2.8c-1.1-1.1-1.7-2.7-1.7-4.7c0-1.9,0.7-3.4,2.3-4.6c1.3-1.1,2.8-1.6,4.7-1.6
	c2.2,0,3.5,0.5,4.2,0.8c0.3,0.1,0.5,0.1,0.7-0.1L36,0.6c0.1-0.1,0.3-0.2,0.5-0.2c0.2,0,0.3,0.2,0.3,0.5c0,0.5,0.5,5.2,0.5,5.5
	c0,0.1-0.1,0.2-0.2,0.2l-0.5,0.2c-0.1,0-0.3,0-0.3-0.2c-0.3-0.9-0.9-2.3-2.1-3.5c-0.9-0.9-1.9-1.4-3.4-1.4c-2.6,0-3.7,2.1-3.7,3.3
	c0,1.1,0.1,2.1,0.9,3c0.9,0.9,2.7,1.7,4,2.1c1.9,0.6,3.5,1.3,4.8,2.6c1.1,1.1,1.7,2.5,1.7,4.7c0,4-2.6,7.4-7,7.4
	c-2.7,0-4.3-0.6-5.6-1.6c-0.4-0.3-0.6-0.4-0.8-0.4c-0.2,0-0.3,0.3-0.5,0.6c-0.2,0.3-0.3,0.4-0.6,0.4c-0.3,0-0.4-0.2-0.4-0.5
	c0.1-0.4,0.5-5.8,0.6-6.2c0-0.2,0.1-0.3,0.2-0.3L25,16.9z"/>
<path class="st0" d="M61.1,18.9c0.1,0.1,0.1,0.2,0.1,0.3c-2,2.9-5.2,5.6-9.9,5.6c-4.2,0-6.6-1.3-8.7-3.1c-2.5-2.2-3.6-6-3.6-8.9
	c0-3.2,1.1-6.4,3.4-8.9C44.2,1.9,47,0.3,51,0.3c3,0,5.5,0.9,6.7,1.6c0.5,0.3,0.6,0.3,0.7,0L58.6,1c0.1-0.2,0.1-0.2,0.5-0.2
	c0.4,0,0.5,0.1,0.5,0.5c0,0.6,0.7,5.9,0.8,6.9c0,0.2,0,0.3-0.1,0.3l-0.6,0.2c-0.2,0.1-0.3-0.1-0.4-0.3c-0.4-1.2-1.2-2.8-2.6-4.3
	c-1.5-1.4-3.2-2.5-5.8-2.5c-5.3,0-7.5,4.8-7.5,9.5c0,2.1,0.6,6,3,8.6c2.2,2.3,4.1,2.6,5.7,2.6c3.6,0,6.5-1.8,7.9-3.8
	c0.2-0.2,0.3-0.3,0.4-0.2L61.1,18.9z"/>
<path class="st0" d="M183.7,32.1c-1.2-0.7-1.7-1.6-1.7-2.6"/>
<path class="st0" d="M65.5,40.6c-0.1-0.1-0.2-0.1-0.2-0.1c-0.1,0-0.1,0.1-0.2,0.2c-0.1,0.1-0.1,0.1-0.2,0.1c-0.1,0-0.1-0.1-0.1-0.2
	c0-0.3,0.1-1.6,0.2-1.9c0-0.1,0-0.1,0.1-0.1l0.2,0c0,0,0.1,0,0.1,0.1c0,0.3,0,0.7,0.4,1.2c0.3,0.5,0.9,0.8,1.5,0.8
	c0.6,0,1.4-0.4,1.4-1.3c0-1.1-0.8-1.5-1.6-1.8c-0.3-0.1-1.1-0.4-1.5-0.9c-0.3-0.3-0.5-0.8-0.5-1.5c0-0.5,0.3-1,0.7-1.4
	c0.4-0.4,0.9-0.5,1.5-0.5c0.6,0,1.1,0.2,1.2,0.3c0.1,0.1,0.1,0,0.2,0l0.1-0.1c0.1,0,0.1-0.1,0.1-0.1c0.1,0,0.1,0.1,0.1,0.2
	c0,0.4,0.1,1.5,0.1,1.7c0,0.1,0,0.1-0.1,0.1l-0.1,0c0,0-0.1,0-0.1,0c-0.1-0.3-0.2-0.7-0.7-1.2c-0.3-0.3-0.7-0.5-1.2-0.5
	c-0.9,0-1.3,0.7-1.3,1.2c0,0.3,0.1,0.6,0.3,0.9c0.3,0.3,0.9,0.5,1.2,0.6c0.7,0.2,1.3,0.4,1.7,0.9c0.3,0.3,0.5,0.7,0.5,1.4
	c0,1.2-0.8,2.3-2.2,2.3C66.5,41.2,65.9,41,65.5,40.6"/>
<path class="st0" d="M70.9,38.5c0,0.6,0.3,1.2,0.5,1.6c0.3,0.5,0.8,0.5,1.2,0.5c0.5,0,0.8-0.1,1.2-0.5c0,0,0.1,0,0.1,0l0.1,0.1
	c0,0,0.1,0.1,0,0.1c-0.3,0.3-1,0.8-1.7,0.8c-0.6,0-1.2-0.1-1.6-0.7c-0.4-0.5-0.5-1-0.5-1.4c0-1.2,0.9-2.5,2.3-2.5
	c1.1,0,1.4,0.6,1.4,0.9c0,0.2-0.2,0.4-0.4,0.4c-0.2,0-0.4-0.1-0.6-0.4c-0.2-0.4-0.5-0.5-0.7-0.5C71.5,36.8,70.9,37.4,70.9,38.5"/>
<path class="st0" d="M75.1,35.3c0-0.6-0.1-0.8-0.5-0.9l-0.2-0.1c-0.1,0-0.1,0-0.1-0.1v-0.1c0,0,0-0.1,0.1-0.1l1.1-0.6
	c0.1,0,0.2-0.1,0.2-0.1c0.1,0,0.1,0.1,0.1,0.3c0,0.2,0,2.3,0,2.9v0.7h0.1c0.4-0.4,1-0.7,1.5-0.7c0.4,0,0.8,0.1,1,0.4
	c0.5,0.4,0.5,1,0.5,1.6v0.6c0,0.6,0,1.2,0,1.5c0,0.1,0.2,0.2,0.4,0.2h0.2c0.1,0,0.1,0,0.1,0.1v0.2c0,0.1,0,0.1-0.1,0.1
	c-0.1,0-0.4,0-1,0c-0.5,0-0.9,0-1,0c-0.1,0-0.1,0-0.1-0.1v-0.2c0-0.1,0-0.1,0.1-0.1h0.2c0.2,0,0.4,0,0.4-0.2c0-0.1,0-0.7,0-1v-0.9
	c0-0.6,0-1-0.3-1.3c-0.2-0.2-0.4-0.3-0.7-0.3c-0.3,0-0.7,0.1-1,0.4c-0.1,0.1-0.2,0.3-0.2,0.5v2.3c0,0.3,0,0.4,0.2,0.4h0.3
	c0.1,0,0.1,0,0.1,0.1v0.2c0,0.1,0,0.1-0.1,0.1c-0.1,0-0.5,0-1,0c-0.5,0-0.9,0-1,0c0,0-0.1,0-0.1-0.1v-0.2c0-0.1,0-0.1,0.2-0.1h0.2
	c0.2,0,0.3,0,0.3-0.2c0-0.2,0-1.4,0-2.1V35.3z"/>
<path class="st0" d="M80.8,40.4c-0.5-0.6-0.6-1-0.6-1.7c0-0.5,0.3-1.2,0.9-1.7c0.6-0.4,1.1-0.5,1.4-0.5c0.6,0,1.2,0.3,1.5,0.6
	c0.5,0.5,0.7,1,0.7,1.7c0,1.2-1,2.3-2.3,2.3C81.9,41.2,81.2,41,80.8,40.4 M83.8,38.7c0-1.2-0.9-1.9-1.4-1.9c-0.3,0-0.6,0.1-0.8,0.3
	C81.2,37.6,81,38,81,38.8c0,0.6,0.1,1,0.4,1.5c0.2,0.3,0.6,0.5,1,0.5C83.3,40.8,83.8,39.9,83.8,38.7"/>
<path class="st0" d="M86,40.4c-0.5-0.6-0.6-1-0.6-1.7c0-0.5,0.3-1.2,0.9-1.7c0.6-0.4,1.1-0.5,1.4-0.5c0.6,0,1.2,0.3,1.5,0.6
	c0.5,0.5,0.7,1,0.7,1.7c0,1.2-1,2.3-2.3,2.3C87.1,41.2,86.5,41,86,40.4 M89.1,38.7c0-1.2-0.9-1.9-1.4-1.9c-0.3,0-0.6,0.1-0.8,0.3
	c-0.4,0.4-0.6,0.9-0.6,1.7c0,0.6,0.1,1,0.4,1.5c0.2,0.3,0.6,0.5,1,0.5C88.6,40.8,89.1,39.9,89.1,38.7"/>
<path class="st0" d="M92.1,37.9c0,0.6,0,2.1,0,2.5c0,0.2,0.1,0.3,0.3,0.3h0.5c0.1,0,0.5,0,0.5,0.1V41c0,0.1,0,0.1-0.1,0.1
	c-0.1,0-0.9,0-1.6,0c-0.7,0-1.1,0-1.2,0c-0.1,0-0.1,0-0.1-0.1v-0.2c0-0.1,0-0.1,0.1-0.1h0.5c0.1,0,0.2-0.1,0.2-0.3
	c0-0.3,0-2.1,0-2.8V37c0-0.8,0-1.7,0-2c0-0.4-0.2-0.5-0.5-0.6l-0.2-0.1c-0.1,0-0.1,0-0.1-0.1v-0.1c0,0,0-0.1,0.1-0.1
	c0.4-0.2,0.8-0.4,1.2-0.6c0.1-0.1,0.2-0.1,0.2-0.1c0.1,0,0.1,0.1,0.1,0.2c0,0.6,0,2.8,0,3.4V37.9z"/>
<path class="st0" d="M97,37.1h-0.7c-0.1,0-0.1,0-0.1-0.1l0-0.3c0-0.1,0-0.1,0.1-0.1H97v-0.2c0-1,0.3-1.7,0.7-2.2
	c0.6-0.6,1.1-0.8,1.7-0.8c0.5,0,1,0.2,1,0.6c0,0.3-0.3,0.5-0.4,0.5c-0.1,0-0.2,0-0.3-0.1c-0.1-0.1-0.2-0.2-0.3-0.2
	c-0.1-0.2-0.3-0.2-0.5-0.2c-0.3,0-0.6,0.1-0.8,0.4c-0.4,0.5-0.4,1.4-0.4,2.2v0.2h1.3c0.1,0,0.1,0.1,0.1,0.1l-0.1,0.3
	c0,0-0.1,0.1-0.1,0.1h-1.2v0.9c0,1.2,0,2.2,0,2.3c0,0.2,0.1,0.3,0.3,0.3h0.6c0.1,0,0.1,0,0.1,0.1v0.2c0,0.1,0,0.1-0.1,0.1
	c-0.1,0-0.5,0-1.3,0c-0.6,0-1.1,0-1.2,0c-0.1,0-0.1,0-0.1-0.1v-0.2c0-0.1,0-0.1,0.1-0.1h0.5c0.2,0,0.2-0.1,0.3-0.4v-2V37.1z"/>
<path class="st0" d="M100.2,40.4c-0.5-0.6-0.6-1-0.6-1.7c0-0.5,0.3-1.2,0.9-1.7c0.6-0.4,1.1-0.5,1.4-0.5c0.6,0,1.2,0.3,1.5,0.6
	c0.5,0.5,0.7,1,0.7,1.7c0,1.2-1,2.3-2.3,2.3C101.3,41.2,100.6,41,100.2,40.4 M103.2,38.7c0-1.2-0.9-1.9-1.4-1.9
	c-0.3,0-0.6,0.1-0.8,0.3c-0.4,0.4-0.6,0.9-0.6,1.7c0,0.6,0.1,1,0.4,1.5c0.2,0.3,0.6,0.5,1,0.5C102.7,40.8,103.2,39.9,103.2,38.7"/>
<path class="st0" d="M105.5,38.2c0-0.5-0.1-0.6-0.4-0.8l-0.2-0.1c-0.1,0-0.1,0-0.1-0.1v-0.1c0,0,0-0.1,0.1-0.1l1-0.5
	c0.1,0,0.1,0,0.1,0c0.1,0,0.1,0.1,0.1,0.1l0.1,0.7h0c0.3-0.5,0.8-0.9,1.3-0.9c0.4,0,0.5,0.2,0.5,0.5c0,0.3-0.3,0.5-0.4,0.5
	c-0.1,0-0.2,0-0.3-0.1c-0.1-0.1-0.2-0.1-0.3-0.1c-0.2,0-0.4,0.1-0.6,0.4c-0.1,0.1-0.1,0.3-0.1,0.3v2.2c0,0.3,0.1,0.4,0.3,0.4h0.5
	c0.1,0,0.1,0,0.1,0.1V41c0,0.1,0,0.1-0.1,0.1c-0.1,0-0.6,0-1.1,0c-0.7,0-1.1,0-1.2,0c0,0-0.1,0-0.1-0.1v-0.2c0-0.1,0-0.1,0.1-0.1
	h0.4c0.2,0,0.2-0.1,0.2-0.2c0-0.3,0-0.7,0-1.3V38.2z"/>
<path class="st0" d="M111.7,40.2c-0.8-0.7-1.1-1.9-1.1-3c0-1,0.3-2,1.1-2.8c0.5-0.6,1.5-1.1,2.6-1.1c1,0,1.8,0.4,2.1,0.6
	c0.1,0.1,0.2,0.1,0.2,0l0.1-0.3c0-0.1,0-0.1,0.1-0.1c0.1,0,0.1,0,0.1,0.2c0,0.2,0.2,1.8,0.3,2.1c0,0.1,0,0.1,0,0.1l-0.2,0
	c-0.1,0-0.1,0-0.1-0.1c-0.1-0.3-0.4-0.9-0.8-1.3c-0.4-0.5-1-0.8-1.8-0.8c-1.9,0-2.7,1.7-2.6,3.2c0,0.6,0.2,1.8,1,2.7
	c0.7,0.8,1.3,0.9,2,0.9c1.2,0,2.1-0.7,2.6-1.3c0-0.1,0.1-0.1,0.1,0l0.1,0.1c0,0,0.1,0,0,0.1c-0.6,0.9-1.7,1.8-3.2,1.8
	C113.1,41.2,112.3,40.8,111.7,40.2"/>
<path class="st0" d="M118.9,40.4c-0.5-0.6-0.6-1-0.6-1.7c0-0.5,0.3-1.2,0.9-1.7c0.6-0.4,1.1-0.5,1.4-0.5c0.6,0,1.2,0.3,1.5,0.6
	c0.5,0.5,0.7,1,0.7,1.7c0,1.2-1,2.3-2.3,2.3C120,41.2,119.3,41,118.9,40.4 M121.9,38.7c0-1.2-0.9-1.9-1.4-1.9
	c-0.3,0-0.6,0.1-0.8,0.3c-0.4,0.4-0.6,0.9-0.6,1.7c0,0.6,0.1,1,0.4,1.5c0.2,0.3,0.6,0.5,1,0.5C121.4,40.8,121.9,39.9,121.9,38.7"/>
<path class="st0" d="M126.5,38.3c0-0.8-0.1-1-0.3-1.1c-0.1-0.1-0.4-0.2-0.7-0.2c-0.3,0-0.7,0.1-1,0.6c-0.1,0.2-0.1,0.4-0.1,0.7v2.1
	c0,0.2,0.1,0.3,0.2,0.3h0.4c0.1,0,0.1,0,0.1,0.1v0.2c0,0.1,0,0.1-0.1,0.1c-0.1,0-0.4,0-1,0c-0.6,0-0.9,0-1,0c-0.1,0-0.1,0-0.1-0.1
	v-0.2c0-0.1,0-0.1,0.1-0.1h0.4c0.1,0,0.1-0.1,0.2-0.3c0-0.2,0-0.4,0-0.6V38c0-0.2,0-0.4-0.3-0.5l-0.2-0.1c-0.1,0-0.1-0.1-0.1-0.1
	v-0.1c0,0,0-0.1,0.1-0.1l0.9-0.5c0.1,0,0.2-0.1,0.2-0.1c0.1,0,0.1,0.1,0.1,0.1l0,0.6h0c0.3-0.4,0.9-0.8,1.6-0.8c0.5,0,1,0.3,1.2,0.8
	h0.1c0.3-0.4,0.9-0.8,1.6-0.8c0.4,0,0.7,0.1,1,0.3c0.2,0.3,0.5,0.5,0.5,1.3v2.4c0,0.2,0.1,0.2,0.2,0.2h0.3c0.1,0,0.1,0,0.1,0.1V41
	c0,0.1,0,0.1-0.1,0.1c-0.1,0-0.4,0-0.9,0c-0.5,0-0.9,0-1,0c-0.1,0-0.1,0-0.1-0.1v-0.2c0-0.1,0-0.1,0.1-0.1h0.3
	c0.1,0,0.2-0.1,0.2-0.2c0-0.2,0-0.6,0-0.9v-1.6c0-0.3-0.1-0.7-0.3-0.8c-0.2-0.1-0.5-0.2-0.8-0.2c-0.3,0-0.8,0.2-0.9,0.6
	c-0.2,0.3-0.1,0.6-0.1,1.1v1.8c0,0.1,0.1,0.2,0.2,0.2h0.4c0.1,0,0.1,0,0.1,0.1v0.2c0,0.1,0,0.1-0.1,0.1c-0.1,0-0.3,0-0.9,0
	c-0.6,0-0.9,0-1,0c-0.1,0-0.1,0-0.1-0.1v-0.2c0-0.1,0-0.1,0.1-0.1h0.3c0.2,0,0.2,0,0.2-0.2V38.3z"/>
<path class="st0" d="M134.8,38.3c0-0.8-0.1-1-0.3-1.1c-0.1-0.1-0.4-0.2-0.7-0.2c-0.3,0-0.7,0.1-1,0.6c-0.1,0.2-0.1,0.4-0.1,0.7v2.1
	c0,0.2,0.1,0.3,0.2,0.3h0.4c0.1,0,0.1,0,0.1,0.1v0.2c0,0.1,0,0.1-0.1,0.1c-0.1,0-0.4,0-1,0c-0.6,0-0.9,0-1,0c-0.1,0-0.1,0-0.1-0.1
	v-0.2c0-0.1,0-0.1,0.1-0.1h0.4c0.1,0,0.1-0.1,0.2-0.3c0-0.2,0-0.4,0-0.6V38c0-0.2,0-0.4-0.3-0.5l-0.2-0.1c-0.1,0-0.1-0.1-0.1-0.1
	v-0.1c0,0,0-0.1,0.1-0.1l0.9-0.5c0.1,0,0.2-0.1,0.2-0.1c0.1,0,0.1,0.1,0.1,0.1l0,0.6h0c0.3-0.4,0.9-0.8,1.6-0.8c0.6,0,1,0.3,1.2,0.8
	h0.1c0.3-0.4,0.9-0.8,1.6-0.8c0.4,0,0.7,0.1,1,0.3c0.2,0.3,0.5,0.5,0.5,1.3v2.4c0,0.2,0.1,0.2,0.2,0.2h0.3c0.1,0,0.1,0,0.1,0.1V41
	c0,0.1,0,0.1-0.1,0.1c-0.1,0-0.4,0-0.9,0c-0.5,0-0.9,0-1,0c-0.1,0-0.1,0-0.1-0.1v-0.2c0-0.1,0-0.1,0.1-0.1h0.3
	c0.1,0,0.2-0.1,0.2-0.2c0-0.2,0-0.6,0-0.9v-1.6c0-0.3-0.1-0.7-0.3-0.8c-0.2-0.1-0.5-0.2-0.8-0.2c-0.3,0-0.8,0.2-0.9,0.6
	c-0.2,0.3-0.1,0.6-0.1,1.1v1.8c0,0.1,0.1,0.2,0.2,0.2h0.4c0.1,0,0.1,0,0.1,0.1v0.2c0,0.1,0,0.1-0.1,0.1c-0.1,0-0.3,0-0.9,0
	c-0.6,0-0.9,0-1,0c-0.1,0-0.1,0-0.1-0.1v-0.2c0-0.1,0-0.1,0.1-0.1h0.3c0.2,0,0.2,0,0.2-0.2V38.3z"/>
<path class="st0" d="M143.4,38.9c0,0.5,0,1,0,1.2c0,0.3,0.1,0.4,0.3,0.4c0.1,0,0.2,0,0.3,0c0.1,0,0.1,0,0.1,0l0,0.1
	c0,0.1,0,0.1-0.1,0.1l-1.1,0.4c-0.1,0-0.1,0-0.2,0c0,0-0.1,0-0.1-0.1l-0.1-0.6h0c-0.3,0.4-0.9,0.7-1.4,0.7c-0.3,0-0.6,0-1-0.5
	c-0.4-0.6-0.4-0.9-0.4-2.1v-1.2c0-0.3-0.2-0.4-0.4-0.4c-0.2,0-0.2,0-0.2-0.1v-0.2c0-0.1,0-0.1,0.1-0.1h0.9c0.1,0,0.1,0,0.1,0
	c0,0,0.1,0,0.1,0c0.1,0,0.1,0.1,0.1,0.1c0,0.1,0,0.6,0,1.2v0.8c0,0.4-0.1,1.1,0.2,1.6c0.3,0.4,0.6,0.4,0.8,0.4
	c0.3,0,0.7-0.3,0.9-0.5c0-0.1,0.1-0.2,0.1-0.3v-2.5c0-0.3-0.2-0.3-0.5-0.4c-0.2,0-0.2,0-0.2-0.1v-0.2c0-0.1,0-0.1,0.1-0.1h1
	c0.1,0,0.1,0,0.2,0c0.1,0,0.1,0,0.1,0c0.1,0,0.1,0.1,0.1,0.1c0,0.1-0.1,0.4-0.1,1.4V38.9z"/>
<path class="st0" d="M149.1,40.5c0,0.2,0.1,0.2,0.2,0.2h0.3c0.1,0,0.1,0,0.1,0.1v0.2c0,0.1,0,0.1-0.1,0.1c-0.1,0-0.4,0-1,0
	c-0.5,0-0.9,0-1,0c-0.1,0-0.1,0-0.1-0.1v-0.2c0-0.1,0-0.1,0.1-0.1h0.3c0.1,0,0.2-0.1,0.2-0.2c0-0.3,0-0.6,0-0.9v-1.4
	c0-0.4,0-0.7-0.3-1c-0.3-0.2-0.5-0.2-0.8-0.2c-0.2,0-0.5,0.1-0.9,0.4c-0.2,0.2-0.2,0.5-0.2,0.7v2.2c0,0.3,0,0.3,0.3,0.3h0.3
	c0.1,0,0.1,0,0.1,0.1V41c0,0.1,0,0.1-0.1,0.1c-0.1,0-0.4,0-0.9,0c-0.5,0-0.9,0-0.9,0c-0.1,0-0.1,0-0.1-0.1v-0.2c0-0.1,0-0.1,0.1-0.1
	h0.3c0.1,0,0.2,0,0.2-0.2V38c0-0.3-0.2-0.5-0.4-0.6l-0.1,0c-0.1,0-0.1-0.1-0.1-0.1v-0.1c0-0.1,0-0.1,0.1-0.1l0.9-0.5
	c0.1,0,0.1-0.1,0.2-0.1c0.1,0,0.1,0,0.1,0.1l0.1,0.6h0c0.3-0.4,0.9-0.8,1.5-0.8c0.3,0,0.6,0.1,0.9,0.2c0.3,0.2,0.6,0.7,0.6,1V40.5z"
	/>
<path class="st0" d="M151,37.9c0-0.4-0.1-0.6-0.6-0.6c-0.1,0-0.1,0-0.1-0.1v-0.1c0,0,0-0.1,0.1-0.1c0.3-0.1,0.7-0.3,1.1-0.5
	c0.1,0,0.1-0.1,0.2-0.1c0.1,0,0.1,0.1,0.1,0.1c0,0.2,0,0.8,0,1.7v1.2c0,0.4,0,0.8,0,0.9c0,0.2,0.1,0.3,0.2,0.3h0.5
	c0.1,0,0.1,0,0.1,0.1V41c0,0.1,0,0.1-0.1,0.1c-0.1,0-0.6,0-1,0c-0.6,0-1,0-1.1,0c-0.1,0-0.1,0-0.1-0.1v-0.2c0-0.1,0-0.1,0.1-0.1h0.5
	c0.1,0,0.2,0,0.2-0.2c0-0.3,0-0.6,0-1V37.9z M150.6,34.7c0-0.3,0.2-0.6,0.6-0.6c0.4,0,0.6,0.3,0.6,0.5c0,0.3-0.2,0.6-0.6,0.6
	C150.9,35.3,150.6,35.1,150.6,34.7"/>
<path class="st0" d="M153.6,38.5c0,0.6,0.3,1.2,0.5,1.6c0.3,0.5,0.8,0.5,1.2,0.5c0.5,0,0.8-0.1,1.2-0.5c0,0,0.1,0,0.1,0l0.1,0.1
	c0,0,0.1,0.1,0,0.1c-0.3,0.3-1,0.8-1.7,0.8c-0.6,0-1.2-0.1-1.6-0.7c-0.4-0.5-0.5-1-0.5-1.4c0-1.2,0.9-2.5,2.3-2.5
	c1.1,0,1.4,0.6,1.4,0.9c0,0.2-0.2,0.4-0.4,0.4c-0.2,0-0.4-0.1-0.6-0.4c-0.2-0.4-0.5-0.5-0.7-0.5C154.2,36.8,153.6,37.4,153.6,38.5"
	/>
<path class="st0" d="M160.1,39.8c0,0.6,0.1,0.8,0.3,0.8c0.2,0,0.3-0.1,0.4-0.2c0-0.1,0.1-0.1,0.1,0l0.1,0.1c0,0,0.1,0.1,0,0.2
	c-0.1,0.2-0.3,0.5-0.8,0.5c-0.4,0-0.7-0.3-0.8-0.7h0c-0.2,0.3-0.6,0.5-1,0.6c-0.2,0.1-0.4,0.1-0.6,0.1c-0.3,0-0.6-0.2-0.6-0.9
	c0-0.5,0.2-0.9,1.1-1.3c0.5-0.2,1-0.5,1.2-0.6v-0.7c0-0.2,0-0.5-0.1-0.6c-0.1-0.1-0.3-0.2-0.6-0.2c-0.2,0-0.5,0.1-0.7,0.2
	c-0.1,0.1-0.1,0.3-0.1,0.5c0,0.4-0.1,0.6-0.6,0.6c-0.2,0-0.3-0.1-0.3-0.3c0-0.3,0.3-0.7,0.7-1c0.4-0.3,0.8-0.4,1.3-0.4
	c0.5,0,0.7,0.1,0.8,0.3c0.2,0.2,0.2,0.5,0.2,0.8v1.6V39.8z M159.4,38.7c-0.4,0.3-1.4,0.5-1.4,1.4c0,0.4,0.2,0.6,0.6,0.6
	c0.3,0,0.9-0.4,0.9-0.7V38.7z"/>
<path class="st0" d="M162.6,39.7c0,0.8,0.4,0.9,0.6,0.9c0.2,0,0.6,0,0.7-0.1c0.1,0,0.1,0,0.1,0l0.1,0.1c0,0,0,0.1,0,0.1
	c-0.1,0.1-0.5,0.4-1.2,0.4c-0.5,0-1-0.5-1-0.9c0-0.4,0-1.4,0-1.5v-0.2c0-0.2,0-0.9,0-1.3h-0.6c-0.1,0-0.2,0-0.2-0.1
	c0-0.1,0.1-0.1,0.2-0.2c0.3-0.1,1.1-1,1.2-1.3c0-0.1,0.1-0.1,0.1-0.1c0.1,0,0.1,0.1,0.1,0.2l-0.1,1h1.5c0.1,0,0.1,0.1,0.1,0.1
	l-0.1,0.4c0,0.1,0,0.1-0.1,0.1h-1.4c0,0.5,0,1,0,1.5V39.7z"/>
<path class="st0" d="M165.3,37.9c0-0.4-0.1-0.6-0.6-0.6c-0.1,0-0.1,0-0.1-0.1v-0.1c0,0,0-0.1,0.1-0.1c0.3-0.1,0.7-0.3,1.1-0.5
	c0.1,0,0.1-0.1,0.2-0.1c0.1,0,0.1,0.1,0.1,0.1c0,0.2,0,0.8,0,1.7v1.2c0,0.4,0,0.8,0,0.9c0,0.2,0.1,0.3,0.2,0.3h0.5
	c0.1,0,0.1,0,0.1,0.1V41c0,0.1,0,0.1-0.1,0.1c-0.1,0-0.6,0-1,0c-0.6,0-1,0-1.1,0c-0.1,0-0.1,0-0.1-0.1v-0.2c0-0.1,0-0.1,0.1-0.1h0.5
	c0.1,0,0.2,0,0.2-0.2c0-0.3,0-0.6,0-1V37.9z M164.8,34.7c0-0.3,0.2-0.6,0.6-0.6c0.4,0,0.6,0.3,0.6,0.5c0,0.3-0.2,0.6-0.6,0.6
	C165.2,35.3,164.8,35.1,164.8,34.7"/>
<path class="st0" d="M167.7,40.4c-0.5-0.6-0.6-1-0.6-1.7c0-0.5,0.3-1.2,0.9-1.7c0.6-0.4,1.1-0.5,1.4-0.5c0.6,0,1.2,0.3,1.5,0.6
	c0.5,0.5,0.7,1,0.7,1.7c0,1.2-1,2.3-2.3,2.3C168.8,41.2,168.2,41,167.7,40.4 M170.8,38.7c0-1.2-0.9-1.9-1.4-1.9
	c-0.3,0-0.6,0.1-0.8,0.3c-0.4,0.4-0.6,0.9-0.6,1.7c0,0.6,0.1,1,0.4,1.5c0.2,0.3,0.6,0.5,1,0.5C170.2,40.8,170.8,39.9,170.8,38.7"/>
<path class="st0" d="M176.4,40.5c0,0.2,0.1,0.2,0.2,0.2h0.3c0.1,0,0.1,0,0.1,0.1v0.2c0,0.1,0,0.1-0.1,0.1c-0.1,0-0.4,0-1,0
	c-0.5,0-0.9,0-1,0c-0.1,0-0.1,0-0.1-0.1v-0.2c0-0.1,0-0.1,0.1-0.1h0.3c0.1,0,0.2-0.1,0.2-0.2c0-0.3,0-0.6,0-0.9v-1.4
	c0-0.4,0-0.7-0.3-1c-0.3-0.2-0.5-0.2-0.8-0.2c-0.2,0-0.5,0.1-0.9,0.4c-0.2,0.2-0.2,0.5-0.2,0.7v2.2c0,0.3,0,0.3,0.3,0.3h0.3
	c0.1,0,0.1,0,0.1,0.1V41c0,0.1,0,0.1-0.1,0.1c-0.1,0-0.4,0-0.9,0c-0.5,0-0.9,0-0.9,0c-0.1,0-0.1,0-0.1-0.1v-0.2c0-0.1,0-0.1,0.1-0.1
	h0.3c0.1,0,0.2,0,0.2-0.2V38c0-0.3-0.2-0.5-0.4-0.6l-0.1,0c-0.1,0-0.1-0.1-0.1-0.1v-0.1c0-0.1,0-0.1,0.1-0.1l0.9-0.5
	c0.1,0,0.1-0.1,0.2-0.1c0.1,0,0.1,0,0.1,0.1l0.1,0.6h0c0.3-0.4,0.9-0.8,1.5-0.8c0.3,0,0.6,0.1,0.9,0.2c0.3,0.2,0.6,0.7,0.6,1V40.5z"
	/>
<path class="st0" d="M67.7,51.7c0,0.6,0.1,0.8,0.3,0.8c0.2,0,0.3-0.1,0.4-0.2c0-0.1,0.1-0.1,0.1,0l0.1,0.1c0,0,0.1,0.1,0,0.2
	c-0.1,0.2-0.3,0.5-0.8,0.5c-0.4,0-0.7-0.3-0.8-0.7h0c-0.2,0.3-0.6,0.5-1,0.6c-0.2,0.1-0.4,0.1-0.6,0.1c-0.3,0-0.6-0.2-0.6-0.9
	c0-0.5,0.2-0.9,1.1-1.3c0.5-0.2,1-0.5,1.2-0.6v-0.7c0-0.2,0-0.5-0.1-0.6c-0.1-0.1-0.3-0.2-0.6-0.2c-0.2,0-0.5,0.1-0.7,0.2
	c-0.1,0.1-0.1,0.3-0.1,0.5c0,0.4-0.1,0.6-0.6,0.6c-0.2,0-0.3-0.1-0.3-0.3c0-0.3,0.3-0.7,0.7-1c0.4-0.3,0.8-0.4,1.3-0.4
	c0.5,0,0.7,0.1,0.8,0.3c0.2,0.2,0.2,0.5,0.2,0.8v1.6V51.7z M66.9,50.7c-0.4,0.3-1.4,0.5-1.4,1.4c0,0.4,0.2,0.6,0.6,0.6
	c0.3,0,0.9-0.4,0.9-0.7V50.7z"/>
<path class="st0" d="M73.4,52.4c0,0.2,0.1,0.2,0.2,0.2h0.3c0.1,0,0.1,0,0.1,0.1v0.2c0,0.1,0,0.1-0.1,0.1c-0.1,0-0.4,0-1,0
	c-0.5,0-0.9,0-1,0c-0.1,0-0.1,0-0.1-0.1v-0.2c0-0.1,0-0.1,0.1-0.1h0.3c0.1,0,0.2-0.1,0.2-0.2c0-0.3,0-0.6,0-0.9v-1.4
	c0-0.4,0-0.7-0.3-1C72,49,71.8,49,71.5,49c-0.2,0-0.5,0.1-0.9,0.4c-0.2,0.2-0.2,0.5-0.2,0.7v2.2c0,0.3,0,0.3,0.3,0.3h0.3
	c0.1,0,0.1,0,0.1,0.1v0.2C71,53,71,53,71,53c-0.1,0-0.4,0-0.9,0c-0.5,0-0.9,0-0.9,0c-0.1,0-0.1,0-0.1-0.1v-0.2c0-0.1,0-0.1,0.1-0.1
	h0.3c0.1,0,0.2,0,0.2-0.2V50c0-0.3-0.2-0.5-0.4-0.6l-0.1,0c-0.1,0-0.1-0.1-0.1-0.1v-0.1c0-0.1,0-0.1,0.1-0.1l0.9-0.5
	c0.1,0,0.1-0.1,0.2-0.1c0.1,0,0.1,0,0.1,0.1l0.1,0.6h0c0.3-0.4,0.9-0.8,1.5-0.8c0.3,0,0.6,0.1,0.9,0.2c0.3,0.2,0.6,0.7,0.6,1V52.4z"
	/>
<path class="st0" d="M77.8,46.6c0-0.4-0.1-0.5-0.7-0.6c-0.1,0-0.1,0-0.1-0.1v-0.2c0,0,0-0.1,0.1-0.1c0.4-0.1,1-0.2,1.2-0.2
	c0.1,0,0.2,0,0.2,0c0.1,0,0.1,0.1,0.1,0.2c0,0.5,0,2.1,0,3.4v2.3c0,0.4,0,0.9,0.1,1c0.1,0.1,0.3,0.2,0.5,0.2c0.1,0,0.2,0,0.2,0.1
	l0,0.1c0,0.1,0,0.1-0.1,0.1l-1.2,0.4c-0.1,0-0.1,0-0.1-0.1l-0.1-0.5c-0.3,0.3-1,0.6-1.6,0.6c-0.3,0-0.8,0-1.2-0.5
	c-0.5-0.5-0.7-1-0.7-1.7c0-0.7,0.2-1.3,0.7-1.8c0.4-0.4,1-0.7,1.6-0.7c0.4,0,0.8,0.1,1.1,0.2V46.6z M77.8,49.9c0-0.1,0-0.3-0.1-0.5
	c-0.1-0.3-0.5-0.6-1.1-0.6c-0.3,0-0.7,0.1-1,0.4c-0.4,0.4-0.5,1-0.5,1.4c0,1.2,0.8,2.1,1.4,2.1c0.6,0,1-0.3,1.2-0.6
	c0.1-0.2,0.1-0.2,0.1-0.4V49.9z"/>
<path class="st0" d="M83.4,48.7c0-0.2,0-2,0-2.5c0-0.2-0.1-0.4-0.5-0.4h-0.5c0,0-0.1,0-0.1-0.1v-0.3c0-0.1,0-0.1,0.1-0.1
	c0.1,0,0.5,0,1.5,0c0.9,0,1.3,0,1.4,0c0.1,0,0.1,0,0.1,0.1v0.3c0,0.1,0,0.1-0.1,0.1h-0.5c-0.3,0-0.4,0.1-0.4,0.3c0,0.2,0,1.5,0,2.8
	v0.5c0,1.3,0,2.4,0,2.6c0,0.7-0.1,1.2-0.4,1.8c-0.4,0.8-1.2,1.4-2,1.4c-0.2,0-0.7-0.1-0.7-0.6c0-0.3,0.3-0.5,0.6-0.5
	c0.4,0,0.7,0.2,0.8,0.6c0.2-0.1,0.5-0.3,0.6-0.7c0.3-0.8,0.1-3.8,0.1-4.6V48.7z"/>
<path class="st0" d="M85.9,52.4c-0.5-0.6-0.6-1-0.6-1.7c0-0.5,0.3-1.2,0.9-1.7c0.6-0.4,1.1-0.5,1.4-0.5c0.6,0,1.2,0.3,1.5,0.6
	c0.5,0.5,0.7,1,0.7,1.7c0,1.2-1,2.3-2.3,2.3C87,53.1,86.4,52.9,85.9,52.4 M89,50.7c0-1.2-0.9-1.9-1.4-1.9c-0.3,0-0.6,0.1-0.8,0.3
	c-0.4,0.4-0.6,0.9-0.6,1.7c0,0.6,0.1,1,0.4,1.5c0.2,0.3,0.6,0.6,1,0.6C88.5,52.8,89,51.8,89,50.7"/>
<path class="st0" d="M94.7,50.9c0,0.5,0,1,0,1.2c0,0.3,0.1,0.4,0.3,0.4c0.1,0,0.2,0,0.3,0c0.1,0,0.1,0,0.1,0l0,0.1
	c0,0.1,0,0.1-0.1,0.1l-1.1,0.4c-0.1,0-0.1,0-0.2,0c0,0-0.1,0-0.1-0.1l-0.1-0.6h0c-0.3,0.4-0.9,0.7-1.4,0.7c-0.3,0-0.6,0-1-0.5
	c-0.4-0.6-0.4-0.9-0.4-2.1v-1.2c0-0.3-0.2-0.4-0.4-0.4c-0.2,0-0.2,0-0.2-0.1v-0.2c0-0.1,0-0.1,0.1-0.1h0.9c0.1,0,0.1,0,0.1,0
	c0,0,0.1,0,0.1,0c0.1,0,0.1,0.1,0.1,0.1c0,0.1,0,0.6,0,1.2v0.8c0,0.4-0.1,1.1,0.2,1.6c0.3,0.4,0.6,0.4,0.8,0.4
	c0.3,0,0.7-0.3,0.9-0.5c0-0.1,0.1-0.2,0.1-0.3v-2.5c0-0.3-0.2-0.3-0.5-0.4c-0.2,0-0.2,0-0.2-0.1v-0.2c0-0.1,0-0.1,0.1-0.1h1
	c0.1,0,0.1,0,0.2,0c0.1,0,0.1,0,0.1,0c0.1,0,0.1,0.1,0.1,0.1c0,0.1-0.1,0.4-0.1,1.4V50.9z"/>
<path class="st0" d="M96.6,50.2c0-0.5-0.1-0.6-0.4-0.8l-0.2-0.1c-0.1,0-0.1,0-0.1-0.1v-0.1c0,0,0-0.1,0.1-0.1l1-0.5
	c0.1,0,0.1,0,0.1,0c0.1,0,0.1,0.1,0.1,0.1l0.1,0.7h0c0.3-0.5,0.8-0.9,1.3-0.9c0.4,0,0.5,0.2,0.5,0.5c0,0.3-0.3,0.5-0.4,0.5
	c-0.1,0-0.2,0-0.3-0.1c-0.1-0.1-0.2-0.1-0.3-0.1c-0.2,0-0.4,0.1-0.6,0.4c-0.1,0.1-0.1,0.3-0.1,0.3v2.2c0,0.3,0.1,0.4,0.3,0.4h0.5
	c0.1,0,0.1,0,0.1,0.1v0.2c0,0.1,0,0.1-0.1,0.1c-0.1,0-0.6,0-1.1,0c-0.7,0-1.1,0-1.2,0c0,0-0.1,0-0.1-0.1v-0.2c0-0.1,0-0.1,0.1-0.1
	h0.4c0.2,0,0.2-0.1,0.2-0.2c0-0.3,0-0.7,0-1.3V50.2z"/>
<path class="st0" d="M104,52.4c0,0.2,0.1,0.2,0.2,0.2h0.3c0.1,0,0.1,0,0.1,0.1v0.2c0,0.1,0,0.1-0.1,0.1c-0.1,0-0.4,0-1,0
	c-0.5,0-0.9,0-1,0c-0.1,0-0.1,0-0.1-0.1v-0.2c0-0.1,0-0.1,0.1-0.1h0.3c0.1,0,0.2-0.1,0.2-0.2c0-0.3,0-0.6,0-0.9v-1.4
	c0-0.4,0-0.7-0.3-1c-0.3-0.2-0.5-0.2-0.8-0.2c-0.2,0-0.5,0.1-0.9,0.4c-0.2,0.2-0.2,0.5-0.2,0.7v2.2c0,0.3,0,0.3,0.3,0.3h0.3
	c0.1,0,0.1,0,0.1,0.1v0.2c0,0.1,0,0.1-0.1,0.1c-0.1,0-0.4,0-0.9,0c-0.5,0-0.9,0-0.9,0c-0.1,0-0.1,0-0.1-0.1v-0.2
	c0-0.1,0-0.1,0.1-0.1h0.3c0.1,0,0.2,0,0.2-0.2V50c0-0.3-0.2-0.5-0.4-0.6l-0.1,0c-0.1,0-0.1-0.1-0.1-0.1v-0.1c0-0.1,0-0.1,0.1-0.1
	l0.9-0.5c0.1,0,0.1-0.1,0.2-0.1c0.1,0,0.1,0,0.1,0.1l0.1,0.6h0c0.3-0.4,0.9-0.8,1.5-0.8c0.3,0,0.6,0.1,0.9,0.2
	c0.3,0.2,0.6,0.7,0.6,1V52.4z"/>
<path class="st0" d="M108.5,51.7c0,0.6,0.1,0.8,0.3,0.8c0.2,0,0.3-0.1,0.4-0.2c0-0.1,0.1-0.1,0.1,0l0.1,0.1c0,0,0.1,0.1,0,0.2
	c-0.1,0.2-0.3,0.5-0.8,0.5c-0.4,0-0.7-0.3-0.8-0.7h0c-0.2,0.3-0.6,0.5-1,0.6c-0.2,0.1-0.4,0.1-0.6,0.1c-0.3,0-0.6-0.2-0.6-0.9
	c0-0.5,0.2-0.9,1.1-1.3c0.5-0.2,1-0.5,1.2-0.6v-0.7c0-0.2,0-0.5-0.1-0.6c-0.1-0.1-0.3-0.2-0.6-0.2c-0.2,0-0.5,0.1-0.7,0.2
	c-0.1,0.1-0.1,0.3-0.1,0.5c0,0.4-0.1,0.6-0.6,0.6c-0.2,0-0.3-0.1-0.3-0.3c0-0.3,0.3-0.7,0.7-1c0.4-0.3,0.8-0.4,1.3-0.4
	c0.5,0,0.7,0.1,0.8,0.3c0.2,0.2,0.2,0.5,0.2,0.8v1.6V51.7z M107.7,50.7c-0.4,0.3-1.4,0.5-1.4,1.4c0,0.4,0.2,0.6,0.6,0.6
	c0.3,0,0.9-0.4,0.9-0.7V50.7z"/>
<path class="st0" d="M111.2,49.8c0,0.6,0,2.1,0,2.5c0,0.2,0.1,0.3,0.3,0.3h0.5c0.1,0,0.1,0,0.1,0.1v0.2c0,0.1,0,0.1-0.1,0.1
	c-0.1,0-0.5,0-1.2,0c-0.7,0-1.1,0-1.2,0c-0.1,0-0.1,0-0.1-0.1v-0.2c0-0.1,0-0.1,0.1-0.1h0.5c0.1,0,0.2-0.1,0.2-0.3
	c0-0.3,0-2.1,0-2.8V49c0-0.8,0-1.7,0-2c0-0.4-0.2-0.5-0.5-0.6l-0.2-0.1c-0.1,0-0.1,0-0.1-0.1v-0.1c0,0,0-0.1,0.1-0.1
	c0.4-0.2,0.8-0.4,1.2-0.6c0.1-0.1,0.2-0.1,0.2-0.1c0.1,0,0.1,0.1,0.1,0.2c0,0.6,0,2.8,0,3.4V49.8z"/>
<path class="st0" d="M113.2,49.9c0-0.4-0.1-0.6-0.6-0.6c-0.1,0-0.1,0-0.1-0.1v-0.1c0,0,0-0.1,0.1-0.1c0.3-0.1,0.7-0.3,1.1-0.5
	c0.1,0,0.1-0.1,0.2-0.1c0.1,0,0.1,0.1,0.1,0.1c0,0.2,0,0.8,0,1.7v1.2c0,0.4,0,0.8,0,0.9c0,0.2,0.1,0.3,0.2,0.3h0.5
	c0.1,0,0.1,0,0.1,0.1v0.2c0,0.1,0,0.1-0.1,0.1c-0.1,0-0.6,0-1,0c-0.6,0-1,0-1.1,0c-0.1,0-0.1,0-0.1-0.1v-0.2c0-0.1,0-0.1,0.1-0.1
	h0.5c0.1,0,0.2,0,0.2-0.2c0-0.3,0-0.6,0-1V49.9z M112.7,46.7c0-0.3,0.2-0.5,0.6-0.5c0.4,0,0.6,0.3,0.6,0.5c0,0.3-0.2,0.6-0.6,0.6
	C113.1,47.2,112.7,47,112.7,46.7"/>
<path class="st0" d="M115.7,52.8c-0.1,0-0.1-0.1-0.1-0.1l-0.2-1c0-0.1,0-0.1,0.1-0.1l0.1,0c0,0,0.1,0,0.1,0.1l0.3,0.5
	c0.2,0.4,0.4,0.7,0.9,0.7c0.4,0,0.8-0.2,0.8-0.7c0-0.5-0.2-0.8-1-1c-0.6-0.2-1.2-0.5-1.2-1.3c0-0.7,0.7-1.3,1.5-1.3
	c0.5,0,0.8,0.1,1,0.2c0.2,0.1,0.2,0.1,0.2,0.2l0.2,0.7c0,0,0,0.1-0.1,0.1l-0.1,0c0,0-0.1,0-0.1-0.1l-0.4-0.5
	c-0.1-0.2-0.3-0.4-0.7-0.4c-0.4,0-0.8,0.2-0.8,0.7c0,0.6,0.5,0.7,1,0.9c0.8,0.2,1.3,0.5,1.3,1.4c0,0.9-0.7,1.4-1.6,1.4
	C116.2,53.1,115.8,52.9,115.7,52.8"/>
<path class="st0" d="M122.7,50.3c0-0.8-0.1-1-0.3-1.1c-0.1-0.1-0.4-0.2-0.7-0.2c-0.3,0-0.7,0.1-1,0.6c-0.1,0.2-0.1,0.4-0.1,0.7v2.1
	c0,0.2,0.1,0.3,0.2,0.3h0.4c0.1,0,0.1,0,0.1,0.1v0.2c0,0.1,0,0.1-0.1,0.1c-0.1,0-0.4,0-1,0c-0.6,0-0.9,0-1,0c-0.1,0-0.1,0-0.1-0.1
	v-0.2c0-0.1,0-0.1,0.1-0.1h0.4c0.1,0,0.1-0.1,0.2-0.3c0-0.2,0-0.4,0-0.5V50c0-0.2,0-0.4-0.3-0.5l-0.2-0.1c-0.1,0-0.1-0.1-0.1-0.1
	v-0.1c0,0,0-0.1,0.1-0.1l0.9-0.5c0.1,0,0.2-0.1,0.2-0.1c0.1,0,0.1,0.1,0.1,0.1l0,0.6h0c0.3-0.4,0.9-0.8,1.6-0.8c0.6,0,1,0.3,1.2,0.8
	h0.1c0.3-0.4,0.9-0.8,1.6-0.8c0.4,0,0.7,0.1,1,0.3c0.2,0.3,0.5,0.5,0.5,1.3v2.4c0,0.2,0.1,0.2,0.2,0.2h0.3c0.1,0,0.1,0,0.1,0.1v0.2
	c0,0.1,0,0.1-0.1,0.1c-0.1,0-0.4,0-0.9,0c-0.5,0-0.9,0-1,0c-0.1,0-0.1,0-0.1-0.1v-0.2c0-0.1,0-0.1,0.1-0.1h0.3
	c0.1,0,0.2-0.1,0.2-0.2c0-0.2,0-0.6,0-0.9V50c0-0.3-0.1-0.7-0.3-0.8c-0.2-0.1-0.5-0.2-0.8-0.2c-0.3,0-0.8,0.2-0.9,0.6
	c-0.2,0.3-0.1,0.6-0.1,1.1v1.8c0,0.1,0.1,0.2,0.2,0.2h0.4c0.1,0,0.1,0,0.1,0.1v0.2c0,0.1,0,0.1-0.1,0.1c-0.1,0-0.3,0-0.9,0
	c-0.6,0-0.9,0-1,0c-0.1,0-0.1,0-0.1-0.1v-0.2c0-0.1,0-0.1,0.1-0.1h0.3c0.2,0,0.2,0,0.2-0.2V50.3z"/>
</svg>
